<svg width="72" height="72" viewBox="0 0 72 72" fill="none" xmlns="http://www.w3.org/2000/svg">
<path d="M39.375 14.625V47.25H5.625C5.02826 47.25 4.45597 47.0129 4.03401 46.591C3.61205 46.169 3.375 45.5967 3.375 45V16.875C3.375 16.2783 3.61205 15.706 4.03401 15.284C4.45597 14.8621 5.02826 14.625 5.625 14.625H39.375Z" fill="#5771E5"/>
<path d="M59.625 46.125V38.25C59.625 36.7582 59.0324 35.3274 57.9775 34.2725C56.9226 33.2176 55.4918 32.625 54 32.625C52.5082 32.625 51.0774 33.2176 50.0225 34.2725C48.9676 35.3274 48.375 36.7582 48.375 38.25V46.125H59.625Z" fill="#B36F42"/>
<path d="M13.5 48.375H16.875V51.75H13.5V48.375Z" fill="#FFBFA1"/>
<path d="M28.125 55.447V60.75H25.875L21.375 57.375V69.75L5.62499 69.7486V60.75L5.00483 60.1298C4.22646 59.3509 3.69645 58.3587 3.48181 57.2786C3.26717 56.1986 3.37752 55.0791 3.79891 54.0618C4.22031 53.0444 4.93384 52.1748 5.84932 51.5628C6.7648 50.9509 7.84115 50.624 8.94233 50.6236H14.1595L17.3405 50.625H20.835C21.9093 50.6249 22.9483 51.0089 23.7642 51.7078L28.125 55.447Z" fill="#ED6445"/>
<path d="M17.9995 46.1242L19.0965 45.5757C19.4429 45.4025 19.7343 45.1362 19.938 44.8067C20.1416 44.4772 20.2495 44.0974 20.2495 43.7101V41.6242H15.1049C14.7464 41.6242 14.3913 41.6948 14.06 41.832C13.7288 41.9693 13.4278 42.1704 13.1742 42.4239C12.9207 42.6775 12.7196 42.9785 12.5823 43.3098C12.4451 43.641 12.3745 43.9961 12.3745 44.3546C12.3745 44.7785 12.4732 45.1966 12.6628 45.5757L13.4995 47.2492L16.875 47.25L17.9995 46.1242Z" fill="#B36F42"/>
<path d="M66.375 3.375H34.875C33.6324 3.375 32.625 4.38236 32.625 5.625V27C32.625 28.2426 33.6324 29.25 34.875 29.25H66.375C67.6176 29.25 68.625 28.2426 68.625 27V5.625C68.625 4.38236 67.6176 3.375 66.375 3.375Z" fill="#89A8F5"/>
<path d="M13.4995 46.1242L14.6245 44.9992C14.7722 45.2947 14.9767 45.5582 15.2263 45.7746C15.4758 45.9911 15.7656 46.1562 16.079 46.2607C16.3924 46.3652 16.7233 46.4069 17.0528 46.3835C17.3823 46.36 17.704 46.2719 17.9995 46.1242V48.3742C17.9995 48.9709 17.7624 49.5432 17.3405 49.9652C16.9185 50.3872 16.3462 50.6242 15.7495 50.6242C15.1528 50.6242 14.5805 50.3872 14.1585 49.9652C13.7365 49.5432 13.4995 48.9709 13.4995 48.3742V46.1242Z" fill="#FFCEB6"/>
<path d="M16.8746 55.1243L17.9996 60.7493L15.7496 62.9993L13.4996 60.7493L14.6246 55.1243H16.8746Z" fill="#F7C04A"/>
<path d="M14.6246 55.1243L13.4996 52.8743L15.7496 50.6243L17.9996 52.8743L16.8746 55.1243H14.6246Z" fill="#F5A431"/>
<path d="M5.61756 60.745C5.82851 60.5341 6.11462 60.4156 6.41295 60.4156C6.71128 60.4156 6.99739 60.5341 7.20834 60.745L7.86643 61.4031C8.07738 61.6141 8.19589 61.9002 8.19589 62.1985C8.19589 62.4968 8.07738 62.7829 7.86643 62.9939C7.65548 63.2048 7.36937 63.3233 7.07104 63.3233C6.77271 63.3233 6.4866 63.2048 6.27565 62.9939L5.61756 62.3358C5.40661 62.1248 5.2881 61.8387 5.2881 61.5404C5.2881 61.2421 5.40661 60.956 5.61756 60.745L5.61756 60.745Z" fill="#DE402F"/>
<path d="M10.5831 56.2444C10.1438 55.8051 9.43161 55.8051 8.99234 56.2444C8.55306 56.6837 8.55306 57.3959 8.99234 57.8351L10.2136 59.0564C10.6529 59.4957 11.3651 59.4957 11.8044 59.0564C12.2437 58.6172 12.2437 57.905 11.8044 57.4657L10.5831 56.2444Z" fill="#DE402F"/>
<path d="M38.2504 52.875H38.25H28.1254L23.625 67.5H33.75L38.2504 52.875Z" fill="#E4E9F2"/>
<path d="M49.5 69.75V56.25H57.375C59.5657 59.171 60.75 62.7238 60.75 66.375V69.75H49.5Z" fill="#EB8117"/>
<path d="M7.875 22.5H18V32.625H7.875V22.5Z" fill="#5EBD92"/>
<path d="M21.375 22.5H29.25V24.75H21.375V22.5Z" fill="#3D44D1"/>
<path d="M21.375 27H25.875V29.25H21.375V27Z" fill="#3D44D1"/>
<path d="M21.375 31.5H23.625V33.75H21.375V31.5Z" fill="#3D44D1"/>
<path d="M25.875 31.5H32.625V33.75H25.875V31.5Z" fill="#3D44D1"/>
<path d="M7.875 36H15.75V38.25H7.875V36Z" fill="#3D44D1"/>
<path d="M18 36H32.625V38.25H18V36Z" fill="#3D44D1"/>
<path d="M37.125 10.125H39.375V12.375H37.125V10.125Z" fill="#6E8BEB"/>
<path d="M41.625 10.125H51.75V12.375H41.625V10.125Z" fill="#6E8BEB"/>
<path d="M41.625 14.625H48.375V16.875H41.625V14.625Z" fill="#6E8BEB"/>
<path d="M50.625 14.625H58.5V16.875H50.625V14.625Z" fill="#6E8BEB"/>
<path d="M37.125 19.125H39.375V21.375H37.125V19.125Z" fill="#6E8BEB"/>
<path d="M41.625 19.125H54V21.375H41.625V19.125Z" fill="#6E8BEB"/>
<path d="M45 23.625H50.625V25.875H45V23.625Z" fill="#6E8BEB"/>
<path d="M52.875 23.625H59.625V25.875H52.875V23.625Z" fill="#6E8BEB"/>
<path d="M20.25 55.1236C20.1456 55.2284 20.0216 55.3115 19.885 55.3682C19.7484 55.4249 19.602 55.454 19.4541 55.454C19.3062 55.454 19.1598 55.4249 19.0232 55.3682C18.8866 55.3115 18.7626 55.2284 18.6582 55.1236L15.75 52.2155L12.8405 55.1236C12.7362 55.2285 12.6122 55.3117 12.4756 55.3685C12.3391 55.4254 12.1926 55.4547 12.0447 55.4549C11.8968 55.4551 11.7503 55.4261 11.6136 55.3695C11.4769 55.313 11.3528 55.2301 11.2482 55.1255C11.1436 55.0209 11.0606 54.8967 11.0041 54.76C10.9476 54.6233 10.9186 54.4769 10.9188 54.3289C10.9189 54.181 10.9483 54.0346 11.0051 53.898C11.062 53.7615 11.1452 53.6375 11.25 53.5332L14.1596 50.6236L17.3405 50.625L20.25 53.5331C20.4608 53.7442 20.5791 54.0302 20.5791 54.3284C20.5791 54.6266 20.4608 54.9126 20.25 55.1236V55.1236Z" fill="#DE402F"/>
<path d="M38.25 64.125H37.125C36.5283 64.125 35.956 63.8879 35.534 63.466C35.1121 63.044 34.875 62.4717 34.875 61.875V58.5H38.25V57.0455C38.25 56.8345 38.3338 56.6322 38.483 56.483C38.6322 56.3338 38.8345 56.25 39.0455 56.25C39.15 56.25 39.2534 56.2706 39.3499 56.3106C39.4464 56.3505 39.5341 56.4091 39.608 56.483L41.625 58.5V60.75C41.625 61.6451 41.2694 62.5035 40.6365 63.1365C40.0035 63.7694 39.1451 64.125 38.25 64.125Z" fill="#FFCEB6"/>
<path d="M7.87449 62.9992L11.812 59.0617L15.7495 62.9992H22.4995L25.5391 60.9728C25.7578 60.827 26.0147 60.7492 26.2776 60.7492C26.4885 60.7492 26.6964 60.7993 26.8842 60.8954C27.0719 60.9916 27.2341 61.1309 27.3575 61.302C27.4808 61.4732 27.5617 61.6711 27.5935 61.8796C27.6253 62.0882 27.6071 62.3013 27.5404 62.5014L26.9995 64.1242L29.7219 65.9391C29.9226 66.073 30.0872 66.2543 30.2011 66.467C30.3149 66.6798 30.3745 66.9173 30.3745 67.1586C30.3745 67.5473 30.2201 67.9201 29.9452 68.1949C29.6704 68.4698 29.2976 68.6242 28.9089 68.6242H15.3635C14.17 68.6242 13.0254 68.1501 12.1815 67.3062L7.87449 62.9992H7.87449Z" fill="#FFCEB6"/>
<path d="M6.75 19.125C7.37132 19.125 7.875 18.6213 7.875 18C7.875 17.3787 7.37132 16.875 6.75 16.875C6.12868 16.875 5.625 17.3787 5.625 18C5.625 18.6213 6.12868 19.125 6.75 19.125Z" fill="#F28868"/>
<path d="M10.125 19.125C10.7463 19.125 11.25 18.6213 11.25 18C11.25 17.3787 10.7463 16.875 10.125 16.875C9.50368 16.875 9 17.3787 9 18C9 18.6213 9.50368 19.125 10.125 19.125Z" fill="#F7C04A"/>
<path d="M13.5 19.125C14.1213 19.125 14.625 18.6213 14.625 18C14.625 17.3787 14.1213 16.875 13.5 16.875C12.8787 16.875 12.375 17.3787 12.375 18C12.375 18.6213 12.8787 19.125 13.5 19.125Z" fill="#90D4B1"/>
<path d="M36 7.875C36.6213 7.875 37.125 7.37132 37.125 6.75C37.125 6.12868 36.6213 5.625 36 5.625C35.3787 5.625 34.875 6.12868 34.875 6.75C34.875 7.37132 35.3787 7.875 36 7.875Z" fill="#F28868"/>
<path d="M39.375 7.875C39.9963 7.875 40.5 7.37132 40.5 6.75C40.5 6.12868 39.9963 5.625 39.375 5.625C38.7537 5.625 38.25 6.12868 38.25 6.75C38.25 7.37132 38.7537 7.875 39.375 7.875Z" fill="#F7C04A"/>
<path d="M42.75 7.875C43.3713 7.875 43.875 7.37132 43.875 6.75C43.875 6.12868 43.3713 5.625 42.75 5.625C42.1287 5.625 41.625 6.12868 41.625 6.75C41.625 7.37132 42.1287 7.875 42.75 7.875Z" fill="#90D4B1"/>
<path d="M67.5 53.8073C67.5 55.3972 67.011 56.9485 66.0994 58.2511L60.3436 66.4735C60.1421 66.7614 59.8799 67.0016 59.5756 67.1774C59.2713 67.3531 58.9322 67.4601 58.5821 67.4908C58.232 67.5215 57.8795 67.4751 57.5492 67.355C57.219 67.2349 56.919 67.0439 56.6705 66.7955L55.125 65.25L57.375 63H56.4328C56.1223 63.0001 55.8219 62.8896 55.5853 62.6884C55.3488 62.4872 55.1916 62.2084 55.1419 61.9018C55.0921 61.5953 55.1531 61.2811 55.3139 61.0154C55.4747 60.7498 55.7248 60.55 56.0194 60.4519L58.5 59.625L61.875 54L59.625 49.5L57.375 56.25H49.5V54C49.0638 53.5628 48.738 53.028 48.5495 52.4399C48.3609 51.8518 48.3151 51.2273 48.4158 50.618L46.2656 50.9766L43.9087 51.3689C43.2025 51.4867 42.4783 51.4342 41.7964 51.2157C41.1145 50.9973 40.4945 50.6193 39.9881 50.1131L34.875 45C34.5795 45.0001 34.2869 44.9419 34.0139 44.8289C33.7408 44.7158 33.4928 44.5501 33.2838 44.3412C33.0749 44.1322 32.9092 43.8841 32.7961 43.6111C32.6831 43.3381 32.6249 43.0455 32.625 42.75V40.5H37.125L42.75 46.125L44.062 45.4683L46.2994 44.3503C46.9243 44.0382 47.6132 43.8754 48.3117 43.875H60.3886C61.1818 43.8748 61.961 44.0845 62.647 44.4826C63.3331 44.8807 63.9017 45.4531 64.2951 46.1419L66.2442 49.552L66.4791 49.964C67.1491 51.134 67.5011 52.4591 67.5 53.8073V53.8073Z" fill="#FFCEB6"/>
<path d="M66.2442 49.552L60.75 51.75L59.625 49.5L57.375 56.25H49.5V54C49.0638 53.5628 48.738 53.028 48.5495 52.4399C48.3609 51.8518 48.3151 51.2273 48.4158 50.618L46.2656 50.9766L44.062 45.4683L46.2994 44.3503C46.9243 44.0382 47.6132 43.8754 48.3117 43.875H60.3886C61.1818 43.8748 61.961 44.0845 62.647 44.4826C63.3331 44.8807 63.9017 45.4531 64.2952 46.1419L66.2442 49.552Z" fill="#F5A431"/>
<path d="M48.5837 50.6462L48.5749 50.6448C48.4036 50.6171 48.2411 50.5499 48.1002 50.4485C47.9593 50.3471 47.844 50.2143 47.7634 50.0606C47.6828 49.9069 47.6391 49.7366 47.6357 49.563C47.6323 49.3895 47.6694 49.2176 47.744 49.0609C47.8426 48.8596 47.9545 48.665 48.0789 48.4786L48.885 47.2694C48.9667 47.1469 49.0716 47.0417 49.1939 46.9598C49.3162 46.8779 49.4534 46.8209 49.5978 46.792C49.7421 46.7632 49.8907 46.763 50.0351 46.7916C50.1795 46.8201 50.3168 46.8769 50.4393 46.9585L50.4462 46.9631C50.6936 47.128 50.8653 47.3844 50.9236 47.6759C50.9819 47.9674 50.922 48.2701 50.7571 48.5174L49.9511 49.7265C49.8891 49.8194 49.8327 49.9159 49.7823 50.0155C49.6763 50.2351 49.5027 50.4148 49.2869 50.5283C49.0712 50.6419 48.8247 50.6832 48.5837 50.6462V50.6462Z" fill="#EB8117"/>
<path d="M56.25 39.375V45.5625C56.25 45.7841 56.2064 46.0035 56.1215 46.2083C56.0367 46.413 55.9124 46.599 55.7557 46.7557C55.599 46.9124 55.413 47.0367 55.2083 47.1215C55.0035 47.2064 54.7841 47.25 54.5625 47.25C54.3409 47.25 54.1215 47.2064 53.9167 47.1215C53.712 47.0367 53.526 46.9124 53.3693 46.7557C53.2126 46.599 53.0883 46.413 53.0035 46.2083C52.9186 46.0035 52.875 45.7841 52.875 45.5625V39.375H56.25Z" fill="#FFCEB6"/>
<path d="M55.125 39.375V42.1875C55.1251 42.4091 55.0815 42.6286 54.9967 42.8334C54.9119 43.0381 54.7876 43.2242 54.6309 43.3809C54.4742 43.5376 54.2881 43.6619 54.0834 43.7467C53.8786 43.8315 53.6591 43.8751 53.4375 43.875H52.875V39.375H55.125Z" fill="#FFBFA1"/>
<path d="M56.25 38.25L55.125 37.125C54.9773 37.4205 54.7728 37.684 54.5232 37.9004C54.2736 38.1168 53.9839 38.282 53.6705 38.3865C53.3571 38.491 53.0262 38.5327 52.6967 38.5092C52.3672 38.4858 52.0455 38.3977 51.75 38.25V40.5C51.75 41.0967 51.9871 41.669 52.409 42.091C52.831 42.5129 53.4033 42.75 54 42.75C54.5967 42.75 55.169 42.5129 55.591 42.091C56.0129 41.669 56.25 41.0967 56.25 40.5V38.25Z" fill="#FFCEB6"/>
</svg>
