<svg width="142" height="141" viewBox="0 0 142 141" fill="none" xmlns="http://www.w3.org/2000/svg">
<path d="M59.9844 6.60938H123.875V134.391H59.9844V6.60938Z" fill="#84D2F4"/>
<path d="M123.875 63.8906V134.391H59.9844V6.60938H90.8281V88.125C90.8293 94.5527 93.1799 100.758 97.4375 105.574V94.7344H99.6406V85.9219H101.844V46.2656H106.25C110.924 46.2656 115.407 48.1225 118.713 51.4279C122.018 54.7332 123.875 59.2162 123.875 63.8906Z" fill="#57B7EB"/>
<path d="M59.9844 59.4844H123.875V101.344H59.9844V59.4844Z" fill="#F9E109"/>
<path d="M123.875 59.4844V63.8906C123.872 62.4049 123.687 60.925 123.324 59.4844H123.875Z" fill="#CC5144"/>
<path d="M90.8281 88.125C90.8195 92.7704 92.0517 97.3339 94.3972 101.344H59.9844V59.4844H90.8281V88.125Z" fill="#FCBC04"/>
<path d="M123.875 59.4844V101.344H97.4375V94.7344H99.6406V85.9219H101.844V59.4844H123.875Z" fill="#FCBC04"/>
<path d="M93.0312 19.8281H123.875V28.6406H93.0312V19.8281Z" fill="#F9E109"/>
<path d="M104.047 94.7344H134.891V134.391H104.047V94.7344Z" fill="#D0D8DA"/>
<path d="M106.25 85.9219H132.688V94.7344H106.25V85.9219Z" fill="#93999A"/>
<path d="M108.453 46.2656H112.859C117.534 46.2656 122.017 48.1225 125.322 51.4279C128.627 54.7332 130.484 59.2162 130.484 63.8906V85.9219H108.453V46.2656Z" fill="#F8664F"/>
<path d="M132.688 90.3281V94.7344H106.25V85.9219H112.859C112.863 87.0894 113.328 88.2081 114.154 89.0337C114.979 89.8593 116.098 90.3246 117.266 90.3281H132.688Z" fill="#656B76"/>
<path d="M134.891 125.578V134.391H104.047V94.7344H112.859V110.156C112.859 114.246 114.484 118.169 117.376 121.061C120.268 123.953 124.191 125.578 128.281 125.578H134.891Z" fill="#93999A"/>
<path d="M123.875 94.7344H134.891V134.391H123.875V94.7344Z" fill="#E9F1F2"/>
<path d="M134.891 125.578V134.391H123.875V124.939C125.304 125.367 126.789 125.582 128.281 125.578H134.891Z" fill="#D0D8DA"/>
<path d="M130.484 79.3125V85.9219H108.453V46.2656H112.859C114.345 46.2682 115.825 46.4532 117.266 46.8164V68.2969C117.266 71.2184 118.426 74.0203 120.492 76.0861C122.558 78.1519 125.36 79.3125 128.281 79.3125H130.484Z" fill="#CC5144"/>
<path d="M7.10938 81.5156H82.0156V125.578C82.0156 127.915 81.0872 130.157 79.4345 131.81C77.7818 133.462 75.5403 134.391 73.2031 134.391H15.9219C13.5847 134.391 11.3432 133.462 9.6905 131.81C8.03783 130.157 7.10938 127.915 7.10938 125.578V81.5156Z" fill="#E9F1F2"/>
<path d="M82.0156 121.172V125.578C82.0156 127.915 81.0872 130.157 79.4345 131.81C77.7818 133.462 75.5403 134.391 73.2031 134.391H15.9219C13.5847 134.391 11.3432 133.462 9.6905 131.81C8.03783 130.157 7.10938 127.915 7.10938 125.578V81.5156H20.3281C20.3281 92.0331 24.5062 102.12 31.9432 109.557C39.3802 116.994 49.4669 121.172 59.9844 121.172H82.0156Z" fill="#D0D8DA"/>
<path d="M15.9219 19.8281H73.2031C75.5403 19.8281 77.7818 20.7566 79.4345 22.4092C81.0872 24.0619 82.0156 26.3034 82.0156 28.6406V72.7031H7.10938V28.6406C7.10938 26.3034 8.03783 24.0619 9.6905 22.4092C11.3432 20.7566 13.5847 19.8281 15.9219 19.8281V19.8281Z" fill="#E9F1F2"/>
<path d="M82.0156 59.4844V72.7031H7.10938V28.6406C7.10938 26.3034 8.03783 24.0619 9.6905 22.4092C11.3432 20.7566 13.5847 19.8281 15.9219 19.8281H20.3281C20.3281 30.3456 24.5062 40.4323 31.9432 47.8693C39.3802 55.3063 49.4669 59.4844 59.9844 59.4844H82.0156Z" fill="#D0D8DA"/>
<path d="M15.9219 28.6406H73.2031V63.8906H15.9219V28.6406Z" fill="#57B7EB"/>
<path d="M22.5312 125.578C26.1815 125.578 29.1406 122.619 29.1406 118.969C29.1406 115.318 26.1815 112.359 22.5312 112.359C18.881 112.359 15.9219 115.318 15.9219 118.969C15.9219 122.619 18.881 125.578 22.5312 125.578Z" fill="#CC5144"/>
<path d="M44.5625 125.578C48.2128 125.578 51.1719 122.619 51.1719 118.969C51.1719 115.318 48.2128 112.359 44.5625 112.359C40.9122 112.359 37.9531 115.318 37.9531 118.969C37.9531 122.619 40.9122 125.578 44.5625 125.578Z" fill="#F89C8D"/>
<path d="M66.5938 125.578C70.244 125.578 73.2031 122.619 73.2031 118.969C73.2031 115.318 70.244 112.359 66.5938 112.359C62.9435 112.359 59.9844 115.318 59.9844 118.969C59.9844 122.619 62.9435 125.578 66.5938 125.578Z" fill="#F9E109"/>
<path d="M22.5312 103.547C26.1815 103.547 29.1406 100.588 29.1406 96.9375C29.1406 93.2872 26.1815 90.3281 22.5312 90.3281C18.881 90.3281 15.9219 93.2872 15.9219 96.9375C15.9219 100.588 18.881 103.547 22.5312 103.547Z" fill="#57B7EB"/>
<path d="M44.5625 103.547C48.2128 103.547 51.1719 100.588 51.1719 96.9375C51.1719 93.2872 48.2128 90.3281 44.5625 90.3281C40.9122 90.3281 37.9531 93.2872 37.9531 96.9375C37.9531 100.588 40.9122 103.547 44.5625 103.547Z" fill="#84D2F4"/>
<path d="M66.5938 103.547C70.244 103.547 73.2031 100.588 73.2031 96.9375C73.2031 93.2872 70.244 90.3281 66.5938 90.3281C62.9435 90.3281 59.9844 93.2872 59.9844 96.9375C59.9844 100.588 62.9435 103.547 66.5938 103.547Z" fill="#F9E109"/>
<path d="M7.10938 72.7031H82.0156V81.5156H7.10938V72.7031Z" fill="#57B7EB"/>
<path d="M73.2031 47.7417V60.2114L41.6324 28.6406H54.102L73.2031 47.7417Z" fill="#84D2F4"/>
<path d="M56.3052 63.8906H43.8355L15.9219 35.977V28.6406H21.0552L56.3052 63.8906Z" fill="#84D2F4"/>
<path d="M20.3281 72.7031H29.1406V81.5156H20.3281V72.7031Z" fill="#4891D3"/>
<path d="M59.9844 72.7031H68.7969V81.5156H59.9844V72.7031Z" fill="#4891D3"/>
<path d="M73.2031 59.4844V63.8906H15.9219V28.6406H21.3416C23.3288 37.4027 28.2364 45.2287 35.2585 50.8336C42.2805 56.4384 50.9997 59.489 59.9844 59.4844H73.2031Z" fill="#4891D3"/>
<path d="M56.3052 63.8906H43.8355L15.9219 35.977V28.6406H21.0552L21.4077 28.9931C23.1003 36.1409 26.7474 42.6771 31.9414 47.8711C37.1354 53.0651 43.6716 56.7122 50.8194 58.4048L56.3052 63.8906Z" fill="#57B7EB"/>
<path d="M66.5938 101.344C69.0273 101.344 71 99.371 71 96.9375C71 94.504 69.0273 92.5312 66.5938 92.5312C64.1602 92.5312 62.1875 94.504 62.1875 96.9375C62.1875 99.371 64.1602 101.344 66.5938 101.344Z" fill="#FCBC04"/>
<path d="M66.5938 123.375C69.0273 123.375 71 121.402 71 118.969C71 116.535 69.0273 114.562 66.5938 114.562C64.1602 114.562 62.1875 116.535 62.1875 118.969C62.1875 121.402 64.1602 123.375 66.5938 123.375Z" fill="#FCBC04"/>
<path d="M44.5625 101.344C46.996 101.344 48.9688 99.371 48.9688 96.9375C48.9688 94.504 46.996 92.5312 44.5625 92.5312C42.129 92.5312 40.1562 94.504 40.1562 96.9375C40.1562 99.371 42.129 101.344 44.5625 101.344Z" fill="#57B7EB"/>
<path d="M22.5312 101.344C24.9648 101.344 26.9375 99.371 26.9375 96.9375C26.9375 94.504 24.9648 92.5312 22.5312 92.5312C20.0977 92.5312 18.125 94.504 18.125 96.9375C18.125 99.371 20.0977 101.344 22.5312 101.344Z" fill="#4891D3"/>
<path d="M22.5312 123.375C24.9648 123.375 26.9375 121.402 26.9375 118.969C26.9375 116.535 24.9648 114.562 22.5312 114.562C20.0977 114.562 18.125 116.535 18.125 118.969C18.125 121.402 20.0977 123.375 22.5312 123.375Z" fill="#AD4038"/>
<path d="M51.0617 120.136C50.8901 121.11 50.5025 122.032 49.9275 122.835C49.3524 123.639 48.6044 124.303 47.7387 124.78C46.8729 125.256 45.9114 125.532 44.9248 125.588C43.9382 125.643 42.9517 125.477 42.0379 125.101C41.1241 124.725 40.3062 124.149 39.6445 123.415C38.9827 122.681 38.4939 121.809 38.214 120.861C37.9341 119.913 37.8703 118.915 38.0272 117.939C38.1842 116.964 38.5578 116.036 39.1208 115.224C42.7962 117.522 46.8332 119.183 51.0617 120.136Z" fill="#F8664F"/>
<path d="M51.0617 120.136C50.8901 121.11 50.5025 122.032 49.9275 122.835C49.3524 123.639 48.6044 124.303 47.7387 124.78C46.8729 125.256 45.9114 125.532 44.9248 125.588C43.9382 125.643 42.9517 125.477 42.0379 125.101C41.1241 124.725 40.3062 124.149 39.6445 123.415C38.9827 122.681 38.4939 121.809 38.214 120.861C37.9341 119.913 37.8703 118.915 38.0272 117.939C38.1842 116.964 38.5578 116.036 39.1208 115.224C42.7962 117.522 46.8332 119.183 51.0617 120.136Z" fill="#F8664F"/>
<path d="M44.5625 123.375C46.996 123.375 48.9688 121.402 48.9688 118.969C48.9688 116.535 46.996 114.562 44.5625 114.562C42.129 114.562 40.1562 116.535 40.1562 118.969C40.1562 121.402 42.129 123.375 44.5625 123.375Z" fill="#F8664F"/>
<path d="M48.9247 119.586C48.8307 120.251 48.5858 120.886 48.2086 121.443C47.8313 121.999 47.3318 122.462 46.7483 122.795C46.1648 123.129 45.5127 123.325 44.8419 123.367C44.1711 123.41 43.4994 123.299 42.8783 123.042C42.2571 122.785 41.7029 122.39 41.2581 121.886C40.8133 121.382 40.4897 120.783 40.3121 120.135C40.1344 119.486 40.1074 118.806 40.2332 118.146C40.3589 117.485 40.634 116.863 41.0375 116.325C43.53 117.717 46.1771 118.811 48.9247 119.586Z" fill="#CC5144"/>
<path d="M72.8066 121.172C72.3555 122.46 71.5153 123.576 70.4023 124.365C69.2892 125.155 67.9584 125.579 66.5938 125.579C65.2292 125.579 63.8983 125.155 62.7853 124.365C61.6723 123.576 60.8321 122.46 60.381 121.172H72.8066Z" fill="#FCBC04"/>
<path d="M70.4051 121.172C70.0178 121.84 69.4619 122.394 68.793 122.779C68.1241 123.164 67.3657 123.367 66.5937 123.367C65.8218 123.367 65.0634 123.164 64.3945 122.779C63.7256 122.394 63.1697 121.84 62.7823 121.172H70.4051Z" fill="#E59730"/>
<path d="M26.2766 102.379C25.4645 102.942 24.5365 103.316 23.5609 103.473C22.5853 103.63 21.5869 103.566 20.6392 103.286C19.6916 103.006 18.8187 102.517 18.0849 101.856C17.3511 101.194 16.775 100.376 16.399 99.4621C16.023 98.5483 15.8567 97.5618 15.9123 96.5753C15.968 95.5887 16.2441 94.6272 16.7204 93.7614C17.1967 92.8956 17.8611 92.1477 18.6646 91.5726C19.4682 90.9975 20.3905 90.6099 21.3636 90.4384C22.3174 94.6668 23.9784 98.7039 26.2766 102.379V102.379Z" fill="#4891D3"/>
<path d="M25.175 100.462C24.6374 100.866 24.0147 101.141 23.3544 101.267C22.6941 101.392 22.0138 101.365 21.3656 101.188C20.7173 101.01 20.1183 100.687 19.6144 100.242C19.1105 99.7969 18.715 99.2428 18.4582 98.6216C18.2014 98.0004 18.0901 97.3288 18.1328 96.658C18.1756 95.9872 18.3712 95.3351 18.7048 94.7516C19.0383 94.168 19.501 93.6685 20.0573 93.2913C20.6136 92.9141 21.2488 92.6691 21.9144 92.5752C22.6891 95.3227 23.7834 97.9699 25.175 100.462V100.462Z" fill="#2D72BC"/>
<path d="M29.1406 74.9062H59.9844V79.3125H29.1406V74.9062Z" fill="#84D2F4"/>
<path d="M68.7969 74.9062H82.0156V79.3125H68.7969V74.9062Z" fill="#84D2F4"/>
<path d="M7.10938 74.9062H20.3281V79.3125H7.10938V74.9062Z" fill="#84D2F4"/>
<path d="M59.9844 74.9062H68.7969V79.3125H59.9844V74.9062Z" fill="#57B7EB"/>
<path d="M20.3281 74.9062H29.1406V79.3125H20.3281V74.9062Z" fill="#57B7EB"/>
</svg>
