<svg width="73" height="72" viewBox="0 0 73 72" fill="none" xmlns="http://www.w3.org/2000/svg">
<path d="M36.5 14.625H59V37.125H36.5V14.625Z" fill="#4356E6"/>
<path d="M41 19.125H54.5V33.75H41V19.125Z" fill="#89A8F5"/>
<path d="M54.5 24.75V22.5H51.125V19.125H48.875V22.5H46.625V19.125H44.375V22.5H41V24.75H44.375V27H41V29.25H44.375V33.75H46.625V29.25H48.875V33.75H51.125V29.25H54.5V27H51.125V24.75H54.5ZM48.875 27H46.625V24.75H48.875V27Z" fill="#6E8BEB"/>
<path d="M42.125 57.375H53.375V68.625H42.125V57.375Z" fill="#4356E6"/>
<path d="M43.25 58.5H52.25V64.125H43.25V58.5Z" fill="#96CFFA"/>
<path d="M30.875 58.5H39.875V68.625H30.875V58.5Z" fill="#4356E6"/>
<path d="M55.625 58.5H64.625V68.625H55.625V58.5Z" fill="#4356E6"/>
<path d="M27.5 52.875H68V58.5H27.5V52.875Z" fill="#5771E5"/>
<path d="M63.5 58.5H68V68.625H63.5V58.5Z" fill="#6E8BEB"/>
<path d="M46.625 58.5H48.875V64.125H46.625V58.5Z" fill="#7AB8F5"/>
<path d="M34.25 61.875H36.5V65.25H34.25V61.875Z" fill="#96CFFA"/>
<path d="M59 61.875H61.25V65.25H59V61.875Z" fill="#96CFFA"/>
<path d="M33.125 54V36L62.375 22.5V54H33.125Z" fill="#5771E5"/>
<path d="M37.625 38.25H41V40.5H37.625V38.25Z" fill="#89A8F5"/>
<path d="M43.25 38.25H46.625V40.5H43.25V38.25Z" fill="#89A8F5"/>
<path d="M48.875 38.25H52.25V40.5H48.875V38.25Z" fill="#89A8F5"/>
<path d="M54.5 38.25H57.875V40.5H54.5V38.25Z" fill="#89A8F5"/>
<path d="M43.25 33.75H46.625V36H43.25V33.75Z" fill="#89A8F5"/>
<path d="M48.875 33.75H52.25V36H48.875V33.75Z" fill="#89A8F5"/>
<path d="M54.5 33.75H57.875V36H54.5V33.75Z" fill="#89A8F5"/>
<path d="M54.5 29.25H57.875V31.5H54.5V29.25Z" fill="#89A8F5"/>
<path d="M37.625 42.75H41V45H37.625V42.75Z" fill="#89A8F5"/>
<path d="M43.25 42.75H46.625V45H43.25V42.75Z" fill="#89A8F5"/>
<path d="M48.875 42.75H52.25V45H48.875V42.75Z" fill="#89A8F5"/>
<path d="M54.5 42.75H57.875V45H54.5V42.75Z" fill="#89A8F5"/>
<path d="M37.625 47.25H41V49.5H37.625V47.25Z" fill="#89A8F5"/>
<path d="M43.25 47.25H46.625V49.5H43.25V47.25Z" fill="#89A8F5"/>
<path d="M48.875 47.25H52.25V49.5H48.875V47.25Z" fill="#89A8F5"/>
<path d="M54.5 47.25H57.875V49.5H54.5V47.25Z" fill="#89A8F5"/>
<path d="M41 5.625H54.5V14.625H41V5.625Z" fill="#5771E5"/>
<path d="M44.375 9H46.625V11.25H44.375V9Z" fill="#89A8F5"/>
<path d="M48.875 9H51.125V11.25H48.875V9Z" fill="#89A8F5"/>
<path d="M46.625 2.25H48.875V5.625H46.625V2.25Z" fill="#89A8F5"/>
<path d="M52.25 58.5H56.75V68.625H52.25V58.5Z" fill="#6E8BEB"/>
<path d="M38.75 58.5H43.25V68.625H38.75V58.5Z" fill="#6E8BEB"/>
<path d="M27.5 58.5H32V68.625H27.5V58.5Z" fill="#6E8BEB"/>
<path d="M33.125 50.625H62.375V52.875H33.125V50.625Z" fill="#4356E6"/>
<path d="M9.4995 45C8.00765 45 6.57691 45.5926 5.52202 46.6475C4.46713 47.7024 3.8745 49.1332 3.8745 50.625V58.3829C3.87396 59.5772 4.18505 60.751 4.77704 61.7882C5.36903 62.8255 6.22142 63.6904 7.24998 64.2973V68.625H30.8745C32.6647 68.625 34.3816 67.9138 35.6475 66.648C36.9133 65.3821 37.6245 63.6652 37.6245 61.875V50.625C37.6245 49.1332 37.0319 47.7024 35.977 46.6475C34.9221 45.5926 33.4913 45 31.9995 45H9.4995Z" fill="#ED6445"/>
<path d="M26.375 45V50.625L25.79 51.5995L23 56.25H18.5L15.71 51.5995L15.125 50.625V45H26.375Z" fill="#FCEDC0"/>
<path d="M30.8745 60.75H28.6245V52.875C28.6245 52.5766 28.743 52.2905 28.954 52.0795C29.165 51.8685 29.4512 51.75 29.7495 51.75C30.0479 51.75 30.334 51.8685 30.545 52.0795C30.756 52.2905 30.8745 52.5766 30.8745 52.875V60.75Z" fill="#DE402F"/>
<path d="M21.8746 50.625L22.9996 56.25H18.5L19.6246 50.625H21.8746Z" fill="#F7C04A"/>
<path d="M19.6246 50.625L18.4996 48.375L20.7496 46.125L22.9996 48.375L21.8746 50.625H19.6246Z" fill="#F5A431"/>
<path d="M26.375 49.1836V50.625L25.79 51.5995L20.75 47.5664L15.71 51.5995L15.125 50.625V49.1836L20.0469 45.2461C20.2463 45.0868 20.494 45 20.7493 45C21.0046 45 21.2523 45.0868 21.4517 45.2461L26.375 49.1836Z" fill="#F7DFA1"/>
<path d="M16.2495 33.75V41.625C16.2495 42.8185 16.7236 43.9631 17.5675 44.807C18.4114 45.6509 19.556 46.125 20.7495 46.125H20.7495C21.943 46.125 23.0876 45.6509 23.9315 44.807C24.7754 43.9631 25.2495 42.8185 25.2495 41.625V33.75H16.2495Z" fill="#FFCEB6"/>
<path d="M19.6245 36C19.9626 36.6761 20.4822 37.2447 21.1252 37.6421C21.7682 38.0395 22.5092 38.25 23.2651 38.25C24.3881 38.25 25.4652 37.8039 26.2593 37.0098C27.0534 36.2157 27.4995 35.1386 27.4995 34.0156V31.5H19.628C18.663 31.5 17.7257 31.8226 16.965 32.4164C16.2044 33.0103 15.6642 33.8414 15.4301 34.7776C15.2305 35.5759 15.2627 36.4147 15.523 37.1954L16.2495 39.375L19.6245 36Z" fill="#B36F42"/>
<path d="M22.9995 61.875H30.875V59.625C30.875 58.7299 30.5194 57.8715 29.8865 57.2385C29.2535 56.6056 28.3951 56.25 27.5 56.25H23L22.9995 61.875Z" fill="#FFCEB6"/>
<path d="M22.8964 67.5C20.0127 67.5018 17.1668 66.8438 14.5765 65.5764L22.2452 63.2758C22.531 63.1901 22.771 62.9943 22.9125 62.7316C23.0539 62.4689 23.0853 62.1608 22.9995 61.875C22.9138 61.5892 22.718 61.3492 22.4553 61.2077C22.1926 61.0663 21.8845 61.035 21.5987 61.1207L12.3916 63.8828C11.1674 64.2497 9.85591 64.1985 8.66405 63.7373C8.41651 63.6426 8.14343 63.6388 7.89333 63.7265C7.64323 63.8142 7.43231 63.9876 7.29804 64.2161C7.21481 64.3555 7.16282 64.5113 7.14567 64.6727C7.12851 64.8341 7.14659 64.9973 7.19867 65.1511C7.25074 65.3048 7.33557 65.4454 7.44728 65.5632C7.559 65.6809 7.69495 65.7731 7.84573 65.8332C8.7692 66.1914 9.75114 66.3751 10.7417 66.375C10.9549 66.375 11.1676 66.3657 11.3795 66.3487C14.8091 68.5715 18.8094 69.7529 22.8964 69.75H27.5C27.7984 69.75 28.0845 69.6314 28.2955 69.4205C28.5065 69.2095 28.625 68.9233 28.625 68.625C28.625 68.3266 28.5065 68.0405 28.2955 67.8295C28.0845 67.6185 27.7984 67.5 27.5 67.5H22.8964Z" fill="#DE402F"/>
<path d="M11.7495 57.375H21.875C22.1734 57.375 22.4595 57.2565 22.6705 57.0455C22.8815 56.8345 23 56.5484 23 56.25C23 55.9516 22.8815 55.6655 22.6705 55.4545C22.4595 55.2435 22.1734 55.125 21.875 55.125H12.8745V52.875C12.8745 52.5766 12.756 52.2905 12.545 52.0795C12.334 51.8685 12.0479 51.75 11.7495 51.75C11.4512 51.75 11.165 51.8685 10.954 52.0795C10.743 52.2905 10.6245 52.5766 10.6245 52.875V56.25C10.6245 56.5484 10.743 56.8345 10.954 57.0455C11.165 57.2565 11.4512 57.375 11.7495 57.375Z" fill="#DE402F"/>
</svg>
