<svg width="72" height="72" viewBox="0 0 72 72" fill="none" xmlns="http://www.w3.org/2000/svg">
<path d="M13.5 38.25V21.375C13.5 19.8976 13.791 18.4347 14.3564 17.0698C14.9217 15.7049 15.7504 14.4647 16.795 13.42C17.8397 12.3754 19.0799 11.5467 20.4448 10.9814C21.8097 10.416 23.2726 10.125 24.75 10.125H24.75C26.2274 10.125 27.6903 10.416 29.0552 10.9814C30.4201 11.5467 31.6603 12.3754 32.705 13.42C33.7496 14.4647 34.5783 15.7049 35.1436 17.0698C35.709 18.4347 36 19.8976 36 21.375V38.25H13.5Z" fill="#B36F42"/>
<path d="M39.6 37.125V57.375H28.125V65.25H4.5L5.31281 63.0816C5.86585 61.6079 6.22052 60.0672 6.3675 58.5C6.42092 57.9417 6.44764 57.3825 6.44767 56.8224C6.44772 54.3279 5.92458 51.8612 4.91202 49.5816C3.89839 47.3027 3.37475 44.8363 3.375 42.3422V40.3973C3.37488 39.3766 3.57583 38.3659 3.96638 37.4228C4.35694 36.4798 4.92944 35.6229 5.65119 34.9012C6.37294 34.1794 7.22981 33.6069 8.17285 33.2164C9.11589 32.8258 10.1266 32.6249 11.1473 32.625H33.2972C34.1407 32.6249 34.9733 32.8146 35.7336 33.18C36.4938 33.5454 37.1621 34.0771 37.6889 34.7358L39.6 37.125Z" fill="#F5A431"/>
<path d="M29.25 40.5L24.75 46.8L23.625 48.375L22.5 46.8L18 40.5L21.375 37.125H25.875L29.25 40.5Z" fill="#F7C04A"/>
<path d="M15.75 32.625H31.5V37.125H15.75V32.625Z" fill="#F7C04A"/>
<path d="M24.75 37.125V46.8L23.625 48.375L22.5 46.8V37.125H24.75Z" fill="#F7D179"/>
<path d="M28.125 27V33.75L26.8397 36L23.625 41.625L19.125 33.75V27H28.125Z" fill="#FFCEB6"/>
<path d="M28.125 27V33.75L26.8397 36H26.467C25.6522 36.003 24.8448 35.8453 24.0911 35.5358C23.3374 35.2262 22.6521 34.7711 22.0746 34.1963C21.4971 33.6215 21.0386 32.9384 20.7255 32.1862C20.4124 31.4339 20.2508 30.6273 20.25 29.8125V27H28.125Z" fill="#FFBFA1"/>
<path d="M19.125 21.375C20.1078 21.0474 20.9626 20.4189 21.5683 19.5785C22.174 18.7381 22.5 17.7284 22.5 16.6924V15.75C22.8276 16.7328 23.4561 17.5876 24.2965 18.1933C25.1369 18.799 26.1466 19.125 27.1826 19.125H31.5L31.5002 27.5623C31.5002 28.3749 31.3401 29.1795 31.0292 29.9302C30.7183 30.6809 30.2625 31.3631 29.6879 31.9377C29.1133 32.5122 28.4312 32.968 27.6805 33.279C26.9298 33.5899 26.1252 33.75 25.3126 33.75H25.3126C23.6715 33.75 22.0977 33.0981 20.9373 31.9377C19.7769 30.7773 19.125 29.2035 19.125 27.5624V21.375Z" fill="#FFCEB6"/>
<path d="M23.625 24.75C24.2463 24.75 24.75 24.2463 24.75 23.625C24.75 23.0037 24.2463 22.5 23.625 22.5C23.0037 22.5 22.5 23.0037 22.5 23.625C22.5 24.2463 23.0037 24.75 23.625 24.75Z" fill="#B36F42"/>
<path d="M28.125 24.75C28.7463 24.75 29.25 24.2463 29.25 23.625C29.25 23.0037 28.7463 22.5 28.125 22.5C27.5037 22.5 27 23.0037 27 23.625C27 24.2463 27.5037 24.75 28.125 24.75Z" fill="#B36F42"/>
<path d="M28.125 30.3749H26.1406C25.1751 30.3782 24.228 30.1109 23.4066 29.6033C22.5853 29.0957 21.9226 28.3681 21.4938 27.503L23.5062 26.4968C23.7494 26.9872 24.125 27.3997 24.5907 27.6875C25.0563 27.9752 25.5932 28.1268 26.1406 28.1249H28.125V30.3749Z" fill="#FFB089"/>
<path d="M34.875 37.125H68.625V58.5H34.875V37.125Z" fill="#5771E5"/>
<path d="M39.375 41.625H46.125V48.375H39.375V41.625Z" fill="#F7C04A"/>
<path d="M42.75 43.875H46.125V46.125H42.75V43.875Z" fill="#F5A431"/>
<path d="M40.5 51.75H43.875V54H40.5V51.75Z" fill="#4356E6"/>
<path d="M47.25 51.75H50.625V54H47.25V51.75Z" fill="#4356E6"/>
<path d="M54 51.75H57.375V54H54V51.75Z" fill="#4356E6"/>
<path d="M60.75 51.75H64.125V54H60.75V51.75Z" fill="#4356E6"/>
<path d="M56.25 40.5H59.625V42.75H56.25V40.5Z" fill="#4356E6"/>
<path d="M61.875 40.5H65.25V42.75H61.875V40.5Z" fill="#4356E6"/>
<path d="M52.875 45H55.125V47.25H52.875V45Z" fill="#4356E6"/>
<path d="M56.25 45H65.25V47.25H56.25V45Z" fill="#4356E6"/>
<path d="M42.75 25.875L46.125 11.25H59.625L63 25.875H42.75Z" fill="#F7C04A"/>
<path d="M56.25 14.625H54V9C54 8.70163 53.8815 8.41548 53.6705 8.20451C53.4595 7.99353 53.1734 7.875 52.875 7.875C52.5766 7.875 52.2905 7.99353 52.0795 8.20451C51.8685 8.41548 51.75 8.70163 51.75 9V14.625H49.5V9C49.5 8.10489 49.8556 7.24645 50.4885 6.61351C51.1215 5.98058 51.9799 5.625 52.875 5.625C53.7701 5.625 54.6285 5.98058 55.2615 6.61351C55.8944 7.24645 56.25 8.10489 56.25 9V14.625Z" fill="#F7DFA1"/>
<path d="M50.625 33.75V21.375H48.375L52.875 16.875L57.375 21.375H55.125V33.75H50.625Z" fill="#EB8117"/>
<path d="M28.125 59.625V65.25H4.5L5.31281 63.0816C5.86585 61.6079 6.22052 60.0672 6.3675 58.5H14.0569C14.8793 59.2247 15.9377 59.6247 17.0339 59.625H28.125Z" fill="#E8671C"/>
<path d="M28.125 59.6251C28.125 59.9235 28.0065 60.2096 27.7955 60.4206C27.5845 60.6316 27.2984 60.7501 27 60.7501H17.0334C16.1071 60.7511 15.1951 60.5229 14.3785 60.0858C13.5618 59.6488 12.866 59.0165 12.353 58.2454L6.81303 49.9351C6.64753 49.6869 6.58743 49.3831 6.64595 49.0905C6.70446 48.7979 6.8768 48.5406 7.12505 48.3751C7.24797 48.2931 7.38583 48.2362 7.53076 48.2075C7.67569 48.1789 7.82484 48.179 7.96971 48.208C8.11457 48.237 8.25231 48.2942 8.37506 48.3764C8.49781 48.4586 8.60317 48.5642 8.68512 48.6871L14.2251 56.9972C14.5329 57.46 14.9504 57.8393 15.4404 58.1016C15.9304 58.3638 16.4776 58.5007 17.0334 58.5001H27C27.2984 58.5001 27.5845 58.6186 27.7955 58.8296C28.0065 59.0406 28.125 59.3267 28.125 59.6251V59.6251Z" fill="#EB8117"/>
<path d="M27.0001 52.875H19.125C18.9442 52.875 18.7659 52.8314 18.6055 52.7479C18.4451 52.6643 18.3071 52.5433 18.2034 52.3951L10.9735 42.0668C10.8024 41.8223 10.7354 41.52 10.7873 41.2261C10.8391 40.9323 11.0056 40.6711 11.25 40.5L11.25 40.5C11.3711 40.4153 11.5076 40.3552 11.6518 40.3233C11.7961 40.2913 11.9452 40.2881 12.0907 40.3137C12.2362 40.3394 12.3752 40.3935 12.4998 40.4729C12.6244 40.5523 12.7321 40.6554 12.8168 40.7765L19.7107 50.625H27.0001C27.1478 50.625 27.2941 50.6541 27.4306 50.7106C27.5671 50.7672 27.6911 50.85 27.7955 50.9545C27.9 51.059 27.9829 51.183 28.0394 51.3195C28.0959 51.456 28.125 51.6022 28.125 51.75V51.75C28.125 52.0484 28.0065 52.3345 27.7955 52.5455C27.5846 52.7565 27.2984 52.875 27.0001 52.875V52.875Z" fill="#EB8117"/>
<path d="M28.125 51.75L33.4512 49.0869C33.8288 48.8981 34.266 48.867 34.6665 49.0005C35.067 49.134 35.3981 49.4212 35.5869 49.7988C35.7124 50.0498 35.7693 50.3295 35.7519 50.6095C35.7344 50.8896 35.6432 51.1601 35.4876 51.3936L33.75 54L38.6775 56.9565C38.8902 57.0841 39.0663 57.2647 39.1885 57.4806C39.3108 57.6965 39.375 57.9403 39.375 58.1884C39.375 58.377 39.3378 58.5639 39.2656 58.7382C39.1935 58.9124 39.0876 59.0708 38.9542 59.2042C38.8208 59.3376 38.6625 59.4434 38.4882 59.5156C38.3139 59.5878 38.1271 59.625 37.9384 59.625H28.125V51.75Z" fill="#FFCEB6"/>
</svg>
