<svg width="72" height="72" viewBox="0 0 72 72" fill="none" xmlns="http://www.w3.org/2000/svg">
<path d="M33.75 3.375H63V22.5H33.75V3.375Z" fill="#5771E5"/>
<path d="M13.5 42.75V25.875C13.5 24.3976 13.791 22.9347 14.3564 21.5698C14.9217 20.2049 15.7504 18.9647 16.795 17.92C17.8397 16.8754 19.0799 16.0467 20.4448 15.4814C21.8097 14.916 23.2726 14.625 24.75 14.625H24.75C26.2274 14.625 27.6903 14.916 29.0552 15.4814C30.4201 16.0467 31.6603 16.8754 32.705 17.92C33.7496 18.9647 34.5783 20.2049 35.1436 21.5698C35.709 22.9347 36 24.3976 36 25.875V42.75H13.5Z" fill="#B36F42"/>
<path d="M45 48.375V58.5H42.3745L34.7653 49.3692C34.6113 50.4867 34.1168 51.5296 33.3492 52.3561C32.5593 53.2082 31.5168 53.7844 30.375 54V68.625H4.92188L5.31281 67.5816C6.06347 65.5801 6.44788 63.4599 6.44766 61.3224C6.44772 58.8279 5.92458 56.3612 4.91202 54.0816C3.89839 51.8027 3.37475 49.3363 3.375 46.8422V44.8973C3.37488 43.8766 3.57583 42.8659 3.96638 41.9228C4.35694 40.9798 4.92944 40.1229 5.65119 39.4012C6.37294 38.6794 7.22981 38.1069 8.17285 37.7164C9.11589 37.3258 10.1266 37.1249 11.1473 37.125H33.2972C34.1407 37.1249 34.9733 37.3146 35.7336 37.68C36.4938 38.0454 37.1621 38.5771 37.6889 39.2358L45 48.375Z" fill="#F5A431"/>
<path d="M27 65.25H17.0333C16.1073 65.25 15.1956 65.0213 14.3791 64.5844C13.5626 64.1474 12.8667 63.5156 12.353 62.7451L5.31297 52.185C5.14747 51.9368 5.08736 51.633 5.14587 51.3404C5.20439 51.0478 5.37673 50.7905 5.62498 50.625C5.87323 50.4595 6.17706 50.3994 6.46963 50.4579C6.7622 50.5164 7.01954 50.6887 7.18504 50.937L14.2251 61.4971C14.5329 61.9598 14.9504 62.3392 15.4404 62.6014C15.9303 62.8637 16.4776 63.0006 17.0333 63H27C27.1477 63 27.294 63.0291 27.4305 63.0856C27.567 63.1421 27.691 63.225 27.7955 63.3295C27.8999 63.4339 27.9828 63.558 28.0393 63.6944C28.0959 63.8309 28.125 63.9772 28.125 64.125V64.125C28.125 64.2727 28.0959 64.419 28.0393 64.5555C27.9828 64.692 27.8999 64.816 27.7955 64.9205C27.691 65.0249 27.567 65.1078 27.4305 65.1643C27.294 65.2209 27.1477 65.25 27 65.25V65.25Z" fill="#EB8117"/>
<path d="M27 57.375H19.125C18.9441 57.375 18.7659 57.3314 18.6055 57.2478C18.445 57.1643 18.3071 57.0433 18.2034 56.8951L10.9735 46.5668C10.8024 46.3223 10.7354 46.02 10.7873 45.7261C10.8391 45.4323 11.0056 45.1711 11.25 45C11.371 44.9153 11.5076 44.8552 11.6518 44.8233C11.796 44.7913 11.9452 44.7881 12.0906 44.8137C12.2361 44.8394 12.3752 44.8935 12.4997 44.9729C12.6243 45.0523 12.7321 45.1555 12.8168 45.2765L19.7107 55.125H27C27.2984 55.125 27.5845 55.2435 27.7955 55.4545C28.0065 55.6655 28.125 55.9516 28.125 56.25C28.125 56.5484 28.0065 56.8345 27.7955 57.0455C27.5845 57.2565 27.2984 57.375 27 57.375Z" fill="#EB8117"/>
<path d="M29.25 45L24.75 51.3L23.625 52.875L22.5 51.3L18 45L21.375 41.625H25.875L29.25 45Z" fill="#F7C04A"/>
<path d="M15.75 37.125H31.5V41.625H15.75V37.125Z" fill="#F7C04A"/>
<path d="M24.75 41.625V51.3L23.625 52.875L22.5 51.3V41.625H24.75Z" fill="#F7D179"/>
<path d="M28.125 31.5V38.25L26.8397 40.5L23.625 46.125L19.125 38.25V31.5H28.125Z" fill="#FFCEB6"/>
<path d="M28.125 31.5V38.25L26.8397 40.5H26.467C25.6522 40.503 24.8448 40.3453 24.0911 40.0358C23.3374 39.7263 22.6521 39.2711 22.0746 38.6963C21.4971 38.1215 21.0386 37.4384 20.7255 36.6862C20.4124 35.9339 20.2508 35.1273 20.25 34.3125V31.5H28.125Z" fill="#FFBFA1"/>
<path d="M19.125 25.875C20.1078 25.5474 20.9626 24.9189 21.5683 24.0785C22.174 23.2381 22.5 22.2284 22.5 21.1924V20.25C22.8276 21.2328 23.4561 22.0876 24.2965 22.6933C25.1369 23.299 26.1466 23.625 27.1826 23.625H31.5L31.5002 32.0623C31.5002 32.8749 31.3401 33.6795 31.0292 34.4302C30.7183 35.1809 30.2625 35.8631 29.6879 36.4377C29.1133 37.0122 28.4312 37.468 27.6805 37.779C26.9298 38.0899 26.1252 38.25 25.3126 38.25H25.3126C23.6715 38.25 22.0977 37.5981 20.9373 36.4377C19.7769 35.2773 19.125 33.7035 19.125 32.0624V25.875Z" fill="#FFCEB6"/>
<path d="M23.625 29.25C24.2463 29.25 24.75 28.7463 24.75 28.125C24.75 27.5037 24.2463 27 23.625 27C23.0037 27 22.5 27.5037 22.5 28.125C22.5 28.7463 23.0037 29.25 23.625 29.25Z" fill="#B36F42"/>
<path d="M28.125 29.25C28.7463 29.25 29.25 28.7463 29.25 28.125C29.25 27.5037 28.7463 27 28.125 27C27.5037 27 27 27.5037 27 28.125C27 28.7463 27.5037 29.25 28.125 29.25Z" fill="#B36F42"/>
<path d="M28.125 34.8751H26.1406C25.1751 34.8783 24.228 34.611 23.4066 34.1034C22.5853 33.5958 21.9226 32.8682 21.4938 32.0032L23.5062 30.9969C23.7494 31.4874 24.125 31.8998 24.5907 32.1876C25.0563 32.4754 25.5932 32.6269 26.1406 32.6251H28.125V34.8751Z" fill="#FFB089"/>
<path d="M42.75 57.375L37.6672 54.8336C36.5997 54.2999 35.3639 54.212 34.2317 54.5895L29.25 56.25H28.125V64.125H31.5L36 59.625H42.75V57.375Z" fill="#FFCEB6"/>
<path d="M39.9375 68.625H22.5C21.6049 68.625 20.7464 68.2694 20.1135 67.6365C19.4806 67.0035 19.125 66.1451 19.125 65.25V64.125H39.9375V68.625Z" fill="#CAD8ED"/>
<path d="M42.75 27H68.625V40.5H42.75V27Z" fill="#5771E5"/>
<path d="M61.875 36C63.1176 36 64.125 34.9926 64.125 33.75C64.125 32.5074 63.1176 31.5 61.875 31.5C60.6324 31.5 59.625 32.5074 59.625 33.75C59.625 34.9926 60.6324 36 61.875 36Z" fill="#5EBD92"/>
<path d="M40.5 12.375C41.7426 12.375 42.75 11.3676 42.75 10.125C42.75 8.88236 41.7426 7.875 40.5 7.875C39.2574 7.875 38.25 8.88236 38.25 10.125C38.25 11.3676 39.2574 12.375 40.5 12.375Z" fill="#F7C04A"/>
<path d="M46.125 30.375H51.75V32.625H46.125V30.375Z" fill="#3D44D1"/>
<path d="M54 30.375H57.375V32.625H54V30.375Z" fill="#3D44D1"/>
<path d="M49.5 34.875H57.375V37.125H49.5V34.875Z" fill="#3D44D1"/>
<path d="M46.125 7.875H48.375V10.125H46.125V7.875Z" fill="#3D44D1"/>
<path d="M50.625 7.875H59.625V10.125H50.625V7.875Z" fill="#3D44D1"/>
<path d="M46.125 12.375H55.125V14.625H46.125V12.375Z" fill="#3D44D1"/>
<path d="M46.125 16.875H50.625V19.125H46.125V16.875Z" fill="#3D44D1"/>
<path d="M52.875 16.875H58.5V19.125H52.875V16.875Z" fill="#3D44D1"/>
<path d="M34.6492 49.3528L34.6478 49.3526C34.3925 49.3175 34.1569 49.1957 33.9806 49.0076C33.8043 48.8196 33.698 48.5766 33.6794 48.3195C33.6572 48.0206 33.6044 47.7247 33.5217 47.4366L33.2229 46.3907C33.1409 46.1038 33.1763 45.7961 33.3212 45.5353C33.4661 45.2745 33.7087 45.0819 33.9956 44.9999C34.1376 44.9594 34.2863 44.9472 34.4331 44.964C34.5798 44.9809 34.7219 45.0265 34.851 45.0983C34.9802 45.17 35.0939 45.2665 35.1858 45.3822C35.2776 45.4979 35.3458 45.6306 35.3864 45.7726L35.6852 46.8185C35.8122 47.2616 35.8927 47.7168 35.9253 48.1766C35.9351 48.3424 35.908 48.5083 35.8459 48.6623C35.7837 48.8164 35.6882 48.9547 35.566 49.0672C35.4439 49.1798 35.2983 49.2638 35.1398 49.3132C34.9812 49.3626 34.8136 49.3761 34.6492 49.3528V49.3528Z" fill="#EB8117"/>
<path d="M57.375 68.625L66.375 47.25H45L36 68.625H57.375Z" fill="#E4E9F2"/>
<path d="M51.75 59.625C52.9926 59.625 54 58.6176 54 57.375C54 56.1324 52.9926 55.125 51.75 55.125C50.5074 55.125 49.5 56.1324 49.5 57.375C49.5 58.6176 50.5074 59.625 51.75 59.625Z" fill="#CAD8ED"/>
</svg>
