<svg width="142" height="141" viewBox="0 0 142 141" fill="none" xmlns="http://www.w3.org/2000/svg">
<path d="M40.1563 26.4376C39.5719 26.4376 39.0116 26.2055 38.5984 25.7923C38.1852 25.3791 37.9531 24.8188 37.9531 24.2345V17.6251C37.9531 17.0408 38.1852 16.4804 38.5984 16.0672C39.0116 15.6541 39.5719 15.422 40.1563 15.422C40.592 15.422 41.0179 15.2927 41.3802 15.0507C41.7425 14.8086 42.0249 14.4645 42.1917 14.0619C42.3584 13.6594 42.4021 13.2164 42.317 12.789C42.232 12.3617 42.0222 11.9691 41.7141 11.661C41.406 11.3529 41.0134 11.143 40.5861 11.058C40.1587 10.973 39.7157 11.0167 39.3132 11.1834C38.9106 11.3502 38.5665 11.6325 38.3244 11.9948C38.0823 12.3571 37.9531 12.7831 37.9531 13.2188C37.9531 13.8031 37.721 14.3635 37.3078 14.7767C36.8947 15.1898 36.3343 15.422 35.75 15.422C35.1657 15.422 34.6053 15.1898 34.1922 14.7767C33.779 14.3635 33.5469 13.8031 33.5469 13.2188C33.5471 12.0072 33.8804 10.8189 34.5103 9.78387C35.1403 8.74884 36.0426 7.90689 37.1188 7.35005C38.1949 6.7932 39.4034 6.54289 40.6121 6.62646C41.8209 6.71004 42.9834 7.12428 43.9727 7.82393C44.9619 8.52357 45.7398 9.48169 46.2213 10.5936C46.7028 11.7054 46.8694 12.9283 46.7029 14.1284C46.5364 15.3286 46.0432 16.4599 45.2771 17.3987C44.5111 18.3374 43.5017 19.0476 42.3594 19.4515V24.2345C42.3594 24.8188 42.1273 25.3791 41.7141 25.7923C41.3009 26.2055 40.7406 26.4376 40.1563 26.4376Z" fill="#FCBC04"/>
<path d="M68.7969 30.8438C68.2126 30.8437 67.6523 30.6115 67.2393 30.1983C64.9263 27.8838 61.8144 26.5435 58.5435 26.453H21.7029C18.4544 26.5573 15.3681 27.8968 13.0732 30.1983C12.6577 30.5996 12.1012 30.8217 11.5235 30.8167C10.9459 30.8116 10.3933 30.5799 9.98484 30.1715C9.57637 29.763 9.34466 29.2104 9.33964 28.6328C9.33463 28.0551 9.55669 27.4986 9.95801 27.0831C13.063 23.9741 17.2423 22.1747 21.6346 22.0555H58.6096C63.025 22.1628 67.23 23.9636 70.3545 27.0853C70.6617 27.3935 70.8708 27.7858 70.9554 28.2128C71.0399 28.6397 70.9961 29.0821 70.8295 29.4841C70.6629 29.8862 70.3809 30.2299 70.0191 30.4719C69.6574 30.7139 69.2321 30.8433 68.7969 30.8438V30.8438Z" fill="#FCBC04"/>
<path d="M22.1479 18.5062L20.3281 33.0469H18.5987C15.8027 33 13.088 33.9885 10.9769 35.8223C8.86569 37.6561 7.50706 40.2057 7.16225 42.9808C7.01124 44.5112 7.18234 46.0563 7.66454 47.5165C8.14675 48.9768 8.92937 50.32 9.96204 51.4595C10.9947 52.5991 12.2545 53.5098 13.6604 54.133C15.0663 54.7562 16.5872 55.0782 18.125 55.0781L22.0906 61.0398C23.5604 63.2444 24.4211 65.7984 24.5855 68.4429C24.75 71.0875 24.2123 73.7284 23.027 76.0981L17.6183 86.9375C16.4222 89.2166 15.8043 91.7546 15.8189 94.3284C15.8335 96.9023 16.4801 99.4331 17.702 101.698C19.1423 104.212 19.8253 107.088 19.669 109.98C19.5126 112.873 18.5235 115.658 16.8208 118.002C15.6984 119.539 15.0238 121.358 14.8715 123.255C14.7193 125.153 15.0954 127.056 15.9581 128.753C16.8209 130.45 18.1366 131.875 19.7596 132.87C21.3825 133.865 23.2492 134.391 25.153 134.391H75.4063L63.7892 119.87C61.9951 117.628 60.8809 114.919 60.5783 112.064C60.2757 109.209 60.7974 106.326 62.0818 103.758L63.2318 101.456C64.2753 99.3699 64.8186 97.0692 64.8186 94.7366C64.8186 92.4039 64.2753 90.1033 63.2318 88.017L57.2834 76.1025C56.098 73.7328 55.5603 71.0919 55.7248 68.4473C55.8892 65.8028 56.7499 63.2488 58.2197 61.0442L62.1875 55.0781C63.7254 55.0782 65.2462 54.7562 66.6521 54.133C68.058 53.5098 69.3178 52.5991 70.3505 51.4595C71.3831 50.32 72.1658 48.9768 72.648 47.5165C73.1302 46.0563 73.3013 44.5112 73.1503 42.9808C72.805 40.2059 71.4462 37.6566 69.3351 35.8229C67.2241 33.9892 64.5097 33.0005 61.7138 33.0469H59.9844L58.1646 18.5062C58.0612 17.6553 57.6498 16.8717 57.0081 16.3034C56.3663 15.7351 55.5387 15.4215 54.6815 15.4219C53.7507 15.4219 52.858 15.7916 52.1998 16.4498C51.5416 17.108 51.1719 18.0007 51.1719 18.9315V33.0469C45.5295 37.2791 41.7993 43.5793 40.8018 50.5617L40.1563 55.0781L39.5107 50.5617C38.5133 43.5793 34.783 37.2791 29.1406 33.0469V18.9315C29.1406 18.0007 28.7709 17.108 28.1127 16.4498C27.4545 15.7916 26.5618 15.4219 25.631 15.4219C24.7739 15.4215 23.9462 15.7351 23.3045 16.3034C22.6627 16.8717 22.2513 17.6553 22.1479 18.5062V18.5062Z" fill="#F89C8D"/>
<path d="M73.2031 44.0626C73.205 46.6377 72.3047 49.1321 70.6586 51.1123C69.0124 53.0926 66.7246 54.4335 64.1925 54.9023C61.6605 55.371 59.0442 54.9378 56.7983 53.678C54.5525 52.4182 52.8189 50.4113 51.8989 48.0062C53.1002 48.3185 54.3369 48.474 55.5781 48.4689C59.0051 48.4724 62.3352 47.3323 65.0409 45.2292C67.7466 43.1261 69.6732 40.1803 70.5153 36.8584C72.2506 38.8572 73.2052 41.4157 73.2031 44.0626V44.0626Z" fill="#F8664F"/>
<path d="M29.6253 114.078C28.1805 115.523 27.2024 117.368 26.8175 119.375C26.4326 121.382 26.6586 123.459 27.4662 125.336L31.3437 134.391H25.153C23.2523 134.389 21.3889 133.863 19.7689 132.869C18.1489 131.875 16.8354 130.452 15.9735 128.758C15.1117 127.064 14.7351 125.164 14.8854 123.269C15.0357 121.375 15.707 119.558 16.8252 118.021C18.526 115.673 19.5137 112.884 19.67 109.989C19.8263 107.093 19.1446 104.214 17.7064 101.696C16.4779 99.4332 15.827 96.9018 15.8117 94.3269C15.7963 91.7519 16.4169 89.2129 17.6183 86.9353L23.038 76.096C24.22 73.7268 24.755 71.0873 24.5886 68.4448C24.4223 65.8024 23.5605 63.2508 22.0906 61.0486L18.125 55.0782C15.5429 55.1031 13.0352 54.2133 11.0465 52.5662C9.05767 50.9192 7.71613 48.6213 7.25954 46.0797C6.80296 43.5381 7.26081 40.917 8.55196 38.6807C9.84312 36.4444 11.8842 34.7374 14.3136 33.8621C13.9236 35.0194 13.7228 36.2319 13.7188 37.4532C13.7206 40.087 14.6661 42.6331 16.3838 44.6298C18.1016 46.6264 20.4779 47.9415 23.082 48.3366C23.1643 48.5126 23.26 48.682 23.3684 48.8433L29.383 58.2947C31.7467 62.0077 33.0003 66.3188 32.9961 70.7203C32.9937 73.6631 32.433 76.5787 31.3437 79.3125L27.4883 87.0235C26.6544 88.6833 26.2896 90.5394 26.4333 92.3914C26.5769 94.2434 27.2236 96.021 28.3034 97.5324L30.7269 100.903C32.1288 102.876 32.7874 105.281 32.5857 107.692C32.3841 110.103 31.3354 112.366 29.6253 114.078V114.078Z" fill="#F8664F"/>
<path d="M20.3281 33.047L22.1567 18.5063C22.2587 17.6552 22.6694 16.8711 23.311 16.3026C23.9526 15.7341 24.7804 15.4207 25.6377 15.422C25.9047 15.4174 26.1713 15.447 26.4308 15.5101L25.3006 30.1433C25.2568 30.7075 25.0768 31.2528 24.7763 31.7324C24.4757 32.212 24.0633 32.6116 23.5746 32.897C23.0858 33.1824 22.5352 33.3451 21.9698 33.3713C21.4044 33.3974 20.8411 33.2861 20.3281 33.047V33.047Z" fill="#F8664F"/>
<path d="M55.7323 70.5H24.5802C24.6869 69.0241 24.583 67.5404 24.2717 66.0938H56.0408C55.7294 67.5404 55.6256 69.0241 55.7323 70.5V70.5Z" fill="#57B7EB"/>
<path d="M24.5802 70.5C24.6869 69.0241 24.583 67.5404 24.2717 66.0938H32.5334C32.8192 67.5457 32.9741 69.0204 32.9961 70.5H24.5802Z" fill="#4891D3"/>
<path d="M44.3862 133.531C44.5078 133.801 44.568 134.095 44.5625 134.391H35.5517L32.0487 126.195C31.0566 123.916 30.7761 121.39 31.2439 118.949C31.7118 116.508 32.9061 114.265 34.6705 112.514C36.0221 111.177 36.8514 109.401 37.009 107.506C37.1665 105.611 36.6419 103.723 35.5297 102.181L33.1283 98.8102C30.4405 95.0649 34.4722 90.174 36.5211 86.0321L40.3986 78.3211C40.6854 77.8445 41.1419 77.494 41.6764 77.34C42.211 77.186 42.784 77.2399 43.2804 77.4909C43.7768 77.7419 44.1599 78.1714 44.3528 78.6932C44.5457 79.215 44.534 79.7904 44.3201 80.304L40.4647 88.0149C39.8132 89.3181 39.5304 90.7746 39.6469 92.2268C39.7634 93.6791 40.2748 95.0719 41.1256 96.2546L43.527 99.6254C45.2461 102.017 46.0573 104.942 45.8151 107.877C45.5728 110.812 44.293 113.565 42.2052 115.642C41.0671 116.769 40.2962 118.213 39.9934 119.786C39.6907 121.358 39.8703 122.986 40.5087 124.455L44.3862 133.531Z" fill="#F8664F"/>
<path d="M53.0269 97.6888C52.0812 97.8996 51.0955 97.8416 50.1811 97.5212C49.2667 97.2009 48.4603 96.631 47.853 95.8761C47.2457 95.1211 46.8618 94.2113 46.7448 93.2495C46.6278 92.2877 46.7823 91.3124 47.1908 90.4339C47.7614 89.0988 47.9421 88.0105 47.4111 87.4795C47.0098 87.064 46.7878 86.5075 46.7928 85.9298C46.7978 85.3522 47.0295 84.7996 47.438 84.3911C47.8465 83.9827 48.399 83.751 48.9767 83.7459C49.5543 83.7409 50.1108 83.963 50.5264 84.3643C52.1467 85.9733 53.2836 88.0042 53.8081 90.2265C54.3327 92.4489 54.2238 94.7739 53.494 96.9375L53.2736 97.6337L53.0269 97.6888Z" fill="#F8664F"/>
<path d="M59.9844 134.391H50.555L48.5061 131.835C44.5405 126.878 47.4927 120.203 49.0348 114.034C49.1929 113.487 49.5568 113.022 50.05 112.737C50.5433 112.453 51.1277 112.37 51.6805 112.507C52.2334 112.644 52.7118 112.989 53.0154 113.471C53.319 113.953 53.4242 114.534 53.3089 115.091C52.7146 117.506 52.6817 120.024 53.2125 122.453C53.7434 124.882 54.824 127.157 56.3712 129.103L59.4997 133.025C59.8169 133.409 59.9885 133.893 59.9844 134.391V134.391Z" fill="#F8664F"/>
<path d="M56.0628 72.7034H31.3438V70.5002H55.7323C55.7868 71.2419 55.8973 71.9784 56.0628 72.7034V72.7034Z" fill="#F8664F"/>
<path d="M48.418 41.7494C45.9117 43.2405 43.9678 45.5174 42.8881 48.2265L40.1562 55.0783L40.7952 50.5619C41.8132 43.5851 45.5419 37.2915 51.1719 33.047V18.925C51.1683 18.1845 51.4015 17.4623 51.8375 16.8638C52.2735 16.2653 52.8894 15.8219 53.5953 15.5983L54.8291 29.1255C55.0568 31.6197 54.576 34.1277 53.4418 36.3608C52.3077 38.594 50.5663 40.4618 48.418 41.7494V41.7494Z" fill="#F8664F"/>
<path d="M125.858 114.342C125.332 113.816 124.619 113.521 123.875 113.521C123.131 113.521 122.418 113.816 121.892 114.342L121.099 115.135C120.64 115.594 120.037 115.88 119.391 115.944C118.745 116.009 118.097 115.847 117.556 115.488L114.776 113.633C114.236 113.273 113.588 113.112 112.942 113.176C112.296 113.24 111.692 113.526 111.233 113.985L110.44 114.778C109.914 115.304 109.201 115.6 108.458 115.6C107.714 115.6 107.001 115.304 106.475 114.778L105.682 113.985C105.223 113.526 104.619 113.24 103.973 113.176C103.327 113.112 102.679 113.273 102.139 113.633L99.3586 115.488C98.8183 115.847 98.1702 116.009 97.5243 115.944C96.8785 115.88 96.2749 115.594 95.816 115.135L94.666 113.985C94.2071 113.526 93.6035 113.24 92.9576 113.176C92.3118 113.112 91.6637 113.273 91.1233 113.633L89.4864 114.734C89.127 114.974 88.7174 115.127 88.2892 115.182C87.861 115.237 87.4259 115.193 87.0176 115.053C86.6093 114.912 86.2388 114.68 85.9349 114.373C85.631 114.067 85.4018 113.694 85.2652 113.285V113.265C84.9392 112.288 84.823 111.253 84.9244 110.228C85.0258 109.203 85.3424 108.211 85.8535 107.316L93.0313 94.7344H123.875L130.445 106.232C131.118 107.412 131.45 108.755 131.404 110.112C131.357 111.469 130.933 112.787 130.18 113.917C129.95 114.263 129.645 114.553 129.289 114.767C128.933 114.981 128.533 115.113 128.12 115.153C127.706 115.194 127.289 115.142 126.898 115.002C126.506 114.862 126.151 114.636 125.858 114.342V114.342Z" fill="#57B7EB"/>
<path d="M130.176 113.924C129.924 114.308 129.581 114.624 129.178 114.843C128.774 115.062 128.322 115.178 127.863 115.179C127.49 115.178 127.121 115.104 126.777 114.96C126.433 114.817 126.121 114.607 125.858 114.342C125.598 114.08 125.289 113.872 124.949 113.73C124.609 113.589 124.244 113.516 123.875 113.516C123.506 113.516 123.141 113.589 122.801 113.73C122.461 113.872 122.152 114.08 121.892 114.342L121.099 115.135C120.641 115.597 120.036 115.884 119.389 115.948C118.742 116.013 118.092 115.85 117.552 115.488L114.776 113.637C114.236 113.275 113.586 113.112 112.939 113.177C112.292 113.241 111.688 113.529 111.229 113.99L110.436 114.783C110.176 115.045 109.868 115.253 109.527 115.395C109.187 115.536 108.822 115.609 108.453 115.609C108.084 115.609 107.719 115.536 107.379 115.395C107.039 115.253 106.73 115.045 106.47 114.783L105.677 113.99C105.219 113.529 104.614 113.241 103.967 113.177C103.32 113.112 102.67 113.275 102.13 113.637L99.3542 115.488C98.8139 115.85 98.1646 116.013 97.5174 115.948C96.8703 115.884 96.2657 115.597 95.8072 115.135L94.6616 113.99C94.2031 113.529 93.5985 113.241 92.9513 113.177C92.3042 113.112 91.6548 113.275 91.1145 113.637L89.4842 114.717C89.1254 114.957 88.7162 115.111 88.2883 115.167C87.8604 115.224 87.4252 115.181 87.0164 115.043C86.6075 114.905 86.2359 114.674 85.9304 114.369C85.6249 114.064 85.3935 113.693 85.2542 113.285V113.263C84.9283 112.285 84.8128 111.25 84.9154 110.225C85.0179 109.2 85.3361 108.208 85.8491 107.314L93.0313 94.7344H123.875L125.131 96.9375H99.0238L96.8647 100.705C96.3517 101.598 96.0335 102.59 95.931 103.615C95.8285 104.641 95.944 105.676 96.2699 106.653V106.675C96.4091 107.084 96.6405 107.455 96.946 107.76C97.2516 108.065 97.6231 108.295 98.032 108.434C98.4408 108.572 98.876 108.615 99.3039 108.558C99.7319 108.501 100.141 108.347 100.5 108.107L102.13 107.028C102.67 106.666 103.32 106.503 103.967 106.567C104.614 106.632 105.219 106.919 105.677 107.38L106.823 108.526C107.281 108.987 107.886 109.275 108.533 109.339C109.18 109.403 109.83 109.24 110.37 108.878L113.146 107.028C113.686 106.666 114.335 106.503 114.983 106.567C115.63 106.632 116.234 106.919 116.693 107.38L117.486 108.173C117.746 108.435 118.055 108.643 118.395 108.784C118.735 108.926 119.1 108.999 119.469 108.999C119.837 108.999 120.202 108.926 120.543 108.784C120.883 108.643 121.192 108.435 121.452 108.173L122.245 107.38C122.703 106.919 123.308 106.632 123.955 106.567C124.602 106.503 125.251 106.666 125.792 107.028L128.568 108.878C128.972 109.153 129.443 109.314 129.932 109.345C130.42 109.376 130.907 109.276 131.344 109.055C131.555 110.765 131.14 112.495 130.176 113.924V113.924Z" fill="#4891D3"/>
<path d="M99.6406 105.75C99.4601 105.751 99.2802 105.729 99.1053 105.684C98.8244 105.614 98.5602 105.489 98.3275 105.317C98.0949 105.145 97.8985 104.928 97.7496 104.68C97.6006 104.432 97.5021 104.157 97.4595 103.871C97.4169 103.584 97.4311 103.292 97.5014 103.012L99.7045 94.1991C99.7731 93.9167 99.897 93.6507 100.069 93.4163C100.241 93.1819 100.457 92.9839 100.706 92.8336C100.955 92.6833 101.231 92.5837 101.518 92.5405C101.806 92.4974 102.099 92.5115 102.381 92.5822C102.663 92.6528 102.928 92.7785 103.161 92.9521C103.394 93.1256 103.591 93.3436 103.739 93.5934C103.888 93.8432 103.985 94.12 104.026 94.4077C104.067 94.6954 104.051 94.9884 103.979 95.2699L101.775 104.082C101.656 104.558 101.381 104.981 100.995 105.283C100.608 105.585 100.131 105.75 99.6406 105.75V105.75Z" fill="#4891D3"/>
<path d="M110.656 105.75C110.072 105.75 109.512 105.518 109.098 105.105C108.685 104.692 108.453 104.131 108.453 103.547V94.7344C108.453 94.1501 108.685 93.5897 109.098 93.1765C109.512 92.7634 110.072 92.5312 110.656 92.5312C111.241 92.5312 111.801 92.7634 112.214 93.1765C112.627 93.5897 112.859 94.1501 112.859 94.7344V103.547C112.859 104.131 112.627 104.692 112.214 105.105C111.801 105.518 111.241 105.75 110.656 105.75Z" fill="#4891D3"/>
<path d="M119.469 103.547C119.006 103.547 118.555 103.402 118.18 103.131C117.805 102.861 117.524 102.479 117.378 102.04L115.175 95.4307C115.083 95.1559 115.047 94.8657 115.068 94.5768C115.088 94.2879 115.166 94.0059 115.296 93.7469C115.425 93.4879 115.605 93.2569 115.824 93.0673C116.043 92.8777 116.297 92.733 116.572 92.6416C116.847 92.5501 117.137 92.5137 117.426 92.5345C117.715 92.5552 117.997 92.6326 118.256 92.7623C118.515 92.892 118.745 93.0714 118.935 93.2904C119.125 93.5093 119.269 93.7635 119.361 94.0383L121.564 100.648C121.674 100.979 121.704 101.332 121.651 101.678C121.598 102.023 121.464 102.351 121.259 102.634C121.055 102.918 120.786 103.148 120.474 103.307C120.163 103.465 119.818 103.548 119.469 103.547V103.547Z" fill="#4891D3"/>
<path d="M93.0313 85.9219H123.875V94.7344H93.0313V85.9219Z" fill="#F89C8D"/>
<path d="M123.875 90.3281V94.7344H93.0313V85.9219H97.4375C97.4375 87.0905 97.9017 88.2112 98.7281 89.0376C99.5544 89.8639 100.675 90.3281 101.844 90.3281H123.875Z" fill="#F8664F"/>
<path d="M126.078 35.25H90.8281C88.4909 35.25 86.2494 36.1785 84.5968 37.8311C82.9441 39.4838 82.0156 41.7253 82.0156 44.0625V77.1094H90.8281V70.5H126.078V77.1094H134.891V44.0625C134.891 41.7253 133.962 39.4838 132.31 37.8311C130.657 36.1785 128.415 35.25 126.078 35.25V35.25Z" fill="#57B7EB"/>
<path d="M108.453 57.2812L97.4375 35.25H119.469L108.453 57.2812Z" fill="#2D72BC"/>
<path d="M119.469 35.25L115.063 44.0625H101.844L97.4375 35.25H119.469Z" fill="#F9E109"/>
<path d="M126.078 61.6875V46.2656C124.325 46.2656 122.644 46.962 121.405 48.2015C120.165 49.441 119.469 51.1221 119.469 52.875V61.6875H115.063C109.804 61.6875 104.76 59.5985 101.042 55.88C97.3234 52.1615 95.2344 47.1181 95.2344 41.8594V35.25H90.8281C88.4909 35.25 86.2494 36.1785 84.5968 37.8311C82.9441 39.4838 82.0156 41.7253 82.0156 44.0625V77.1094H90.8281V70.5H126.078V77.1094H134.891V61.6875H126.078Z" fill="#4891D3"/>
<path d="M95.2344 70.5H90.8281V55.0781L95.2344 70.5Z" fill="#2D72BC"/>
<path d="M119.469 35.25L115.063 44.0625H101.844L97.4375 35.25H101.117L102.086 36.7041C102.688 37.6132 103.507 38.3588 104.468 38.8741C105.429 39.3893 106.503 39.658 107.594 39.6562H109.312C110.403 39.658 111.477 39.3893 112.438 38.8741C113.399 38.3588 114.218 37.6132 114.82 36.7041L115.79 35.25H119.469Z" fill="#FCBC04"/>
<path d="M106.25 52.875H110.656V70.5H106.25V52.875Z" fill="#2D72BC"/>
<path d="M115.062 63.8906C116.279 63.8906 117.266 62.9043 117.266 61.6875C117.266 60.4707 116.279 59.4844 115.062 59.4844C113.846 59.4844 112.859 60.4707 112.859 61.6875C112.859 62.9043 113.846 63.8906 115.062 63.8906Z" fill="#84D2F4"/>
<path d="M108.453 37.4532C107.869 37.4532 107.308 37.2211 106.895 36.8079C106.482 36.3948 106.25 35.8344 106.25 35.2501V28.6407C106.25 28.0564 106.482 27.496 106.895 27.0829C107.308 26.6697 107.869 26.4376 108.453 26.4376C108.889 26.4376 109.315 26.3084 109.677 26.0663C110.039 25.8242 110.322 25.4801 110.489 25.0776C110.655 24.675 110.699 24.232 110.614 23.8046C110.529 23.3773 110.319 22.9847 110.011 22.6766C109.703 22.3685 109.31 22.1587 108.883 22.0737C108.456 21.9887 108.013 22.0323 107.61 22.199C107.207 22.3658 106.863 22.6482 106.621 23.0105C106.379 23.3728 106.25 23.7987 106.25 24.2345C106.25 24.8188 106.018 25.3791 105.605 25.7923C105.192 26.2055 104.631 26.4376 104.047 26.4376C103.463 26.4376 102.902 26.2055 102.489 25.7923C102.076 25.3791 101.844 24.8188 101.844 24.2345C101.844 23.0228 102.177 21.8345 102.807 20.7995C103.437 19.7645 104.34 18.9225 105.416 18.3657C106.492 17.8088 107.7 17.5585 108.909 17.6421C110.118 17.7257 111.28 18.1399 112.27 18.8396C113.259 19.5392 114.037 20.4973 114.518 21.6092C115 22.7211 115.166 23.9439 115 25.1441C114.833 26.3442 114.34 27.4755 113.574 28.4143C112.808 29.3531 111.799 30.0632 110.656 30.4671V35.2501C110.656 35.8344 110.424 36.3948 110.011 36.8079C109.598 37.2211 109.037 37.4532 108.453 37.4532Z" fill="#F9E109"/>
<path d="M117.266 61.6875C117.266 62.2718 117.034 62.8322 116.62 63.2453C116.207 63.6585 115.647 63.8906 115.063 63.8906C114.478 63.8906 113.918 63.6585 113.505 63.2453C113.091 62.8322 112.859 62.2718 112.859 61.6875C112.856 61.6423 112.863 61.5969 112.881 61.5553C113.605 61.6432 114.333 61.6874 115.063 61.6875H117.266Z" fill="#57B7EB"/>
</svg>
