<svg width="73" height="72" viewBox="0 0 73 72" fill="none" xmlns="http://www.w3.org/2000/svg">
<path d="M28.625 51.75H44.375V63H28.625V51.75Z" fill="#CAD8ED"/>
<path d="M36.5 58.5C36.3523 58.5 36.206 58.4709 36.0695 58.4144C35.933 58.3578 35.809 58.275 35.7045 58.1705C35.6 58.066 35.5172 57.942 35.4606 57.8055C35.4041 57.669 35.375 57.5227 35.375 57.375V51.75C35.375 51.4516 35.4935 51.1655 35.7045 50.9545C35.9155 50.7435 36.2016 50.625 36.5 50.625C36.7984 50.625 37.0845 50.7435 37.2955 50.9545C37.5065 51.1655 37.625 51.4516 37.625 51.75V57.375C37.625 57.5227 37.5959 57.669 37.5394 57.8055C37.4828 57.942 37.4 58.066 37.2955 58.1705C37.191 58.275 37.067 58.3578 36.9305 58.4144C36.794 58.4709 36.6477 58.5 36.5 58.5V58.5Z" fill="#A6BCE3"/>
<path d="M65.75 15.75V49.5C65.75 50.0967 65.5129 50.669 65.0909 51.091C64.669 51.5129 64.0967 51.75 63.5 51.75H9.38746C8.79072 51.75 8.21842 51.5129 7.79647 51.091C7.37451 50.669 7.13746 50.0967 7.13746 49.5V15.75H65.75Z" fill="#5771E5"/>
<path d="M23 63H50V67.5H23V63Z" fill="#E4E9F2"/>
<path d="M11.75 43.875L15.125 29.25H28.625L32 43.875H11.75Z" fill="#F7C04A"/>
<path d="M25.25 32.625H23V27C23 26.7016 22.8815 26.4155 22.6705 26.2045C22.4595 25.9935 22.1734 25.875 21.875 25.875C21.5766 25.875 21.2905 25.9935 21.0795 26.2045C20.8685 26.4155 20.75 26.7016 20.75 27V32.625H18.5V27C18.5 26.1049 18.8556 25.2464 19.4885 24.6135C20.1214 23.9806 20.9799 23.625 21.875 23.625C22.7701 23.625 23.6286 23.9806 24.2615 24.6135C24.8944 25.2464 25.25 26.1049 25.25 27V32.625Z" fill="#F7DFA1"/>
<path d="M61.25 45H42.125L35.375 37.125L42.125 29.25H61.25V45Z" fill="#EBC99B"/>
<path d="M47.75 36C48.3713 36 48.875 35.4963 48.875 34.875C48.875 34.2537 48.3713 33.75 47.75 33.75C47.1287 33.75 46.625 34.2537 46.625 34.875C46.625 35.4963 47.1287 36 47.75 36Z" fill="#E6B47C"/>
<path d="M53.375 39.375C53.9963 39.375 54.5 38.8713 54.5 38.25C54.5 37.6287 53.9963 37.125 53.375 37.125C52.7537 37.125 52.25 37.6287 52.25 38.25C52.25 38.8713 52.7537 39.375 53.375 39.375Z" fill="#E6B47C"/>
<path d="M46.8332 39.8251L52.4559 31.9474L54.2874 33.2547L48.6647 41.1323L46.8332 39.8251Z" fill="#E6B47C"/>
<path d="M39.875 36H24.125C23.5037 36 23 36.5037 23 37.125C23 37.7463 23.5037 38.25 24.125 38.25H39.875C40.4963 38.25 41 37.7463 41 37.125C41 36.5037 40.4963 36 39.875 36Z" fill="#EB8117"/>
<path d="M69.125 13.5H3.875L10.625 3.375H62.375L62.6 3.7125L65.8625 8.60625L69.125 13.5Z" fill="#ED6445"/>
<path d="M7.1375 20.25C7.56594 20.25 7.99018 20.1656 8.386 20.0017C8.78183 19.8377 9.14148 19.5974 9.44444 19.2944C9.74739 18.9915 9.9877 18.6318 10.1517 18.236C10.3156 17.8402 10.4 17.4159 10.4 16.9875V13.5H3.875V16.9875C3.875 17.4159 3.95939 17.8402 4.12334 18.236C4.2873 18.6318 4.52761 18.9915 4.83056 19.2944C5.13352 19.5974 5.49317 19.8377 5.88899 20.0017C6.28482 20.1656 6.70906 20.25 7.1375 20.25V20.25Z" fill="#DE402F"/>
<path d="M13.6625 20.25C14.091 20.25 14.5152 20.1656 14.911 20.0017C15.3069 19.8377 15.6665 19.5974 15.9695 19.2944C16.2724 18.9915 16.5127 18.6318 16.6767 18.236C16.8406 17.8402 16.925 17.4159 16.925 16.9875V13.5H10.4V16.9875C10.4 17.4159 10.4844 17.8402 10.6484 18.236C10.8123 18.6318 11.0526 18.9915 11.3556 19.2944C11.6585 19.5974 12.0182 19.8377 12.414 20.0017C12.8098 20.1656 13.2341 20.25 13.6625 20.25V20.25Z" fill="#F5A431"/>
<path d="M20.1875 20.25C20.616 20.25 21.0402 20.1656 21.436 20.0017C21.8319 19.8377 22.1915 19.5974 22.4945 19.2944C22.7974 18.9915 23.0377 18.6318 23.2017 18.236C23.3657 17.8402 23.45 17.4159 23.45 16.9875V13.5H16.925V16.9875C16.925 17.4159 17.0094 17.8402 17.1734 18.236C17.3373 18.6318 17.5777 18.9915 17.8806 19.2944C18.1836 19.5974 18.5432 19.8377 18.939 20.0017C19.3349 20.1656 19.7591 20.25 20.1875 20.25V20.25Z" fill="#DE402F"/>
<path d="M33.2376 20.25C33.666 20.25 34.0903 20.1656 34.4861 20.0017C34.8819 19.8377 35.2416 19.5974 35.5445 19.2944C35.8475 18.9915 36.0878 18.6318 36.2517 18.236C36.4157 17.8402 36.5001 17.4159 36.5001 16.9875V13.5H29.9751V16.9875C29.9751 17.4159 30.0595 17.8402 30.2234 18.236C30.3874 18.6318 30.6277 18.9915 30.9307 19.2944C31.2336 19.5974 31.5933 19.8377 31.9891 20.0017C32.3849 20.1656 32.8092 20.25 33.2376 20.25V20.25Z" fill="#DE402F"/>
<path d="M46.2875 20.25C47.1528 20.25 47.9826 19.9063 48.5945 19.2944C49.2063 18.6826 49.55 17.8528 49.55 16.9875V13.5H43.025V16.9875C43.025 17.4159 43.1094 17.8402 43.2734 18.236C43.4373 18.6318 43.6776 18.9915 43.9806 19.2944C44.2835 19.5974 44.6432 19.8377 45.039 20.0017C45.4348 20.1656 45.8591 20.25 46.2875 20.25V20.25Z" fill="#DE402F"/>
<path d="M59.3376 20.25C59.766 20.25 60.1903 20.1656 60.5861 20.0017C60.9819 19.8377 61.3416 19.5974 61.6445 19.2944C61.9475 18.9915 62.1878 18.6318 62.3517 18.236C62.5157 17.8402 62.6001 17.4159 62.6001 16.9875V13.5H56.0751V16.9875C56.0751 17.4159 56.1595 17.8402 56.3234 18.236C56.4874 18.6318 56.7277 18.9915 57.0306 19.2944C57.3336 19.5974 57.6932 19.8377 58.0891 20.0017C58.4849 20.1656 58.9091 20.25 59.3376 20.25V20.25Z" fill="#DE402F"/>
<path d="M3.875 13.5L10.625 3.375Z" fill="#ED6445"/>
<path d="M23.675 3.375L16.925 13.5H10.4L17.15 3.375H23.675Z" fill="#F7C04A"/>
<path d="M26.7125 20.25C27.1409 20.25 27.5651 20.1656 27.961 20.0017C28.3568 19.8377 28.7164 19.5974 29.0194 19.2944C29.3223 18.9915 29.5627 18.6318 29.7266 18.236C29.8906 17.8402 29.975 17.4159 29.975 16.9875V13.5H23.45V16.9875C23.45 17.4159 23.5343 17.8402 23.6983 18.236C23.8623 18.6318 24.1026 18.9915 24.4055 19.2944C24.7085 19.5974 25.0681 19.8377 25.464 20.0017C25.8598 20.1656 26.284 20.25 26.7125 20.25V20.25Z" fill="#F5A431"/>
<path d="M36.725 3.375L29.975 13.5H23.45L30.2 3.375H36.725Z" fill="#F7C04A"/>
<path d="M39.7625 20.25C40.1909 20.25 40.6152 20.1656 41.011 20.0017C41.4068 19.8377 41.7665 19.5974 42.0694 19.2944C42.3724 18.9915 42.6127 18.6318 42.7767 18.236C42.9406 17.8402 43.025 17.4159 43.025 16.9875V13.5H36.5V16.9875C36.5 17.4159 36.5844 17.8402 36.7483 18.236C36.9123 18.6318 37.1526 18.9915 37.4556 19.2944C37.7585 19.5974 38.1182 19.8377 38.514 20.0017C38.9098 20.1656 39.3341 20.25 39.7625 20.25V20.25Z" fill="#F5A431"/>
<path d="M49.775 3.375L43.025 13.5H36.5L43.25 3.375H49.775Z" fill="#F7C04A"/>
<path d="M52.8125 20.25C53.241 20.25 53.6652 20.1656 54.061 20.0017C54.4569 19.8377 54.8165 19.5974 55.1195 19.2944C55.4224 18.9915 55.6627 18.6318 55.8267 18.236C55.9907 17.8402 56.075 17.4159 56.075 16.9875V13.5H49.55V16.9875C49.55 17.4159 49.6344 17.8402 49.7984 18.236C49.9623 18.6318 50.2027 18.9915 50.5056 19.2944C50.8086 19.5974 51.1682 19.8377 51.564 20.0017C51.9599 20.1656 52.3841 20.25 52.8125 20.25V20.25Z" fill="#F5A431"/>
<path d="M62.6 3.7125L56.075 13.5H49.55L56.3 3.375H62.375L62.6 3.7125Z" fill="#F7C04A"/>
<path d="M65.8625 20.25C66.2909 20.25 66.7152 20.1656 67.111 20.0017C67.5068 19.8377 67.8665 19.5974 68.1694 19.2944C68.4724 18.9915 68.7127 18.6318 68.8766 18.236C69.0406 17.8402 69.125 17.4159 69.125 16.9875V13.5H62.6V16.9875C62.6 17.4159 62.6844 17.8402 62.8483 18.236C63.0123 18.6318 63.2526 18.9915 63.5555 19.2944C63.8585 19.5974 64.2181 19.8377 64.614 20.0017C65.0098 20.1656 65.434 20.25 65.8625 20.25V20.25Z" fill="#F5A431"/>
<path d="M69.125 13.4999H62.6L65.8625 8.6062L69.125 13.4999Z" fill="#F7C04A"/>
<path d="M25.25 67.5L26.375 68.625H28.625L29.75 67.5H25.25Z" fill="#CAD8ED"/>
<path d="M43.25 67.5L44.375 68.625H46.625L47.75 67.5H43.25Z" fill="#CAD8ED"/>
</svg>
