<svg width="72" height="72" viewBox="0 0 72 72" fill="none" xmlns="http://www.w3.org/2000/svg">
<path d="M3.375 10.125H68.625V65.3208C68.625 65.7547 68.5395 66.1844 68.3735 66.5853C68.2074 66.9862 67.9641 67.3504 67.6572 67.6572C67.3504 67.9641 66.9862 68.2074 66.5853 68.3735C66.1844 68.5395 65.7547 68.625 65.3208 68.625H6.67916C6.24525 68.625 5.81559 68.5395 5.41471 68.3735C5.01383 68.2074 4.64959 67.9641 4.34277 67.6572C4.03595 67.3504 3.79256 66.9862 3.62651 66.5853C3.46046 66.1844 3.375 65.7547 3.375 65.3208V10.125Z" fill="#5771E5"/>
<path d="M12.375 33.75V26.4375C12.375 24.7965 13.0269 23.2227 14.1873 22.0623C15.3477 20.9019 16.9215 20.25 18.5625 20.25C20.2035 20.25 21.7773 20.9019 22.9377 22.0623C24.0981 23.2227 24.75 24.7965 24.75 26.4375V33.75H12.375Z" fill="#B36F42"/>
<path d="M45 36.2658C45 36.524 44.928 36.7771 44.7921 36.9967C44.6562 37.2163 44.4618 37.3936 44.2308 37.5089L38.25 40.5L34.3758 42.8245C33.4658 43.3704 32.4487 43.7135 31.3939 43.8303C30.3391 43.947 29.2716 43.8346 28.2642 43.5009L28.2516 43.4967C27.4994 43.2465 26.7928 42.8761 26.1591 42.3998L24.165 40.905L21.8799 39.1908L21.375 45H12.375V43.875L9.50628 41.0063C8.72755 40.2275 8.19725 39.2352 7.98241 38.1551C7.76758 37.0749 7.87785 35.9553 8.29931 34.9377C8.72076 33.9202 9.43446 33.0505 10.3502 32.4386C11.2659 31.8267 12.3424 31.5001 13.4438 31.5H21.7617C22.9548 31.5001 24.099 31.9741 24.9427 32.8177L30.375 38.25L35.4305 36.5653L37.125 36L38.0588 33.2001C38.1111 33.0423 38.209 32.9036 38.3402 32.8015C38.4714 32.6994 38.6299 32.6386 38.7958 32.6267C38.9616 32.6148 39.1272 32.6524 39.2716 32.7347C39.416 32.817 39.5328 32.9403 39.607 33.0891L40.5 34.875H43.6092C43.978 34.8751 44.3317 35.0217 44.5926 35.2825C44.8534 35.5433 44.9999 35.897 45 36.2658V36.2658Z" fill="#FFCEB6"/>
<path d="M30.375 38.25L24.9427 32.8177C24.099 31.9741 22.9548 31.5001 21.7617 31.5H13.4438C12.3424 31.4999 11.2657 31.8265 10.3499 32.4384C9.4341 33.0503 8.72033 33.92 8.29886 34.9376C7.87738 35.9551 7.76713 37.0748 7.98205 38.1551C8.19697 39.2353 8.7274 40.2275 9.50627 41.0063L12.375 43.875V45H21.375L21.8799 39.1908L24.165 40.905L26.1591 42.3998C26.7927 42.8761 27.4994 43.2465 28.2515 43.4967L28.2642 43.5009L34.3041 38.4666C34.8868 37.981 35.2845 37.3096 35.4305 36.5653L30.375 38.25Z" fill="#FFBFA1"/>
<path d="M27.9647 35.8397L24.165 40.905L21.8803 39.1915L21.375 45H12.375V43.875L9.50628 41.0063C8.72755 40.2275 8.19725 39.2352 7.98241 38.1551C7.76758 37.0749 7.87785 35.9553 8.29931 34.9377C8.72076 33.9202 9.43446 33.0505 10.3502 32.4386C11.2659 31.8267 12.3424 31.5001 13.4438 31.5H21.7617C22.9548 31.5001 24.099 31.9741 24.9427 32.8177L27.9647 35.8397Z" fill="#F5A431"/>
<path d="M6.75 68.625L8.47291 53.1188C8.81411 50.048 10.1903 47.1847 12.375 45H21.375L25.875 68.625H18L15.7091 58.3159L13.5 68.625H6.75Z" fill="#E8671C"/>
<path d="M3.375 10.125V6.67916C3.375 6.24525 3.46046 5.81559 3.62651 5.41471C3.79256 5.01383 4.03595 4.64959 4.34277 4.34277C4.64959 4.03595 5.01383 3.79256 5.41471 3.62651C5.81559 3.46046 6.24525 3.375 6.67916 3.375H65.3208C65.7547 3.375 66.1844 3.46046 66.5853 3.62651C66.9862 3.79256 67.3504 4.03595 67.6572 4.34277C67.9641 4.64959 68.2074 5.01383 68.3735 5.41471C68.5395 5.81559 68.625 6.24525 68.625 6.67916V10.125H3.375Z" fill="#89A8F5"/>
<path d="M20.25 28.125V32.625C20.25 33.2217 20.0129 33.794 19.591 34.216C19.169 34.6379 18.5967 34.875 18 34.875C17.4033 34.875 16.831 34.6379 16.409 34.216C15.9871 33.794 15.75 33.2217 15.75 32.625V28.125H20.25Z" fill="#FFCEB6"/>
<path d="M15.5581 53.7575L14.8621 56.999C14.7316 57.6066 15.1184 58.205 15.7261 58.3355C16.3337 58.466 16.9321 58.0791 17.0626 57.4715L17.7586 54.23C17.8891 53.6224 17.5022 53.024 16.8946 52.8935C16.2869 52.763 15.6886 53.1499 15.5581 53.7575Z" fill="#D64E13"/>
<path d="M13.4945 37.1226L13.4944 37.1227C13.0552 37.562 13.0552 38.2742 13.4944 38.7135L14.1533 39.3723C14.5926 39.8116 15.3048 39.8116 15.7441 39.3723L15.7442 39.3722C16.1834 38.933 16.1834 38.2208 15.7442 37.7815L15.0853 37.1226C14.646 36.6833 13.9338 36.6833 13.4945 37.1226Z" fill="#EB8117"/>
<path d="M15.75 39.375L11.8125 43.3125L14.0521 45.5521C14.5904 46.0904 15.2295 46.5174 15.9328 46.8087C16.6361 47.1001 17.3899 47.25 18.1512 47.25C19.5073 47.25 20.8205 46.7746 21.8623 45.9064L32.8632 36.739C32.9757 36.6452 33.0675 36.529 33.1326 36.3978C33.1977 36.2666 33.2348 36.1233 33.2414 35.9769C33.2481 35.8306 33.2241 35.6845 33.1712 35.5479C33.1182 35.4114 33.0373 35.2873 32.9338 35.1838C32.7361 34.9861 32.4679 34.875 32.1884 34.875H29.25L28.3766 33.1281C28.301 32.9769 28.1848 32.8498 28.041 32.7609C27.8972 32.6721 27.7315 32.625 27.5625 32.625C27.3935 32.625 27.2278 32.6721 27.084 32.7609C26.9402 32.8498 26.824 32.9769 26.7484 33.1281L24.75 37.125L18 41.625L15.75 39.375Z" fill="#FFCEB6"/>
<path d="M29.25 14.625H47.25V29.25H29.25V14.625Z" fill="#F7C04A"/>
<path d="M36 14.625V20.25L38.25 19.125L40.5 20.25V14.625H36Z" fill="#F7DFA1"/>
<path d="M39.375 24.75H41.625V27H39.375V24.75Z" fill="#F5A431"/>
<path d="M42.75 24.75H45V27H42.75V24.75Z" fill="#F5A431"/>
<path d="M45 42.091C45 41.8821 45.0412 41.6752 45.1211 41.4821C45.2011 41.2891 45.3183 41.1137 45.466 40.966C45.6137 40.8183 45.7891 40.7011 45.9821 40.6211C46.1752 40.5412 46.3821 40.5 46.591 40.5C47.0129 40.5 47.4176 40.6676 47.716 40.966L48.375 41.625L49.034 40.966C49.3324 40.6676 49.7371 40.5 50.159 40.5C50.3679 40.5 50.5748 40.5412 50.7679 40.6211C50.9609 40.7011 51.1363 40.8183 51.284 40.966C51.4317 41.1137 51.5489 41.2891 51.6289 41.4821C51.7088 41.6752 51.75 41.8821 51.75 42.091C51.75 42.5129 51.5824 42.9176 51.284 43.216L48.375 46.125L45.466 43.216C45.1676 42.9176 45 42.5129 45 42.091Z" fill="#ED6445"/>
<path d="M54 33.091C54 32.8821 54.0412 32.6752 54.1211 32.4821C54.2011 32.2891 54.3183 32.1137 54.466 31.966C54.6137 31.8183 54.7891 31.7011 54.9821 31.6211C55.1752 31.5412 55.3821 31.5 55.591 31.5C56.0129 31.5 56.4176 31.6676 56.716 31.966L57.375 32.625L58.034 31.966C58.3324 31.6676 58.7371 31.5 59.159 31.5C59.3679 31.5 59.5748 31.5412 59.7679 31.6211C59.9609 31.7011 60.1363 31.8183 60.284 31.966C60.4317 32.1137 60.5489 32.2891 60.6289 32.4821C60.7088 32.6752 60.75 32.8821 60.75 33.091C60.75 33.5129 60.5824 33.9176 60.284 34.216L57.375 37.125L54.466 34.216C54.1676 33.9176 54 33.5129 54 33.091V33.091Z" fill="#ED6445"/>
<path d="M57.375 22.5L55.358 20.483C55.2841 20.4091 55.1964 20.3505 55.0999 20.3106C55.0034 20.2706 54.9 20.25 54.7955 20.25C54.5845 20.25 54.3822 20.3338 54.233 20.483C54.0838 20.6322 54 20.8345 54 21.0455V22.5H51.75V24.75C51.75 25.3467 51.9871 25.919 52.409 26.341C52.831 26.7629 53.4033 27 54 27H57.375V22.5Z" fill="#FFCEB6"/>
<path d="M57.375 22.5H61.875V27H57.375V22.5Z" fill="#5EBD92"/>
<path d="M31.5 54C32.7426 54 33.75 52.9926 33.75 51.75C33.75 50.5074 32.7426 49.5 31.5 49.5C30.2574 49.5 29.25 50.5074 29.25 51.75C29.25 52.9926 30.2574 54 31.5 54Z" fill="#89A8F5"/>
<path d="M31.5 63C32.7426 63 33.75 61.9926 33.75 60.75C33.75 59.5074 32.7426 58.5 31.5 58.5C30.2574 58.5 29.25 59.5074 29.25 60.75C29.25 61.9926 30.2574 63 31.5 63Z" fill="#89A8F5"/>
<path d="M37.125 49.5H39.375V51.75H37.125V49.5Z" fill="#3D44D1"/>
<path d="M41.625 49.5H48.375V51.75H41.625V49.5Z" fill="#3D44D1"/>
<path d="M37.125 54H46.125V56.25H37.125V54Z" fill="#3D44D1"/>
<path d="M48.375 54H52.875V56.25H48.375V54Z" fill="#3D44D1"/>
<path d="M37.125 58.5H41.625V60.75H37.125V58.5Z" fill="#3D44D1"/>
<path d="M43.875 58.5H57.375V60.75H43.875V58.5Z" fill="#3D44D1"/>
<path d="M37.125 63H47.25V65.25H37.125V63Z" fill="#3D44D1"/>
<path d="M49.5 63H51.75V65.25H49.5V63Z" fill="#3D44D1"/>
<path d="M20.25 28.125V32.625H19.6875C19.3181 32.6251 18.9524 32.5524 18.6111 32.4111C18.2698 32.2698 17.9597 32.0627 17.6985 31.8015C17.4373 31.5403 17.2302 31.2302 17.0889 30.8889C16.9476 30.5476 16.8749 30.1819 16.875 29.8125V28.125H20.25Z" fill="#FFBFA1"/>
<path d="M20.5156 27H21.375V28.6875C21.375 29.4334 21.0787 30.1488 20.5512 30.6762C20.0238 31.2037 19.3084 31.5 18.5625 31.5C17.8166 31.5 17.1012 31.2037 16.5738 30.6762C16.0463 30.1488 15.75 29.4334 15.75 28.6875V27L16.875 24.75C17.213 25.4261 17.7327 25.9947 18.3757 26.3921C19.0187 26.7895 19.7597 27 20.5156 27V27Z" fill="#FFCEB6"/>
<path d="M58.5 46.125L60.517 44.108C60.5909 44.0341 60.6786 43.9755 60.7751 43.9356C60.8716 43.8956 60.975 43.875 61.0795 43.875C61.2905 43.875 61.4928 43.9588 61.642 44.108C61.7912 44.2572 61.875 44.4595 61.875 44.6705V46.125H64.125V48.375C64.125 48.9717 63.8879 49.544 63.466 49.966C63.044 50.3879 62.4717 50.625 61.875 50.625H58.5V46.125Z" fill="#FFCEB6"/>
<path d="M54 46.125H58.5V50.625H54V46.125Z" fill="#5EBD92"/>
<path d="M6.75 7.875C7.37132 7.875 7.875 7.37132 7.875 6.75C7.875 6.12868 7.37132 5.625 6.75 5.625C6.12868 5.625 5.625 6.12868 5.625 6.75C5.625 7.37132 6.12868 7.875 6.75 7.875Z" fill="#F28868"/>
<path d="M10.125 7.875C10.7463 7.875 11.25 7.37132 11.25 6.75C11.25 6.12868 10.7463 5.625 10.125 5.625C9.50368 5.625 9 6.12868 9 6.75C9 7.37132 9.50368 7.875 10.125 7.875Z" fill="#F7C04A"/>
<path d="M13.5 7.875C14.1213 7.875 14.625 7.37132 14.625 6.75C14.625 6.12868 14.1213 5.625 13.5 5.625C12.8787 5.625 12.375 6.12868 12.375 6.75C12.375 7.37132 12.8787 7.875 13.5 7.875Z" fill="#90D4B1"/>
</svg>
