<svg width="142" height="142" viewBox="0 0 142 142" fill="none" xmlns="http://www.w3.org/2000/svg">
<path d="M26.625 102.062H33.2812V110.938H26.625V102.062Z" fill="#FFBFA1"/>
<path d="M108.719 102.062H115.375V110.938H108.719V102.062Z" fill="#FFBFA1"/>
<path d="M135.344 125.773C135.344 127.689 134.897 129.58 134.04 131.295L130.906 137.562H99.8437V119.812L90.9687 115.375L86.9999 113.389C85.5258 112.652 84.286 111.519 83.4195 110.117C82.5529 108.715 82.0939 107.1 82.0937 105.452V97.625L80.1079 96.6321C79.371 96.2635 78.7513 95.6969 78.3183 94.996C77.8853 94.295 77.656 93.4872 77.6563 92.6633V88.75H82.9758C84.5783 88.7497 86.1271 89.3277 87.3377 90.3777C88.5483 91.4278 89.3393 92.8795 89.5654 94.466L90.9687 104.281L99.8437 108.719H121.718C123.179 108.719 124.618 109.08 125.906 109.769C127.194 110.459 128.293 111.455 129.104 112.671L133.269 118.919C133.386 119.094 133.497 119.272 133.602 119.452C134.118 120.312 134.525 121.232 134.814 122.192C135.165 123.353 135.344 124.56 135.344 125.773V125.773Z" fill="#FFCEB6"/>
<path d="M133.602 119.452L124.25 126.469V137.562H99.8438V119.812L90.9688 115.375L95.4063 106.5L99.8438 108.719H121.718C123.179 108.719 124.618 109.08 125.906 109.769C127.194 110.459 128.293 111.455 129.104 112.671L133.269 118.919C133.386 119.094 133.497 119.272 133.602 119.452V119.452Z" fill="#5771E5"/>
<path d="M106.5 102.063L106.5 97.6251C106.5 97.0423 106.615 96.4652 106.838 95.9268C107.061 95.3884 107.388 94.8991 107.8 94.487C108.212 94.0749 108.701 93.748 109.24 93.525C109.778 93.3019 110.355 93.1871 110.938 93.1871C112.115 93.1871 113.243 93.6546 114.076 94.4867C114.908 95.3188 115.375 96.4473 115.375 97.6242L115.375 102.063H106.5Z" fill="#B36F42"/>
<path d="M35.499 99.8438L37.6625 98.762C38.3458 98.4204 38.9205 97.8952 39.3221 97.2453C39.7238 96.5954 39.9365 95.8465 39.9365 95.0825V90.9688H29.7903C29.0831 90.9687 28.3829 91.108 27.7295 91.3787C27.0762 91.6493 26.4825 92.0459 25.9825 92.546C25.4824 93.046 25.0858 93.6397 24.8152 94.293C24.5445 94.9463 24.4053 95.6466 24.4053 96.3538C24.4053 97.1898 24.5999 98.0143 24.9738 98.762L26.624 102.062H33.2812L35.499 99.8438Z" fill="#B36F42"/>
<path d="M71.0001 110.938V115.375C71.0003 115.958 70.8856 116.535 70.6626 117.073C70.4397 117.612 70.1128 118.101 69.7007 118.513C69.2887 118.925 68.7994 119.252 68.261 119.475C67.7225 119.698 67.1454 119.813 66.5626 119.812H64.3439L60.8244 123.332C58.8153 125.34 56.0909 126.469 53.2501 126.469C50.4093 126.469 47.6849 125.34 45.6758 123.332L42.1564 119.812V137.562H11.0939L7.95987 131.295C7.03324 129.443 6.58744 127.388 6.66354 125.319C6.73963 123.25 7.33517 121.233 8.3953 119.455C8.50066 119.272 8.6144 119.094 8.73089 118.919L12.8966 112.671C13.7075 111.455 14.8058 110.459 16.0941 109.769C17.3825 109.08 18.821 108.719 20.2822 108.719H41.4159C43.3361 108.719 45.2045 109.342 46.7409 110.494L50.7651 113.511L53.2501 115.375L62.1251 110.938H71.0001Z" fill="#FFCEB6"/>
<path d="M50.765 113.511L44.375 122.031L42.1562 119.812V137.562H17.75V126.469L8.39519 119.455C8.50054 119.272 8.61429 119.094 8.73077 118.919L12.8965 112.671C13.7074 111.455 14.8057 110.459 16.094 109.769C17.3824 109.08 18.8209 108.719 20.2821 108.719H41.4158C43.336 108.719 45.2044 109.342 46.7408 110.494L50.765 113.511Z" fill="#ED6445"/>
<path d="M88.75 77.6562L79.875 48.8125H62.125L53.25 77.6562H88.75Z" fill="#4E96ED"/>
<path d="M26.624 99.8438L28.8428 97.625C29.1341 98.2077 29.5374 98.7274 30.0296 99.1543C30.5218 99.5811 31.0933 99.9069 31.7114 100.113C32.3295 100.319 32.9821 100.401 33.632 100.355C34.2818 100.309 34.9163 100.135 35.499 99.8438V104.281C35.499 105.458 35.0315 106.587 34.1993 107.419C33.3671 108.251 32.2384 108.719 31.0615 108.719C29.8846 108.719 28.7559 108.251 27.9237 107.419C27.0915 106.587 26.624 105.458 26.624 104.281V99.8438Z" fill="#FFCEB6"/>
<path d="M19.9688 119.812C19.9688 118.587 18.9754 117.594 17.75 117.594C16.5246 117.594 15.5312 118.587 15.5312 119.812V124.25C15.5312 125.475 16.5246 126.469 17.75 126.469C18.9754 126.469 19.9688 125.475 19.9688 124.25V119.812Z" fill="#DE402F"/>
<path d="M115.375 102.062L113.156 99.8438H106.501V104.281C106.501 105.458 106.969 106.587 107.801 107.419C108.633 108.251 109.762 108.719 110.938 108.719C112.115 108.719 113.244 108.251 114.076 107.419C114.908 106.587 115.376 105.458 115.376 104.281L115.375 102.062Z" fill="#FFCEB6"/>
<path d="M126.469 119.812C126.469 118.587 125.475 117.594 124.25 117.594C123.025 117.594 122.031 118.587 122.031 119.812V124.25C122.031 125.475 123.025 126.469 124.25 126.469C125.475 126.469 126.469 125.475 126.469 124.25V119.812Z" fill="#4356E6"/>
<path d="M37.7188 77.6562H24.4062V84.3125L15.5312 77.6562H11.0938C9.91685 77.6562 8.78816 77.1887 7.95596 76.3565C7.12377 75.5243 6.65625 74.3956 6.65625 73.2188V48.8125C6.65625 47.6356 7.12377 46.5069 7.95596 45.6747C8.78816 44.8425 9.91685 44.375 11.0938 44.375H37.7188C38.8956 44.375 40.0243 44.8425 40.8565 45.6747C41.6887 46.5069 42.1562 47.6356 42.1562 48.8125V73.2188C42.1562 74.3956 41.6887 75.5243 40.8565 76.3565C40.0243 77.1887 38.8956 77.6562 37.7188 77.6562Z" fill="#F7C04A"/>
<path d="M104.281 68.7812H117.594V75.4375L126.469 68.7812H130.906C132.083 68.7812 133.212 68.3137 134.044 67.4815C134.876 66.6493 135.344 65.5206 135.344 64.3438V39.9375C135.344 38.7606 134.876 37.6319 134.044 36.7997C133.212 35.9675 132.083 35.5 130.906 35.5H104.281C103.104 35.5 101.976 35.9675 101.143 36.7997C100.311 37.6319 99.8438 38.7606 99.8438 39.9375V64.3438C99.8438 65.5206 100.311 66.6493 101.143 67.4815C101.976 68.3137 103.104 68.7812 104.281 68.7812Z" fill="#F7C04A"/>
<path d="M26.625 51.0312H22.1875V53.2682C21.0826 53.3508 20.0404 53.8134 19.2381 54.5775C18.4358 55.3416 17.9228 56.36 17.7864 57.4595C17.65 58.559 17.8987 59.6719 18.49 60.6088C19.0814 61.5458 19.9789 62.249 21.0302 62.599L24.16 63.6423C24.2411 63.6693 24.31 63.7243 24.3542 63.7974C24.3985 63.8705 24.4153 63.957 24.4016 64.0414C24.3879 64.1258 24.3446 64.2025 24.2795 64.2579C24.2144 64.3133 24.1317 64.3437 24.0463 64.3438H17.75V68.7812H22.1875V71H26.625V68.0227C27.3893 67.5361 28 66.8428 28.3863 66.0233C28.7726 65.2037 28.9187 64.2914 28.8076 63.3922C28.6965 62.493 28.3327 61.6437 27.7585 60.9428C27.1844 60.2419 26.4233 59.7182 25.5635 59.4323L22.4337 58.389C22.3526 58.362 22.2837 58.307 22.2395 58.2338C22.1952 58.1607 22.1784 58.0742 22.1921 57.9899C22.2058 57.9055 22.2491 57.8287 22.3142 57.7733C22.3793 57.7179 22.4619 57.6875 22.5474 57.6875H28.8437V53.25H26.625V51.0312Z" fill="#F7DFA1"/>
<path d="M115.735 48.8125H122.031V44.375H119.812V42.1562H115.375V44.3932C114.27 44.4758 113.228 44.9384 112.426 45.7025C111.623 46.4666 111.11 47.485 110.974 48.5845C110.838 49.684 111.086 50.7968 111.678 51.7338C112.269 52.6707 113.166 53.374 114.218 53.724L117.348 54.7673C117.429 54.7943 117.497 54.8493 117.542 54.9224C117.586 54.9955 117.603 55.082 117.589 55.1664C117.575 55.2508 117.532 55.3275 117.467 55.3829C117.402 55.4383 117.319 55.4687 117.234 55.4688H110.937V59.9062H115.375V62.125H119.812V59.1477C120.577 58.6611 121.187 57.9678 121.574 57.1483C121.96 56.3287 122.106 55.4164 121.995 54.5172C121.884 53.618 121.52 52.7687 120.946 52.0678C120.372 51.367 119.611 50.8432 118.751 50.5573L115.621 49.514C115.54 49.487 115.471 49.432 115.427 49.3588C115.383 49.2857 115.366 49.1992 115.38 49.1149C115.393 49.0305 115.437 48.9537 115.502 48.8983C115.567 48.8429 115.649 48.8125 115.735 48.8125V48.8125Z" fill="#F7DFA1"/>
<path d="M83.687 35.556L90.9688 15.5312H79.875L75.4375 6.65625H66.5625L62.125 15.5312H51.0312L58.313 35.556C58.7799 36.84 59.6307 37.9493 60.7498 38.7332C61.8689 39.517 63.2021 39.9375 64.5685 39.9375H77.4315C78.7979 39.9375 80.1311 39.517 81.2502 38.7332C82.3693 37.9493 83.2201 36.84 83.687 35.556Z" fill="#4E96ED"/>
<path d="M73.219 24.4062H68.7809C67.0231 24.4062 65.3098 23.8532 63.8838 22.8253C62.4578 21.7975 61.3913 20.3471 60.8355 18.6795L60.7216 18.3379C60.5355 17.7797 60.5788 17.1703 60.842 16.644C61.1051 16.1176 61.5666 15.7174 62.1249 15.5313C62.4013 15.4391 62.6932 15.4023 62.9839 15.4229C63.2745 15.4436 63.5583 15.5213 63.8189 15.6516C64.0795 15.7819 64.312 15.9623 64.5029 16.1824C64.6938 16.4026 64.8395 16.6581 64.9316 16.9346L65.0455 17.2762C65.3069 18.0603 65.8083 18.7422 66.4788 19.2255C67.1492 19.7087 67.9547 19.9687 68.7812 19.9687H73.2185C74.045 19.9687 74.8506 19.7087 75.5211 19.2254C76.1916 18.7421 76.6931 18.0601 76.9544 17.276L77.0682 16.9346C77.1604 16.6581 77.3061 16.4025 77.497 16.1824C77.6879 15.9623 77.9204 15.7819 78.181 15.6516C78.4416 15.5213 78.7254 15.4436 79.016 15.4229C79.3067 15.4023 79.5986 15.4391 79.875 15.5313C80.4333 15.7174 80.8948 16.1176 81.1579 16.644C81.4211 17.1703 81.4644 17.7796 81.2783 18.3379L81.1644 18.6795C80.6086 20.3471 79.5421 21.7975 78.1161 22.8254C76.6901 23.8532 74.9769 24.4062 73.219 24.4062V24.4062Z" fill="#F7C04A"/>
<path d="M66.5625 24.4062L71 17.75L75.4375 24.4062L71 31.0625L66.5625 24.4062Z" fill="#F7DFA1"/>
<path d="M66.5625 39.9375H75.4375V48.8125H66.5625V39.9375Z" fill="#295DD6"/>
<path d="M31.0625 28.8438C33.4163 28.8437 35.6737 27.9087 37.3381 26.2443C39.0025 24.5799 39.9375 22.3225 39.9375 19.9688C39.9375 22.3225 40.8725 24.5799 42.5369 26.2443C44.2013 27.9087 46.4587 28.8437 48.8125 28.8438C46.4587 28.8438 44.2013 29.7788 42.5369 31.4432C40.8725 33.1076 39.9375 35.365 39.9375 37.7188C39.9375 35.365 39.0025 33.1076 37.3381 31.4432C35.6737 29.7788 33.4163 28.8438 31.0625 28.8438V28.8438Z" fill="#F7C04A"/>
<path d="M115.375 13.3125C113.021 13.3125 110.764 14.2475 109.099 15.9119C107.435 17.5763 106.5 19.8337 106.5 22.1875C106.5 19.8337 105.565 17.5763 103.901 15.9119C102.236 14.2475 99.9788 13.3125 97.625 13.3125C99.9788 13.3125 102.236 12.3775 103.901 10.7131C105.565 9.04869 106.5 6.7913 106.5 4.4375C106.5 6.7913 107.435 9.04869 109.099 10.7131C110.764 12.3775 113.021 13.3125 115.375 13.3125Z" fill="#F7C04A"/>
</svg>
