<svg width="142" height="142" viewBox="0 0 142 142" fill="none" xmlns="http://www.w3.org/2000/svg">
<path d="M77.6562 6.65625H135.344V37.7188H77.6562V6.65625Z" fill="#5EBD92"/>
<path d="M126.469 37.7188H119.812V22.1875H77.6562V15.5312H124.25C124.838 15.5313 125.403 15.765 125.819 16.1811C126.235 16.5972 126.469 17.1616 126.469 17.75V37.7188Z" fill="#51A37E"/>
<path d="M117.594 130.906C117.594 132.083 117.126 133.212 116.294 134.044C115.462 134.876 114.333 135.344 113.156 135.344H11.0938C9.91685 135.344 8.78816 134.876 7.95596 134.044C7.12377 133.212 6.65625 132.083 6.65625 130.906V44.375H117.594V130.906Z" fill="#5771E5"/>
<path d="M6.65625 44.375V35.5C6.65625 34.3231 7.12377 33.1944 7.95596 32.3622C8.78816 31.53 9.91685 31.0625 11.0938 31.0625H122.031V44.375H6.65625Z" fill="#89A8F5"/>
<path d="M19.9688 90.9688L26.625 62.125H53.25L59.9062 90.9688H19.9688Z" fill="#F7C04A"/>
<path d="M46.5938 68.7812H42.1562V57.6875C42.1562 57.0991 41.9225 56.5347 41.5064 56.1186C41.0903 55.7025 40.5259 55.4688 39.9375 55.4688C39.3491 55.4688 38.7847 55.7025 38.3686 56.1186C37.9525 56.5347 37.7188 57.0991 37.7188 57.6875V68.7812H33.2812V57.6875C33.2812 55.9222 33.9825 54.2291 35.2308 52.9808C36.4791 51.7325 38.1722 51.0313 39.9375 51.0312C41.7028 51.0313 43.3959 51.7325 44.6442 52.9808C45.8925 54.2291 46.5938 55.9222 46.5938 57.6875V68.7812Z" fill="#F7DFA1"/>
<path d="M68.7812 62.125H75.4375V66.5625H68.7812V62.125Z" fill="#3D44D1"/>
<path d="M79.875 62.125H102.062V66.5625H79.875V62.125Z" fill="#3D44D1"/>
<path d="M68.7812 71H86.5312V75.4375H68.7812V71Z" fill="#3D44D1"/>
<path d="M90.9688 71H97.625V75.4375H90.9688V71Z" fill="#3D44D1"/>
<path d="M68.7812 79.875H79.875V84.3125H68.7812V79.875Z" fill="#3D44D1"/>
<path d="M84.3125 79.875H102.062V84.3125H84.3125V79.875Z" fill="#3D44D1"/>
<path d="M26.625 113.156C29.0758 113.156 31.0625 111.17 31.0625 108.719C31.0625 106.268 29.0758 104.281 26.625 104.281C24.1742 104.281 22.1875 106.268 22.1875 108.719C22.1875 111.17 24.1742 113.156 26.625 113.156Z" fill="#90D4B1"/>
<path d="M37.7188 102.062H48.8125V106.5H37.7188V102.062Z" fill="#3D44D1"/>
<path d="M53.25 102.062H66.5625V106.5H53.25V102.062Z" fill="#3D44D1"/>
<path d="M37.7188 110.938H59.9062V115.375H37.7188V110.938Z" fill="#3D44D1"/>
<path d="M64.3438 110.938H75.4375V115.375H64.3438V110.938Z" fill="#3D44D1"/>
<path d="M82.0938 106.5H108.719V115.375H82.0938V106.5Z" fill="#7AB8F5"/>
<path d="M93.1875 106.5H97.625V115.375H93.1875V106.5Z" fill="#4E96ED"/>
<path d="M15.5312 122.031H19.9688V126.469H15.5312V122.031Z" fill="#3D44D1"/>
<path d="M24.4062 122.031H57.6875V126.469H24.4062V122.031Z" fill="#3D44D1"/>
<path d="M62.125 122.031H93.1875V126.469H62.125V122.031Z" fill="#3D44D1"/>
<path d="M97.625 122.031H108.719V126.469H97.625V122.031Z" fill="#3D44D1"/>
<path d="M64.3438 19.9688H122.031V51.0312H64.3438V19.9688Z" fill="#5EBD92"/>
<path d="M115.375 39.9375C114.198 39.9375 113.069 40.405 112.237 41.2372C111.405 42.0694 110.938 43.1981 110.938 44.375H75.4375C75.4375 43.1981 74.97 42.0694 74.1378 41.2372C73.3056 40.405 72.1769 39.9375 71 39.9375V31.0625C72.1769 31.0625 73.3056 30.595 74.1378 29.7628C74.97 28.9306 75.4375 27.8019 75.4375 26.625H110.938C110.938 27.8019 111.405 28.9306 112.237 29.7628C113.069 30.595 114.198 31.0625 115.375 31.0625V39.9375Z" fill="#90D4B1"/>
<path d="M93.1875 39.9375C92.3098 39.9375 91.4519 39.6773 90.7222 39.1897C89.9924 38.7021 89.4237 38.009 89.0878 37.1982C88.7519 36.3873 88.664 35.4951 88.8353 34.6343C89.0065 33.7735 89.4291 32.9828 90.0497 32.3622C90.6703 31.7416 91.461 31.319 92.3218 31.1478C93.1826 30.9765 94.0748 31.0644 94.8857 31.4003C95.6965 31.7362 96.3896 32.3049 96.8772 33.0347C97.3647 33.7644 97.625 34.6223 97.625 35.5C97.6237 36.6765 97.1557 37.8044 96.3238 38.6363C95.4919 39.4682 94.364 39.9362 93.1875 39.9375V39.9375Z" fill="#5EBD92"/>
<path d="M79.875 33.2812H84.3125V37.7188H79.875V33.2812Z" fill="#5EBD92"/>
<path d="M102.062 33.2812H106.5V37.7188H102.062V33.2812Z" fill="#5EBD92"/>
<path d="M13.3125 39.9375C14.5379 39.9375 15.5312 38.9441 15.5312 37.7188C15.5312 36.4934 14.5379 35.5 13.3125 35.5C12.0871 35.5 11.0938 36.4934 11.0938 37.7188C11.0938 38.9441 12.0871 39.9375 13.3125 39.9375Z" fill="#F28868"/>
<path d="M19.9688 39.9375C21.1941 39.9375 22.1875 38.9441 22.1875 37.7188C22.1875 36.4934 21.1941 35.5 19.9688 35.5C18.7434 35.5 17.75 36.4934 17.75 37.7188C17.75 38.9441 18.7434 39.9375 19.9688 39.9375Z" fill="#F7C04A"/>
<path d="M26.625 39.9375C27.8504 39.9375 28.8438 38.9441 28.8438 37.7188C28.8438 36.4934 27.8504 35.5 26.625 35.5C25.3996 35.5 24.4062 36.4934 24.4062 37.7188C24.4062 38.9441 25.3996 39.9375 26.625 39.9375Z" fill="#90D4B1"/>
</svg>
