<svg width="141" height="141" viewBox="0 0 141 141" fill="none" xmlns="http://www.w3.org/2000/svg">
<path d="M130.742 112.465C134.615 90.5234 134.722 68.0825 131.059 46.1048L129.984 39.6562H55.0781L54.003 46.1048C50.3407 68.0825 50.4479 90.5234 54.3203 112.465C54.5467 113.743 54.3965 115.058 53.8879 116.252C53.3793 117.446 52.5344 118.465 51.4562 119.187C50.5385 119.796 49.7856 120.623 49.2645 121.593C48.7433 122.564 48.4699 123.648 48.4688 124.75V127.706C48.4688 129.479 49.173 131.179 50.4265 132.433C51.6801 133.686 53.3803 134.391 55.153 134.391H129.909C131.682 134.391 133.382 133.686 134.636 132.433C135.89 131.179 136.594 129.479 136.594 127.706V124.75C136.593 123.65 136.322 122.566 135.802 121.596C135.283 120.626 134.533 119.8 133.617 119.189C132.537 118.469 131.689 117.449 131.179 116.255C130.668 115.061 130.516 113.744 130.742 112.465V112.465Z" fill="#F9E109"/>
<path d="M136.594 124.741V127.715C136.591 129.485 135.887 131.181 134.636 132.433C133.385 133.684 131.688 134.388 129.918 134.391H55.1442C53.3745 134.388 51.6779 133.684 50.4265 132.433C49.1751 131.181 48.4711 129.485 48.4688 127.715V124.741C48.4709 123.643 48.7433 122.562 49.262 121.593C49.7807 120.625 50.5297 119.799 51.443 119.189C52.3609 118.573 53.1126 117.74 53.6315 116.764C54.1503 115.788 54.4202 114.699 54.4172 113.593C54.4207 113.217 54.3912 112.841 54.3291 112.47C50.4524 90.5293 50.3407 68.0891 53.9986 46.1114L55.0781 39.6562H129.984L131.064 46.1114C131.064 46.1555 131.086 46.2216 131.086 46.2656H89.5791C85.7406 46.2615 82.0383 47.6879 79.1949 50.2665C76.3515 52.8451 74.5711 56.3908 74.2013 60.2114C74.1131 61.1808 74.047 62.1281 73.9589 63.0975C73.531 69.1273 74.3516 75.1805 76.3695 80.8787C78.3873 86.5769 81.559 91.7976 85.6862 96.2143C89.8134 100.631 94.8075 104.149 100.356 106.548C105.905 108.947 111.888 110.175 117.933 110.156H131.108C130.998 110.927 130.866 111.698 130.733 112.47C130.671 112.841 130.642 113.217 130.645 113.593C130.642 114.699 130.912 115.788 131.431 116.764C131.95 117.74 132.702 118.573 133.62 119.189C134.533 119.799 135.282 120.625 135.8 121.593C136.319 122.562 136.592 123.643 136.594 124.741V124.741Z" fill="#FCBC04"/>
<path d="M92.5312 114.562C109.566 114.562 123.375 100.753 123.375 83.7188C123.375 66.6842 109.566 52.875 92.5312 52.875C75.4967 52.875 61.6875 66.6842 61.6875 83.7188C61.6875 100.753 75.4967 114.562 92.5312 114.562Z" fill="#F8664F"/>
<path d="M109.65 109.363C102.935 113.723 94.7888 115.301 86.932 113.765C79.0753 112.228 72.1237 107.697 67.5466 101.129C62.9695 94.5609 61.1255 86.4705 62.4043 78.5677C63.6831 70.6648 67.9846 63.5688 74.3995 58.7794C74.3114 59.2421 74.2453 59.7268 74.2012 60.2114C74.1131 61.1808 74.047 62.1282 73.9589 63.0975C73.1834 73.8474 76.3935 84.5065 82.9767 93.0401C89.5598 101.574 99.0549 107.385 109.65 109.363V109.363Z" fill="#CC5144"/>
<path d="M125.221 26.4375H59.1627C58.0361 26.4375 56.9281 26.7256 55.9441 27.2743C54.9601 27.823 54.1326 28.6141 53.5404 29.5726C52.9482 30.531 52.6108 31.625 52.5602 32.7505C52.5097 33.876 52.7478 34.9958 53.2518 36.0035L55.0781 39.6562H129.984L131.491 35.1376C131.823 34.1441 131.913 33.086 131.755 32.0506C131.597 31.0153 131.196 30.0322 130.583 29.1826C129.971 28.3329 129.165 27.6409 128.233 27.1636C127.301 26.6864 126.269 26.4375 125.221 26.4375V26.4375Z" fill="#84D2F4"/>
<path d="M103.547 96.9375C103.547 103.02 98.6141 103.547 92.5312 103.547C86.4484 103.547 81.5156 103.02 81.5156 96.9375C81.5156 94.016 82.6762 91.2141 84.742 89.1483C86.8079 87.0824 89.6097 85.9219 92.5312 85.9219C95.4528 85.9219 98.2546 87.0824 100.32 89.1483C102.386 91.2141 103.547 94.016 103.547 96.9375Z" fill="#93999A"/>
<path d="M96.9375 72.7031C96.9375 73.8717 96.4733 74.9925 95.6469 75.8188C94.8206 76.6451 93.6999 77.1094 92.5312 77.1094C91.3626 77.1094 90.2419 76.6451 89.4156 75.8188C88.5892 74.9925 88.125 73.8717 88.125 72.7031C88.125 70.2687 90.1078 66.0938 92.5312 66.0938C94.9547 66.0938 96.9375 70.2797 96.9375 72.7031Z" fill="#93999A"/>
<path d="M111.368 80.9385C111.081 81.4436 110.696 81.887 110.237 82.243C109.778 82.5991 109.253 82.8607 108.692 83.013C108.131 83.1652 107.546 83.2051 106.97 83.1302C106.393 83.0553 105.838 82.8671 105.334 82.5765C104.831 82.286 104.39 81.8988 104.037 81.4372C103.684 80.9756 103.426 80.4487 103.278 79.8869C103.129 79.3251 103.093 78.7395 103.172 78.1637C103.251 77.588 103.442 77.0335 103.736 76.5322C104.952 74.426 108.748 71.7955 110.857 73.0072C112.965 74.2189 112.58 78.8323 111.368 80.9385Z" fill="#93999A"/>
<path d="M80.9252 76.5321C81.5003 77.5436 81.6519 78.7415 81.3471 79.8644C81.0422 80.9873 80.3056 81.944 79.2979 82.5258C78.2903 83.1076 77.0934 83.2672 75.9685 82.9698C74.8436 82.6724 73.882 81.9421 73.2935 80.9383C72.0752 78.8322 71.6963 74.2276 73.8047 73.0071C75.9131 71.7866 79.7068 74.4259 80.9252 76.5321Z" fill="#93999A"/>
<path d="M94.6242 103.503C93.9413 103.547 93.2363 103.547 92.5313 103.547C86.4506 103.547 81.5156 103.018 81.5156 96.9375C81.5143 95.3708 81.8525 93.8225 82.507 92.399C85.81 96.831 89.9213 100.598 94.6242 103.503V103.503Z" fill="#656B76"/>
<path d="M77.1754 83.146C76.3912 83.159 75.6178 82.9615 74.9358 82.574C74.2538 82.1865 73.6883 81.6232 73.2979 80.9429C72.0862 78.8279 71.6897 74.2234 73.8047 73.0116C73.9561 72.9231 74.1193 72.8564 74.2894 72.8134C74.824 76.3629 75.7933 79.8332 77.1754 83.146V83.146Z" fill="#656B76"/>
<path d="M131.835 33.0469C131.836 33.7594 131.717 34.467 131.483 35.1398L129.984 39.6562H55.0781L53.2495 35.9991C52.7468 34.9921 52.5096 33.8734 52.5603 32.749C52.611 31.6247 52.948 30.5319 53.5394 29.5742C54.1307 28.6166 54.9568 27.8258 55.9394 27.2769C56.9219 26.728 58.0284 26.439 59.1539 26.4375H63.8906C63.8906 28.1904 64.587 29.8715 65.8265 31.111C67.066 32.3505 68.7471 33.0469 70.5 33.0469H131.835Z" fill="#57B7EB"/>
<path d="M99.1406 35.25V39.6562H94.7344V35.25C94.7344 34.6657 94.9665 34.1053 95.3797 33.6922C95.7928 33.279 96.3532 33.0469 96.9375 33.0469C97.5218 33.0469 98.0822 33.279 98.4953 33.6922C98.9085 34.1053 99.1406 34.6657 99.1406 35.25V35.25Z" fill="#4891D3"/>
<path d="M107.953 35.25V39.6562H103.547V35.25C103.547 34.6657 103.779 34.1053 104.192 33.6922C104.605 33.279 105.166 33.0469 105.75 33.0469C106.334 33.0469 106.895 33.279 107.308 33.6922C107.721 34.1053 107.953 34.6657 107.953 35.25V35.25Z" fill="#4891D3"/>
<path d="M116.766 35.25V39.6562H112.359V35.25C112.359 34.6657 112.591 34.1053 113.005 33.6922C113.418 33.279 113.978 33.0469 114.562 33.0469C115.147 33.0469 115.707 33.279 116.12 33.6922C116.534 34.1053 116.766 34.6657 116.766 35.25V35.25Z" fill="#4891D3"/>
<path d="M125.578 35.25V39.6562H121.172V35.25C121.172 34.6657 121.404 34.1053 121.817 33.6922C122.23 33.279 122.791 33.0469 123.375 33.0469C123.959 33.0469 124.52 33.279 124.933 33.6922C125.346 34.1053 125.578 34.6657 125.578 35.25V35.25Z" fill="#4891D3"/>
<path d="M63.8906 35.25V39.6562H59.4844V35.25C59.4844 34.6657 59.7165 34.1053 60.1297 33.6922C60.5428 33.279 61.1032 33.0469 61.6875 33.0469C62.2718 33.0469 62.8322 33.279 63.2453 33.6922C63.6585 34.1053 63.8906 34.6657 63.8906 35.25V35.25Z" fill="#4891D3"/>
<path d="M72.7031 35.25V39.6562H68.2969V35.25C68.2969 34.6657 68.529 34.1053 68.9422 33.6922C69.3553 33.279 69.9157 33.0469 70.5 33.0469C71.0843 33.0469 71.6447 33.279 72.0578 33.6922C72.471 34.1053 72.7031 34.6657 72.7031 35.25V35.25Z" fill="#4891D3"/>
<path d="M81.5156 35.25V39.6562H77.1094V35.25C77.1094 34.6657 77.3415 34.1053 77.7547 33.6922C78.1678 33.279 78.7282 33.0469 79.3125 33.0469C79.8968 33.0469 80.4572 33.279 80.8703 33.6922C81.2835 34.1053 81.5156 34.6657 81.5156 35.25V35.25Z" fill="#4891D3"/>
<path d="M90.3281 35.25V39.6562H85.9219V35.25C85.9219 34.6657 86.154 34.1053 86.5672 33.6922C86.9803 33.279 87.5407 33.0469 88.125 33.0469C88.7093 33.0469 89.2697 33.279 89.6828 33.6922C90.096 34.1053 90.3281 34.6657 90.3281 35.25V35.25Z" fill="#4891D3"/>
<path d="M76.7679 83.9237C76.487 83.0031 76.0055 82.1562 75.358 81.4439C74.7106 80.7317 73.9134 80.1718 73.0236 79.8046C72.1339 79.4374 71.1739 79.2719 70.2125 79.3202C69.2512 79.3684 68.3126 79.6292 67.4641 80.0836C66.4198 79.6079 65.2907 79.3467 64.1436 79.3157C62.9965 79.2847 61.8549 79.4844 60.7864 79.903C60.1227 78.5117 59.1043 77.3197 57.8335 76.4471C56.5628 75.5745 55.0846 75.0521 53.5478 74.9324C52.0109 74.8127 50.4697 75.0999 49.0791 75.7652C47.6886 76.4305 46.4978 77.4503 45.6267 78.7221C44.9923 77.3598 43.9118 76.2549 42.564 75.5901C41.2162 74.9253 39.6819 74.7406 38.2148 75.0664C36.7477 75.3921 35.4358 76.209 34.4961 77.3817C33.5563 78.5545 33.0451 80.0129 33.0469 81.5157C33.0469 81.6258 33.0733 81.736 33.0799 81.8373C32.3516 81.6335 31.5999 81.5254 30.8437 81.5157C29.3659 81.5074 27.9097 81.8709 26.6091 82.5727C25.3086 83.2746 24.2054 84.2922 23.4011 85.5321C22.5968 86.7719 22.1172 88.1941 22.0065 89.6678C21.8958 91.1415 22.1575 92.6194 22.7675 93.9655C23.3775 95.3116 24.3163 96.4827 25.4974 97.371C26.6785 98.2593 28.064 98.8363 29.5265 99.0489C30.989 99.2615 32.4815 99.1028 33.8666 98.5876C35.2518 98.0724 36.4851 97.2171 37.4531 96.1004C38.5002 97.3163 39.8615 98.2208 41.3881 98.715C42.9147 99.2092 44.5478 99.274 46.1088 98.9024C47.6698 98.5307 49.0985 97.7369 50.2386 96.6078C51.3788 95.4787 52.1864 94.0577 52.5732 92.5004C52.6745 92.5004 52.7714 92.5313 52.875 92.5313C53.937 92.5243 54.9888 92.3243 55.9792 91.9408C56.9154 93.9343 58.5734 95.498 60.6183 96.3159C62.6631 97.1338 64.9421 97.145 66.9948 96.3471C67.6432 97.6926 68.6234 98.8509 69.8432 99.7129C71.0629 100.575 72.4819 101.112 73.9667 101.274C75.4514 101.437 76.953 101.218 78.33 100.639C79.707 100.061 80.9141 99.1414 81.8375 97.9676C82.761 96.7937 83.3704 95.404 83.6085 93.9295C83.8465 92.4551 83.7053 90.9442 83.1982 89.5394C82.6911 88.1345 81.8347 86.8819 80.7097 85.8994C79.5848 84.917 78.2282 84.237 76.7679 83.9237V83.9237Z" fill="#F9E109"/>
<path d="M76.7679 90.5331C76.487 89.6124 76.0055 88.7655 75.358 88.0533C74.7106 87.3411 73.9134 86.7812 73.0236 86.414C72.1339 86.0467 71.1739 85.8813 70.2125 85.9296C69.2512 85.9778 68.3126 86.2385 67.4641 86.693C66.4198 86.2173 65.2907 85.9561 64.1436 85.9251C62.9965 85.894 61.8549 86.0938 60.7864 86.5124C60.1227 85.121 59.1043 83.9291 57.8335 83.0565C56.5628 82.1839 55.0846 81.6615 53.5478 81.5418C52.0109 81.4221 50.4697 81.7093 49.0791 82.3746C47.6886 83.0399 46.4978 84.0597 45.6267 85.3315C44.9923 83.9692 43.9118 82.8642 42.564 82.1995C41.2162 81.5347 39.6819 81.3499 38.2148 81.6757C36.7477 82.0015 35.4358 82.8183 34.4961 83.9911C33.5563 85.1638 33.0451 86.6222 33.0469 88.125C33.0469 88.2352 33.0733 88.3453 33.0799 88.4467C32.3516 88.2429 31.5999 88.1348 30.8437 88.125C29.3659 88.1167 27.9097 88.4802 26.6091 89.1821C25.3086 89.8839 24.2054 90.9016 23.4011 92.1414C22.5968 93.3813 22.1172 94.8035 22.0065 96.2772C21.8958 97.7509 22.1575 99.2288 22.7675 100.575C23.3775 101.921 24.3163 103.092 25.4974 103.98C26.6785 104.869 28.064 105.446 29.5265 105.658C30.989 105.871 32.4815 105.712 33.8666 105.197C35.2518 104.682 36.4851 103.826 37.4531 102.71C38.5002 103.926 39.8615 104.83 41.3881 105.324C42.9147 105.819 44.5478 105.883 46.1088 105.512C47.6698 105.14 49.0985 104.346 50.2386 103.217C51.3788 102.088 52.1864 100.667 52.5732 99.1098C52.6745 99.1098 52.7714 99.1407 52.875 99.1407C53.937 99.1337 54.9888 98.9336 55.9792 98.5502C56.9154 100.544 58.5734 102.107 60.6183 102.925C62.6631 103.743 64.9421 103.754 66.9948 102.956C67.6432 104.302 68.6234 105.46 69.8432 106.322C71.0629 107.184 72.4819 107.722 73.9667 107.884C75.4514 108.046 76.953 107.827 78.33 107.249C79.707 106.67 80.9141 105.751 81.8375 104.577C82.761 103.403 83.3704 102.013 83.6085 100.539C83.8465 99.0644 83.7053 97.5536 83.1982 96.1488C82.6911 94.7439 81.8347 93.4913 80.7097 92.5088C79.5848 91.5264 78.2282 90.8464 76.7679 90.5331V90.5331Z" fill="#FCBC04"/>
<path d="M90.3281 125.578H13.2188L17.625 90.3281H85.9219L90.3281 125.578Z" fill="#84D2F4"/>
<path d="M92.5312 125.578H11.0156C8.58212 125.578 6.60938 127.551 6.60938 129.984C6.60938 132.418 8.58212 134.391 11.0156 134.391H92.5312C94.9648 134.391 96.9375 132.418 96.9375 129.984C96.9375 127.551 94.9648 125.578 92.5312 125.578Z" fill="#84D2F4"/>
<path d="M90.3281 125.578H13.2188L17.625 90.3281H29.0592C29.0592 92.9338 29.5728 95.514 30.5706 97.9211C31.5685 100.328 33.031 102.515 34.8745 104.357C36.7181 106.198 38.9065 107.658 41.3147 108.653C43.7229 109.648 46.3037 110.159 48.9094 110.156H88.4114L90.3281 125.578Z" fill="#57B7EB"/>
<path d="M67.7725 110.273C67.3822 109.562 67.1776 108.763 67.1776 107.952C67.1776 107.141 67.3822 106.342 67.7725 105.631C68.0896 105.041 68.2678 104.386 68.2936 103.716C68.3194 103.046 68.1921 102.38 67.9214 101.767C67.6507 101.154 67.2438 100.61 66.7315 100.178C66.2192 99.7461 65.6151 99.4366 64.9652 99.2732C64.3153 99.1097 63.6366 99.0967 62.9809 99.2351C62.3252 99.3734 61.7096 99.6596 61.1812 100.072C60.6527 100.484 60.2251 101.011 59.9311 101.613C59.6371 102.215 59.4843 102.877 59.4844 103.547H46.2656C46.2657 102.877 46.1129 102.215 45.8189 101.613C45.5249 101.011 45.0973 100.484 44.5689 100.072C44.0404 99.6596 43.4248 99.3734 42.7691 99.2351C42.1134 99.0967 41.4348 99.1097 40.7848 99.2732C40.1349 99.4366 39.5308 99.7461 39.0185 100.178C38.5063 100.61 38.0993 101.154 37.8286 101.767C37.5579 102.38 37.4306 103.046 37.4564 103.716C37.4822 104.386 37.6604 105.041 37.9775 105.631C38.3678 106.342 38.5724 107.141 38.5724 107.952C38.5724 108.763 38.3678 109.562 37.9775 110.273C37.6605 110.863 37.4822 111.518 37.4564 112.188C37.4306 112.857 37.5578 113.524 37.8284 114.137C38.0989 114.75 38.5058 115.293 39.0179 115.725C39.53 116.157 40.134 116.467 40.7838 116.631C41.4336 116.794 42.1121 116.807 42.7678 116.669C43.4234 116.531 44.039 116.245 44.5675 115.833C45.0961 115.422 45.5238 114.895 45.818 114.293C46.1123 113.691 46.2654 113.029 46.2656 112.359H59.4844C59.4846 113.029 59.6377 113.691 59.932 114.293C60.2262 114.895 60.6539 115.422 61.1825 115.833C61.711 116.245 62.3266 116.531 62.9822 116.669C63.6379 116.807 64.3165 116.794 64.9662 116.631C65.616 116.467 66.22 116.157 66.7321 115.725C67.2442 115.293 67.6511 114.75 67.9216 114.137C68.1922 113.524 68.3194 112.857 68.2936 112.188C68.2678 111.518 68.0896 110.863 67.7725 110.273Z" fill="#E9F1F2"/>
<path d="M68.2969 112.359C68.2969 113.528 67.8326 114.649 67.0063 115.475C66.18 116.301 65.0592 116.766 63.8906 116.766C62.722 116.766 61.6013 116.301 60.7749 115.475C59.9486 114.649 59.4844 113.528 59.4844 112.359H46.2656C46.2656 113.528 45.8014 114.649 44.9751 115.475C44.1487 116.301 43.028 116.766 41.8594 116.766C40.6908 116.766 39.57 116.301 38.7437 115.475C37.9174 114.649 37.4531 113.528 37.4531 112.359C37.4584 111.629 37.6398 110.911 37.9819 110.266C38.5009 109.343 38.6875 108.27 38.5106 107.226C41.6382 109.148 45.2385 110.162 48.9094 110.156H67.7241C67.7241 110.2 67.7461 110.222 67.7681 110.266C68.1102 110.911 68.2916 111.629 68.2969 112.359V112.359Z" fill="#D0D8DA"/>
<path d="M96.9375 129.984C96.9289 131.15 96.4618 132.266 95.6374 133.091C94.8129 133.915 93.6972 134.382 92.5312 134.391H11.0156C9.84809 134.387 8.72937 133.922 7.90379 133.096C7.07821 132.271 6.61286 131.152 6.60938 129.984C6.61802 128.818 7.08503 127.703 7.90949 126.878C8.73396 126.054 9.84969 125.587 11.0156 125.578C11.0191 126.746 11.4845 127.864 12.31 128.69C13.1356 129.516 14.2543 129.981 15.4219 129.984H96.9375Z" fill="#57B7EB"/>
</svg>
