<svg width="142" height="142" viewBox="0 0 142 142" fill="none" xmlns="http://www.w3.org/2000/svg">
<path d="M8.875 106.5H44.375V137.562H8.875V106.5Z" fill="#56679C"/>
<path d="M24.4062 117.594H28.8438V137.562H24.4062V117.594Z" fill="#445496"/>
<path d="M8.875 106.5V92.0781L8.65849 91.7534C7.35293 89.795 6.65625 87.494 6.65625 85.1404V85.1404C6.65625 81.9786 7.91228 78.9463 10.148 76.7105C12.3838 74.4748 15.4161 73.2188 18.5779 73.2188H43.3107C45.4292 73.2188 47.4779 73.9766 49.0864 75.3553L62.125 86.5312V93.1875H44.375V106.5H8.875Z" fill="#ED6445"/>
<path d="M11.9791 92.6848C11.299 91.6653 9.92116 91.3901 8.90164 92.0702C7.88213 92.7503 7.60696 94.1281 8.28705 95.1476L10.7927 98.9038C11.4727 99.9233 12.8505 100.198 13.8701 99.5184C14.8896 98.8383 15.1647 97.4605 14.4847 96.441L11.9791 92.6848Z" fill="#DE402F"/>
<path d="M19.9688 86.5317L19.9686 86.5318C18.9294 87.1813 18.6135 88.5501 19.263 89.5893L21.147 92.6037C21.7965 93.6428 23.1653 93.9587 24.2044 93.3092L24.2047 93.3091C25.2438 92.6596 25.5597 91.2908 24.9102 90.2516L23.0262 87.2372C22.3768 86.1981 21.0079 85.8822 19.9688 86.5317Z" fill="#DE402F"/>
<path d="M35.5001 84.3125L39.4445 102.062H27.1182L31.0626 84.3125H35.5001Z" fill="#F7C04A"/>
<path d="M31.0625 84.3125L28.8438 79.875L33.2812 77.6562L37.7188 79.875L35.5 84.3125H31.0625Z" fill="#F5A431"/>
<path d="M77.6562 77.6562L24.4062 130.906L15.5312 133.125L8.875 126.469L11.0938 117.594L64.3438 64.3438L77.6562 77.6562Z" fill="#4E96ED"/>
<path d="M24.4062 130.906L11.0938 117.594L8.875 126.469L15.5312 133.125L24.4062 130.906Z" fill="#407DE6"/>
<path d="M39.0499 82.5377L33.2803 78.211L27.5125 82.5374C27.2794 82.7122 27.0141 82.8395 26.7319 82.9118C26.4496 82.9841 26.1559 83.0001 25.8674 82.9589C25.579 82.9178 25.3015 82.8201 25.0507 82.6717C24.8 82.5233 24.581 82.3269 24.4061 82.0938C24.0531 81.623 23.9014 81.0313 23.9846 80.4488C24.0678 79.8662 24.379 79.3406 24.8498 78.9875L31.9489 73.6626C32.333 73.3746 32.8001 73.2189 33.2801 73.2189C33.7602 73.2188 34.2273 73.3745 34.6114 73.6624L41.7122 78.9875C41.9453 79.1623 42.1417 79.3813 42.2902 79.6321C42.4387 79.8828 42.5363 80.1603 42.5775 80.4487C42.6188 80.7372 42.6028 81.0309 42.5305 81.3132C42.4582 81.5954 42.331 81.8607 42.1562 82.0938C41.9813 82.3269 41.7623 82.5233 41.5116 82.6718C41.2609 82.8203 40.9834 82.9179 40.6949 82.9591C40.4065 83.0003 40.1128 82.9843 39.8305 82.912C39.5482 82.8397 39.283 82.7125 39.0499 82.5377V82.5377Z" fill="#DE402F"/>
<path d="M37.7178 66.5625L39.8812 65.4808C40.5645 65.1391 41.1392 64.6139 41.5409 63.964C41.9425 63.3142 42.1553 62.5653 42.1553 61.8013V57.6875H32.009C31.3019 57.6875 30.6016 57.8268 29.9483 58.0974C29.2949 58.368 28.7013 58.7647 28.2012 59.2647C27.7012 59.7648 27.3045 60.3584 27.0339 61.0118C26.7633 61.6651 26.624 62.3653 26.624 63.0725C26.624 63.9085 26.8186 64.733 27.1925 65.4808L28.8428 68.7812H35.5L37.7178 66.5625Z" fill="#B36F42"/>
<path d="M28.8428 66.5625L31.0615 64.3438C31.3529 64.9265 31.7562 65.4461 32.2484 65.873C32.7406 66.2999 33.312 66.6257 33.9301 66.8317C34.5482 67.0377 35.2008 67.12 35.8507 67.0738C36.5006 67.0276 37.135 66.8539 37.7178 66.5625V71C37.7178 72.1769 37.2502 73.3056 36.418 74.1378C35.5859 74.97 34.4572 75.4375 33.2803 75.4375C32.1034 75.4375 30.9747 74.97 30.1425 74.1378C29.3103 73.3056 28.8428 72.1769 28.8428 71V66.5625Z" fill="#FFCEB6"/>
<path d="M24.2045 93.3085L31.0625 104.281H42.1562L46.1342 100.303C46.2799 100.158 46.4529 100.042 46.6432 99.9631C46.8335 99.8843 47.0376 99.8437 47.2436 99.8437C47.6597 99.8437 48.0587 100.009 48.353 100.303C48.6472 100.597 48.8125 100.997 48.8125 101.413V104.281H55.4687V110.937C55.4687 112.114 55.0012 113.243 54.169 114.075C53.3368 114.907 52.2081 115.375 51.0312 115.375H29.156C27.6949 115.375 26.2564 115.014 24.9683 114.325C23.6801 113.635 22.582 112.639 21.7715 111.423L13.8408 99.5267L24.2045 93.3085L24.2045 93.3085Z" fill="#FFCEB6"/>
<path d="M95.4062 86.5312C117.463 86.5312 135.344 68.6506 135.344 46.5938C135.344 24.5369 117.463 6.65625 95.4062 6.65625C73.3494 6.65625 55.4688 24.5369 55.4688 46.5938C55.4688 68.6506 73.3494 86.5312 95.4062 86.5312Z" fill="#7AB8F5"/>
<path d="M95.4062 77.6562C112.562 77.6562 126.469 63.7491 126.469 46.5938C126.469 29.4384 112.562 15.5312 95.4062 15.5312C78.2509 15.5312 64.3438 29.4384 64.3438 46.5938C64.3438 63.7491 78.2509 77.6562 95.4062 77.6562Z" fill="#C4E9FF"/>
<path d="M79.875 31.0625H110.938V62.125H79.875V31.0625Z" fill="#F7C04A"/>
<path d="M90.9688 31.0625V39.9375L95.4062 37.7188L99.8438 39.9375V31.0625H90.9688Z" fill="#F7DFA1"/>
<path d="M95.4062 53.25H99.8438V57.6875H95.4062V53.25Z" fill="#F5A431"/>
<path d="M102.062 53.25H106.5V57.6875H102.062V53.25Z" fill="#F5A431"/>
<path d="M71 86.5312L67.022 82.5533C66.8763 82.4076 66.7034 82.292 66.513 82.2132C66.3227 82.1343 66.1187 82.0937 65.9126 82.0938C65.4965 82.0938 65.0975 82.259 64.8033 82.5533C64.509 82.8475 64.3438 83.2465 64.3438 83.6626V86.5312H57.6875V93.1875C57.6875 94.3644 58.155 95.4931 58.9872 96.3253C59.8194 97.1575 60.9481 97.625 62.125 97.625H71C72.1769 97.625 73.3056 97.1575 74.1378 96.3253C74.97 95.4931 75.4375 94.3644 75.4375 93.1875V90.9688C75.4375 89.7919 74.97 88.6632 74.1378 87.831C73.3056 86.9988 72.1769 86.5312 71 86.5312Z" fill="#FFCEB6"/>
</svg>
