<svg width="142" height="141" viewBox="0 0 142 141" fill="none" xmlns="http://www.w3.org/2000/svg">
<g clip-path="url(#clip0_22_2675)">
<path d="M86.4219 103.547C113.19 103.547 134.891 81.8467 134.891 55.0781C134.891 28.3096 113.19 6.60938 86.4219 6.60938C59.6533 6.60938 37.9531 28.3096 37.9531 55.0781C37.9531 81.8467 59.6533 103.547 86.4219 103.547Z" fill="#F89C8D"/>
<path d="M134.758 58.2506C134.156 67.5529 130.885 76.4844 125.337 83.9752C119.789 91.466 112.199 97.1983 103.476 100.486C94.7528 103.773 85.2671 104.475 76.1551 102.509C67.043 100.543 58.6909 95.992 52.0995 89.4005C45.508 82.8091 40.9566 74.457 38.9906 65.3449C37.0245 56.2329 37.7272 46.7472 41.0144 38.0243C44.3017 29.3014 50.034 21.7111 57.5248 16.1628C65.0155 10.6145 73.9471 7.34351 83.2494 6.74158C82.7852 13.6257 83.7994 20.5295 86.2238 26.9893C88.6482 33.4491 92.4268 39.3155 97.3056 44.1943C102.185 49.0732 108.051 52.8517 114.511 55.2762C120.97 57.7006 127.874 58.7148 134.758 58.2506V58.2506Z" fill="#F8664F"/>
<path d="M108.213 76.8869C127.138 57.9615 132.717 32.8564 120.674 20.813C108.63 8.76957 83.5252 14.3485 64.5999 33.2739C45.6745 52.1992 40.0956 77.3044 52.139 89.3478C64.1824 101.391 89.2876 95.8123 108.213 76.8869Z" fill="#84D2F4"/>
<path d="M122.157 57.4574C118.65 64.6768 113.942 71.2476 108.233 76.889C89.308 95.8139 64.1923 101.388 52.1412 89.3587C40.0902 77.3296 45.6861 52.192 64.6109 33.2671C70.2524 27.5584 76.8232 22.8501 84.0425 19.3434C85.9028 28.7585 90.5192 37.4083 97.3054 44.1945C104.092 50.9807 112.741 55.5971 122.157 57.4574V57.4574Z" fill="#57B7EB"/>
<path d="M95.7521 64.426C114.678 45.5006 125.835 25.9744 120.674 20.8129C115.512 15.6515 95.9862 26.8093 77.0608 45.7347C58.1355 64.66 46.9776 84.1863 52.1391 89.3477C57.3005 94.5092 76.8268 83.3513 95.7521 64.426Z" fill="#F89C8D"/>
<path d="M107.175 51.8175C103.589 56.21 99.7795 60.4161 95.7631 64.4194C76.8382 83.3442 57.3185 94.5141 52.1412 89.3588C46.9639 84.2035 58.1557 64.6617 77.0806 45.7369C81.0839 41.7204 85.29 37.9114 89.6825 34.3247C93.9191 41.5575 99.9424 47.5809 107.175 51.8175V51.8175Z" fill="#F8664F"/>
<path d="M59.9844 77.1094H108.453C115.465 77.1094 122.189 79.8947 127.147 84.8527C132.105 89.8107 134.891 96.5352 134.891 103.547V125.578H59.9844V77.1094Z" fill="#F9E109"/>
<path d="M134.891 114.562V125.578H59.9844V77.1094H99.6406C99.6441 78.2769 100.109 79.3956 100.935 80.2212C101.761 81.0468 102.879 81.5121 104.047 81.5156H108.453C114.296 81.5156 119.9 83.8368 124.032 87.9684C128.163 92.1001 130.484 97.7038 130.484 103.547V110.156C130.488 111.324 130.953 112.443 131.779 113.268C132.604 114.094 133.723 114.559 134.891 114.562Z" fill="#FCBC04"/>
<path d="M75.4062 134.391C81.49 134.391 86.4219 129.459 86.4219 123.375C86.4219 117.291 81.49 112.359 75.4062 112.359C69.3225 112.359 64.3906 117.291 64.3906 123.375C64.3906 129.459 69.3225 134.391 75.4062 134.391Z" fill="#F8664F"/>
<path d="M112.859 134.391C118.943 134.391 123.875 129.459 123.875 123.375C123.875 117.291 118.943 112.359 112.859 112.359C106.776 112.359 101.844 117.291 101.844 123.375C101.844 129.459 106.776 134.391 112.859 134.391Z" fill="#F8664F"/>
<path d="M104.047 85.9219H108.453C113.128 85.9219 117.611 87.7788 120.916 91.0841C124.221 94.3894 126.078 98.8724 126.078 103.547H104.047V85.9219Z" fill="#4891D3"/>
<path d="M82.0156 85.9219H95.2344V103.547H82.0156V85.9219Z" fill="#4891D3"/>
<path d="M112.859 128.883C115.901 128.883 118.367 126.417 118.367 123.375C118.367 120.333 115.901 117.867 112.859 117.867C109.817 117.867 107.352 120.333 107.352 123.375C107.352 126.417 109.817 128.883 112.859 128.883Z" fill="#CC5144"/>
<path d="M75.4062 128.883C78.4481 128.883 80.9141 126.417 80.9141 123.375C80.9141 120.333 78.4481 117.867 75.4062 117.867C72.3644 117.867 69.8984 120.333 69.8984 123.375C69.8984 126.417 72.3644 128.883 75.4062 128.883Z" fill="#CC5144"/>
<path d="M24.7344 6.60938H68.7969V41.8594H24.7344V6.60938Z" fill="#E9F1F2"/>
<path d="M15.9219 50.6719H77.6094V85.9219H15.9219V50.6719Z" fill="#E9F1F2"/>
<path d="M37.9531 24.2344C40.3866 24.2344 42.3594 22.2616 42.3594 19.8281C42.3594 17.3946 40.3866 15.4219 37.9531 15.4219C35.5196 15.4219 33.5469 17.3946 33.5469 19.8281C33.5469 22.2616 35.5196 24.2344 37.9531 24.2344Z" fill="#57B7EB"/>
<path d="M55.5781 24.2344C58.0116 24.2344 59.9844 22.2616 59.9844 19.8281C59.9844 17.3946 58.0116 15.4219 55.5781 15.4219C53.1446 15.4219 51.1719 17.3946 51.1719 19.8281C51.1719 22.2616 53.1446 24.2344 55.5781 24.2344Z" fill="#57B7EB"/>
<path d="M35.75 41.8594H57.7812V50.6719H35.75V41.8594Z" fill="#4891D3"/>
<path d="M51.1719 94.7344H64.3906V125.578H51.1719V94.7344Z" fill="#E9F1F2"/>
<path d="M29.1406 94.7344H42.3594V125.578H29.1406V94.7344Z" fill="#E9F1F2"/>
<path d="M51.1719 125.578H73.2031V134.391H51.1719V125.578Z" fill="#84D2F4"/>
<path d="M20.3281 125.578H42.3594V134.391H20.3281V125.578Z" fill="#84D2F4"/>
<path d="M31.3438 85.9219V94.7344H42.3594V105.75H51.1719V94.7344H62.1875V85.9219H31.3438Z" fill="#4891D3"/>
<path d="M31.3438 59.4844H62.1875V68.2969H31.3438V59.4844Z" fill="#57B7EB"/>
<path d="M15.9219 55.0781V92.5312H7.10938V63.8906C7.10938 61.5534 8.03783 59.3119 9.6905 57.6592C11.3432 56.0066 13.5847 55.0781 15.9219 55.0781V55.0781Z" fill="#D0D8DA"/>
<path d="M77.6094 55.0781C79.9466 55.0781 82.1881 56.0066 83.8408 57.6592C85.4934 59.3119 86.4219 61.5534 86.4219 63.8906V92.5312H77.6094V55.0781Z" fill="#E9F1F2"/>
<path d="M7.10938 92.5312H15.9219C17.0905 92.5312 18.2112 92.9955 19.0376 93.8218C19.8639 94.6481 20.3281 95.7689 20.3281 96.9375V99.1406C20.3281 100.894 19.6318 102.575 18.3923 103.814C17.1528 105.054 15.4717 105.75 13.7188 105.75C11.9658 105.75 10.2847 105.054 9.04522 103.814C7.80572 102.575 7.10938 100.894 7.10938 99.1406V92.5312Z" fill="#84D2F4"/>
<path d="M77.6094 92.5312H86.4219V99.1406C86.4219 100.894 85.7255 102.575 84.486 103.814C83.2465 105.054 81.5654 105.75 79.8125 105.75C78.0596 105.75 76.3785 105.054 75.139 103.814C73.8995 102.575 73.2031 100.894 73.2031 99.1406V96.9375C73.2031 95.7689 73.6674 94.6481 74.4937 93.8218C75.32 92.9955 76.4408 92.5312 77.6094 92.5312Z" fill="#84D2F4"/>
<path d="M68.7969 15.4219H77.6094V33.0469H68.7969V15.4219Z" fill="#E9F1F2"/>
<path d="M15.9219 15.4219H24.7344V33.0469H15.9219V15.4219Z" fill="#D0D8DA"/>
<path d="M77.6094 19.8281H82.0156C83.1842 19.8281 84.305 20.2924 85.1313 21.1187C85.9576 21.945 86.4219 23.0658 86.4219 24.2344C86.4219 25.403 85.9576 26.5237 85.1313 27.3501C84.305 28.1764 83.1842 28.6406 82.0156 28.6406H77.6094V19.8281Z" fill="#E9F1F2"/>
<path d="M11.5156 19.8281H15.9219V28.6406H11.5156C10.347 28.6406 9.22627 28.1764 8.39994 27.3501C7.5736 26.5237 7.10938 25.403 7.10938 24.2344C7.10938 23.0658 7.5736 21.945 8.39994 21.1187C9.22627 20.2924 10.347 19.8281 11.5156 19.8281V19.8281Z" fill="#D0D8DA"/>
<path d="M68.7969 33.0469V41.8594H24.7344V6.60938H31.3438V17.625C31.3438 21.7151 32.9686 25.6377 35.8607 28.5299C38.7529 31.4221 42.6755 33.0469 46.7656 33.0469H68.7969Z" fill="#D0D8DA"/>
<path d="M77.6094 28.2441V33.0469H68.7969V15.4219H73.2031V22.0312C73.1966 23.3973 73.618 24.7311 74.4083 25.8454C75.1985 26.9597 76.318 27.7985 77.6094 28.2441Z" fill="#D0D8DA"/>
<path d="M86.4219 24.2344C86.4132 25.4003 85.9462 26.516 85.1218 27.3405C84.2973 28.165 83.1816 28.632 82.0156 28.6406H77.6094V19.8281H79.8125C79.816 20.9957 80.2813 22.1144 81.1069 22.94C81.9325 23.7655 83.0512 24.2309 84.2188 24.2344H86.4219Z" fill="#D0D8DA"/>
<path d="M15.9219 28.2441V33.0469H24.7344V15.4219H20.3281V22.0312C20.3347 23.3973 19.9133 24.7311 19.123 25.8454C18.3327 26.9597 17.2133 27.7985 15.9219 28.2441V28.2441Z" fill="#93999A"/>
<path d="M7.10938 24.2344C7.11802 25.4003 7.58503 26.516 8.40949 27.3405C9.23396 28.165 10.3497 28.632 11.5156 28.6406H15.9219V19.8281H13.7188C13.7153 20.9957 13.2499 22.1144 12.4243 22.94C11.5988 23.7655 10.48 24.2309 9.3125 24.2344H7.10938Z" fill="#93999A"/>
<path d="M59.5878 21.6347C59.2973 22.2881 58.8522 22.861 58.2908 23.304C57.7294 23.7469 57.0687 24.0465 56.3657 24.177C55.6626 24.3075 54.9384 24.265 54.2554 24.053C53.5725 23.8411 52.9514 23.4661 52.4458 22.9605C51.9402 22.4549 51.5652 21.8338 51.3532 21.1508C51.1413 20.4679 51.0987 19.7437 51.2292 19.0406C51.3597 18.3376 51.6594 17.6768 52.1023 17.1155C52.5452 16.5541 53.1181 16.109 53.7715 15.8185C53.5057 16.3833 53.3701 17.0007 53.375 17.625C53.3785 18.7926 53.8438 19.9113 54.6694 20.7369C55.495 21.5625 56.6137 22.0278 57.7812 22.0313C58.4055 22.0361 59.0229 21.9006 59.5878 21.6347V21.6347Z" fill="#4891D3"/>
<path d="M41.9628 21.6347C41.6723 22.2881 41.2272 22.861 40.6658 23.304C40.1044 23.7469 39.4437 24.0465 38.7407 24.177C38.0376 24.3075 37.3134 24.265 36.6304 24.053C35.9475 23.8411 35.3264 23.4661 34.8208 22.9605C34.3152 22.4549 33.9402 21.8338 33.7282 21.1508C33.5163 20.4679 33.4737 19.7437 33.6042 19.0406C33.7347 18.3376 34.0344 17.6768 34.4773 17.1155C34.9202 16.5541 35.4931 16.109 36.1465 15.8185C35.8807 16.3833 35.7451 17.0007 35.75 17.625C35.7535 18.7926 36.2188 19.9113 37.0444 20.7369C37.87 21.5625 38.9887 22.0278 40.1562 22.0313C40.7805 22.0361 41.3979 21.9006 41.9628 21.6347V21.6347Z" fill="#4891D3"/>
<path d="M77.6094 85.9219H15.9219V50.6719H24.7344V63.8906C24.7344 67.3965 26.1271 70.7587 28.6061 73.2377C31.0851 75.7167 34.4473 77.1094 37.9531 77.1094H68.7969C71.1341 77.1094 73.3756 78.0378 75.0283 79.6905C76.6809 81.3432 77.6094 83.5847 77.6094 85.9219Z" fill="#D0D8DA"/>
<path d="M86.4219 86.9353V92.5312H77.6094V55.0781C79.1573 55.0797 80.6773 55.4901 82.0156 56.2678V79.3125C82.0127 80.8588 82.4188 82.3783 83.1926 83.717C83.9664 85.0558 85.0805 86.1661 86.4219 86.9353V86.9353Z" fill="#D0D8DA"/>
<path d="M7.10938 86.9353V92.5312H15.9219V55.0781C14.374 55.0797 12.854 55.4901 11.5156 56.2678V79.3125C11.5185 80.8588 11.1125 82.3783 10.3386 83.717C9.56481 85.0558 8.45073 86.1661 7.10938 86.9353V86.9353Z" fill="#93999A"/>
<path d="M86.3558 99.9337C86.1237 101.579 85.2804 103.076 83.9938 104.128C82.7073 105.179 81.0719 105.708 79.4134 105.608C77.7548 105.508 76.1948 104.787 75.0439 103.588C73.8931 102.39 73.2359 100.802 73.2031 99.1406V96.9375C73.2063 95.9631 73.5324 95.0172 74.1303 94.2478C74.7282 93.4785 75.5644 92.929 76.5078 92.6854C76.5482 94.7036 77.3784 96.6256 78.8201 98.0385C80.2618 99.4513 82.2001 100.243 84.2187 100.242C84.9421 100.242 85.6618 100.138 86.3558 99.9337V99.9337Z" fill="#57B7EB"/>
<path d="M19.9536 101.3C19.4369 102.769 18.4182 104.008 17.0771 104.799C15.736 105.59 14.1586 105.883 12.623 105.625C11.0874 105.366 9.69231 104.574 8.6836 103.388C7.67489 102.202 7.11738 100.698 7.10938 99.1406V92.5312H11.6037C11.5407 92.895 11.5112 93.2637 11.5156 93.6328C11.5156 95.6779 12.328 97.6392 13.7741 99.0853C15.2202 100.531 17.1815 101.344 19.2266 101.344C19.4689 101.344 19.7112 101.322 19.9536 101.3Z" fill="#57B7EB"/>
<path d="M73.2031 129.984V134.391H51.1719V125.578H58.1778C58.6233 126.87 59.4621 127.989 60.5764 128.779C61.6907 129.57 63.0246 129.991 64.3906 129.984H73.2031Z" fill="#57B7EB"/>
<path d="M42.3594 129.984V134.391H20.3281V125.578H27.3341C27.7796 126.87 28.6184 127.989 29.7327 128.779C30.847 129.57 32.1808 129.991 33.5469 129.984H42.3594Z" fill="#57B7EB"/>
<path d="M64.3906 118.969V125.578H51.1719V94.7344H57.7812V114.562C57.7847 115.73 58.2501 116.849 59.0757 117.674C59.9012 118.5 61.02 118.965 62.1875 118.969H64.3906Z" fill="#D0D8DA"/>
<path d="M42.3594 118.969V125.578H29.1406V94.7344H35.75V114.562C35.7535 115.73 36.2188 116.849 37.0444 117.674C37.87 118.5 38.9887 118.965 40.1562 118.969H42.3594Z" fill="#D0D8DA"/>
<path d="M62.1875 68.2969H31.3438V59.4844H44.5625L62.1875 68.2969Z" fill="#4891D3"/>
<path d="M51.1719 35.25H42.3594C41.7751 35.25 41.2147 35.0179 40.8015 34.6047C40.3884 34.1916 40.1562 33.6312 40.1562 33.0469C40.1562 32.4626 40.3884 31.9022 40.8015 31.489C41.2147 31.0759 41.7751 30.8438 42.3594 30.8438H51.1719C51.7562 30.8438 52.3166 31.0759 52.7297 31.489C53.1429 31.9022 53.375 32.4626 53.375 33.0469C53.375 33.6312 53.1429 34.1916 52.7297 34.6047C52.3166 35.0179 51.7562 35.25 51.1719 35.25Z" fill="#656B76"/>
<path d="M55.5781 79.3125H37.9531C37.3688 79.3125 36.8084 79.0804 36.3953 78.6672C35.9821 78.2541 35.75 77.6937 35.75 77.1094C35.75 76.5251 35.9821 75.9647 36.3953 75.5515C36.8084 75.1384 37.3688 74.9062 37.9531 74.9062H55.5781C56.1624 74.9062 56.7228 75.1384 57.136 75.5515C57.5491 75.9647 57.7812 76.5251 57.7812 77.1094C57.7812 77.6937 57.5491 78.2541 57.136 78.6672C56.7228 79.0804 56.1624 79.3125 55.5781 79.3125Z" fill="#57B7EB"/>
<path d="M57.7813 77.1093C57.7813 77.6936 57.5491 78.254 57.136 78.6671C56.7228 79.0803 56.1624 79.3124 55.5781 79.3124H37.9531C37.3688 79.3124 36.8084 79.0803 36.3953 78.6671C35.9821 78.254 35.75 77.6936 35.75 77.1093C35.7464 77.0424 35.7539 76.9754 35.772 76.911L57.7813 77.1093Z" fill="#4891D3"/>
</g>
<defs>
<clipPath id="clip0_22_2675">
<rect width="141" height="141" fill="white" transform="translate(0.5)"/>
</clipPath>
</defs>
</svg>
