<svg width="6" height="8" viewBox="0 0 6 8" fill="none" xmlns="http://www.w3.org/2000/svg">
<path d="M4.88663 3.52667L2.05996 0.700006C1.99799 0.637521 1.92425 0.587925 1.84301 0.554079C1.76177 0.520233 1.67464 0.502808 1.58663 0.502808C1.49862 0.502808 1.41148 0.520233 1.33024 0.554079C1.249 0.587925 1.17527 0.637521 1.1133 0.700006C0.989128 0.824915 0.919434 0.993883 0.919434 1.17001C0.919434 1.34613 0.989128 1.5151 1.1133 1.64001L3.4733 4.00001L1.1133 6.36001C0.989128 6.48491 0.919434 6.65388 0.919434 6.83001C0.919434 7.00613 0.989128 7.1751 1.1133 7.30001C1.17559 7.36179 1.24947 7.41068 1.33069 7.44385C1.41192 7.47703 1.49889 7.49385 1.58663 7.49334C1.67437 7.49385 1.76134 7.47703 1.84257 7.44385C1.92379 7.41068 1.99767 7.36179 2.05996 7.30001L4.88663 4.47334C4.94911 4.41136 4.99871 4.33763 5.03256 4.25639C5.0664 4.17515 5.08383 4.08801 5.08383 4.00001C5.08383 3.912 5.0664 3.82486 5.03256 3.74362C4.99871 3.66238 4.94911 3.58865 4.88663 3.52667Z" fill="#B3B8C2"/>
</svg>
