<svg width="48" height="48" viewBox="0 0 48 48" fill="none" xmlns="http://www.w3.org/2000/svg">
<path d="M29.92 23.6199C29.8724 23.4972 29.801 23.385 29.71 23.2899L24.71 18.2899C24.6168 18.1967 24.5061 18.1227 24.3842 18.0723C24.2624 18.0218 24.1319 17.9958 24 17.9958C23.7337 17.9958 23.4783 18.1016 23.29 18.2899C23.1968 18.3832 23.1228 18.4939 23.0723 18.6157C23.0219 18.7375 22.9959 18.8681 22.9959 18.9999C22.9959 19.2662 23.1017 19.5216 23.29 19.7099L26.59 22.9999H19C18.7348 22.9999 18.4804 23.1053 18.2929 23.2928C18.1054 23.4804 18 23.7347 18 23.9999C18 24.2652 18.1054 24.5195 18.2929 24.707C18.4804 24.8946 18.7348 24.9999 19 24.9999H26.59L23.29 28.2899C23.1963 28.3829 23.1219 28.4935 23.0711 28.6154C23.0203 28.7372 22.9942 28.8679 22.9942 28.9999C22.9942 29.132 23.0203 29.2627 23.0711 29.3845C23.1219 29.5064 23.1963 29.617 23.29 29.7099C23.383 29.8037 23.4936 29.8781 23.6154 29.9288C23.7373 29.9796 23.868 30.0057 24 30.0057C24.132 30.0057 24.2627 29.9796 24.3846 29.9288C24.5064 29.8781 24.617 29.8037 24.71 29.7099L29.71 24.7099C29.801 24.6148 29.8724 24.5027 29.92 24.3799C30.02 24.1365 30.02 23.8634 29.92 23.6199Z" fill="#07395A"/>
<rect x="0.5" y="0.5" width="47" height="47" rx="3.5" stroke="#07395A"/>
</svg>
