<svg width="142" height="141" viewBox="0 0 142 141" fill="none" xmlns="http://www.w3.org/2000/svg">
<path d="M122.465 101.52H97.085C96.524 101.52 95.9861 101.297 95.5894 100.901C95.1928 100.504 94.97 99.966 94.97 99.405C94.97 98.8441 95.1928 98.3061 95.5894 97.9095C95.9861 97.5129 96.524 97.29 97.085 97.29H122.465C123.026 97.29 123.564 97.5129 123.96 97.9095C124.357 98.3061 124.58 98.8441 124.58 99.405C124.58 99.966 124.357 100.504 123.96 100.901C123.564 101.297 123.026 101.52 122.465 101.52Z" fill="#57B7EB"/>
<path d="M46.325 101.52H27.29C26.7291 101.52 26.1911 101.297 25.7945 100.901C25.3978 100.504 25.175 99.966 25.175 99.405C25.175 98.8441 25.3978 98.3061 25.7945 97.9095C26.1911 97.5129 26.7291 97.29 27.29 97.29H46.325C46.8859 97.29 47.4239 97.5129 47.8205 97.9095C48.2172 98.3061 48.44 98.8441 48.44 99.405C48.44 99.966 48.2172 100.504 47.8205 100.901C47.4239 101.297 46.8859 101.52 46.325 101.52Z" fill="#57B7EB"/>
<path d="M46.325 101.52C53.3335 101.52 59.015 95.8385 59.015 88.83C59.015 81.8215 53.3335 76.14 46.325 76.14C39.3165 76.14 33.635 81.8215 33.635 88.83C33.635 95.8385 39.3165 101.52 46.325 101.52Z" fill="#57B7EB"/>
<path d="M50.555 97.2901C52.8847 97.294 55.1695 96.6496 57.1538 95.4289C55.5564 98.0418 53.0671 99.9881 50.1461 100.908C47.225 101.828 44.0697 101.66 41.2633 100.434C38.4568 99.2079 36.189 97.0076 34.8789 94.2394C33.5688 91.4713 33.3051 88.3225 34.1364 85.375C34.9678 82.4275 36.838 79.8806 39.4014 78.2049C41.9649 76.5293 45.0482 75.8383 48.0816 76.2596C51.115 76.6809 53.8933 78.186 55.9031 80.4967C57.9129 82.8075 59.0183 85.7676 59.015 88.8301H38.6053C39.4768 91.3035 41.0942 93.4455 43.2346 94.9608C45.3749 96.4761 47.9326 97.2899 50.555 97.2901V97.2901Z" fill="#4891D3"/>
<path d="M114.005 19.035H126.695V31.725H109.775V23.265C109.775 22.1432 110.221 21.0673 111.014 20.274C111.807 19.4807 112.883 19.035 114.005 19.035Z" fill="#E9F1F2"/>
<path d="M128.81 31.725H126.695V19.035H128.81C130.493 19.035 132.107 19.7035 133.297 20.8934C134.486 22.0834 135.155 23.6972 135.155 25.38C135.155 27.0628 134.486 28.6767 133.297 29.8666C132.107 31.0565 130.493 31.725 128.81 31.725V31.725Z" fill="#F9E109"/>
<path d="M46.325 93.0601C48.6612 93.0601 50.555 91.1663 50.555 88.8301C50.555 86.4939 48.6612 84.6001 46.325 84.6001C43.9888 84.6001 42.095 86.4939 42.095 88.8301C42.095 91.1663 43.9888 93.0601 46.325 93.0601Z" fill="#656B76"/>
<path d="M120.35 101.52C127.358 101.52 133.04 95.8385 133.04 88.83C133.04 81.8215 127.358 76.14 120.35 76.14C113.341 76.14 107.66 81.8215 107.66 88.83C107.66 95.8385 113.341 101.52 120.35 101.52Z" fill="#57B7EB"/>
<path d="M126.695 99.405C126.928 99.405 127.16 99.405 127.393 99.3839C125.04 100.954 122.23 101.693 119.409 101.483C116.588 101.273 113.918 100.126 111.823 98.2256C109.728 96.3247 108.328 93.7784 107.846 90.991C107.363 88.2036 107.826 85.335 109.161 82.8408C110.496 80.3466 112.625 78.3698 115.212 77.2245C117.798 76.0791 120.693 75.8308 123.437 76.519C126.181 77.2071 128.616 78.7924 130.356 81.0229C132.096 83.2534 133.04 86.0012 133.04 88.83H120.646L120.096 89.2742C118.6 90.4384 117.016 91.4849 115.359 92.4044C116.413 94.5075 118.032 96.2759 120.034 97.5122C122.036 98.7484 124.342 99.4038 126.695 99.405V99.405Z" fill="#4891D3"/>
<path d="M120.35 93.0601C122.686 93.0601 124.58 91.1663 124.58 88.8301C124.58 86.4939 122.686 84.6001 120.35 84.6001C118.014 84.6001 116.12 86.4939 116.12 88.8301C116.12 91.1663 118.014 93.0601 120.35 93.0601Z" fill="#656B76"/>
<path d="M80.165 80.37H31.52C31.52 72.5169 34.6396 64.9855 40.1926 59.4326C45.7455 53.8796 53.2769 50.76 61.13 50.76H80.165V80.37Z" fill="#D0D8DA"/>
<path d="M71.4512 56.8512C70.8612 57.4393 70.393 58.1382 70.0737 58.9076C69.7543 59.677 69.5899 60.5019 69.59 61.335C69.59 64.1397 70.7041 66.8295 72.6873 68.8127C74.6705 70.7959 77.3603 71.91 80.165 71.91V80.37H31.52C31.52 72.5169 34.6396 64.9855 40.1926 59.4326C45.7455 53.8796 53.2769 50.76 61.13 50.76H80.165V54.99H75.935C75.1019 54.9899 74.277 55.1543 73.5076 55.4737C72.7381 55.7931 72.0393 56.2612 71.4512 56.8512V56.8512Z" fill="#93999A"/>
<path d="M65.36 84.6001H27.29C27.29 77.8689 29.964 71.4134 34.7236 66.6537C39.4833 61.894 45.9388 59.2201 52.67 59.2201C56.0356 59.2201 59.2633 60.5571 61.6432 62.9369C64.023 65.3167 65.36 68.5445 65.36 71.9101V84.6001Z" fill="#E9F1F2"/>
<path d="M84.395 50.76H67.475C66.3531 50.76 65.2772 50.3144 64.4839 49.5211C63.6906 48.7278 63.245 47.6519 63.245 46.53C63.245 45.4082 63.6906 44.3323 64.4839 43.539C65.2772 42.7457 66.3531 42.3 67.475 42.3H84.395C85.5168 42.3 86.5928 42.7457 87.386 43.539C88.1793 44.3323 88.625 45.4082 88.625 46.53C88.625 47.6519 88.1793 48.7278 87.386 49.5211C86.5928 50.3144 85.5168 50.76 84.395 50.76Z" fill="#57B7EB"/>
<path d="M126.695 78.2551L118.235 31.7251H109.775V59.2201C105.773 60.895 102.223 63.4925 99.4153 66.8005C96.6079 70.1086 94.6223 74.0335 93.6206 78.2551H65.36V86.7151C65.36 88.3979 66.0285 90.0117 67.2184 91.2017C68.4083 92.3916 70.0222 93.0601 71.705 93.0601H94.5977C103.064 93.0599 111.288 90.2378 117.971 85.04L126.695 78.2551Z" fill="#D0D8DA"/>
<path d="M126.695 78.2551L123.311 59.6431C118.44 55.3781 115.366 49.4261 114.707 42.9854L114.47 40.6081C114.411 40.0199 114.476 39.4258 114.661 38.8642C114.845 38.3026 115.145 37.7859 115.542 37.3475C115.939 36.9091 116.423 36.5587 116.963 36.3188C117.503 36.079 118.088 35.9551 118.679 35.9551H119.005L118.235 31.7251H109.775V51.1492C111.009 51.583 112.079 52.3886 112.836 53.4552C113.594 54.5217 114.002 55.7969 114.005 57.1051V56.9613C114.022 58.1678 113.726 59.3582 113.144 60.4154C112.562 61.4726 111.715 62.3602 110.687 62.9911C105.538 66.0206 101.512 70.6402 99.2148 76.1549C98.6894 77.4069 97.805 78.4754 96.6732 79.2256C95.5414 79.9757 94.2128 80.3739 92.855 80.3701H88.625C87.7372 80.3685 86.8597 80.1793 86.0501 79.8148C85.2406 79.4503 84.5172 78.9188 83.9276 78.2551H65.36V86.7151C65.36 88.3979 66.0285 90.0117 67.2184 91.2017C68.4083 92.3916 70.0222 93.0601 71.705 93.0601H94.5977C103.064 93.0599 111.288 90.2378 117.971 85.04L126.695 78.2551Z" fill="#93999A"/>
<path d="M101.315 84.6001C101.315 79.5517 103.32 74.71 106.89 71.1403C110.46 67.5705 115.302 65.5651 120.35 65.5651C125.398 65.5651 130.24 67.5705 133.81 71.1403C137.379 74.71 139.385 79.5517 139.385 84.6001H101.315Z" fill="#E9F1F2"/>
<path d="M126.695 27.495V31.725H109.775V23.265C109.778 22.1442 110.225 21.0702 111.018 20.2777C111.81 19.4851 112.884 19.0384 114.005 19.035C114.005 21.2788 114.896 23.4306 116.483 25.0172C118.069 26.6037 120.221 27.495 122.465 27.495H126.695Z" fill="#D0D8DA"/>
<path d="M109.775 31.725C112.111 31.725 114.005 29.8312 114.005 27.495C114.005 25.1588 112.111 23.265 109.775 23.265C107.439 23.265 105.545 25.1588 105.545 27.495C105.545 29.8312 107.439 31.725 109.775 31.725Z" fill="#57B7EB"/>
<path d="M113.624 29.2293C113.345 29.8566 112.918 30.4066 112.379 30.8318C111.84 31.257 111.206 31.5447 110.531 31.67C109.856 31.7952 109.161 31.7544 108.505 31.5509C107.85 31.3474 107.253 30.9875 106.768 30.5021C106.283 30.0167 105.923 29.4204 105.719 28.7648C105.516 28.1092 105.475 27.4139 105.6 26.739C105.725 26.0641 106.013 25.4298 106.438 24.8909C106.863 24.3519 107.413 23.9246 108.041 23.6458C107.785 24.188 107.655 24.7807 107.66 25.3801C107.663 26.5009 108.11 27.5749 108.903 28.3674C109.695 29.16 110.769 29.6067 111.89 29.61C112.489 29.6147 113.082 29.4846 113.624 29.2293V29.2293Z" fill="#4891D3"/>
<path d="M139.385 84.6001H101.315C101.316 80.8661 102.416 77.2149 104.477 74.1011C106.537 70.9872 109.469 68.5483 112.905 67.0879C114.087 70.358 116.249 73.1845 119.094 75.1826C121.94 77.1808 125.333 78.2536 128.81 78.2551H138.285C139.018 80.2901 139.39 82.4372 139.385 84.6001V84.6001Z" fill="#D0D8DA"/>
<path d="M65.36 78.2551V84.6001H27.29C27.283 81.2655 27.9353 77.9624 29.2093 74.8808C30.4833 71.7992 32.354 68.9998 34.7137 66.6437C35.7383 65.6112 36.8571 64.6766 38.0554 63.8519C38.6579 67.8578 40.6778 71.5146 43.7477 74.1576C46.8177 76.8007 50.734 78.2546 54.785 78.2551H65.36Z" fill="#D0D8DA"/>
<path d="M88.625 46.53C88.6167 47.6493 88.1683 48.7204 87.3769 49.5119C86.5854 50.3034 85.5143 50.7517 84.395 50.76H67.475C66.3541 50.7567 65.2802 50.31 64.4876 49.5174C63.6951 48.7249 63.2483 47.6509 63.245 46.53C63.2533 45.4107 63.7016 44.3397 64.4931 43.5482C65.2846 42.7567 66.3557 42.3084 67.475 42.3C67.4783 43.4209 67.9251 44.4949 68.7176 45.2874C69.5102 46.08 70.5841 46.5267 71.705 46.53H88.625Z" fill="#4891D3"/>
<path d="M127.964 74.4479C125.757 72.83 123.092 71.9576 120.356 71.9576C117.62 71.9576 114.955 72.83 112.749 74.4479C112.526 74.6146 112.339 74.8234 112.198 75.0623C112.056 75.3013 111.963 75.5659 111.924 75.8408C111.885 76.1158 111.9 76.3958 111.969 76.6648C112.038 76.9339 112.159 77.1867 112.326 77.4089C112.492 77.6311 112.701 77.8183 112.94 77.9598C113.179 78.1013 113.444 78.1944 113.719 78.2337C113.994 78.2729 114.274 78.2577 114.543 78.1887C114.812 78.1198 115.064 77.9986 115.287 77.8319C116.757 76.7529 118.533 76.1711 120.356 76.1711C122.18 76.1711 123.956 76.7529 125.426 77.8319C125.648 77.9986 125.901 78.1198 126.17 78.1887C126.439 78.2577 126.719 78.2729 126.994 78.2337C127.269 78.1944 127.534 78.1013 127.773 77.9598C128.012 77.8183 128.22 77.6311 128.387 77.4089C128.554 77.1867 128.675 76.9339 128.744 76.6648C128.813 76.3958 128.828 76.1158 128.789 75.8408C128.749 75.5659 128.656 75.3013 128.515 75.0623C128.373 74.8234 128.186 74.6146 127.964 74.4479Z" fill="#93999A"/>
<path d="M71.705 61.3351C72.8731 61.3351 73.82 60.3882 73.82 59.2201C73.82 58.052 72.8731 57.1051 71.705 57.1051C70.5369 57.1051 69.59 58.052 69.59 59.2201C69.59 60.3882 70.5369 61.3351 71.705 61.3351Z" fill="#57B7EB"/>
<path d="M71.705 67.6801C72.8731 67.6801 73.82 66.7332 73.82 65.5651C73.82 64.397 72.8731 63.4501 71.705 63.4501C70.5369 63.4501 69.59 64.397 69.59 65.5651C69.59 66.7332 70.5369 67.6801 71.705 67.6801Z" fill="#57B7EB"/>
<path d="M52.67 69.7951H48.44C47.879 69.7951 47.3411 69.5722 46.9444 69.1756C46.5478 68.779 46.325 68.241 46.325 67.6801C46.325 67.1191 46.5478 66.5812 46.9444 66.1845C47.3411 65.7879 47.879 65.5651 48.44 65.5651H52.67C53.2309 65.5651 53.7689 65.7879 54.1655 66.1845C54.5621 66.5812 54.785 67.1191 54.785 67.6801C54.785 68.241 54.5621 68.779 54.1655 69.1756C53.7689 69.5722 53.2309 69.7951 52.67 69.7951Z" fill="#57B7EB"/>
<path d="M52.67 78.255H44.21C43.6491 78.255 43.1111 78.0322 42.7145 77.6356C42.3178 77.2389 42.095 76.701 42.095 76.14C42.095 75.5791 42.3178 75.0411 42.7145 74.6445C43.1111 74.2479 43.6491 74.025 44.21 74.025H52.67C53.2309 74.025 53.7689 74.2479 54.1655 74.6445C54.5622 75.0411 54.785 75.5791 54.785 76.14C54.785 76.701 54.5622 77.2389 54.1655 77.6356C53.7689 78.0322 53.2309 78.255 52.67 78.255Z" fill="#57B7EB"/>
<path d="M121.704 50.76H118.235C117.674 50.76 117.136 50.5372 116.739 50.1406C116.343 49.7439 116.12 49.206 116.12 48.645C116.12 48.0841 116.343 47.5461 116.739 47.1495C117.136 46.7529 117.674 46.53 118.235 46.53H120.921L121.704 50.76Z" fill="#57B7EB"/>
<path d="M122.846 57.0627C122.72 57.0872 122.593 57.1014 122.465 57.105H118.235C117.674 57.105 117.136 56.8822 116.739 56.4855C116.343 56.0889 116.12 55.5509 116.12 54.99C116.12 54.4291 116.343 53.8911 116.739 53.4945C117.136 53.0978 117.674 52.875 118.235 52.875H122.084L122.846 57.0627Z" fill="#57B7EB"/>
<path d="M120.794 57.1051H118.235C117.674 57.1051 117.136 56.8822 116.739 56.4856C116.343 56.0889 116.12 55.551 116.12 54.9901C116.118 54.4954 116.291 54.0158 116.608 53.6364C116.925 53.257 117.367 53.0023 117.854 52.9174C118.69 54.4092 119.675 55.8123 120.794 57.1051V57.1051Z" fill="#656B76"/>
<path d="M120.794 57.1051H118.235C117.674 57.1051 117.136 56.8822 116.739 56.4856C116.343 56.0889 116.12 55.551 116.12 54.9901C116.118 54.4954 116.291 54.0158 116.608 53.6364C116.925 53.257 117.367 53.0023 117.854 52.9174C118.69 54.4092 119.675 55.8123 120.794 57.1051V57.1051Z" fill="#4891D3"/>
<path d="M69.738 59.9815C69.6343 59.7413 69.5838 59.4816 69.59 59.2201C69.5913 58.7597 69.7428 58.3124 70.0214 57.9459C70.3001 57.5795 70.6907 57.314 71.1339 57.1897C70.4434 57.9895 69.9636 58.9492 69.738 59.9815V59.9815Z" fill="#4891D3"/>
<path d="M71.705 67.68C71.144 67.68 70.6061 67.4572 70.2094 67.0605C69.8128 66.6639 69.59 66.1259 69.59 65.565C69.5976 65.1087 69.7453 64.6657 70.013 64.296C70.365 65.5181 70.9385 66.6652 71.705 67.68V67.68Z" fill="#4891D3"/>
<path d="M53.1776 78.1916C53.0116 78.2335 52.8412 78.2548 52.67 78.255H44.21C43.6491 78.255 43.1111 78.0322 42.7145 77.6355C42.3178 77.2389 42.095 76.7009 42.095 76.14C42.0945 75.673 42.2504 75.2193 42.5379 74.8512C42.8255 74.4832 43.228 74.2221 43.6812 74.1096C46.3503 76.4165 49.6671 77.8422 53.1776 78.1916V78.1916Z" fill="#4891D3"/>
<path d="M79.0597 101.755C64.5532 101.755 51.6743 96.2892 43.5845 87.843H20.8039L13.848 93.06L10.37 101.755V112.189C10.37 114.11 11.9264 115.667 13.848 115.667H100.797C102.719 115.667 104.275 114.11 104.275 112.189V101.755L102.226 96.6336C95.4844 99.8802 87.5512 101.755 79.0597 101.755Z" fill="#E53935"/>
<path d="M19.0649 86.1038H24.2818C24.2818 81.3025 20.3883 77.4089 15.5869 77.4089H10.37C10.37 82.2103 14.2636 86.1038 19.0649 86.1038Z" fill="#EF5350"/>
<path d="M17.3259 80.8869H22.5029C23.6036 82.3442 24.2818 84.137 24.2818 86.1038H19.0649C14.2636 86.1038 10.37 82.2103 10.37 77.4089H10.41C11.9959 79.5096 14.4914 80.8869 17.3259 80.8869Z" fill="#E53935"/>
<path d="M95.58 86.1038H90.3631C90.3631 81.3025 94.2567 77.4089 99.058 77.4089H104.275C104.275 82.2103 100.381 86.1038 95.58 86.1038Z" fill="#EF5350"/>
<path d="M97.319 80.8869H92.1421C91.0413 82.3442 90.3631 84.137 90.3631 86.1038H95.58C100.381 86.1038 104.275 82.2103 104.275 77.4089H104.235C102.649 79.5096 100.154 80.8869 97.319 80.8869Z" fill="#E53935"/>
<path d="M78.1903 66.975H36.4547C32.2429 66.975 28.4432 69.5069 26.8242 73.3953L20.8039 87.8428H93.8411L87.8207 73.3953C86.2017 69.5069 82.4021 66.975 78.1903 66.975Z" fill="#ADE8F4"/>
<path d="M48.6276 66.975H36.4547C32.2429 66.975 28.4432 69.5069 26.8242 73.3953L20.8039 87.8428H74.7123L48.6276 66.975Z" fill="#48CAE4"/>
<path d="M43.6019 87.8427H20.8039L26.8208 73.3918C28.212 70.053 31.2204 67.7227 34.7157 67.1315C34.7679 74.9047 38.0546 82.0693 43.6019 87.8427Z" fill="#00B4D8"/>
<path d="M87.8207 73.3953C86.2017 69.5069 82.4021 66.975 78.1903 66.975H62.5394L88.6241 87.8428H93.8411L87.8207 73.3953Z" fill="#48CAE4"/>
<path d="M48.2919 90.2198L45.2852 88.4704L46.1599 86.968C46.6434 86.1385 46.8886 85.262 46.8886 84.3647C46.8886 81.4884 44.5479 79.1478 41.6716 79.1478C38.7954 79.1478 36.4547 81.4884 36.4547 84.3647C36.4547 85.262 36.6999 86.1385 37.1833 86.968L38.058 88.4704L35.0513 90.2198L34.1766 88.7174C33.3802 87.3488 32.9767 85.8846 32.9767 84.3647C32.9767 79.5703 36.8773 75.6698 41.6716 75.6698C46.466 75.6698 50.3665 79.5703 50.3665 84.3647C50.3665 85.8846 49.9631 87.3488 49.1666 88.7174L48.2919 90.2198Z" fill="#93999A"/>
<path d="M38.2111 80.4903C37.6407 79.433 37.1538 78.3444 36.7173 77.2367C34.4618 78.8087 32.9767 81.4137 32.9767 84.3648C32.9767 85.5664 33.2393 86.7298 33.7384 87.8427H37.6928L37.1833 86.968C36.6999 86.1385 36.4547 85.2621 36.4547 84.3648C36.4547 82.8206 37.1416 81.445 38.2111 80.4903V80.4903Z" fill="#656B76"/>
<path d="M100.797 93.06L93.8411 87.843H20.8039L13.848 93.06L10.37 101.755V112.189C10.37 114.11 11.9264 115.667 13.848 115.667H100.797C102.719 115.667 104.275 114.11 104.275 112.189V101.755L100.797 93.06Z" fill="#EF5350"/>
<path d="M79.0597 101.755C64.5532 101.755 51.6743 96.2892 43.5845 87.843H20.8039L13.848 93.06L10.37 101.755V112.189C10.37 114.11 11.9264 115.667 13.848 115.667H100.797C102.719 115.667 104.275 114.11 104.275 112.189V101.755L102.226 96.6336C95.4844 99.8802 87.5512 101.755 79.0597 101.755Z" fill="#E53935"/>
<path d="M20.8039 126.1H17.3259C15.4044 126.1 13.848 124.544 13.848 122.622V115.666H24.2819V122.622C24.2819 124.544 22.7255 126.1 20.8039 126.1Z" fill="#656B76"/>
<path d="M97.319 126.1H93.8411C91.9195 126.1 90.3631 124.544 90.3631 122.622V115.666H100.797V122.622C100.797 124.544 99.2406 126.1 97.319 126.1Z" fill="#656B76"/>
<path d="M67.4729 98.2769H47.172C37.9346 98.2769 29.0744 94.5242 22.5428 87.843H92.1021C85.5705 94.5242 76.7103 98.2769 67.4729 98.2769Z" fill="#FF7373"/>
<path d="M86.8851 100.015L90.3631 103.493L104.275 101.754L100.797 93.0596L86.8851 100.015Z" fill="#48CAE4"/>
<path d="M27.7598 100.015L24.2818 103.493L10.37 101.754L13.848 93.0596L27.7598 100.015Z" fill="#00B4D8"/>
<path d="M79.9292 115.666H34.7157L32.9767 108.71L38.1937 105.232H76.4513L81.6682 108.71L79.9292 115.666Z" fill="#656B76"/>
<path d="M100.797 115.666H93.8411V113.928C93.8411 111.046 96.1765 108.711 99.058 108.711H104.275V112.189C104.275 114.11 102.719 115.666 100.797 115.666Z" fill="#48CAE4"/>
<path d="M13.848 115.666H20.8039V113.928C20.8039 111.046 18.4684 108.711 15.5869 108.711H10.37V112.189C10.37 114.11 11.9264 115.666 13.848 115.666Z" fill="#48CAE4"/>
<path d="M59.7048 98.2769H47.1668C37.9328 98.2769 29.0814 94.5207 22.5428 87.843H43.6019C47.8102 92.26 53.3402 95.8597 59.7048 98.2769Z" fill="#EF5350"/>
<path d="M104.275 101.755L90.3631 103.494L87.9285 101.059C93.0759 100.242 97.8929 98.7114 102.223 96.6246L104.275 101.755Z" fill="#00B4D8"/>
<path d="M18.1954 101.754C16.7555 101.754 15.5869 100.586 15.5869 99.1459C15.5869 97.7061 16.7555 96.5375 18.1954 96.5375C19.6353 96.5375 20.8039 97.7061 20.8039 99.1459C20.8039 100.586 19.6353 101.754 18.1954 101.754Z" fill="#48CAE4"/>
<path d="M96.4496 101.754C95.0097 101.754 93.8411 100.586 93.8411 99.1459C93.8411 97.7061 95.0097 96.5375 96.4496 96.5375C97.8894 96.5375 99.058 97.7061 99.058 99.1459C99.058 100.586 97.8894 101.754 96.4496 101.754Z" fill="#ADE8F4"/>
<path d="M96.4495 101.755C97.8894 101.755 99.058 100.586 99.058 99.1461C99.058 98.7739 98.978 98.4209 98.8371 98.101C97.2512 98.7235 95.5957 99.2469 93.9089 99.72C94.1715 100.883 95.2062 101.755 96.4495 101.755V101.755Z" fill="#48CAE4"/>
<path d="M95.58 122.622C95.58 120.701 97.1364 119.144 99.058 119.144H100.797V115.666H90.3631V122.622C90.3631 124.544 91.9195 126.1 93.8411 126.1H95.58V122.622Z" fill="#464A51"/>
<path d="M19.0649 122.622C19.0649 120.701 17.5085 119.144 15.5869 119.144H13.848V115.666H24.2819V122.622C24.2819 124.544 22.7255 126.1 20.8039 126.1H19.0649V122.622Z" fill="#464A51"/>
<path d="M59.0615 105.233H62.5394V115.667H59.0615V105.233Z" fill="#B8BEBF"/>
<path d="M66.0174 105.233H69.4954V115.667H66.0174V105.233Z" fill="#B8BEBF"/>
<path d="M72.9733 105.233H76.4513V115.667H72.9733V105.233Z" fill="#B8BEBF"/>
<path d="M38.1937 105.233H41.6716V115.667H38.1937V105.233Z" fill="#B8BEBF"/>
<path d="M45.1496 105.233H48.6276V115.667H45.1496V105.233Z" fill="#B8BEBF"/>
<path d="M52.1055 105.233H55.5835V115.667H52.1055V105.233Z" fill="#B8BEBF"/>
</svg>
