<svg width="18" height="18" viewBox="0 0 18 18" fill="none" xmlns="http://www.w3.org/2000/svg">
<path d="M16.4998 12.3337H4.83317C4.61216 12.3337 4.4002 12.2459 4.24392 12.0896C4.08763 11.9333 3.99984 11.7213 3.99984 11.5003C3.99984 11.2793 4.08763 11.0674 4.24392 10.9111C4.4002 10.7548 4.61216 10.667 4.83317 10.667H13.5332C14.0904 10.667 14.6316 10.4809 15.071 10.1382C15.5103 9.79546 15.8226 9.31579 15.9582 8.77533L17.3332 3.36699C17.3644 3.244 17.3671 3.1155 17.3411 2.9913C17.3151 2.8671 17.2611 2.75048 17.1832 2.65033C17.1021 2.5476 16.998 2.46541 16.8793 2.41039C16.7606 2.35538 16.6306 2.32909 16.4998 2.33366H4.63317C4.46124 1.84737 4.14311 1.42616 3.72239 1.12777C3.30167 0.829391 2.79896 0.668442 2.28317 0.666992H1.49984C1.27882 0.666992 1.06686 0.75479 0.910582 0.91107C0.754301 1.06735 0.666504 1.27931 0.666504 1.50033C0.666504 1.72134 0.754301 1.9333 0.910582 2.08958C1.06686 2.24586 1.27882 2.33366 1.49984 2.33366H2.28317C2.47353 2.32811 2.66005 2.38794 2.81168 2.50317C2.9633 2.6184 3.07088 2.7821 3.1165 2.96699L3.1665 3.36699L4.60817 9.00033C3.94513 9.03016 3.3211 9.32217 2.87335 9.81211C2.42561 10.302 2.19083 10.9498 2.22067 11.6128C2.25051 12.2759 2.54251 12.8999 3.03245 13.3476C3.52239 13.7954 4.17013 14.0302 4.83317 14.0003H4.98317C4.84612 14.3779 4.80208 14.783 4.85478 15.1812C4.90748 15.5795 5.05538 15.9592 5.28594 16.2881C5.5165 16.6171 5.82293 16.8856 6.1793 17.071C6.53566 17.2565 6.93146 17.3533 7.33317 17.3533C7.73488 17.3533 8.13068 17.2565 8.48704 17.071C8.84341 16.8856 9.14984 16.6171 9.38041 16.2881C9.61097 15.9592 9.75886 15.5795 9.81156 15.1812C9.86427 14.783 9.82022 14.3779 9.68317 14.0003H11.6498C11.5128 14.3779 11.4687 14.783 11.5214 15.1812C11.5741 15.5795 11.722 15.9592 11.9526 16.2881C12.1832 16.6171 12.4896 16.8856 12.846 17.071C13.2023 17.2565 13.5981 17.3533 13.9998 17.3533C14.4015 17.3533 14.7973 17.2565 15.1537 17.071C15.5101 16.8856 15.8165 16.6171 16.0471 16.2881C16.2776 15.9592 16.4255 15.5795 16.4782 15.1812C16.5309 14.783 16.4869 14.3779 16.3498 14.0003H16.4998C16.7209 14.0003 16.9328 13.9125 17.0891 13.7562C17.2454 13.6 17.3332 13.388 17.3332 13.167C17.3332 12.946 17.2454 12.734 17.0891 12.5777C16.9328 12.4215 16.7209 12.3337 16.4998 12.3337ZM15.4332 4.00033L14.3415 8.36699C14.2959 8.55189 14.1883 8.71558 14.0367 8.83081C13.8851 8.94605 13.6985 9.00587 13.5082 9.00033H6.3165L5.0665 4.00033H15.4332ZM7.33317 15.667C7.16835 15.667 7.00724 15.6181 6.8702 15.5266C6.73315 15.435 6.62634 15.3048 6.56327 15.1526C6.5002 15.0003 6.4837 14.8327 6.51585 14.6711C6.548 14.5094 6.62737 14.3609 6.74392 14.2444C6.86046 14.1279 7.00894 14.0485 7.1706 14.0163C7.33225 13.9842 7.4998 14.0007 7.65207 14.0638C7.80435 14.1268 7.93449 14.2336 8.02606 14.3707C8.11763 14.5077 8.1665 14.6688 8.1665 14.8337C8.1665 15.0547 8.07871 15.2666 7.92243 15.4229C7.76615 15.5792 7.55418 15.667 7.33317 15.667ZM13.9998 15.667C13.835 15.667 13.6739 15.6181 13.5369 15.5266C13.3998 15.435 13.293 15.3048 13.2299 15.1526C13.1669 15.0003 13.1504 14.8327 13.1825 14.6711C13.2147 14.5094 13.294 14.3609 13.4106 14.2444C13.5271 14.1279 13.6756 14.0485 13.8373 14.0163C13.9989 13.9842 14.1665 14.0007 14.3187 14.0638C14.471 14.1268 14.6012 14.2336 14.6927 14.3707C14.7843 14.5077 14.8332 14.6688 14.8332 14.8337C14.8332 15.0547 14.7454 15.2666 14.5891 15.4229C14.4328 15.5792 14.2209 15.667 13.9998 15.667Z" fill="white"/>
</svg>
