<svg width="6" height="10" viewBox="0 0 6 10" fill="none" xmlns="http://www.w3.org/2000/svg">
<path d="M5.35841 4.40837L1.82507 0.875039C1.74761 0.796932 1.65544 0.734936 1.55389 0.692629C1.45234 0.650322 1.34342 0.62854 1.23341 0.62854C1.1234 0.62854 1.01448 0.650322 0.912927 0.692629C0.811378 0.734936 0.71921 0.796932 0.641741 0.875039C0.486532 1.03117 0.399414 1.24238 0.399414 1.46254C0.399414 1.68269 0.486532 1.8939 0.641741 2.05004L3.59174 5.00004L0.641741 7.95004C0.486532 8.10617 0.399414 8.31738 0.399414 8.53754C0.399414 8.75769 0.486532 8.9689 0.641741 9.12504C0.719608 9.20227 0.811955 9.26338 0.913486 9.30485C1.01502 9.34632 1.12374 9.36734 1.23341 9.3667C1.34308 9.36734 1.4518 9.34632 1.55333 9.30485C1.65486 9.26338 1.74721 9.20227 1.82507 9.12504L5.35841 5.5917C5.43652 5.51424 5.49851 5.42207 5.54082 5.32052C5.58312 5.21897 5.60491 5.11005 5.60491 5.00004C5.60491 4.89003 5.58312 4.78111 5.54082 4.67956C5.49851 4.57801 5.43652 4.48584 5.35841 4.40837Z" fill="#07395A"/>
</svg>
