<svg width="9" height="8" viewBox="0 0 9 8" fill="none" xmlns="http://www.w3.org/2000/svg">
<path d="M8.69378 1.00616C8.63568 0.947583 8.56655 0.901086 8.49039 0.869356C8.41423 0.837625 8.33254 0.821289 8.25003 0.821289C8.16752 0.821289 8.08583 0.837625 8.00967 0.869356C7.93351 0.901086 7.86438 0.947583 7.80628 1.00616L3.15003 5.66866L1.19378 3.70616C1.13345 3.64789 1.06224 3.60207 0.984206 3.57132C0.906171 3.54056 0.822844 3.52548 0.738981 3.52693C0.655118 3.52838 0.572362 3.54634 0.495438 3.57977C0.418514 3.6132 0.348929 3.66146 0.290655 3.72179C0.23238 3.78211 0.186559 3.85333 0.155807 3.93136C0.125054 4.0094 0.109973 4.09272 0.111424 4.17659C0.112875 4.26045 0.130829 4.34321 0.164263 4.42013C0.197696 4.49705 0.245954 4.56664 0.30628 4.62491L2.70628 7.02491C2.76438 7.08349 2.83351 7.12999 2.90967 7.16172C2.98583 7.19345 3.06752 7.20979 3.15003 7.20979C3.23254 7.20979 3.31423 7.19345 3.39039 7.16172C3.46655 7.12999 3.53568 7.08349 3.59378 7.02491L8.69378 1.92491C8.75722 1.86639 8.80785 1.79535 8.84248 1.71629C8.87711 1.63723 8.89499 1.55185 8.89499 1.46554C8.89499 1.37922 8.87711 1.29385 8.84248 1.21478C8.80785 1.13572 8.75722 1.06469 8.69378 1.00616V1.00616Z" fill="#56891E"/>
</svg>
