<svg width="14" height="12" viewBox="0 0 14 12" fill="none" xmlns="http://www.w3.org/2000/svg">
<path d="M10.3335 2.66667H11.0002V3.33333C11.0002 3.51014 11.0704 3.67971 11.1954 3.80474C11.3204 3.92976 11.49 4 11.6668 4C11.8436 4 12.0132 3.92976 12.1382 3.80474C12.2633 3.67971 12.3335 3.51014 12.3335 3.33333V2.66667H13.0002C13.177 2.66667 13.3465 2.59643 13.4716 2.4714C13.5966 2.34638 13.6668 2.17681 13.6668 2C13.6668 1.82319 13.5966 1.65362 13.4716 1.5286C13.3465 1.40357 13.177 1.33333 13.0002 1.33333H12.3335V0.666667C12.3335 0.489856 12.2633 0.320286 12.1382 0.195262C12.0132 0.0702379 11.8436 0 11.6668 0C11.49 0 11.3204 0.0702379 11.1954 0.195262C11.0704 0.320286 11.0002 0.489856 11.0002 0.666667V1.33333H10.3335C10.1567 1.33333 9.98712 1.40357 9.86209 1.5286C9.73707 1.65362 9.66683 1.82319 9.66683 2C9.66683 2.17681 9.73707 2.34638 9.86209 2.4714C9.98712 2.59643 10.1567 2.66667 10.3335 2.66667ZM13.0002 5.33333C12.8234 5.33333 12.6538 5.40357 12.5288 5.5286C12.4037 5.65362 12.3335 5.82319 12.3335 6V10C12.3335 10.1768 12.2633 10.3464 12.1382 10.4714C12.0132 10.5964 11.8436 10.6667 11.6668 10.6667H2.3335C2.15669 10.6667 1.98712 10.5964 1.86209 10.4714C1.73707 10.3464 1.66683 10.1768 1.66683 10V3.60667L5.58683 7.53333C5.96183 7.90787 6.47016 8.11824 7.00016 8.11824C7.53016 8.11824 8.0385 7.90787 8.4135 7.53333L10.0602 5.88667C10.1857 5.76113 10.2562 5.59087 10.2562 5.41333C10.2562 5.2358 10.1857 5.06554 10.0602 4.94C9.93463 4.81446 9.76436 4.74394 9.58683 4.74394C9.4093 4.74394 9.23903 4.81446 9.1135 4.94L7.46683 6.58667C7.34221 6.70882 7.17466 6.77724 7.00016 6.77724C6.82566 6.77724 6.65812 6.70882 6.5335 6.58667L2.60683 2.66667H7.66683C7.84364 2.66667 8.01321 2.59643 8.13823 2.4714C8.26326 2.34638 8.3335 2.17681 8.3335 2C8.3335 1.82319 8.26326 1.65362 8.13823 1.5286C8.01321 1.40357 7.84364 1.33333 7.66683 1.33333H2.3335C1.80306 1.33333 1.29436 1.54405 0.919283 1.91912C0.54421 2.29419 0.333496 2.8029 0.333496 3.33333V10C0.333496 10.5304 0.54421 11.0391 0.919283 11.4142C1.29436 11.7893 1.80306 12 2.3335 12H11.6668C12.1973 12 12.706 11.7893 13.081 11.4142C13.4561 11.0391 13.6668 10.5304 13.6668 10V6C13.6668 5.82319 13.5966 5.65362 13.4716 5.5286C13.3465 5.40357 13.177 5.33333 13.0002 5.33333Z" fill="#B3B8C2"/>
</svg>
