<svg width="141" height="141" viewBox="0 0 141 141" fill="none" xmlns="http://www.w3.org/2000/svg">
<path d="M103.547 50.6719H37.4531C32.5861 50.6719 28.6406 54.6174 28.6406 59.4844V103.547C28.6406 108.414 32.5861 112.359 37.4531 112.359H103.547C108.414 112.359 112.359 108.414 112.359 103.547V59.4844C112.359 54.6174 108.414 50.6719 103.547 50.6719Z" fill="#D0D8DA"/>
<path d="M112.359 101.344V103.547C112.359 105.884 111.431 108.126 109.778 109.778C108.126 111.431 105.884 112.359 103.547 112.359H37.4531C35.1159 112.359 32.8744 111.431 31.2217 109.778C29.5691 108.126 28.6406 105.884 28.6406 103.547V59.4844C28.6406 57.1472 29.5691 54.9057 31.2217 53.253C32.8744 51.6003 35.1159 50.6719 37.4531 50.6719H46.2656V63.8906C46.2656 73.8238 50.2116 83.3502 57.2354 90.374C64.2592 97.3978 73.7856 101.344 83.7188 101.344H112.359Z" fill="#93999A"/>
<path d="M57.2812 112.359H83.7188V125.578H57.2812V112.359Z" fill="#93999A"/>
<path d="M46.2656 125.578H94.7344C95.903 125.578 97.0237 126.042 97.8501 126.869C98.6764 127.695 99.1406 128.816 99.1406 129.984V134.391H41.8594V129.984C41.8594 128.816 42.3236 127.695 43.1499 126.869C43.9763 126.042 45.097 125.578 46.2656 125.578V125.578Z" fill="#D0D8DA"/>
<path d="M39.6562 59.4844H63.8906C65.6435 59.4844 67.3247 60.1807 68.5642 61.4202C69.8037 62.6597 70.5 64.3408 70.5 66.0938V90.3281C70.5 91.4967 70.0358 92.6175 69.2094 93.4438C68.3831 94.2701 67.2624 94.7344 66.0938 94.7344H46.2656C44.5127 94.7344 42.8316 94.038 41.5921 92.7985C40.3526 91.559 39.6563 89.8779 39.6562 88.125V59.4844Z" fill="#57B7EB"/>
<path d="M74.9062 59.4844H101.344V88.125C101.344 89.8779 100.647 91.559 99.4079 92.7985C98.1684 94.038 96.4873 94.7344 94.7344 94.7344H74.9062C73.7376 94.7344 72.6169 94.2701 71.7906 93.4438C70.9642 92.6175 70.5 91.4967 70.5 90.3281V63.8906C70.5 62.722 70.9642 61.6013 71.7906 60.7749C72.6169 59.9486 73.7376 59.4844 74.9062 59.4844Z" fill="#57B7EB"/>
<path d="M101.344 83.7188V88.125C101.344 89.8779 100.647 91.559 99.4079 92.7985C98.1684 94.038 96.4873 94.7344 94.7344 94.7344H74.9062C73.7376 94.7344 72.6169 94.2701 71.7906 93.4438C70.9642 92.6175 70.5 91.4967 70.5 90.3281V63.8906C70.5035 62.7231 70.9688 61.6044 71.7944 60.7788C72.62 59.9532 73.7387 59.4879 74.9062 59.4844H79.3125V66.0938C79.3125 70.7682 81.1694 75.2512 84.4747 78.5565C87.7801 81.8618 92.2631 83.7188 96.9375 83.7188H101.344Z" fill="#4891D3"/>
<path d="M70.5 85.8117V90.3281C70.4965 91.4957 70.0312 92.6144 69.2056 93.44C68.38 94.2655 67.2613 94.7309 66.0938 94.7344H46.2656C44.5127 94.7344 42.8316 94.038 41.5921 92.7985C40.3526 91.559 39.6563 89.8779 39.6562 88.125V59.4844H50.6719V63.8906C50.6748 69.3515 52.7044 74.6168 56.3676 78.6667C60.0308 82.7166 65.0668 85.2627 70.5 85.8117V85.8117Z" fill="#4891D3"/>
<path d="M62.4806 94.7344H46.2656C44.5127 94.7344 42.8316 94.038 41.5921 92.7985C40.3526 91.559 39.6563 89.8779 39.6562 88.125V59.4844H46.2656V63.8906C46.2603 69.9621 47.734 75.9435 50.5592 81.3175C53.3844 86.6916 57.4762 91.2966 62.4806 94.7344V94.7344Z" fill="#2D72BC"/>
<path d="M79.3125 83.7188V70.5L92.5312 77.1094L79.3125 83.7188Z" fill="#F8664F"/>
<path d="M86.3625 80.1938L79.3125 83.7188V70.5L79.9514 70.8305C80.9978 74.573 83.2517 77.8648 86.3625 80.1938Z" fill="#CC5144"/>
<path d="M92.5312 105.75H48.4687C47.8844 105.75 47.3241 105.518 46.9109 105.105C46.4977 104.692 46.2656 104.131 46.2656 103.547C46.2656 102.963 46.4977 102.402 46.9109 101.989C47.3241 101.576 47.8844 101.344 48.4687 101.344H92.5312C93.1156 101.344 93.6759 101.576 94.0891 101.989C94.5023 102.402 94.7344 102.963 94.7344 103.547C94.7344 104.131 94.5023 104.692 94.0891 105.105C93.6759 105.518 93.1156 105.75 92.5312 105.75Z" fill="#CC5144"/>
<path d="M57.2812 107.953C56.6969 107.953 56.1366 107.721 55.7234 107.308C55.3102 106.895 55.0781 106.334 55.0781 105.75V101.344C55.0781 100.759 55.3102 100.199 55.7234 99.7859C56.1366 99.3727 56.6969 99.1406 57.2812 99.1406C57.8656 99.1406 58.4259 99.3727 58.8391 99.7859C59.2523 100.199 59.4844 100.759 59.4844 101.344V105.75C59.4844 106.334 59.2523 106.895 58.8391 107.308C58.4259 107.721 57.8656 107.953 57.2812 107.953Z" fill="#F8664F"/>
<path d="M61.6875 70.5H52.875C52.2907 70.5 51.7303 70.2679 51.3172 69.8547C50.904 69.4416 50.6719 68.8812 50.6719 68.2969C50.6719 67.7126 50.904 67.1522 51.3172 66.739C51.7303 66.3259 52.2907 66.0938 52.875 66.0938H61.6875C62.2718 66.0938 62.8322 66.3259 63.2453 66.739C63.6585 67.1522 63.8906 67.7126 63.8906 68.2969C63.8906 68.8812 63.6585 69.4416 63.2453 69.8547C62.8322 70.2679 62.2718 70.5 61.6875 70.5Z" fill="#F8664F"/>
<path d="M61.6875 79.3125H48.4687C47.8844 79.3125 47.3241 79.0804 46.9109 78.6672C46.4977 78.2541 46.2656 77.6937 46.2656 77.1094C46.2656 76.5251 46.4977 75.9647 46.9109 75.5515C47.3241 75.1384 47.8844 74.9062 48.4687 74.9062H61.6875C62.2718 74.9062 62.8322 75.1384 63.2453 75.5515C63.6585 75.9647 63.8906 76.5251 63.8906 77.1094C63.8906 77.6937 63.6585 78.2541 63.2453 78.6672C62.8322 79.0804 62.2718 79.3125 61.6875 79.3125Z" fill="#F8664F"/>
<path d="M61.6875 88.125H48.4687C47.8844 88.125 47.3241 87.8929 46.9109 87.4797C46.4977 87.0666 46.2656 86.5062 46.2656 85.9219C46.2656 85.3376 46.4977 84.7772 46.9109 84.364C47.3241 83.9509 47.8844 83.7188 48.4687 83.7188H61.6875C62.2718 83.7188 62.8322 83.9509 63.2453 84.364C63.6585 84.7772 63.8906 85.3376 63.8906 85.9219C63.8906 86.5062 63.6585 87.0666 63.2453 87.4797C62.8322 87.8929 62.2718 88.125 61.6875 88.125Z" fill="#CC5144"/>
<path d="M50.6719 68.297C50.6676 67.9416 50.7589 67.5916 50.9363 67.2836C51.0845 68.2207 51.2905 69.1478 51.5531 70.0595C51.2795 69.8543 51.0574 69.5882 50.9045 69.2823C50.7515 68.9764 50.6719 68.639 50.6719 68.297V68.297Z" fill="#CC5144"/>
<path d="M56.9728 79.3125H48.4687C47.8844 79.3125 47.3241 79.0804 46.9109 78.6672C46.4977 78.2541 46.2656 77.6937 46.2656 77.1094C46.2656 76.5251 46.4977 75.9647 46.9109 75.5515C47.3241 75.1384 47.8844 74.9062 48.4687 74.9062H53.6461C54.555 76.5159 55.6736 77.9976 56.9728 79.3125V79.3125Z" fill="#CC5144"/>
<path d="M46.2656 77.1093C46.266 76.6173 46.4311 76.1396 46.7345 75.7523C47.038 75.365 47.4624 75.0904 47.94 74.9723C48.3986 76.4524 48.9505 77.9021 49.5923 79.3124H48.4687C47.8844 79.3124 47.3241 79.0803 46.9109 78.6672C46.4977 78.254 46.2656 77.6936 46.2656 77.1093Z" fill="#AD4038"/>
<path d="M55.2103 88.125H48.4687C47.8844 88.125 47.3241 87.8929 46.9109 87.4797C46.4977 87.0666 46.2656 86.5062 46.2656 85.9219C46.2656 85.3376 46.4977 84.7772 46.9109 84.364C47.3241 83.9509 47.8844 83.7188 48.4687 83.7188H51.9497C52.9197 85.2705 54.0099 86.7437 55.2103 88.125V88.125Z" fill="#AD4038"/>
<path d="M57.2812 125.578V112.359H83.7188L57.2812 125.578Z" fill="#656B76"/>
<path d="M99.1406 129.984V134.391H41.8594V129.984C41.8629 128.817 42.3282 127.698 43.1538 126.873C43.9794 126.047 45.0981 125.582 46.2656 125.578H53.2716C53.7171 126.87 54.5559 127.989 55.6702 128.779C56.7845 129.57 58.1183 129.991 59.4844 129.984H99.1406Z" fill="#93999A"/>
<path d="M26.4375 134.391C26.057 134.391 25.6828 134.293 25.3516 134.105C25.0203 133.918 24.7432 133.648 24.5472 133.322L19.8281 125.455L15.1068 133.322C14.8005 133.812 14.3143 134.161 13.7528 134.296C13.1913 134.43 12.5994 134.339 12.1044 134.042C11.6095 133.744 11.2511 133.265 11.1064 132.706C10.9617 132.147 11.0422 131.553 11.3307 131.053L17.94 120.037C18.1503 119.731 18.4321 119.48 18.761 119.306C19.09 119.133 19.4563 119.042 19.8281 119.042C20.2 119.042 20.5662 119.133 20.8952 119.306C21.2242 119.48 21.506 119.731 21.7162 120.037L28.3256 131.053C28.5264 131.387 28.6349 131.769 28.64 132.159C28.6451 132.549 28.5466 132.933 28.3547 133.272C28.1627 133.612 27.884 133.894 27.5472 134.09C27.2104 134.287 26.8274 134.391 26.4375 134.391V134.391Z" fill="#93999A"/>
<path d="M19.8281 99.1406C19.2438 99.1406 18.6834 98.9085 18.2703 98.4953C17.8571 98.0822 17.625 97.5218 17.625 96.9375V90.3281C17.625 89.7438 17.8571 89.1834 18.2703 88.7703C18.6834 88.3571 19.2438 88.125 19.8281 88.125C20.4124 88.125 20.9728 88.3571 21.386 88.7703C21.7991 89.1834 22.0312 89.7438 22.0312 90.3281V96.9375C22.0312 97.5218 21.7991 98.0822 21.386 98.4953C20.9728 98.9085 20.4124 99.1406 19.8281 99.1406Z" fill="#D0D8DA"/>
<path d="M12.4212 105.75C11.8369 105.75 11.2765 105.518 10.8634 105.105C10.4502 104.692 10.2181 104.131 10.2181 103.547V98.4621C10.2142 98.0689 10.056 97.6931 9.77747 97.4156L8.32561 95.9637C7.50252 95.1407 6.94213 94.0919 6.71536 92.9502C6.48859 91.8085 6.60564 90.6252 7.05169 89.5501C7.49774 88.4749 8.25273 87.5563 9.22111 86.9104C10.1895 86.2646 11.3277 85.9205 12.4917 85.9219H14.6243C15.2086 85.9219 15.769 86.154 16.1822 86.5672C16.5954 86.9803 16.8275 87.5407 16.8275 88.125C16.8275 88.7093 16.5954 89.2697 16.1822 89.6829C15.769 90.096 15.2086 90.3281 14.6243 90.3281H12.4917C12.2004 90.3297 11.916 90.4174 11.6744 90.5802C11.4328 90.7431 11.2448 90.9738 11.1341 91.2433C11.0234 91.5128 10.9949 91.809 11.0522 92.0946C11.1095 92.3803 11.2501 92.6426 11.4562 92.8485L12.9103 94.3026C13.4582 94.8476 13.8926 95.4958 14.1883 96.2098C14.484 96.9238 14.6352 97.6893 14.6332 98.4621V103.547C14.6332 103.837 14.5759 104.124 14.4646 104.392C14.3533 104.66 14.1903 104.903 13.9848 105.108C13.7792 105.313 13.5353 105.475 13.267 105.585C12.9987 105.695 12.7113 105.751 12.4212 105.75V105.75Z" fill="#D0D8DA"/>
<path d="M28.6406 101.344H26.4375C25.8532 101.344 25.2928 101.112 24.8797 100.698C24.4665 100.285 24.2344 99.7249 24.2344 99.1406C24.2344 98.5563 24.0023 97.9959 23.5891 97.5828C23.1759 97.1696 22.6156 96.9375 22.0312 96.9375H17.625C17.0407 96.9375 16.4803 97.1696 16.0672 97.5828C15.654 97.9959 15.4219 98.5563 15.4219 99.1406C15.4219 99.7249 15.1898 100.285 14.7766 100.698C14.3634 101.112 13.8031 101.344 13.2188 101.344H11.0156C9.84701 101.344 8.72627 101.808 7.89994 102.634C7.0736 103.461 6.60938 104.581 6.60938 105.75V118.969C6.60938 120.137 7.0736 121.258 7.89994 122.084C8.72627 122.911 9.84701 123.375 11.0156 123.375H28.6406C29.8092 123.375 30.93 122.911 31.7563 122.084C32.5826 121.258 33.0469 120.137 33.0469 118.969V105.75C33.0469 104.581 32.5826 103.461 31.7563 102.634C30.93 101.808 29.8092 101.344 28.6406 101.344Z" fill="#57B7EB"/>
<path d="M28.6406 92.5312H17.625C16.4564 92.5312 15.3356 92.067 14.5093 91.2407C13.683 90.4144 13.2188 89.2936 13.2188 88.125C13.2188 86.9564 13.683 85.8356 14.5093 85.0093C15.3356 84.183 16.4564 83.7188 17.625 83.7188H28.6406C29.8092 83.7188 30.93 84.183 31.7563 85.0093C32.5826 85.8356 33.0469 86.9564 33.0469 88.125C33.0469 89.2936 32.5826 90.4144 31.7563 91.2407C30.93 92.067 29.8092 92.5312 28.6406 92.5312Z" fill="#F9E109"/>
<path d="M19.8281 116.766C22.2616 116.766 24.2344 114.793 24.2344 112.359C24.2344 109.926 22.2616 107.953 19.8281 107.953C17.3946 107.953 15.4219 109.926 15.4219 112.359C15.4219 114.793 17.3946 116.766 19.8281 116.766Z" fill="#656B76"/>
<path d="M33.0469 118.969C33.0434 120.136 32.578 121.255 31.7525 122.081C30.9269 122.906 29.8082 123.372 28.6406 123.375H11.0156C9.84809 123.372 8.72937 122.906 7.90379 122.081C7.07821 121.255 6.61286 120.136 6.60938 118.969V105.75C6.61286 104.582 7.07821 103.464 7.90379 102.638C8.72937 101.813 9.84809 101.347 11.0156 101.344V114.562C11.0191 115.73 11.4845 116.849 12.31 117.674C13.1356 118.5 14.2543 118.965 15.4219 118.969H33.0469Z" fill="#4891D3"/>
<path d="M33.0469 88.125C33.0382 89.2909 32.5712 90.4067 31.7468 91.2311C30.9223 92.0556 29.8066 92.5226 28.6406 92.5312H17.625C16.4575 92.5278 15.3387 92.0624 14.5132 91.2368C13.6876 90.4113 13.2222 89.2925 13.2188 88.125C13.2274 86.9591 13.6944 85.8433 14.5189 85.0189C15.3433 84.1944 16.4591 83.7274 17.625 83.7188C17.6285 84.8863 18.0938 86.005 18.9194 86.8306C19.745 87.6562 20.8637 88.1215 22.0312 88.125H33.0469Z" fill="#FCBC04"/>
<path d="M22.0312 114.562C23.248 114.562 24.2344 113.576 24.2344 112.359C24.2344 111.143 23.248 110.156 22.0312 110.156C20.8145 110.156 19.8281 111.143 19.8281 112.359C19.8281 113.576 20.8145 114.562 22.0312 114.562Z" fill="#D0D8DA"/>
<path d="M129.984 127.781H125.578V119.881L120.26 114.562L123.375 111.447L129.339 117.411C129.752 117.824 129.984 118.384 129.984 118.969V127.781Z" fill="#4891D3"/>
<path d="M122.351 113.538C121.111 114.777 119.43 115.473 117.678 115.473C115.925 115.473 114.244 114.777 113.005 113.538L106.772 107.308C105.533 106.068 104.837 104.387 104.837 102.635C104.837 100.882 105.533 99.2014 106.772 97.962C107.386 97.3481 108.115 96.8612 108.917 96.529C109.719 96.1968 110.578 96.0258 111.446 96.0258C112.314 96.0258 113.174 96.1968 113.976 96.529C114.778 96.8612 115.506 97.3481 116.12 97.962L122.351 104.192C123.59 105.432 124.286 107.113 124.286 108.865C124.286 110.618 123.59 112.299 122.351 113.538Z" fill="#F9E109"/>
<path d="M134.391 134.391H121.172V132.188C121.172 130.435 121.868 128.753 123.108 127.514C124.347 126.274 126.028 125.578 127.781 125.578C129.534 125.578 131.215 126.274 132.455 127.514C133.694 128.753 134.391 130.435 134.391 132.188V134.391Z" fill="#F9E109"/>
<path d="M122.362 113.549C121.118 114.787 119.435 115.482 117.68 115.482C115.925 115.482 114.242 114.787 112.998 113.549L106.763 107.314C105.525 106.071 104.83 104.387 104.83 102.633C104.83 100.878 105.525 99.1945 106.763 97.9509C106.907 97.8062 107.061 97.6736 107.226 97.5543C107.503 98.7456 108.105 99.8365 108.967 100.705L115.201 106.94C116.368 108.104 117.928 108.79 119.575 108.863C121.222 108.936 122.836 108.392 124.102 107.336C124.368 108.434 124.348 109.582 124.043 110.67C123.739 111.758 123.159 112.749 122.362 113.549Z" fill="#FCBC04"/>
<path d="M134.391 132.188V134.391H121.172V132.188C121.173 131.078 121.452 129.987 121.983 129.014C122.514 128.04 123.28 127.215 124.212 126.614C124.792 127.634 125.631 128.484 126.645 129.076C127.658 129.668 128.811 129.981 129.984 129.984H133.994C134.261 130.688 134.395 131.435 134.391 132.188V132.188Z" fill="#FCBC04"/>
<path d="M108.308 108.865L117.653 99.5197L120.769 102.635L111.424 111.981L108.308 108.865Z" fill="#57B7EB"/>
<path d="M115.906 107.535L111.456 111.985L108.328 108.856L112.734 104.472L115.201 106.94C115.421 107.156 115.656 107.355 115.906 107.535V107.535Z" fill="#4891D3"/>
</svg>
