<svg width="20" height="20" viewBox="0 0 20 20" fill="none" xmlns="http://www.w3.org/2000/svg">
<path d="M9.11666 5.06667C9.40897 5.02186 9.70428 4.99957 10 5C12.65 5 15.1417 6.90833 16.5917 10C16.3699 10.4705 16.1194 10.9269 15.8417 11.3667C15.7535 11.5032 15.7071 11.6625 15.7083 11.825C15.7102 12.0069 15.7715 12.1831 15.8829 12.3269C15.9943 12.4707 16.1496 12.574 16.3253 12.6213C16.5009 12.6685 16.6872 12.6569 16.8557 12.5884C17.0241 12.5199 17.1655 12.3981 17.2583 12.2417C17.6466 11.6316 17.9839 10.9905 18.2667 10.325C18.3114 10.221 18.3344 10.109 18.3344 9.99583C18.3344 9.88265 18.3114 9.77065 18.2667 9.66667C16.5833 5.75833 13.4167 3.33333 10 3.33333C9.60889 3.33136 9.2184 3.36483 8.83333 3.43333C8.7239 3.45194 8.6192 3.49191 8.52521 3.55098C8.43123 3.61005 8.34979 3.68705 8.28557 3.77759C8.22134 3.86812 8.17557 3.97042 8.15088 4.07865C8.12619 4.18687 8.12306 4.2989 8.14166 4.40833C8.16027 4.51777 8.20024 4.62247 8.25931 4.71645C8.31838 4.81044 8.39538 4.89187 8.48591 4.9561C8.57645 5.02032 8.67875 5.06609 8.78698 5.09078C8.8952 5.11547 9.00723 5.1186 9.11666 5.1V5.06667ZM3.09166 1.90833C3.01396 1.83064 2.92172 1.769 2.8202 1.72695C2.71869 1.6849 2.60988 1.66326 2.5 1.66326C2.39011 1.66326 2.28131 1.6849 2.17979 1.72695C2.07827 1.769 1.98603 1.83064 1.90833 1.90833C1.75141 2.06525 1.66325 2.27808 1.66325 2.5C1.66325 2.72192 1.75141 2.93475 1.90833 3.09167L4.49166 5.66667C3.31297 6.80127 2.37488 8.16166 1.73333 9.66667C1.68744 9.77181 1.66376 9.88528 1.66376 10C1.66376 10.1147 1.68744 10.2282 1.73333 10.3333C3.41666 14.2417 6.58333 16.6667 10 16.6667C11.4976 16.6563 12.9598 16.2104 14.2083 15.3833L16.9083 18.0917C16.9858 18.1698 17.078 18.2318 17.1795 18.2741C17.2811 18.3164 17.39 18.3382 17.5 18.3382C17.61 18.3382 17.7189 18.3164 17.8205 18.2741C17.922 18.2318 18.0142 18.1698 18.0917 18.0917C18.1698 18.0142 18.2318 17.922 18.2741 17.8205C18.3164 17.7189 18.3382 17.61 18.3382 17.5C18.3382 17.39 18.3164 17.2811 18.2741 17.1795C18.2318 17.078 18.1698 16.9858 18.0917 16.9083L3.09166 1.90833ZM8.39166 9.56667L10.4333 11.6083C10.2925 11.6487 10.1465 11.6684 10 11.6667C9.55797 11.6667 9.13405 11.4911 8.82149 11.1785C8.50892 10.866 8.33333 10.442 8.33333 10C8.33162 9.85349 8.35127 9.70751 8.39166 9.56667ZM10 15C7.35 15 4.85833 13.0917 3.41666 10C3.95507 8.81146 4.71922 7.73881 5.66666 6.84167L7.14166 8.33333C6.7952 8.96566 6.66311 9.69329 6.76521 10.407C6.86731 11.1208 7.19809 11.7822 7.70794 12.2921C8.21778 12.8019 8.87919 13.1327 9.59295 13.2348C10.3067 13.3369 11.0343 13.2048 11.6667 12.8583L12.9917 14.1667C12.0842 14.7007 11.0529 14.988 10 15Z" fill="#727783"/>
</svg>
