<svg width="18" height="14" viewBox="0 0 18 14" fill="none" xmlns="http://www.w3.org/2000/svg">
<path d="M17.2665 6.66683C15.5831 2.7585 12.4165 0.333496 8.99981 0.333496C5.58314 0.333496 2.41648 2.7585 0.733145 6.66683C0.687259 6.77197 0.663574 6.88545 0.663574 7.00016C0.663574 7.11488 0.687259 7.22836 0.733145 7.3335C2.41648 11.2418 5.58314 13.6668 8.99981 13.6668C12.4165 13.6668 15.5831 11.2418 17.2665 7.3335C17.3124 7.22836 17.336 7.11488 17.336 7.00016C17.336 6.88545 17.3124 6.77197 17.2665 6.66683V6.66683ZM8.99981 12.0002C6.34981 12.0002 3.85814 10.0918 2.41648 7.00016C3.85814 3.9085 6.34981 2.00016 8.99981 2.00016C11.6498 2.00016 14.1415 3.9085 15.5831 7.00016C14.1415 10.0918 11.6498 12.0002 8.99981 12.0002ZM8.99981 3.66683C8.34054 3.66683 7.69607 3.86233 7.14791 4.2286C6.59975 4.59487 6.1725 5.11546 5.92021 5.72455C5.66792 6.33364 5.60191 7.00386 5.73053 7.65046C5.85914 8.29707 6.17661 8.89101 6.64279 9.35718C7.10896 9.82336 7.70291 10.1408 8.34951 10.2694C8.99611 10.3981 9.66634 10.3321 10.2754 10.0798C10.8845 9.82747 11.4051 9.40023 11.7714 8.85206C12.1376 8.3039 12.3331 7.65943 12.3331 7.00016C12.3331 6.11611 11.982 5.26826 11.3568 4.64314C10.7317 4.01802 9.88387 3.66683 8.99981 3.66683V3.66683ZM8.99981 8.66683C8.67018 8.66683 8.34794 8.56908 8.07386 8.38594C7.79978 8.20281 7.58616 7.94251 7.46001 7.63797C7.33387 7.33342 7.30086 6.99831 7.36517 6.67501C7.42948 6.35171 7.58821 6.05474 7.8213 5.82165C8.05439 5.58856 8.35136 5.42983 8.67466 5.36552C8.99796 5.30121 9.33307 5.33422 9.63762 5.46036C9.94216 5.58651 10.2025 5.80013 10.3856 6.07421C10.5687 6.34829 10.6665 6.67053 10.6665 7.00016C10.6665 7.44219 10.4909 7.86611 10.1783 8.17867C9.86576 8.49123 9.44184 8.66683 8.99981 8.66683Z" fill="#B3B8C2"/>
</svg>
