<svg width="24" height="24" viewBox="0 0 24 24" fill="none" xmlns="http://www.w3.org/2000/svg">
<g clip-path="url(#clip0_20_666)">
<path d="M22.6754 24.0001C23.4068 24.0001 24 23.407 24 22.6755V1.32459C24 0.592969 23.4068 0 22.6754 0H1.32459C0.592875 0 0 0.592969 0 1.32459V22.6755C0 23.407 0.592875 24.0001 1.32459 24.0001H22.6754" fill="#4285F4"/>
<path d="M16.5595 24.0001V14.706H19.6793L20.1463 11.0839H16.5595V8.77131C16.5595 7.72262 16.8508 7.00797 18.3547 7.00797L20.2727 7.00712V3.76759C19.9408 3.72343 18.8023 3.62481 17.4778 3.62481C14.7124 3.62481 12.8192 5.31278 12.8192 8.41272V11.0839H9.6915V14.706H12.8192V24.0001H16.5595" fill="white"/>
</g>
<defs>
<clipPath id="clip0_20_666">
<rect width="24" height="24" fill="white"/>
</clipPath>
</defs>
</svg>
