<svg width="128" height="129" viewBox="0 0 128 129" fill="none" xmlns="http://www.w3.org/2000/svg">
<path d="M59.5938 0.609375H127.891V128.391H59.5938V0.609375Z" fill="#D0D8DA"/>
<path d="M127.891 35.8594V51.2812H59.5938V0.609375H79.4219V11.625C79.4201 14.808 80.0458 17.9601 81.2631 20.9012C82.4803 23.8422 84.2654 26.5145 86.5161 28.7652C88.7668 31.0159 91.4391 32.8009 94.3801 34.0182C97.3211 35.2355 100.473 35.8611 103.656 35.8594H127.891Z" fill="#93999A"/>
<path d="M119.078 66.7031C119.078 64.2696 117.105 62.2969 114.672 62.2969C112.238 62.2969 110.266 64.2696 110.266 66.7031V75.5156C110.266 77.9491 112.238 79.9219 114.672 79.9219C117.105 79.9219 119.078 77.9491 119.078 75.5156V66.7031Z" fill="#57B7EB"/>
<path d="M119.078 20.4375C119.078 18.004 117.105 16.0312 114.672 16.0312C112.238 16.0312 110.266 18.004 110.266 20.4375V29.25C110.266 31.6835 112.238 33.6562 114.672 33.6562C117.105 33.6562 119.078 31.6835 119.078 29.25V20.4375Z" fill="#57B7EB"/>
<path d="M59.5938 51.2812H127.891V55.6875H59.5938V51.2812Z" fill="#656B76"/>
<path d="M127.891 84.3281V128.391H59.5938V55.6875H90.4375V57.8906C90.4375 64.9023 93.2229 71.6268 98.1809 76.5848C103.139 81.5428 109.863 84.3281 116.875 84.3281H127.891Z" fill="#93999A"/>
<path d="M119.078 75.5156C119.078 76.6842 118.614 77.805 117.788 78.6313C116.961 79.4576 115.84 79.9219 114.672 79.9219C113.503 79.9219 112.383 79.4576 111.556 78.6313C110.73 77.805 110.266 76.6842 110.266 75.5156V66.7031C110.269 65.5356 110.734 64.4169 111.56 63.5913C112.386 62.7657 113.504 62.3004 114.672 62.2969V71.1094C114.675 72.2769 115.141 73.3956 115.966 74.2212C116.792 75.0468 117.911 75.5121 119.078 75.5156V75.5156Z" fill="#4891D3"/>
<path d="M119.078 29.25C119.078 30.4186 118.614 31.5394 117.788 32.3657C116.961 33.192 115.84 33.6562 114.672 33.6562C113.503 33.6562 112.383 33.192 111.556 32.3657C110.73 31.5394 110.266 30.4186 110.266 29.25V20.4375C110.269 19.27 110.734 18.1512 111.56 17.3257C112.386 16.5001 113.504 16.0347 114.672 16.0312V24.8438C114.675 26.0113 115.141 27.13 115.966 27.9556C116.792 28.7812 117.911 29.2465 119.078 29.25Z" fill="#4891D3"/>
<path d="M0.109375 53.4844H79.4219V128.391H0.109375V53.4844Z" fill="#E9F1F2"/>
<path d="M79.4219 112.969V128.391H0.109375V53.4844H17.7344V60.0938C17.7379 74.116 23.3097 87.5629 33.225 97.4782C43.1402 107.393 56.5871 112.965 70.6094 112.969H79.4219Z" fill="#D0D8DA"/>
<path d="M39.7656 117.375C54.3667 117.375 66.2031 105.539 66.2031 90.9375C66.2031 76.3365 54.3667 64.5 39.7656 64.5C25.1646 64.5 13.3281 76.3365 13.3281 90.9375C13.3281 105.539 25.1646 117.375 39.7656 117.375Z" fill="#F9E109"/>
<path d="M56.8399 111.14C51.7734 115.416 45.2861 117.634 38.6623 117.354C32.0386 117.074 25.7613 114.318 21.0735 109.63C16.3856 104.942 13.6289 98.6646 13.3491 92.0408C13.0694 85.417 15.287 78.9297 19.563 73.8633C21.9754 82.7932 26.687 90.9346 33.2278 97.4754C39.7686 104.016 47.9099 108.728 56.8399 111.14V111.14Z" fill="#FCBC04"/>
<path d="M0.109375 35.8594H79.4219V53.4844H0.109375V35.8594Z" fill="#E9F1F2"/>
<path d="M79.4219 44.6719V53.4844H0.109375V35.8594H38.3336C39.2386 38.4376 40.9228 40.6707 43.1529 42.2495C45.383 43.8284 48.0488 44.6749 50.7812 44.6719H79.4219Z" fill="#D0D8DA"/>
<path d="M0.109375 35.8594H30.9531V53.4844H0.109375V35.8594Z" fill="#84D2F4"/>
<path d="M39.7656 108.563C49.4996 108.563 57.3906 100.672 57.3906 90.9375C57.3906 81.2035 49.4996 73.3125 39.7656 73.3125C30.0316 73.3125 22.1406 81.2035 22.1406 90.9375C22.1406 100.672 30.0316 108.563 39.7656 108.563Z" fill="#57B7EB"/>
<path d="M46.6174 107.197C43.3849 108.548 39.8237 108.907 36.3865 108.229C32.9492 107.551 29.7912 105.867 27.3139 103.389C24.8365 100.912 23.1518 97.754 22.4739 94.3167C21.7959 90.8795 22.1554 87.3182 23.5066 84.0858C28.5706 94.0408 36.6624 102.133 46.6174 107.197V107.197Z" fill="#4891D3"/>
<path d="M46.6174 107.197C43.3849 108.548 39.8237 108.907 36.3865 108.229C32.9492 107.551 29.7912 105.867 27.3139 103.389C24.8365 100.912 23.1518 97.754 22.4739 94.3167C21.7959 90.8795 22.1554 87.3182 23.5066 84.0858C28.5706 94.0408 36.6624 102.133 46.6174 107.197V107.197Z" fill="#4891D3"/>
<path d="M0.109375 115.172H17.7344V128.391H0.109375V115.172Z" fill="#FCBC04"/>
<path d="M30.9531 53.4844H0.109375V35.8594H11.125L30.9531 53.4844Z" fill="#57B7EB"/>
<path d="M57.2364 93.3609C56.7846 96.5447 55.4746 99.5454 53.447 102.041L28.6619 77.2561C31.1577 75.2284 34.1584 73.9185 37.3422 73.4667L57.2364 93.3609Z" fill="#84D2F4"/>
<path d="M48.3358 106.315C46.947 107.118 45.4474 107.712 43.8855 108.078L22.6253 86.8175C22.991 85.2555 23.5848 83.756 24.3878 82.3672L48.3358 106.315Z" fill="#84D2F4"/>
<path d="M23.5286 84.1078C25.7437 88.4875 28.5699 92.5303 31.9225 96.1148L22.6253 86.8176C22.8431 85.8887 23.1455 84.9816 23.5286 84.1078V84.1078Z" fill="#57B7EB"/>
<path d="M46.5953 107.175C45.7215 107.558 44.8144 107.86 43.8855 108.078L34.5883 98.7806C38.1728 102.133 42.2156 104.959 46.5953 107.175V107.175Z" fill="#57B7EB"/>
<path d="M23.5286 84.1078C25.7437 88.4875 28.5699 92.5303 31.9225 96.1148L22.6253 86.8176C22.8431 85.8887 23.1455 84.9816 23.5286 84.1078V84.1078Z" fill="#57B7EB"/>
<path d="M46.5953 107.175C45.7215 107.558 44.8144 107.86 43.8855 108.078L34.5883 98.7806C38.1728 102.133 42.2156 104.959 46.5953 107.175V107.175Z" fill="#57B7EB"/>
<path d="M68.4062 46.875C69.623 46.875 70.6094 45.8886 70.6094 44.6719C70.6094 43.4551 69.623 42.4688 68.4062 42.4688C67.1895 42.4688 66.2031 43.4551 66.2031 44.6719C66.2031 45.8886 67.1895 46.875 68.4062 46.875Z" fill="#57B7EB"/>
<path d="M59.5938 46.875C60.8105 46.875 61.7969 45.8886 61.7969 44.6719C61.7969 43.4551 60.8105 42.4688 59.5938 42.4688C58.377 42.4688 57.3906 43.4551 57.3906 44.6719C57.3906 45.8886 58.377 46.875 59.5938 46.875Z" fill="#57B7EB"/>
<path d="M50.7812 46.875C51.998 46.875 52.9844 45.8886 52.9844 44.6719C52.9844 43.4551 51.998 42.4688 50.7812 42.4688C49.5645 42.4688 48.5781 43.4551 48.5781 44.6719C48.5781 45.8886 49.5645 46.875 50.7812 46.875Z" fill="#57B7EB"/>
<path d="M30.9531 42.4688H37.5625C38.1468 42.4688 38.7072 42.7009 39.1203 43.114C39.5335 43.5272 39.7656 44.0876 39.7656 44.6719C39.7656 45.2562 39.5335 45.8166 39.1203 46.2297C38.7072 46.6429 38.1468 46.875 37.5625 46.875H30.9531V42.4688Z" fill="#FCBC04"/>
<path d="M70.6094 64.5H64C63.4157 64.5 62.8553 64.2679 62.4422 63.8547C62.029 63.4416 61.7969 62.8812 61.7969 62.2969C61.7969 61.7126 62.029 61.1522 62.4422 60.739C62.8553 60.3259 63.4157 60.0938 64 60.0938H70.6094C71.1937 60.0938 71.7541 60.3259 72.1672 60.739C72.5804 61.1522 72.8125 61.7126 72.8125 62.2969C72.8125 62.8812 72.5804 63.4416 72.1672 63.8547C71.7541 64.2679 71.1937 64.5 70.6094 64.5Z" fill="#57B7EB"/>
<path d="M15.5312 64.5H8.92188C8.33757 64.5 7.7772 64.2679 7.36403 63.8547C6.95086 63.4416 6.71875 62.8812 6.71875 62.2969C6.71875 61.7126 6.95086 61.1522 7.36403 60.739C7.7772 60.3259 8.33757 60.0938 8.92188 60.0938H15.5312C16.1156 60.0938 16.6759 60.3259 17.0891 60.739C17.5023 61.1522 17.7344 61.7126 17.7344 62.2969C17.7344 62.8812 17.5023 63.4416 17.0891 63.8547C16.6759 64.2679 16.1156 64.5 15.5312 64.5Z" fill="#4891D3"/>
<path d="M70.6094 44.6719C70.6094 45.2562 70.3773 45.8166 69.9641 46.2297C69.5509 46.6429 68.9906 46.875 68.4062 46.875C67.8219 46.875 67.2616 46.6429 66.8484 46.2297C66.4352 45.8166 66.2031 45.2562 66.2031 44.6719H70.6094Z" fill="#4891D3"/>
<path d="M61.7969 44.6719C61.7969 45.2562 61.5648 45.8166 61.1516 46.2297C60.7384 46.6429 60.1781 46.875 59.5938 46.875C59.0094 46.875 58.4491 46.6429 58.0359 46.2297C57.6227 45.8166 57.3906 45.2562 57.3906 44.6719H61.7969Z" fill="#4891D3"/>
<path d="M52.9844 44.6718C52.9844 45.2561 52.7523 45.8165 52.3391 46.2296C51.9259 46.6428 51.3656 46.8749 50.7813 46.8749C50.1969 46.8749 49.6366 46.6428 49.2234 46.2296C48.8102 45.8165 48.5781 45.2561 48.5781 44.6718C48.5745 44.6049 48.582 44.5379 48.6002 44.4735C49.3195 44.607 50.0496 44.6734 50.7813 44.6718H52.9844Z" fill="#4891D3"/>
<path d="M79.4219 93.1406H119.078V128.391H79.4219V93.1406Z" fill="#E9F1F2"/>
<path d="M119.078 117.375V128.391H79.4219V93.1406H88.2344V104.156C88.2344 107.662 89.6271 111.024 92.1061 113.503C94.5851 115.982 97.9473 117.375 101.453 117.375H119.078Z" fill="#D0D8DA"/>
<path d="M79.4219 101.953H99.25C99.8343 101.953 100.395 102.185 100.808 102.598C101.221 103.012 101.453 103.572 101.453 104.156V117.375C101.453 117.959 101.221 118.52 100.808 118.933C100.395 119.346 99.8343 119.578 99.25 119.578H79.4219V101.953Z" fill="#84D2F4"/>
<path d="M99.25 101.953H97.0469L79.4219 119.578H99.25C99.8343 119.578 100.395 119.346 100.808 118.933C101.221 118.52 101.453 117.959 101.453 117.375V104.156C101.453 103.572 101.221 103.012 100.808 102.598C100.395 102.185 99.8343 101.953 99.25 101.953Z" fill="#57B7EB"/>
<path d="M101.453 117.375C101.453 117.959 101.221 118.52 100.808 118.933C100.395 119.346 99.8343 119.578 99.25 119.578H79.4219V101.953H88.2344V104.156C88.2344 107.662 89.6271 111.024 92.1061 113.503C94.5851 115.982 97.9473 117.375 101.453 117.375V117.375Z" fill="#57B7EB"/>
<path d="M101.453 117.375C101.453 117.959 101.221 118.52 100.808 118.933C100.395 119.346 99.8343 119.578 99.25 119.578H79.4219L89.402 109.598C90.4507 111.915 92.1451 113.882 94.2825 115.261C96.4198 116.64 98.9094 117.374 101.453 117.375Z" fill="#4891D3"/>
<path d="M110.266 104.156C111.482 104.156 112.469 103.17 112.469 101.953C112.469 100.736 111.482 99.75 110.266 99.75C109.049 99.75 108.062 100.736 108.062 101.953C108.062 103.17 109.049 104.156 110.266 104.156Z" fill="#57B7EB"/>
<path d="M110.266 112.969C111.482 112.969 112.469 111.982 112.469 110.766C112.469 109.549 111.482 108.562 110.266 108.562C109.049 108.562 108.062 109.549 108.062 110.766C108.062 111.982 109.049 112.969 110.266 112.969Z" fill="#57B7EB"/>
<path d="M35.3594 13.8281C34.7751 13.828 34.2148 13.5958 33.8018 13.1826L24.9893 4.37008C24.588 3.95457 24.3659 3.39805 24.3709 2.8204C24.3759 2.24275 24.6076 1.69018 25.0161 1.2817C25.4246 0.873224 25.9772 0.641523 26.5548 0.636504C27.1325 0.631484 27.689 0.853546 28.1045 1.25486L35.3594 8.50975L42.6143 1.25486C42.8175 1.04444 43.0606 0.876604 43.3294 0.76114C43.5982 0.645677 43.8873 0.584901 44.1798 0.582359C44.4723 0.579817 44.7625 0.635559 45.0332 0.746335C45.304 0.85711 45.55 1.0207 45.7568 1.22756C45.9637 1.43441 46.1273 1.6804 46.238 1.95115C46.3488 2.22191 46.4045 2.51202 46.402 2.80454C46.3995 3.09707 46.3387 3.38617 46.2232 3.65496C46.1078 3.92375 45.9399 4.16685 45.7295 4.37008L36.917 13.1826C36.5039 13.5958 35.9436 13.828 35.3594 13.8281Z" fill="#FCBC04"/>
<path d="M4.51562 9.42188H48.5781V35.8594H4.51562V9.42188Z" fill="#F9E109"/>
<path d="M22.1406 9.42188H48.5781V35.8594H22.1406V9.42188Z" fill="#4891D3"/>
<path d="M39.7656 13.8281H30.9531C28.5196 13.8281 26.5469 15.8009 26.5469 18.2344V27.0469C26.5469 29.4804 28.5196 31.4531 30.9531 31.4531H39.7656C42.1991 31.4531 44.1719 29.4804 44.1719 27.0469V18.2344C44.1719 15.8009 42.1991 13.8281 39.7656 13.8281Z" fill="#2D72BC"/>
<path d="M22.1406 29.25V35.8594H4.51562V9.42188H11.125V20.4375C11.125 22.7747 12.0535 25.0162 13.7061 26.6689C15.3588 28.3215 17.6003 29.25 19.9375 29.25H22.1406Z" fill="#FCBC04"/>
<path d="M17.7344 9.42188H22.1406V31.4531H17.7344V9.42188Z" fill="#FCBC04"/>
<path d="M26.5469 9.42188H30.9531V35.8594H26.5469V9.42188Z" fill="#84D2F4"/>
<path d="M39.7656 9.42188H44.1719V35.8594H39.7656V9.42188Z" fill="#84D2F4"/>
<path d="M22.1406 27.0469H48.5781V31.4531H22.1406V27.0469Z" fill="#84D2F4"/>
<path d="M22.1406 13.8281H48.5781V18.2344H22.1406V13.8281Z" fill="#84D2F4"/>
<path d="M13.3281 20.4375C14.5449 20.4375 15.5312 19.4511 15.5312 18.2344C15.5312 17.0176 14.5449 16.0312 13.3281 16.0312C12.1114 16.0312 11.125 17.0176 11.125 18.2344C11.125 19.4511 12.1114 20.4375 13.3281 20.4375Z" fill="#57B7EB"/>
<path d="M13.3281 29.25C14.5449 29.25 15.5312 28.2636 15.5312 27.0469C15.5312 25.8301 14.5449 24.8438 13.3281 24.8438C12.1114 24.8438 11.125 25.8301 11.125 27.0469C11.125 28.2636 12.1114 29.25 13.3281 29.25Z" fill="#57B7EB"/>
<path d="M13.3281 29.25C13.7563 29.2493 14.1749 29.124 14.5329 28.8892C14.8909 28.6545 15.1728 28.3205 15.344 27.9281C14.1634 27.2043 13.1707 26.2116 12.4469 25.031C11.985 25.2347 11.6071 25.5907 11.3763 26.0397C11.1455 26.4886 11.0759 27.0032 11.1791 27.4973C11.2824 27.9915 11.5521 28.4352 11.9433 28.7542C12.3345 29.0732 12.8234 29.2483 13.3281 29.25Z" fill="#4891D3"/>
</svg>
