<svg width="24" height="24" viewBox="0 0 24 24" fill="none" xmlns="http://www.w3.org/2000/svg">
<g clip-path="url(#clip0_20_656)">
<path d="M23.9886 12.2244C23.9886 11.2412 23.9069 10.5236 23.7302 9.77956H12.2391V14.2175H18.9841C18.8482 15.3204 18.1138 16.9814 16.4819 18.0975L16.459 18.2461L20.0923 20.9963L20.344 21.0208C22.6558 18.9346 23.9886 15.8652 23.9886 12.2244Z" fill="#4285F4"/>
<path d="M12.2391 23.9177C15.5436 23.9177 18.3177 22.8546 20.344 21.021L16.4819 18.0977C15.4484 18.8019 14.0613 19.2936 12.2391 19.2936C9.00254 19.2936 6.25557 17.2075 5.27636 14.3241L5.13282 14.336L1.35489 17.1928L1.30548 17.327C3.31811 21.2335 7.4522 23.9177 12.2391 23.9177Z" fill="#34A853"/>
<path d="M5.27634 14.3239C5.01797 13.5798 4.86844 12.7825 4.86844 11.9587C4.86844 11.1348 5.01797 10.3376 5.26275 9.59352L5.25591 9.43505L1.43062 6.53233L1.30547 6.5905C0.475969 8.2116 0 10.032 0 11.9587C0 13.8854 0.475969 15.7057 1.30547 17.3268L5.27634 14.3239Z" fill="#FBBC05"/>
<path d="M12.2391 4.62403C14.5373 4.62403 16.0875 5.59402 16.9715 6.40461L20.4256 3.10928C18.3042 1.1826 15.5436 0 12.2391 0C7.4522 0 3.31811 2.68406 1.30548 6.59057L5.26276 9.59359C6.25557 6.7102 9.00254 4.62403 12.2391 4.62403Z" fill="#EB4335"/>
</g>
<defs>
<clipPath id="clip0_20_656">
<rect width="24" height="24" fill="white"/>
</clipPath>
</defs>
</svg>
