<svg width="14" height="14" viewBox="0 0 14 14" fill="none" xmlns="http://www.w3.org/2000/svg">
<mask id="mask0_18_426" style="mask-type:alpha" maskUnits="userSpaceOnUse" x="0" y="0" width="14" height="14">
<path d="M13.3291 5.44664C13.287 5.3247 13.2104 5.21759 13.1086 5.13831C13.0069 5.05903 12.8843 5.01097 12.7558 4.99998L8.96242 4.44664L7.26242 0.999975C7.20783 0.887261 7.1226 0.792203 7.01648 0.725691C6.91036 0.659178 6.78766 0.623901 6.66242 0.623901C6.53718 0.623901 6.41448 0.659178 6.30836 0.725691C6.20225 0.792203 6.11701 0.887261 6.06242 0.999975L4.36242 4.43997L0.569086 4.99998C0.445701 5.01751 0.329703 5.06928 0.234253 5.14941C0.138804 5.22954 0.0677265 5.33482 0.0290865 5.45331C-0.0062835 5.56909 -0.00945754 5.69232 0.019905 5.80977C0.0492676 5.92722 0.110058 6.03446 0.195753 6.11998L2.94909 8.78664L2.28242 12.5733C2.25862 12.6983 2.27108 12.8275 2.31833 12.9456C2.36559 13.0637 2.44566 13.1659 2.54909 13.24C2.6499 13.312 2.7688 13.3546 2.89245 13.3628C3.0161 13.3711 3.1396 13.3447 3.24909 13.2866L6.66242 11.5066L10.0624 13.2933C10.156 13.3461 10.2617 13.3737 10.3691 13.3733C10.5103 13.3738 10.648 13.3295 10.7624 13.2466C10.8659 13.1726 10.9459 13.0704 10.9932 12.9523C11.0404 12.8341 11.0529 12.705 11.0291 12.58L10.3624 8.79331L13.1158 6.12664C13.212 6.04509 13.2831 5.93791 13.3209 5.81754C13.3587 5.69717 13.3615 5.56856 13.3291 5.44664ZM9.22909 8.11331C9.1509 8.18893 9.09241 8.28253 9.05871 8.38596C9.02501 8.48938 9.01713 8.59948 9.03575 8.70664L9.51575 11.5L7.00909 10.1666C6.91263 10.1153 6.80503 10.0884 6.69575 10.0884C6.58648 10.0884 6.47888 10.1153 6.38242 10.1666L3.87575 11.5L4.35575 8.70664C4.37438 8.59948 4.3665 8.48938 4.3328 8.38596C4.2991 8.28253 4.2406 8.18893 4.16242 8.11331L2.16242 6.11331L4.96909 5.70664C5.07709 5.69162 5.17975 5.65034 5.26809 5.58641C5.35642 5.52248 5.42773 5.43787 5.47575 5.33998L6.66242 2.79997L7.91575 5.34664C7.96378 5.44453 8.03509 5.52915 8.12342 5.59308C8.21175 5.657 8.31442 5.69829 8.42242 5.71331L11.2291 6.11998L9.22909 8.11331Z" fill="#FAD712"/>
<path d="M9.22909 8.11331C9.1509 8.18893 9.09241 8.28253 9.05871 8.38596C9.02501 8.48938 9.01713 8.59948 9.03575 8.70664L9.51575 11.5L7.00909 10.1666C6.91263 10.1153 6.80503 10.0884 6.69575 10.0884C6.58648 10.0884 6.47888 10.1153 6.38242 10.1666L3.87575 11.5L4.35575 8.70664C4.37438 8.59948 4.3665 8.48938 4.3328 8.38596C4.2991 8.28253 4.2406 8.18893 4.16242 8.11331L2.16242 6.11331L4.96909 5.70664C5.07709 5.69162 5.17975 5.65034 5.26809 5.58641C5.35642 5.52248 5.42773 5.43787 5.47575 5.33998L6.66242 2.79997L7.91575 5.34664C7.96378 5.44453 8.03509 5.52915 8.12342 5.59308C8.21175 5.657 8.31442 5.69829 8.42242 5.71331L11.2291 6.11998L9.22909 8.11331Z" fill="#FAD712"/>
</mask>
<g mask="url(#mask0_18_426)">
<path d="M0 0.600006H8V13.35H0V0.600006Z" fill="#FAD712"/>
</g>
</svg>
