<svg width="142" height="141" viewBox="0 0 142 141" fill="none" xmlns="http://www.w3.org/2000/svg">
<path d="M20.8194 66.0938L7.55 117.281C7.2582 118.402 7.11013 119.555 7.10938 120.714C7.10996 124.341 8.55111 127.819 11.1159 130.384C13.6807 132.949 17.1592 134.39 20.7864 134.391H121.214C124.841 134.39 128.319 132.949 130.884 130.384C133.449 127.819 134.89 124.341 134.891 120.714C134.89 119.555 134.742 118.402 134.45 117.281L121.181 66.0938C120.692 64.2025 119.589 62.527 118.045 61.3307C116.501 60.1343 114.603 59.4849 112.65 59.4844H29.3609C27.4057 59.4824 25.5054 60.1307 23.9591 61.3273C22.4127 62.5238 21.3082 64.2006 20.8194 66.0938V66.0938Z" fill="#AAE1F9"/>
<path d="M62.1875 107.953H79.8125C80.9811 107.953 82.1019 107.489 82.9282 106.663C83.7545 105.836 84.2187 104.715 84.2187 103.547V59.4844H51.1719V96.9375C51.1719 99.859 52.3324 102.661 54.3983 104.727C56.4641 106.793 59.266 107.953 62.1875 107.953V107.953Z" fill="#57B7EB"/>
<path d="M93.0312 59.4844H101.844V81.5156C101.844 82.6842 101.38 83.805 100.553 84.6313C99.7269 85.4576 98.6061 85.9219 97.4375 85.9219C96.2689 85.9219 95.1481 85.4576 94.3218 84.6313C93.4955 83.805 93.0312 82.6842 93.0312 81.5156V59.4844Z" fill="#57B7EB"/>
<path d="M31.3438 59.4844H40.1562V81.5156C40.1562 82.6842 39.692 83.805 38.8657 84.6313C38.0394 85.4576 36.9186 85.9219 35.75 85.9219C34.5814 85.9219 33.4606 85.4576 32.6343 84.6313C31.808 83.805 31.3438 82.6842 31.3438 81.5156V59.4844Z" fill="#57B7EB"/>
<path d="M133.749 114.562H54.9568C51.4864 114.562 48.0653 113.741 44.9721 112.167C41.879 110.594 39.2013 108.312 37.1573 105.507C35.1133 102.702 33.7608 99.4546 33.21 96.0282C32.6591 92.6017 32.9255 89.0936 33.9875 85.7897L42.4387 59.4844H29.3609C27.4076 59.4849 25.5098 60.1343 23.9657 61.3306C22.4216 62.527 21.3188 64.2025 20.8304 66.0938L7.55 117.281C7.02546 119.303 6.97088 121.417 7.39045 123.463C7.81003 125.509 8.6926 127.432 9.97048 129.083C11.2484 130.735 12.8876 132.072 14.7625 132.992C16.6373 133.912 18.698 134.391 20.7864 134.391H121.214C123.302 134.391 125.363 133.912 127.238 132.992C129.112 132.072 130.752 130.735 132.03 129.083C133.307 127.432 134.19 125.509 134.61 123.463C135.029 121.417 134.975 119.303 134.45 117.281L133.749 114.562Z" fill="#57B7EB"/>
<path d="M97.4375 50.6719H106.25V74.9062C106.25 76.0749 105.786 77.1956 104.959 78.0219C104.133 78.8483 103.012 79.3125 101.844 79.3125C100.675 79.3125 99.5544 78.8483 98.7281 78.0219C97.9017 77.1956 97.4375 76.0749 97.4375 74.9062V50.6719Z" fill="#FCBC04"/>
<path d="M35.75 50.6719H44.5625V74.9062C44.5625 76.0749 44.0983 77.1956 43.2719 78.0219C42.4456 78.8483 41.3249 79.3125 40.1562 79.3125C38.9876 79.3125 37.8669 78.8483 37.0406 78.0219C36.2142 77.1956 35.75 76.0749 35.75 74.9062V50.6719Z" fill="#FCBC04"/>
<path d="M79.8125 50.6719H62.1875C59.754 50.6719 57.7812 52.6446 57.7812 55.0781V99.1406C57.7812 101.574 59.754 103.547 62.1875 103.547H79.8125C82.246 103.547 84.2188 101.574 84.2188 99.1406V55.0781C84.2188 52.6446 82.246 50.6719 79.8125 50.6719Z" fill="#E59730"/>
<path d="M79.8125 50.6719H62.1875C61.0189 50.6719 59.8981 51.1361 59.0718 51.9624C58.2455 52.7888 57.7812 53.9095 57.7812 55.0781V85.9219H66.5938V94.7344H75.4062V85.9219H84.2188V55.0781C84.2188 53.9095 83.7545 52.7888 82.9282 51.9624C82.1019 51.1361 80.9811 50.6719 79.8125 50.6719Z" fill="#E59730"/>
<path d="M133.172 112.342C113.32 119.875 92.2316 123.617 71 123.375C49.7684 123.617 28.6797 119.875 8.82781 112.342L7.55 117.281C7.02546 119.303 6.97088 121.417 7.39045 123.463C7.81003 125.509 8.6926 127.432 9.97048 129.083C11.2484 130.735 12.8876 132.072 14.7625 132.992C16.6373 133.912 18.698 134.391 20.7864 134.391H121.214C123.302 134.391 125.363 133.912 127.238 132.992C129.112 132.072 130.752 130.735 132.03 129.083C133.307 127.432 134.19 125.509 134.61 123.463C135.029 121.417 134.975 119.303 134.45 117.281L133.172 112.342Z" fill="#FCBC04"/>
<path d="M133.172 112.342C131.22 113.122 129.207 113.855 127.142 114.563H133.752L133.172 112.342Z" fill="#F9E109"/>
<path d="M57.7812 85.9219H66.5938V94.7344H75.4062V85.9219H84.2188V68.2969H57.7812V85.9219Z" fill="#F9E109"/>
<path d="M64.3906 72.7031V68.2969H57.7812V85.9219H66.5938V94.7344H75.4062V85.9219H84.2188V81.5156H73.2031C70.8659 81.5156 68.6244 80.5872 66.9717 78.9345C65.3191 77.2818 64.3906 75.0403 64.3906 72.7031Z" fill="#FCBC04"/>
<path d="M64.3906 50.6719H79.8125C80.9811 50.6719 82.1019 51.1361 82.9282 51.9624C83.7545 52.7888 84.2188 53.9095 84.2188 55.0781V61.6875H71C69.2471 61.6875 67.566 60.9912 66.3265 59.7517C65.087 58.5122 64.3906 56.831 64.3906 55.0781V50.6719Z" fill="#FCBC04"/>
<path d="M106.25 70.5H97.4375C96.8532 70.5 96.2928 70.2679 95.8797 69.8547C95.4665 69.4416 95.2344 68.8812 95.2344 68.2969C95.2344 67.7126 95.4665 67.1522 95.8797 66.739C96.2928 66.3259 96.8532 66.0938 97.4375 66.0938H106.25C106.834 66.0938 107.395 66.3259 107.808 66.739C108.221 67.1522 108.453 67.7126 108.453 68.2969C108.453 68.8812 108.221 69.4416 107.808 69.8547C107.395 70.2679 106.834 70.5 106.25 70.5Z" fill="#E59730"/>
<path d="M106.25 52.875H97.4375C95.6846 52.875 94.0035 52.1787 92.764 50.9392C91.5245 49.6997 90.8281 48.0185 90.8281 46.2656V41.8594C90.8281 40.1065 91.5245 38.4253 92.764 37.1858C94.0035 35.9463 95.6846 35.25 97.4375 35.25H106.25C108.003 35.25 109.684 35.9463 110.924 37.1858C112.163 38.4253 112.859 40.1065 112.859 41.8594V46.2656C112.859 48.0185 112.163 49.6997 110.924 50.9392C109.684 52.1787 108.003 52.875 106.25 52.875ZM97.4375 39.6562C96.8532 39.6562 96.2928 39.8884 95.8797 40.3015C95.4665 40.7147 95.2344 41.2751 95.2344 41.8594V46.2656C95.2344 46.8499 95.4665 47.4103 95.8797 47.8235C96.2928 48.2366 96.8532 48.4688 97.4375 48.4688H106.25C106.834 48.4688 107.395 48.2366 107.808 47.8235C108.221 47.4103 108.453 46.8499 108.453 46.2656V41.8594C108.453 41.2751 108.221 40.7147 107.808 40.3015C107.395 39.8884 106.834 39.6562 106.25 39.6562H97.4375Z" fill="#E59730"/>
<path d="M44.5625 70.5H35.75C35.1657 70.5 34.6053 70.2679 34.1922 69.8547C33.779 69.4416 33.5469 68.8812 33.5469 68.2969C33.5469 67.7126 33.779 67.1522 34.1922 66.739C34.6053 66.3259 35.1657 66.0938 35.75 66.0938H44.5625C45.1468 66.0938 45.7072 66.3259 46.1203 66.739C46.5335 67.1522 46.7656 67.7126 46.7656 68.2969C46.7656 68.8812 46.5335 69.4416 46.1203 69.8547C45.7072 70.2679 45.1468 70.5 44.5625 70.5Z" fill="#E59730"/>
<path d="M73.2031 79.3125H68.7969C68.2126 79.3125 67.6522 79.0804 67.239 78.6672C66.8259 78.2541 66.5938 77.6937 66.5938 77.1094C66.5938 76.5251 66.8259 75.9647 67.239 75.5515C67.6522 75.1384 68.2126 74.9062 68.7969 74.9062H73.2031C73.7874 74.9062 74.3478 75.1384 74.761 75.5515C75.1741 75.9647 75.4062 76.5251 75.4062 77.1094C75.4062 77.6937 75.1741 78.2541 74.761 78.6672C74.3478 79.0804 73.7874 79.3125 73.2031 79.3125Z" fill="#E59730"/>
<path d="M44.5625 52.875H35.75C33.9971 52.875 32.316 52.1787 31.0765 50.9392C29.837 49.6997 29.1406 48.0185 29.1406 46.2656V41.8594C29.1406 40.1065 29.837 38.4253 31.0765 37.1858C32.316 35.9463 33.9971 35.25 35.75 35.25H44.5625C46.3154 35.25 47.9965 35.9463 49.236 37.1858C50.4755 38.4253 51.1719 40.1065 51.1719 41.8594V46.2656C51.1719 48.0185 50.4755 49.6997 49.236 50.9392C47.9965 52.1787 46.3154 52.875 44.5625 52.875ZM35.75 39.6562C35.1657 39.6562 34.6053 39.8884 34.1922 40.3015C33.779 40.7147 33.5469 41.2751 33.5469 41.8594V46.2656C33.5469 46.8499 33.779 47.4103 34.1922 47.8235C34.6053 48.2366 35.1657 48.4688 35.75 48.4688H44.5625C45.1468 48.4688 45.7072 48.2366 46.1203 47.8235C46.5335 47.4103 46.7656 46.8499 46.7656 46.2656V41.8594C46.7656 41.2751 46.5335 40.7147 46.1203 40.3015C45.7072 39.8884 45.1468 39.6562 44.5625 39.6562H35.75Z" fill="#E59730"/>
<path d="M35.75 41.8594H44.5625C44.5625 34.8477 47.3479 28.1232 52.3059 23.1652C57.2639 18.2072 63.9883 15.4219 71 15.4219C78.0117 15.4219 84.7361 18.2072 89.6941 23.1652C94.6521 28.1232 97.4375 34.8477 97.4375 41.8594H106.25C106.25 32.5105 102.536 23.5445 95.9255 16.9339C89.3149 10.3232 80.3489 6.60938 71 6.60938C61.6511 6.60938 52.6851 10.3232 46.0745 16.9339C39.4638 23.5445 35.75 32.5105 35.75 41.8594V41.8594Z" fill="#FCBC04"/>
<path d="M71 6.60938C64.7503 6.61158 58.6149 8.28501 53.2296 11.4562C58.407 9.32968 64.0168 8.4685 69.5936 8.94415C75.1705 9.4198 80.5534 11.2186 85.2959 14.1912C90.0383 17.1639 94.0034 21.2246 96.8622 26.0366C99.721 30.8485 101.391 36.2728 101.734 41.8594H106.25C106.25 32.5105 102.536 23.5445 95.9255 16.9339C89.3149 10.3232 80.3489 6.60938 71 6.60938V6.60938Z" fill="#F9E109"/>
</svg>
