<svg width="142" height="141" viewBox="0 0 142 141" fill="none" xmlns="http://www.w3.org/2000/svg">
<path d="M126.078 6.60938C128.415 6.60938 130.657 7.53783 132.31 9.1905C133.962 10.8432 134.891 13.0847 134.891 15.4219V28.6406H117.266V15.4219C117.266 13.0847 118.194 10.8432 119.847 9.1905C121.499 7.53783 123.741 6.60938 126.078 6.60938V6.60938Z" fill="#57B7EB"/>
<path d="M37.9531 6.60938C34.4473 6.60938 31.0851 8.00206 28.6061 10.4811C26.1271 12.9601 24.7344 16.3223 24.7344 19.8281V134.391H108.453C110.79 134.391 113.032 133.462 114.685 131.81C116.337 130.157 117.266 127.915 117.266 125.578V15.4219C117.266 13.0847 118.194 10.8432 119.847 9.1905C121.499 7.53783 123.741 6.60938 126.078 6.60938H37.9531Z" fill="#84D2F4"/>
<path d="M117.266 73.8047V125.578C117.266 127.915 116.337 130.157 114.685 131.81C113.032 133.462 110.79 134.391 108.453 134.391H24.7344V19.8281C24.7344 16.3223 26.1271 12.9601 28.6061 10.4811C31.0851 8.00206 34.4473 6.60938 37.9531 6.60938H44.5625V66.0938C44.5625 77.1955 48.9727 87.8426 56.8228 95.6928C64.673 103.543 75.3201 107.953 86.4219 107.953H88.4267C84.3053 103.184 82.0306 97.0943 82.0156 90.7908V74.9062H82.7647C86.7171 74.9076 90.631 74.13 94.2828 72.6179C97.9345 71.1058 101.252 68.8889 104.047 66.0938C107.711 69.765 112.266 72.4219 117.266 73.8047Z" fill="#57B7EB"/>
<path d="M108.453 134.391H15.9219C13.5847 134.391 11.3432 133.462 9.6905 131.81C8.03783 130.157 7.10938 127.915 7.10938 125.578V121.172H99.6406V125.578C99.6406 127.915 100.569 130.157 102.222 131.81C103.874 133.462 106.116 134.391 108.453 134.391Z" fill="#84D2F4"/>
<path d="M84.2188 28.6406H75.4062V19.8281H66.5938V28.6406H57.7812V37.4531H66.5938V46.2656H75.4062V37.4531H84.2188V28.6406Z" fill="#F9E109"/>
<path d="M84.2188 33.0469V37.4531H75.4062V46.2656H66.5938V37.4531H57.7812V28.6406H66.5938V19.8281H71V28.6406C71.0035 29.8082 71.4688 30.9269 72.2944 31.7525C73.12 32.578 74.2387 33.0434 75.4062 33.0469H84.2188Z" fill="#FCBC04"/>
<path d="M88.625 59.4844H53.375C52.7907 59.4844 52.2303 59.2523 51.8172 58.8391C51.404 58.4259 51.1719 57.8656 51.1719 57.2812C51.1719 56.6969 51.404 56.1366 51.8172 55.7234C52.2303 55.3102 52.7907 55.0781 53.375 55.0781H88.625C89.2093 55.0781 89.7697 55.3102 90.1828 55.7234C90.596 56.1366 90.8281 56.6969 90.8281 57.2812C90.8281 57.8656 90.596 58.4259 90.1828 58.8391C89.7697 59.2523 89.2093 59.4844 88.625 59.4844Z" fill="#F9E109"/>
<path d="M84.2188 68.2969H37.9531C37.3688 68.2969 36.8084 68.0648 36.3953 67.6516C35.9821 67.2384 35.75 66.6781 35.75 66.0938C35.75 65.5094 35.9821 64.9491 36.3953 64.5359C36.8084 64.1227 37.3688 63.8906 37.9531 63.8906H84.2188C84.8031 63.8906 85.3634 64.1227 85.7766 64.5359C86.1898 64.9491 86.4219 65.5094 86.4219 66.0938C86.4219 66.6781 86.1898 67.2384 85.7766 67.6516C85.3634 68.0648 84.8031 68.2969 84.2188 68.2969Z" fill="#F9E109"/>
<path d="M82.0156 77.1094H37.9531C37.3688 77.1094 36.8084 76.8773 36.3953 76.4641C35.9821 76.0509 35.75 75.4906 35.75 74.9062C35.75 74.3219 35.9821 73.7616 36.3953 73.3484C36.8084 72.9352 37.3688 72.7031 37.9531 72.7031H82.0156C82.5999 72.7031 83.1603 72.9352 83.5735 73.3484C83.9866 73.7616 84.2188 74.3219 84.2188 74.9062C84.2188 75.4906 83.9866 76.0509 83.5735 76.4641C83.1603 76.8773 82.5999 77.1094 82.0156 77.1094Z" fill="#F9E109"/>
<path d="M82.0156 85.9219H37.9531C37.3688 85.9219 36.8084 85.6898 36.3953 85.2766C35.9821 84.8634 35.75 84.3031 35.75 83.7188C35.75 83.1344 35.9821 82.5741 36.3953 82.1609C36.8084 81.7477 37.3688 81.5156 37.9531 81.5156H82.0156C82.5999 81.5156 83.1603 81.7477 83.5735 82.1609C83.9866 82.5741 84.2188 83.1344 84.2188 83.7188C84.2188 84.3031 83.9866 84.8634 83.5735 85.2766C83.1603 85.6898 82.5999 85.9219 82.0156 85.9219Z" fill="#F9E109"/>
<path d="M64.3906 94.7344H37.9531C37.3688 94.7344 36.8084 94.5023 36.3953 94.0891C35.9821 93.6759 35.75 93.1156 35.75 92.5312C35.75 91.9469 35.9821 91.3866 36.3953 90.9734C36.8084 90.5602 37.3688 90.3281 37.9531 90.3281H64.3906C64.9749 90.3281 65.5353 90.5602 65.9485 90.9734C66.3616 91.3866 66.5938 91.9469 66.5938 92.5312C66.5938 93.1156 66.3616 93.6759 65.9485 94.0891C65.5353 94.5023 64.9749 94.7344 64.3906 94.7344Z" fill="#F9E109"/>
<path d="M55.5781 110.156C55.1425 110.156 54.7166 110.027 54.3544 109.785C53.9922 109.543 53.7099 109.199 53.5432 108.796C53.3764 108.394 53.3328 107.951 53.4178 107.523C53.5027 107.096 53.7125 106.704 54.0205 106.396L56.5078 103.908C56.9568 103.459 57.5028 103.118 58.1038 102.913C58.7049 102.707 59.345 102.642 59.9751 102.723C60.6052 102.803 61.2085 103.027 61.7387 103.377C62.2688 103.727 62.7118 104.193 63.0335 104.741L65.7323 102.943C66.2228 102.616 66.7773 102.397 67.3589 102.3C67.9406 102.204 68.5361 102.232 69.106 102.383C69.6758 102.535 70.207 102.806 70.6642 103.178C71.1214 103.55 71.4942 104.015 71.7579 104.543L71.9077 104.84L80.881 99.4557C81.1291 99.3004 81.4057 99.1961 81.6945 99.1489C81.9833 99.1018 82.2787 99.1126 82.5633 99.1808C82.8479 99.249 83.116 99.3733 83.3521 99.5463C83.5881 99.7193 83.7874 99.9376 83.9381 100.188C84.0889 100.439 84.1881 100.718 84.2301 101.007C84.2721 101.297 84.2559 101.592 84.1825 101.875C84.1092 102.159 83.9801 102.425 83.8029 102.657C83.6256 102.89 83.4038 103.086 83.1502 103.232L73.9434 108.755C73.4524 109.05 72.9057 109.241 72.3376 109.315C71.7694 109.389 71.1922 109.344 70.642 109.184C70.0919 109.024 69.5808 108.752 69.1408 108.385C68.7008 108.018 68.3414 107.565 68.0853 107.052L67.9421 106.763L65.2521 108.557C64.7854 108.868 64.2606 109.082 63.7092 109.185C63.1578 109.288 62.5912 109.279 62.0435 109.157C61.4959 109.036 60.9784 108.805 60.5223 108.478C60.0662 108.152 59.6809 107.736 59.3895 107.257L57.1357 109.511C56.7227 109.924 56.1624 110.156 55.5781 110.156V110.156Z" fill="#F9E109"/>
<path d="M35.75 66.0938C35.75 65.5094 35.9821 64.9491 36.3953 64.5359C36.8084 64.1227 37.3688 63.8906 37.9531 63.8906H44.5625V66.0938C44.5625 66.8208 44.5845 67.5698 44.6066 68.2969H37.9531C37.3688 68.2969 36.8084 68.0648 36.3953 67.6516C35.9821 67.2384 35.75 66.6781 35.75 66.0938Z" fill="#FCBC04"/>
<path d="M35.75 74.9062C35.75 74.3219 35.9821 73.7616 36.3953 73.3484C36.8084 72.9352 37.3688 72.7031 37.9531 72.7031H45.0912C45.3157 74.19 45.6321 75.6616 46.0386 77.1094H37.9531C37.3688 77.1094 36.8084 76.8773 36.3953 76.4641C35.9821 76.0509 35.75 75.4906 35.75 74.9062Z" fill="#FCBC04"/>
<path d="M35.75 83.7188C35.75 83.1344 35.9821 82.5741 36.3953 82.1609C36.8084 81.7477 37.3688 81.5156 37.9531 81.5156H47.5147C48.1034 83.0264 48.7878 84.4981 49.5636 85.9219H37.9531C37.3688 85.9219 36.8084 85.6898 36.3953 85.2766C35.9821 84.8634 35.75 84.3031 35.75 83.7188Z" fill="#FCBC04"/>
<path d="M55.9306 94.7344H37.9531C37.3688 94.7344 36.8084 94.5023 36.3953 94.0891C35.9821 93.6759 35.75 93.1156 35.75 92.5312C35.75 91.9469 35.9821 91.3866 36.3953 90.9734C36.8084 90.5602 37.3688 90.3281 37.9531 90.3281H52.3175C53.4056 91.8885 54.6136 93.3617 55.9306 94.7344Z" fill="#FCBC04"/>
<path d="M66.1752 102.71C69.5797 104.623 73.2466 106.026 77.0586 106.874L73.9522 108.746C73.4596 109.039 72.9129 109.229 72.3449 109.305C71.777 109.38 71.1996 109.34 70.6475 109.187C70.0964 109.028 69.5845 108.756 69.1445 108.388C68.7044 108.02 68.3459 107.564 68.0919 107.05L67.9377 106.763L65.2499 108.548C64.7845 108.863 64.2599 109.08 63.7079 109.185C63.156 109.29 62.5884 109.282 62.0398 109.16C61.4912 109.038 60.9733 108.806 60.5176 108.477C60.0619 108.149 59.678 107.73 59.3895 107.248L57.1424 109.517C56.7247 109.927 56.1631 110.156 55.5781 110.156C54.9932 110.156 54.4316 109.927 54.0139 109.517C53.6012 109.101 53.3695 108.539 53.3695 107.953C53.3695 107.367 53.6012 106.805 54.0139 106.389L56.5034 103.899C56.9747 103.44 57.5468 103.097 58.1742 102.898C58.8015 102.699 59.4667 102.65 60.1166 102.754C60.717 102.851 61.2888 103.079 61.7913 103.421C62.2939 103.764 62.715 104.213 63.0247 104.737L65.7345 102.952C65.8739 102.858 66.0214 102.777 66.1752 102.71V102.71Z" fill="#FCBC04"/>
<path d="M84.2188 83.7188C84.2188 84.3031 83.9866 84.8634 83.5735 85.2766C83.1603 85.6898 82.5999 85.9219 82.0156 85.9219V81.5156C82.5999 81.5156 83.1603 81.7477 83.5735 82.1609C83.9866 82.5741 84.2188 83.1344 84.2188 83.7188Z" fill="#FCBC04"/>
<path d="M83.9103 100.22C84.0915 100.528 84.1902 100.877 84.1967 101.234L83.668 99.9117C83.7671 99.9988 83.8492 100.103 83.9103 100.22V100.22Z" fill="#FCBC04"/>
<path d="M84.2188 74.8623V74.9064C84.2188 75.4907 83.9866 76.051 83.5735 76.4642C83.1603 76.8774 82.5999 77.1095 82.0156 77.1095V74.9064H82.7647C83.2494 74.9064 83.7341 74.8843 84.2188 74.8623Z" fill="#FCBC04"/>
<path d="M112.859 63.8906C107.217 69.533 99.5636 72.7029 91.5838 72.7031H90.8281V88.5788C90.8266 93.1457 92.008 97.6351 94.2574 101.61C96.5069 105.584 99.7475 108.908 103.664 111.258L112.859 116.766L122.055 111.258C125.971 108.908 129.212 105.584 131.461 101.61C133.711 97.6351 134.892 93.1457 134.891 88.5788V72.7031H134.135C126.155 72.7029 118.502 69.533 112.859 63.8906V63.8906Z" fill="#F8664F"/>
<path d="M124.778 109.385C123.908 110.067 122.996 110.692 122.046 111.258L112.859 116.766L103.672 111.258C99.7559 108.91 96.5144 105.588 94.2635 101.615C92.0125 97.6419 90.829 93.1538 90.8281 88.5875V72.703H91.5772C95.8795 72.6996 100.131 71.7757 104.047 69.9932V81.9782C104.048 86.5444 105.231 91.0326 107.482 95.0055C109.733 98.9784 112.975 102.301 116.891 104.648L124.778 109.385Z" fill="#CC5144"/>
<path d="M108.198 103.69C105.594 102.118 103.438 99.9021 101.94 97.2553C100.441 94.6086 99.6491 91.6204 99.6406 88.5788V80.685C104.352 79.6992 108.835 77.8376 112.859 75.197C116.883 77.8376 121.367 79.6992 126.078 80.685V88.5788C126.07 91.6204 125.278 94.6086 123.779 97.2553C122.28 99.9021 120.125 102.118 117.521 103.69L112.859 106.488L108.198 103.69Z" fill="#F9E109"/>
<path d="M116.428 104.362L112.859 106.477L108.189 103.701C105.589 102.125 103.438 99.9071 101.941 97.2607C100.444 94.6143 99.6521 91.6279 99.6406 88.5876V80.6784C101.135 80.3756 102.608 79.9707 104.047 79.4667V81.9782C104.047 86.4524 105.182 90.8534 107.348 94.7685C109.514 98.6836 112.638 101.985 116.428 104.362V104.362Z" fill="#FCBC04"/>
<path d="M111.758 96.9375C111.174 96.9374 110.613 96.7052 110.2 96.292L105.794 91.8858C105.393 91.4702 105.171 90.9137 105.176 90.3361C105.181 89.7584 105.412 89.2059 105.821 88.7974C106.229 88.3889 106.782 88.1572 107.359 88.1522C107.937 88.1472 108.494 88.3692 108.909 88.7705L111.758 91.6192L116.81 86.5674C117.225 86.1661 117.782 85.944 118.359 85.9491C118.937 85.9541 119.489 86.1858 119.898 86.5943C120.306 87.0027 120.538 87.5553 120.543 88.133C120.548 88.7106 120.326 89.2671 119.925 89.6826L113.315 96.292C112.902 96.7052 112.342 96.9374 111.758 96.9375V96.9375Z" fill="#57B7EB"/>
</svg>
