<svg width="95" height="96" viewBox="0 0 95 96" fill="none" xmlns="http://www.w3.org/2000/svg">
<path d="M51.9531 63C51.7002 62.9999 51.4515 62.9344 51.2306 62.8099C51.0098 62.6853 50.824 62.5058 50.6911 62.2884C50.5582 62.071 50.4824 61.8228 50.471 61.5675C50.4597 61.3122 50.513 61.0581 50.6261 60.8295L53.5948 54.8295C53.718 54.5804 53.9074 54.3708 54.1418 54.2243C54.3762 54.0778 54.6463 54.0001 54.9219 54H60.8594C61.253 54 61.6306 54.158 61.909 54.4393C62.1874 54.7206 62.3437 55.1022 62.3437 55.5C62.3437 55.8978 62.1874 56.2794 61.909 56.5607C61.6306 56.842 61.253 57 60.8594 57H55.8392L53.2891 62.1705C53.1652 62.421 52.9744 62.6315 52.7383 62.778C52.5022 62.9246 52.2302 63.0015 51.9531 63V63Z" fill="#93999A"/>
<path d="M84.6094 63C84.3323 63.0015 84.0603 62.9246 83.8242 62.778C83.5881 62.6314 83.3973 62.421 83.2734 62.1705L80.7233 57H75.7031C75.3094 57 74.9319 56.8419 74.6535 56.5606C74.3751 56.2793 74.2188 55.8978 74.2188 55.5C74.2188 55.1021 74.3751 54.7206 74.6535 54.4393C74.9319 54.158 75.3094 54 75.7031 54H81.6406C81.9177 53.9984 82.1897 54.0753 82.4258 54.2219C82.6619 54.3685 82.8527 54.579 82.9766 54.8295L85.9453 60.8295C86.0587 61.0588 86.1121 61.3136 86.1003 61.5697C86.0885 61.8258 86.0119 62.0745 85.878 62.2922C85.744 62.5099 85.557 62.6892 85.3349 62.8131C85.1129 62.937 84.8631 63.0014 84.6094 63V63Z" fill="#93999A"/>
<path d="M68.2812 63C67.8876 63 67.51 62.842 67.2316 62.5607C66.9533 62.2794 66.7969 61.8978 66.7969 61.5V57C66.7969 56.6022 66.9533 56.2206 67.2316 55.9393C67.51 55.658 67.8876 55.5 68.2812 55.5C68.6749 55.5 69.0525 55.658 69.3309 55.9393C69.6092 56.2206 69.7656 56.6022 69.7656 57V61.5C69.7656 61.8978 69.6092 62.2794 69.3309 62.5607C69.0525 62.842 68.6749 63 68.2812 63Z" fill="#93999A"/>
<path d="M10.3906 63C10.1377 62.9999 9.889 62.9344 9.66814 62.8099C9.44727 62.6853 9.26155 62.5058 9.12862 62.2884C8.99568 62.071 8.91992 61.8228 8.90854 61.5675C8.89716 61.3122 8.95054 61.0581 9.06359 60.8295L12.0323 54.8295C12.1555 54.5804 12.3449 54.3708 12.5793 54.2243C12.8137 54.0778 13.0838 54.0001 13.3594 54H19.2969C19.6906 54 20.0681 54.158 20.3465 54.4393C20.6249 54.7206 20.7813 55.1022 20.7813 55.5C20.7813 55.8978 20.6249 56.2794 20.3465 56.5607C20.0681 56.842 19.6906 57 19.2969 57H14.2767L11.7266 62.1705C11.6027 62.421 11.4119 62.6315 11.1758 62.778C10.9397 62.9246 10.6677 63.0015 10.3906 63Z" fill="#93999A"/>
<path d="M43.0469 63C42.7698 63.0015 42.4978 62.9246 42.2617 62.778C42.0256 62.6315 41.8348 62.421 41.7109 62.1705L39.1608 57H34.1406C33.7469 57 33.3694 56.842 33.091 56.5607C32.8126 56.2794 32.6562 55.8978 32.6562 55.5C32.6562 55.1022 32.8126 54.7206 33.091 54.4393C33.3694 54.158 33.7469 54 34.1406 54H40.0781C40.354 53.9999 40.6244 54.0774 40.8591 54.2239C41.0937 54.3705 41.2833 54.5802 41.4066 54.8295L44.3754 60.8295C44.4885 61.0582 44.5419 61.3124 44.5304 61.5679C44.519 61.8233 44.4431 62.0716 44.31 62.289C44.1769 62.5065 43.9909 62.686 43.7699 62.8104C43.5488 62.9349 43.2999 63.0001 43.0469 63Z" fill="#93999A"/>
<path d="M26.7188 63C26.3251 63 25.9475 62.842 25.6691 62.5607C25.3908 62.2794 25.2344 61.8978 25.2344 61.5V57C25.2344 56.6022 25.3908 56.2206 25.6691 55.9393C25.9475 55.658 26.3251 55.5 26.7188 55.5C27.1124 55.5 27.49 55.658 27.7684 55.9393C28.0467 56.2206 28.2031 56.6022 28.2031 57V61.5C28.2031 61.8978 28.0467 62.2794 27.7684 62.5607C27.49 62.842 27.1124 63 26.7188 63Z" fill="#93999A"/>
<path d="M4.45312 67.5H90.5469V91.5H4.45312V67.5Z" fill="#E9F1F2"/>
<path d="M90.5469 84V91.5H4.45312V67.5H8.96562C9.33793 71.999 11.3697 76.1923 14.658 79.2485C17.9463 82.3047 22.2511 84.0007 26.7188 84H29.0195C28.4903 83.0885 28.2087 82.052 28.2032 80.9952C28.1977 79.9384 28.4685 78.8989 28.9882 77.9819C29.5079 77.0648 30.2581 76.3028 31.1629 75.7728C32.0676 75.2428 33.0948 74.9637 34.1406 74.9637C35.1864 74.9637 36.2136 75.2428 37.1184 75.7728C38.0231 76.3028 38.7733 77.0648 39.293 77.9819C39.8127 78.8989 40.0835 79.9384 40.078 80.9952C40.0725 82.052 39.7909 83.0885 39.2617 84H49.8008C49.2716 83.0885 48.99 82.052 48.9845 80.9952C48.979 79.9384 49.2498 78.8989 49.7695 77.9819C50.2892 77.0648 51.0394 76.3028 51.9441 75.7728C52.8489 75.2428 53.8761 74.9637 54.9219 74.9637C55.9677 74.9637 56.9949 75.2428 57.8996 75.7728C58.8044 76.3028 59.5546 77.0648 60.0743 77.9819C60.594 78.8989 60.8648 79.9384 60.8593 80.9952C60.8538 82.052 60.5722 83.0885 60.043 84H69.0977C68.5684 83.0885 68.2868 82.052 68.2813 80.9952C68.2758 79.9384 68.5466 78.8989 69.0664 77.9819C69.5861 77.0648 70.3362 76.3028 71.241 75.7728C72.1457 75.2428 73.173 74.9637 74.2188 74.9637C75.2645 74.9637 76.2918 75.2428 77.1965 75.7728C78.1013 76.3028 78.8514 77.0648 79.3711 77.9819C79.8909 78.8989 80.1617 79.9384 80.1562 80.9952C80.1507 82.052 79.8691 83.0885 79.3398 84H90.5469Z" fill="#D0D8DA"/>
<path d="M7.42188 61.5H87.5781V67.5H7.42188V61.5Z" fill="#84D2F4"/>
<path d="M57.8906 85.5C61.1698 85.5 63.8281 82.8137 63.8281 79.5C63.8281 76.1863 61.1698 73.5 57.8906 73.5C54.6114 73.5 51.9531 76.1863 51.9531 79.5C51.9531 82.8137 54.6114 85.5 57.8906 85.5Z" fill="#57B7EB"/>
<path d="M77.1875 85.5C80.4667 85.5 83.125 82.8137 83.125 79.5C83.125 76.1863 80.4667 73.5 77.1875 73.5C73.9083 73.5 71.25 76.1863 71.25 79.5C71.25 82.8137 73.9083 85.5 77.1875 85.5Z" fill="#57B7EB"/>
<path d="M17.8125 85.5C21.0917 85.5 23.75 82.8137 23.75 79.5C23.75 76.1863 21.0917 73.5 17.8125 73.5C14.5333 73.5 11.875 76.1863 11.875 79.5C11.875 82.8137 14.5333 85.5 17.8125 85.5Z" fill="#57B7EB"/>
<path d="M37.1094 85.5C40.3886 85.5 43.0469 82.8137 43.0469 79.5C43.0469 76.1863 40.3886 73.5 37.1094 73.5C33.8302 73.5 31.1719 76.1863 31.1719 79.5C31.1719 82.8137 33.8302 85.5 37.1094 85.5Z" fill="#57B7EB"/>
<path d="M32.6562 48C32.6562 49.5913 32.0307 51.1174 30.9172 52.2426C29.8037 53.3679 28.2935 54 26.7188 54C25.144 54 23.6338 53.3679 22.5203 52.2426C21.4068 51.1174 20.7813 49.5913 20.7812 48C20.7812 43.5 26.7188 39 26.7188 39C26.7188 39 32.6562 43.5 32.6562 48Z" fill="#F9E109"/>
<path d="M26.7188 54C25.5377 54 24.405 53.5259 23.5699 52.682C22.7348 51.8381 22.2656 50.6935 22.2656 49.5C22.2656 46.938 24.9657 43.995 26.7188 42.438C28.4718 43.995 31.1719 46.938 31.1719 49.5C31.1719 50.6935 30.7027 51.8381 29.8676 52.682C29.0325 53.5259 27.8998 54 26.7188 54Z" fill="#FCBC04"/>
<path d="M28.9453 51.4995C28.9775 51.8145 28.944 52.1328 28.8468 52.4339C28.7495 52.7349 28.5909 53.012 28.381 53.2472C28.1711 53.4823 27.9147 53.6703 27.6283 53.799C27.342 53.9277 27.0321 53.9942 26.7187 53.9942C26.4054 53.9942 26.0955 53.9277 25.8091 53.799C25.5228 53.6703 25.2664 53.4823 25.0565 53.2472C24.8466 53.012 24.6879 52.7349 24.5907 52.4339C24.4935 52.1328 24.4599 51.8145 24.4922 51.4995C24.7051 49.6405 25.483 47.8939 26.7187 46.5C27.9545 47.8939 28.7323 49.6405 28.9453 51.4995Z" fill="#E59730"/>
<path d="M41.5625 49.5C41.5625 50.6935 41.0933 51.8381 40.2582 52.682C39.4231 53.5259 38.2904 54 37.1094 54C35.9283 54 34.7957 53.5259 33.9605 52.682C33.1254 51.8381 32.6563 50.6935 32.6562 49.5C32.6562 45 37.1094 42 37.1094 42C37.1094 42 41.5625 45 41.5625 49.5Z" fill="#F9E109"/>
<path d="M37.1094 54C36.322 54 35.5669 53.6839 35.0102 53.1213C34.4534 52.5587 34.1406 51.7956 34.1406 51C34.2342 49.914 34.5457 48.8586 35.0561 47.8983C35.5665 46.9379 36.2652 46.0926 37.1094 45.414C37.9535 46.0927 38.652 46.938 39.1624 47.8984C39.6728 48.8587 39.9843 49.914 40.0781 51C40.0781 51.7956 39.7653 52.5587 39.2086 53.1213C38.6518 53.6839 37.8967 54 37.1094 54Z" fill="#FCBC04"/>
<path d="M20.7812 49.5C20.7812 50.6935 20.3121 51.8381 19.477 52.682C18.6418 53.5259 17.5092 54 16.3281 54C15.1471 54 14.0144 53.5259 13.1793 52.682C12.3442 51.8381 11.875 50.6935 11.875 49.5C11.875 45 16.3281 42 16.3281 42C16.3281 42 20.7812 45 20.7812 49.5Z" fill="#F9E109"/>
<path d="M16.3281 54C15.5408 54 14.7857 53.6839 14.2289 53.1213C13.6722 52.5587 13.3594 51.7956 13.3594 51C13.453 49.914 13.7645 48.8586 14.2749 47.8983C14.7853 46.9379 15.4839 46.0926 16.3281 45.414C17.1722 46.0927 17.8707 46.938 18.3811 47.8984C18.8915 48.8587 19.2031 49.914 19.2969 51C19.2969 51.7956 18.9841 52.5587 18.4273 53.1213C17.8706 53.6839 17.1155 54 16.3281 54Z" fill="#FCBC04"/>
<path d="M74.2188 48C74.2188 49.5913 73.5932 51.1174 72.4797 52.2426C71.3662 53.3679 69.856 54 68.2812 54C66.7065 54 65.1963 53.3679 64.0828 52.2426C62.9693 51.1174 62.3438 49.5913 62.3438 48C62.3438 43.5 68.2812 39 68.2812 39C68.2812 39 74.2188 43.5 74.2188 48Z" fill="#F9E109"/>
<path d="M68.2812 54C67.1002 54 65.9675 53.5259 65.1324 52.682C64.2973 51.8381 63.8281 50.6935 63.8281 49.5C63.8281 46.938 66.5282 43.995 68.2812 42.438C70.0343 43.995 72.7344 46.938 72.7344 49.5C72.7344 50.6935 72.2652 51.8381 71.4301 52.682C70.595 53.5259 69.4623 54 68.2812 54Z" fill="#FCBC04"/>
<path d="M70.5078 51.4995C70.54 51.8145 70.5065 52.1328 70.4093 52.4339C70.312 52.7349 70.1534 53.012 69.9435 53.2472C69.7336 53.4823 69.4772 53.6703 69.1908 53.799C68.9045 53.9277 68.5946 53.9942 68.2812 53.9942C67.9679 53.9942 67.658 53.9277 67.3716 53.799C67.0853 53.6703 66.8289 53.4823 66.619 53.2472C66.4091 53.012 66.2504 52.7349 66.1532 52.4339C66.056 52.1328 66.0224 51.8145 66.0547 51.4995C66.2676 49.6405 67.0455 47.8939 68.2812 46.5C69.517 47.8939 70.2949 49.6405 70.5078 51.4995V51.4995Z" fill="#E59730"/>
<path d="M83.125 49.5C83.125 50.6935 82.6558 51.8381 81.8207 52.682C80.9856 53.5259 79.8529 54 78.6719 54C77.4908 54 76.3582 53.5259 75.523 52.682C74.6879 51.8381 74.2188 50.6935 74.2188 49.5C74.2188 45 78.6719 42 78.6719 42C78.6719 42 83.125 45 83.125 49.5Z" fill="#F9E109"/>
<path d="M78.6719 54C77.8845 54 77.1294 53.6839 76.5726 53.1213C76.0159 52.5587 75.7031 51.7956 75.7031 51C75.7967 49.914 76.1082 48.8586 76.6186 47.8983C77.129 46.9379 77.8277 46.0926 78.6719 45.414C79.516 46.0927 80.2145 46.938 80.7249 47.8984C81.2353 48.8587 81.5468 49.914 81.6406 51C81.6406 51.7956 81.3278 52.5587 80.7711 53.1213C80.2144 53.6839 79.4592 54 78.6719 54Z" fill="#FCBC04"/>
<path d="M62.3438 49.5C62.3438 50.6935 61.8746 51.8381 61.0395 52.682C60.2043 53.5259 59.0717 54 57.8906 54C56.7096 54 55.5769 53.5259 54.7418 52.682C53.9067 51.8381 53.4375 50.6935 53.4375 49.5C53.4375 45 57.8906 42 57.8906 42C57.8906 42 62.3438 45 62.3438 49.5Z" fill="#F9E109"/>
<path d="M57.8906 54C57.1033 54 56.3481 53.6839 55.7914 53.1213C55.2347 52.5587 54.9219 51.7956 54.9219 51C55.0155 49.914 55.327 48.8586 55.8374 47.8983C56.3478 46.9379 57.0464 46.0926 57.8906 45.414C58.7347 46.0927 59.4332 46.938 59.9436 47.8984C60.454 48.8587 60.7656 49.914 60.8594 51C60.8594 51.7956 60.5466 52.5587 59.9899 53.1213C59.4331 53.6839 58.678 54 57.8906 54Z" fill="#FCBC04"/>
<path d="M87.5781 64.5V67.5H7.42188V61.5H12.1422C12.4424 62.3792 13.0075 63.1414 13.7583 63.6795C14.509 64.2175 15.4077 64.5045 16.3281 64.5H87.5781Z" fill="#57B7EB"/>
<path d="M82.5906 81.96C82.1975 82.8459 81.5973 83.6219 80.8416 84.2214C80.0859 84.8209 79.1974 85.2258 78.2526 85.4015C77.3077 85.5771 76.3347 85.5181 75.4174 85.2296C74.5001 84.9411 73.6659 84.4316 72.9866 83.7452C72.3073 83.0587 71.8032 82.2157 71.5176 81.2887C71.2321 80.3618 71.1738 79.3786 71.3476 78.4238C71.5214 77.469 71.9221 76.5711 72.5153 75.8075C73.1086 75.0439 73.8765 74.4373 74.7531 74.04C74.4018 74.8116 74.2195 75.6507 74.2188 76.5C74.2188 78.0913 74.8443 79.6175 75.9578 80.7427C77.0713 81.8679 78.5815 82.5 80.1562 82.5C80.9967 82.4993 81.8271 82.3151 82.5906 81.96V81.96Z" fill="#4891D3"/>
<path d="M63.2938 81.96C62.9006 82.8459 62.3004 83.6219 61.5447 84.2214C60.789 84.8209 59.9005 85.2258 58.9557 85.4015C58.0108 85.5771 57.0379 85.5181 56.1206 85.2296C55.2033 84.9411 54.3691 84.4316 53.6897 83.7452C53.0104 83.0587 52.5063 82.2157 52.2208 81.2887C51.9353 80.3618 51.8769 79.3786 52.0507 78.4238C52.2245 77.469 52.6252 76.5711 53.2185 75.8075C53.8117 75.0439 54.5797 74.4373 55.4563 74.04C55.1049 74.8116 54.9226 75.6507 54.9219 76.5C54.9219 78.0913 55.5474 79.6175 56.6609 80.7427C57.7744 81.8679 59.2847 82.5 60.8594 82.5C61.6999 82.4993 62.5302 82.3151 63.2938 81.96V81.96Z" fill="#4891D3"/>
<path d="M42.5125 81.96C42.1194 82.8459 41.5191 83.6219 40.7635 84.2214C40.0078 84.8209 39.1193 85.2258 38.1744 85.4015C37.2296 85.5771 36.2566 85.5181 35.3393 85.2296C34.422 84.9411 33.5878 84.4316 32.9085 83.7452C32.2292 83.0587 31.725 82.2157 31.4395 81.2887C31.154 80.3618 31.0956 79.3786 31.2694 78.4238C31.4432 77.469 31.844 76.5711 32.4372 75.8075C33.0305 75.0439 33.7984 74.4373 34.675 74.04C34.3236 74.8116 34.1414 75.6507 34.1406 76.5C34.1406 78.0913 34.7662 79.6175 35.8797 80.7427C36.9932 81.8679 38.5034 82.5 40.0781 82.5C40.9186 82.4993 41.749 82.3151 42.5125 81.96V81.96Z" fill="#4891D3"/>
<path d="M23.2156 81.96C22.8225 82.8459 22.2223 83.6219 21.4666 84.2214C20.7109 84.8209 19.8224 85.2258 18.8776 85.4015C17.9327 85.5771 16.9598 85.5181 16.0424 85.2296C15.1251 84.9411 14.2909 84.4316 13.6116 83.7452C12.9323 83.0587 12.4282 82.2157 12.1427 81.2887C11.8571 80.3618 11.7988 79.3786 11.9726 78.4238C12.1464 77.469 12.5471 76.5711 13.1404 75.8075C13.7336 75.0439 14.5015 74.4373 15.3781 74.04C15.0268 74.8116 14.8445 75.6507 14.8438 76.5C14.8438 78.0913 15.4693 79.6175 16.5828 80.7427C17.6963 81.8679 19.2065 82.5 20.7813 82.5C21.6217 82.4993 22.4521 82.3151 23.2156 81.96V81.96Z" fill="#4891D3"/>
<path d="M77.1875 79.5C76.7938 79.5 76.4163 79.342 76.1379 79.0607C75.8595 78.7794 75.7031 78.3978 75.7031 78V75C75.7031 74.6022 75.8595 74.2206 76.1379 73.9393C76.4163 73.658 76.7938 73.5 77.1875 73.5C77.5812 73.5 77.9587 73.658 78.2371 73.9393C78.5155 74.2206 78.6719 74.6022 78.6719 75V78C78.6719 78.3978 78.5155 78.7794 78.2371 79.0607C77.9587 79.342 77.5812 79.5 77.1875 79.5Z" fill="#D0D8DA"/>
<path d="M57.8906 79.5C57.4969 79.5 57.1194 79.342 56.841 79.0607C56.5626 78.7794 56.4062 78.3978 56.4062 78V75C56.4062 74.6022 56.5626 74.2206 56.841 73.9393C57.1194 73.658 57.4969 73.5 57.8906 73.5C58.2843 73.5 58.6619 73.658 58.9402 73.9393C59.2186 74.2206 59.375 74.6022 59.375 75V78C59.375 78.3978 59.2186 78.7794 58.9402 79.0607C58.6619 79.342 58.2843 79.5 57.8906 79.5Z" fill="#D0D8DA"/>
<path d="M37.1094 81H32.6562C32.2626 81 31.885 80.842 31.6066 80.5607C31.3283 80.2794 31.1719 79.8978 31.1719 79.5C31.1719 79.1022 31.3283 78.7206 31.6066 78.4393C31.885 78.158 32.2626 78 32.6562 78H37.1094C37.5031 78 37.8806 78.158 38.159 78.4393C38.4374 78.7206 38.5938 79.1022 38.5938 79.5C38.5938 79.8978 38.4374 80.2794 38.159 80.5607C37.8806 80.842 37.5031 81 37.1094 81Z" fill="#D0D8DA"/>
<path d="M17.8125 81H13.3594C12.9657 81 12.5881 80.842 12.3098 80.5607C12.0314 80.2794 11.875 79.8978 11.875 79.5C11.875 79.1022 12.0314 78.7206 12.3098 78.4393C12.5881 78.158 12.9657 78 13.3594 78H17.8125C18.2062 78 18.5837 78.158 18.8621 78.4393C19.1405 78.7206 19.2969 79.1022 19.2969 79.5C19.2969 79.8978 19.1405 80.2794 18.8621 80.5607C18.5837 80.842 18.2062 81 17.8125 81Z" fill="#D0D8DA"/>
<path d="M38.5938 51V53.73C37.6362 54.09 36.5825 54.09 35.625 53.73V51C35.625 50.6022 35.7814 50.2206 36.0598 49.9393C36.3381 49.658 36.7157 49.5 37.1094 49.5C37.5031 49.5 37.8806 49.658 38.159 49.9393C38.4374 50.2206 38.5938 50.6022 38.5938 51Z" fill="#E59730"/>
<path d="M38.5938 51V53.73C37.6362 54.09 36.5825 54.09 35.625 53.73V51C35.625 50.6022 35.7814 50.2206 36.0598 49.9393C36.3381 49.658 36.7157 49.5 37.1094 49.5C37.5031 49.5 37.8806 49.658 38.159 49.9393C38.4374 50.2206 38.5938 50.6022 38.5938 51Z" fill="#E59730"/>
<path d="M17.8125 51V53.73C16.855 54.09 15.8013 54.09 14.8438 53.73V51C14.8438 50.6022 15.0001 50.2206 15.2785 49.9393C15.5569 49.658 15.9344 49.5 16.3281 49.5C16.7218 49.5 17.0994 49.658 17.3777 49.9393C17.6561 50.2206 17.8125 50.6022 17.8125 51Z" fill="#E59730"/>
<path d="M17.8125 51V53.73C16.855 54.09 15.8013 54.09 14.8438 53.73V51C14.8438 50.6022 15.0001 50.2206 15.2785 49.9393C15.5569 49.658 15.9344 49.5 16.3281 49.5C16.7218 49.5 17.0994 49.658 17.3777 49.9393C17.6561 50.2206 17.8125 50.6022 17.8125 51Z" fill="#E59730"/>
<path d="M80.1562 51V53.73C79.1987 54.09 78.145 54.09 77.1875 53.73V51C77.1875 50.6022 77.3439 50.2206 77.6223 49.9393C77.9006 49.658 78.2782 49.5 78.6719 49.5C79.0656 49.5 79.4431 49.658 79.7215 49.9393C79.9999 50.2206 80.1562 50.6022 80.1562 51Z" fill="#E59730"/>
<path d="M80.1562 51V53.73C79.1987 54.09 78.145 54.09 77.1875 53.73V51C77.1875 50.6022 77.3439 50.2206 77.6223 49.9393C77.9006 49.658 78.2782 49.5 78.6719 49.5C79.0656 49.5 79.4431 49.658 79.7215 49.9393C79.9999 50.2206 80.1562 50.6022 80.1562 51Z" fill="#E59730"/>
<path d="M59.375 51V53.73C58.4175 54.09 57.3638 54.09 56.4062 53.73V51C56.4062 50.6022 56.5626 50.2206 56.841 49.9393C57.1194 49.658 57.4969 49.5 57.8906 49.5C58.2843 49.5 58.6619 49.658 58.9402 49.9393C59.2186 50.2206 59.375 50.6022 59.375 51Z" fill="#E59730"/>
<path d="M59.375 51V53.73C58.4175 54.09 57.3638 54.09 56.4062 53.73V51C56.4062 50.6022 56.5626 50.2206 56.841 49.9393C57.1194 49.658 57.4969 49.5 57.8906 49.5C58.2843 49.5 58.6619 49.658 58.9402 49.9393C59.2186 50.2206 59.375 50.6022 59.375 51Z" fill="#E59730"/>
<path d="M36.1594 81H32.6562C32.2626 81 31.885 80.842 31.6066 80.5607C31.3283 80.2794 31.1719 79.8978 31.1719 79.5C31.1719 79.1022 31.3283 78.7206 31.6066 78.4393C31.885 78.158 32.2626 78 32.6562 78H34.3336C34.6288 79.1632 35.2652 80.209 36.1594 81V81Z" fill="#93999A"/>
<path d="M16.8625 81H13.3594C12.9657 81 12.5881 80.842 12.3098 80.5607C12.0314 80.2794 11.875 79.8978 11.875 79.5C11.875 79.1022 12.0314 78.7206 12.3098 78.4393C12.5881 78.158 12.9657 78 13.3594 78H15.0367C15.3319 79.1632 15.9684 80.209 16.8625 81V81Z" fill="#93999A"/>
</svg>
