<svg width="141" height="141" viewBox="0 0 141 141" fill="none" xmlns="http://www.w3.org/2000/svg">
<path d="M129.984 74.9062C129.4 74.9062 128.84 74.6741 128.427 74.261C128.013 73.8478 127.781 73.2874 127.781 72.7031V63.8906C127.781 63.3063 128.013 62.7459 128.427 62.3328C128.84 61.9196 129.4 61.6875 129.984 61.6875C130.569 61.6875 131.129 61.9196 131.542 62.3328C131.955 62.7459 132.188 63.3063 132.188 63.8906V72.7031C132.188 73.2874 131.955 73.8478 131.542 74.261C131.129 74.6741 130.569 74.9062 129.984 74.9062Z" fill="#57B7EB"/>
<path d="M103.547 81.5156H134.391V107.953H103.547V81.5156Z" fill="#FCBC04"/>
<path d="M134.391 101.344V107.953H103.547V81.5156H116.766V88.125C116.766 91.6308 118.158 94.9931 120.637 97.4721C123.116 99.9511 126.479 101.344 129.984 101.344H134.391Z" fill="#E59730"/>
<path d="M116.766 99.1406C119.199 99.1406 121.172 97.1679 121.172 94.7344C121.172 92.3009 119.199 90.3281 116.766 90.3281C114.332 90.3281 112.359 92.3009 112.359 94.7344C112.359 97.1679 114.332 99.1406 116.766 99.1406Z" fill="#F9E109"/>
<path d="M134.391 63.8906H103.547L112.359 41.8594H125.578L134.391 63.8906Z" fill="#F9E109"/>
<path d="M114.562 63.8906H123.375V81.5156H114.562V63.8906Z" fill="#84D2F4"/>
<path d="M120.775 96.541C120.485 97.1944 120.04 97.7673 119.478 98.2102C118.917 98.6531 118.256 98.9528 117.553 99.0833C116.85 99.2138 116.126 99.1712 115.443 98.9593C114.76 98.7473 114.139 98.3724 113.633 97.8667C113.128 97.3611 112.753 96.74 112.541 96.0571C112.329 95.3742 112.286 94.6499 112.417 93.9469C112.547 93.2438 112.847 92.5831 113.29 92.0217C113.733 91.4603 114.306 91.0152 114.959 90.7247C114.693 91.2896 114.558 91.907 114.562 92.5313C114.566 93.6988 115.031 94.8176 115.857 95.6431C116.682 96.4687 117.801 96.9341 118.969 96.9375C119.593 96.9424 120.21 96.8069 120.775 96.541V96.541Z" fill="#FCBC04"/>
<path d="M103.547 107.953H134.391V134.391H103.547V107.953Z" fill="#FCBC04"/>
<path d="M134.391 127.781V134.391H103.547V107.953H116.766V114.562C116.766 118.068 118.158 121.431 120.637 123.91C123.116 126.389 126.479 127.781 129.984 127.781H134.391Z" fill="#E59730"/>
<path d="M116.766 125.578C119.199 125.578 121.172 123.605 121.172 121.172C121.172 118.738 119.199 116.766 116.766 116.766C114.332 116.766 112.359 118.738 112.359 121.172C112.359 123.605 114.332 125.578 116.766 125.578Z" fill="#F9E109"/>
<path d="M120.775 122.978C120.485 123.632 120.04 124.205 119.478 124.648C118.917 125.091 118.256 125.39 117.553 125.521C116.85 125.651 116.126 125.609 115.443 125.397C114.76 125.185 114.139 124.81 113.633 124.304C113.128 123.799 112.753 123.178 112.541 122.495C112.329 121.812 112.286 121.087 112.417 120.384C112.547 119.681 112.847 119.021 113.29 118.459C113.733 117.898 114.306 117.453 114.959 117.162C114.693 117.727 114.558 118.344 114.562 118.969C114.566 120.136 115.031 121.255 115.857 122.081C116.682 122.906 117.801 123.372 118.969 123.375C119.593 123.38 120.21 123.244 120.775 122.978V122.978Z" fill="#FCBC04"/>
<path d="M120.269 69.5967C119.854 70.0007 119.526 70.4839 119.303 71.0176C119.079 71.5513 118.966 72.1246 118.969 72.7031C118.972 73.8707 119.438 74.9894 120.263 75.815C121.089 76.6405 122.207 77.1059 123.375 77.1094V81.5156H114.562V63.8906H123.375V68.2969C122.796 68.2938 122.223 68.4073 121.69 68.6306C121.156 68.854 120.673 69.1825 120.269 69.5967Z" fill="#57B7EB"/>
<path d="M134.391 63.8906H103.547L112.359 41.8594H116.325L116.193 42.1678C115.525 43.841 115.278 45.6523 115.472 47.4432C115.666 49.2342 116.296 50.9503 117.307 52.4415C118.318 53.9327 119.678 55.1535 121.27 55.9972C122.862 56.8409 124.636 57.2818 126.437 57.2812H131.747L134.391 63.8906Z" fill="#FCBC04"/>
<path d="M37.4531 6.60938H90.3281V37.4531H37.4531V6.60938Z" fill="#84D2F4"/>
<path d="M90.3281 30.8438V37.4531H37.4531V6.60938H41.8594V8.8125C41.8594 14.6556 44.1805 20.2593 48.3122 24.3909C52.4438 28.5226 58.0476 30.8437 63.8906 30.8438H90.3281Z" fill="#57B7EB"/>
<path d="M6.60938 94.7344H112.359V121.172H6.60938V94.7344Z" fill="#E9F1F2"/>
<path d="M20.9297 109.716C24.1977 112.825 28.5357 114.561 33.0469 114.562H112.359V121.172H6.60938V94.7344H112.359V96.7392C112.357 98.7828 111.788 100.786 110.714 102.525C109.64 104.263 108.105 105.67 106.279 106.587L103.547 107.953C100.811 109.322 97.7937 110.035 94.7344 110.035C91.675 110.035 88.6578 109.322 85.9219 107.953C83.186 106.584 80.1687 105.871 77.1094 105.871C74.05 105.871 71.0328 106.584 68.2969 107.953C65.561 109.322 62.5437 110.035 59.4844 110.035C56.425 110.035 53.4078 109.322 50.6719 107.953C47.936 106.584 44.9187 105.871 41.8594 105.871C38.8 105.871 35.7828 106.584 33.0469 107.953C29.2999 109.82 25.0533 110.438 20.9297 109.716V109.716Z" fill="#D0D8DA"/>
<path d="M26.4375 50.6719H92.5312C95.4528 50.6719 98.2546 51.8324 100.32 53.8983C102.386 55.9641 103.547 58.766 103.547 61.6875V85.9219H15.4219V61.6875C15.4219 58.766 16.5824 55.9641 18.6483 53.8983C20.7141 51.8324 23.516 50.6719 26.4375 50.6719V50.6719Z" fill="#E9F1F2"/>
<path d="M103.547 77.1094V85.9219H15.4219V61.6875C15.4219 58.766 16.5824 55.9641 18.6483 53.8983C20.7141 51.8324 23.516 50.6719 26.4375 50.6719H30.8438C30.8472 51.8394 31.3126 52.9581 32.1382 53.7837C32.9637 54.6093 34.0825 55.0746 35.25 55.0781H94.7344C95.9019 55.0816 97.0206 55.547 97.8462 56.3725C98.6718 57.1981 99.1371 58.3168 99.1406 59.4844V72.7031C99.1441 73.8707 99.6095 74.9894 100.435 75.815C101.261 76.6405 102.379 77.1059 103.547 77.1094V77.1094Z" fill="#D0D8DA"/>
<path d="M24.2344 59.4844H94.7344V92.5312H24.2344V59.4844Z" fill="#D0D8DA"/>
<path d="M24.2344 59.4844V92.5312H94.7344V59.4844H24.2344ZM90.3281 77.1094H44.0625C40.5567 77.1094 37.1944 75.7167 34.7154 73.2377C32.2364 70.7587 30.8438 67.3965 30.8438 63.8906H83.7188C85.4717 63.8906 87.1528 64.587 88.3923 65.8265C89.6318 67.066 90.3281 68.7471 90.3281 70.5V77.1094Z" fill="#93999A"/>
<path d="M15.4219 81.5156C13.0847 81.5156 10.8432 82.4441 9.1905 84.0967C7.53783 85.7494 6.60938 87.9909 6.60938 90.3281V92.333C6.60944 94.3787 7.17916 96.3839 8.25469 98.1241C9.33022 99.8642 10.8691 101.271 12.6988 102.185L15.4219 103.547C18.1581 104.915 21.1752 105.627 24.2344 105.627C27.2935 105.627 30.3107 104.915 33.0469 103.547C35.7831 102.179 38.8002 101.466 41.8594 101.466C44.9185 101.466 47.9357 102.179 50.6719 103.547C53.4081 104.915 56.4252 105.627 59.4844 105.627C62.5435 105.627 65.5607 104.915 68.2969 103.547C71.0331 102.179 74.0502 101.466 77.1094 101.466C80.1685 101.466 83.1857 102.179 85.9219 103.547C88.6581 104.915 91.6752 105.627 94.7344 105.627C97.7935 105.627 100.811 104.915 103.547 103.547L106.27 102.185C108.1 101.271 109.639 99.8642 110.714 98.1241C111.79 96.3839 112.359 94.3787 112.359 92.333V90.3281C112.359 87.9909 111.431 85.7494 109.778 84.0967C108.126 82.4441 105.884 81.5156 103.547 81.5156H15.4219Z" fill="#84D2F4"/>
<path d="M13.2188 121.172H26.4375V134.391H13.2188V121.172Z" fill="#D0D8DA"/>
<path d="M92.5312 121.172H105.75V134.391H92.5312V121.172Z" fill="#D0D8DA"/>
<path d="M30.8438 68.2969H44.0625C45.8154 68.2969 47.4965 68.9932 48.736 70.2327C49.9755 71.4722 50.6719 73.1533 50.6719 74.9062C50.6719 76.6592 49.9755 78.3403 48.736 79.5798C47.4965 80.8193 45.8154 81.5156 44.0625 81.5156H24.2344V74.9062C24.2344 73.1533 24.9307 71.4722 26.1702 70.2327C27.4097 68.9932 29.0908 68.2969 30.8438 68.2969V68.2969Z" fill="#84D2F4"/>
<path d="M74.9062 68.2969H88.125C89.8779 68.2969 91.559 68.9932 92.7985 70.2327C94.038 71.4722 94.7344 73.1533 94.7344 74.9062V81.5156H74.9062C73.1533 81.5156 71.4722 80.8193 70.2327 79.5798C68.9932 78.3403 68.2969 76.6592 68.2969 74.9062C68.2969 73.1533 68.9932 71.4722 70.2327 70.2327C71.4722 68.9932 73.1533 68.2969 74.9062 68.2969Z" fill="#84D2F4"/>
<path d="M112.051 94.8666C111.685 96.4348 110.978 97.9032 109.98 99.1674C108.983 100.432 107.719 101.46 106.279 102.181L103.547 103.547C100.809 104.909 97.7924 105.618 94.7344 105.618C91.6763 105.618 88.6599 104.909 85.9219 103.547C83.1839 102.185 80.1674 101.476 77.1094 101.476C74.0513 101.476 71.0349 102.185 68.2969 103.547C65.5589 104.909 62.5424 105.618 59.4844 105.618C56.4263 105.618 53.4099 104.909 50.6719 103.547C47.9339 102.185 44.9174 101.476 41.8594 101.476C38.8013 101.476 35.7849 102.185 33.0469 103.547C30.311 104.916 27.2937 105.629 24.2344 105.629C21.175 105.629 18.1578 104.916 15.4219 103.547L12.69 102.181C10.8626 101.265 9.32597 99.8591 8.2521 98.1199C7.17823 96.3807 6.60944 94.377 6.60938 92.333V90.3281C6.60938 87.9909 7.53783 85.7494 9.1905 84.0967C10.8432 82.4441 13.0847 81.5156 15.4219 81.5156V83.5205C15.4219 85.5645 15.9907 87.5682 17.0646 89.3074C18.1385 91.0466 19.6751 92.4527 21.5025 93.3684L24.2344 94.7344C26.9703 96.1035 29.9875 96.8164 33.0469 96.8164C36.1062 96.8164 39.1235 96.1035 41.8594 94.7344C44.5974 93.3724 47.6138 92.6635 50.6719 92.6635C53.7299 92.6635 56.7464 93.3724 59.4844 94.7344C62.2224 96.0964 65.2388 96.8052 68.2969 96.8052C71.3549 96.8052 74.3714 96.0964 77.1094 94.7344C79.8474 93.3724 82.8638 92.6635 85.9219 92.6635C88.9799 92.6635 91.9964 93.3724 94.7344 94.7344C97.4201 96.0737 100.376 96.7818 103.377 96.8047C106.378 96.8276 109.345 96.1647 112.051 94.8666V94.8666Z" fill="#57B7EB"/>
<path d="M50.2753 77.1094C49.8298 78.4007 48.991 79.5202 47.8767 80.3105C46.7624 81.1007 45.4286 81.5222 44.0625 81.5156H24.2344V74.9062C24.2285 73.4868 24.6826 72.1036 25.5285 70.9638C26.3744 69.824 27.5668 68.9888 28.927 68.5833C28.7409 69.2053 28.6445 69.8507 28.6406 70.5C28.6406 72.2529 29.337 73.934 30.5765 75.1735C31.816 76.413 33.4971 77.1094 35.25 77.1094H50.2753Z" fill="#57B7EB"/>
<path d="M94.7344 77.1093V81.5156H74.9063C73.3226 81.5137 71.7922 80.9433 70.5938 79.9081C69.3953 78.8729 68.6083 77.4418 68.3761 75.8752C68.1439 74.3087 68.482 72.7108 69.3287 71.3725C70.1754 70.0342 71.4745 69.0444 72.9895 68.5833C72.8034 69.2053 72.707 69.8507 72.7031 70.5C72.7031 72.2529 73.3995 73.934 74.639 75.1735C75.8785 76.413 77.5596 77.1093 79.3125 77.1093H94.7344Z" fill="#57B7EB"/>
<path d="M105.75 121.172V125.578C103.413 125.578 101.171 126.507 99.5186 128.159C97.866 129.812 96.9375 132.053 96.9375 134.391H92.5312V121.172H105.75Z" fill="#93999A"/>
<path d="M26.4375 121.172V125.578C24.1003 125.578 21.8588 126.507 20.2061 128.159C18.5535 129.812 17.625 132.053 17.625 134.391H13.2188V121.172H26.4375Z" fill="#93999A"/>
<path d="M63.8906 19.8281L55.0781 37.4531H72.7031L63.8906 19.8281Z" fill="#FCBC04"/>
<path d="M77.1094 22.0312C79.5429 22.0312 81.5156 20.0585 81.5156 17.625C81.5156 15.1915 79.5429 13.2188 77.1094 13.2188C74.6759 13.2188 72.7031 15.1915 72.7031 17.625C72.7031 20.0585 74.6759 22.0312 77.1094 22.0312Z" fill="#F89C8D"/>
<path d="M72.7031 37.453H55.0781L58.6912 30.2047C60.3917 30.6297 62.1379 30.8443 63.8906 30.8436H69.3984L72.7031 37.453Z" fill="#E59730"/>
<path d="M72.7031 37.453H55.0781L58.6912 30.2047C60.3917 30.6297 62.1379 30.8443 63.8906 30.8436H69.3984L72.7031 37.453Z" fill="#E59730"/>
<path d="M50.6719 15.4219L39.6562 37.4531H61.6875L50.6719 15.4219Z" fill="#F9E109"/>
<path d="M61.6875 37.453H39.6562L46.9486 22.8904C49.8093 26.3344 53.652 28.8244 57.9642 30.0285L61.6875 37.453Z" fill="#FCBC04"/>
<path d="M77.1094 19.8281C78.3261 19.8281 79.3125 18.8418 79.3125 17.625C79.3125 16.4082 78.3261 15.4219 77.1094 15.4219C75.8926 15.4219 74.9062 16.4082 74.9062 17.625C74.9062 18.8418 75.8926 19.8281 77.1094 19.8281Z" fill="#F8664F"/>
</svg>
