<svg width="16" height="16" viewBox="0 0 16 16" fill="none" xmlns="http://www.w3.org/2000/svg">
<path d="M0 10H16V14H0V10Z" fill="#138808"/>
<path d="M0 5.77777H16V10.2222H0V5.77777Z" fill="#EEEEEE"/>
<path d="M0 2H16V6H0V2Z" fill="#FF9933"/>
<path d="M8.00001 9.77778C8.98185 9.77778 9.77778 8.98184 9.77778 8C9.77778 7.01816 8.98185 6.22222 8.00001 6.22222C7.01817 6.22222 6.22223 7.01816 6.22223 8C6.22223 8.98184 7.01817 9.77778 8.00001 9.77778Z" fill="#000080"/>
<path d="M7.99999 9.33333C8.73637 9.33333 9.33332 8.73638 9.33332 8C9.33332 7.26362 8.73637 6.66666 7.99999 6.66666C7.26361 6.66666 6.66666 7.26362 6.66666 8C6.66666 8.73638 7.26361 9.33333 7.99999 9.33333Z" fill="#EEEEEE"/>
<path d="M7.99999 6.66666L8.06488 7.67289L8.50977 6.76844L8.18532 7.72266L8.94266 7.05689L8.27732 7.81466L9.23155 7.48977L8.3271 7.93511L9.33332 8L8.3271 8.06489L9.23155 8.50977L8.27732 8.18533L8.94266 8.94266L8.18532 8.27733L8.50977 9.23155L8.06488 8.32711L7.99999 9.33333L7.9351 8.32711L7.48977 9.23155L7.81466 8.27733L7.05688 8.94266L7.72266 8.18533L6.76843 8.50977L7.67288 8.06489L6.66666 8L7.67288 7.93511L6.76843 7.48977L7.72266 7.81466L7.05688 7.05689L7.81466 7.72266L7.48977 6.76844L7.9351 7.67289L7.99999 6.66666Z" fill="#6666B3"/>
<path d="M7.99999 8.44445C8.24545 8.44445 8.44443 8.24546 8.44443 8C8.44443 7.75454 8.24545 7.55556 7.99999 7.55556C7.75453 7.55556 7.55554 7.75454 7.55554 8C7.55554 8.24546 7.75453 8.44445 7.99999 8.44445Z" fill="#000080"/>
</svg>
