<svg width="15" height="14" viewBox="0 0 15 14" fill="none" xmlns="http://www.w3.org/2000/svg">
<path d="M7.50017 3.66659C7.32335 3.66659 7.15379 3.73682 7.02876 3.86185C6.90374 3.98687 6.8335 4.15644 6.8335 4.33325V6.99992C6.8335 7.17673 6.90374 7.3463 7.02876 7.47132C7.15379 7.59635 7.32335 7.66659 7.50017 7.66659C7.67698 7.66659 7.84655 7.59635 7.97157 7.47132C8.09659 7.3463 8.16683 7.17673 8.16683 6.99992V4.33325C8.16683 4.15644 8.09659 3.98687 7.97157 3.86185C7.84655 3.73682 7.67698 3.66659 7.50017 3.66659ZM8.1135 9.41325C8.09891 9.37077 8.07873 9.33042 8.0535 9.29325L7.9735 9.19325C7.87975 9.10075 7.7607 9.03808 7.63137 9.01317C7.50205 8.98825 7.36824 9.0022 7.24683 9.05325C7.16604 9.08701 7.09163 9.13436 7.02683 9.19325C6.96504 9.25555 6.91616 9.32942 6.88299 9.41065C6.84981 9.49187 6.83299 9.57885 6.8335 9.66659C6.83455 9.7537 6.85267 9.83977 6.88683 9.91992C6.91677 10.0026 6.96454 10.0778 7.02676 10.14C7.08897 10.2022 7.1641 10.25 7.24683 10.2799C7.32663 10.3152 7.41292 10.3334 7.50017 10.3334C7.58741 10.3334 7.6737 10.3152 7.7535 10.2799C7.83623 10.25 7.91136 10.2022 7.97358 10.14C8.03579 10.0778 8.08356 10.0026 8.1135 9.91992C8.14766 9.83977 8.16578 9.7537 8.16683 9.66659C8.1701 9.6222 8.1701 9.57764 8.16683 9.53325C8.15535 9.49074 8.13736 9.45026 8.1135 9.41325V9.41325ZM7.50017 0.333252C6.18162 0.333252 4.89269 0.724245 3.79636 1.45679C2.70004 2.18933 1.84555 3.23052 1.34097 4.4487C0.836385 5.66687 0.704362 7.00731 0.961597 8.30052C1.21883 9.59373 1.85377 10.7816 2.78612 11.714C3.71847 12.6463 4.90636 13.2813 6.19956 13.5385C7.49277 13.7957 8.83321 13.6637 10.0514 13.1591C11.2696 12.6545 12.3108 11.8 13.0433 10.7037C13.7758 9.60739 14.1668 8.31846 14.1668 6.99992C14.1668 6.12444 13.9944 5.25753 13.6594 4.4487C13.3243 3.63986 12.8333 2.90493 12.2142 2.28587C11.5952 1.66682 10.8602 1.17575 10.0514 0.840722C9.24255 0.50569 8.37564 0.333252 7.50017 0.333252V0.333252ZM7.50017 12.3333C6.44533 12.3333 5.41419 12.0205 4.53712 11.4344C3.66006 10.8484 2.97648 10.0154 2.57281 9.0409C2.16914 8.06636 2.06352 6.994 2.26931 5.95944C2.4751 4.92487 2.98305 3.97456 3.72893 3.22868C4.47481 2.4828 5.42512 1.97485 6.45968 1.76906C7.49425 1.56328 8.5666 1.66889 9.54114 2.07256C10.5157 2.47623 11.3486 3.15982 11.9347 4.03688C12.5207 4.91394 12.8335 5.94509 12.8335 6.99992C12.8335 8.41441 12.2716 9.77096 11.2714 10.7712C10.2712 11.7713 8.91465 12.3333 7.50017 12.3333V12.3333Z" fill="#F53D5C"/>
</svg>
