<svg width="95" height="96" viewBox="0 0 95 96" fill="none" xmlns="http://www.w3.org/2000/svg">
<path d="M80.1563 64.5C79.7626 64.5 79.385 64.342 79.1066 64.0607C78.8283 63.7794 78.6719 63.3978 78.6719 63V49.5C78.6719 49.1022 78.8283 48.7206 79.1066 48.4393C79.385 48.158 79.7626 48 80.1563 48C80.5499 48 80.9275 48.158 81.2059 48.4393C81.4842 48.7206 81.6406 49.1022 81.6406 49.5V63C81.6406 63.3978 81.4842 63.7794 81.2059 64.0607C80.9275 64.342 80.5499 64.5 80.1563 64.5Z" fill="#D0D8DA"/>
<path d="M77.1875 72C76.7938 72 76.4163 71.842 76.1379 71.5607C75.8595 71.2794 75.7031 70.8978 75.7031 70.5V67.5C75.7031 67.1022 75.8595 66.7206 76.1379 66.4393C76.4163 66.158 76.7938 66 77.1875 66C77.5812 66 77.9587 66.158 78.2371 66.4393C78.5155 66.7206 78.6719 67.1022 78.6719 67.5V70.5C78.6719 70.8978 78.5155 71.2794 78.2371 71.5607C77.9587 71.842 77.5812 72 77.1875 72Z" fill="#D0D8DA"/>
<path d="M83.125 72C82.7313 72 82.3538 71.842 82.0754 71.5607C81.797 71.2794 81.6406 70.8978 81.6406 70.5V67.5C81.6406 67.1022 81.797 66.7206 82.0754 66.4393C82.3538 66.158 82.7313 66 83.125 66C83.5187 66 83.8962 66.158 84.1746 66.4393C84.453 66.7206 84.6094 67.1022 84.6094 67.5V70.5C84.6094 70.8978 84.453 71.2794 84.1746 71.5607C83.8962 71.842 83.5187 72 83.125 72Z" fill="#D0D8DA"/>
<path d="M78.6719 58.5H81.6406C82.428 58.5 83.1831 58.8161 83.7399 59.3787C84.2966 59.9413 84.6094 60.7044 84.6094 61.5V67.5H75.7031V61.5C75.7031 60.7044 76.0159 59.9413 76.5726 59.3787C77.1294 58.8161 77.8845 58.5 78.6719 58.5Z" fill="#FF7373"/>
<path d="M84.6094 64.5V67.5H75.7031V61.5C75.7055 60.7051 76.019 59.9434 76.5752 59.3813C77.1315 58.8192 77.8852 58.5024 78.6719 58.5V61.5C78.6742 62.2949 78.9878 63.0566 79.544 63.6187C80.1002 64.1808 80.854 64.4976 81.6406 64.5H84.6094Z" fill="#EF5350"/>
<path d="M22.2656 91.5001H37.1094C37.5299 91.5013 37.9458 91.4121 38.3297 91.2386C38.7135 91.0651 39.0565 90.8111 39.3359 90.4936L74.9609 49.9936C75.4841 49.3989 75.7521 48.6184 75.7059 47.824C75.6597 47.0296 75.3031 46.2863 74.7145 45.7576C74.126 45.2289 73.3537 44.9581 72.5676 45.0048C71.7814 45.0515 71.0459 45.4119 70.5227 46.0066L35.7734 85.5001H22.2656C21.4783 85.5001 20.7232 85.8162 20.1664 86.3788C19.6097 86.9414 19.2969 87.7045 19.2969 88.5001C19.2969 89.2958 19.6097 90.0588 20.1664 90.6214C20.7232 91.184 21.4783 91.5001 22.2656 91.5001V91.5001Z" fill="#D0D8DA"/>
<path d="M74.9609 49.9951L39.3359 90.4951C39.0564 90.8124 38.7133 91.066 38.3295 91.2393C37.9456 91.4125 37.5298 91.5014 37.1094 91.5001H22.2656C21.479 91.4977 20.7252 91.1809 20.169 90.6188C19.6128 90.0567 19.2992 89.295 19.2969 88.5001C19.2988 88.3696 19.3087 88.2394 19.3266 88.1101C19.7679 88.3699 20.2705 88.5046 20.7812 88.5001H35.625C36.0454 88.5014 36.4613 88.4125 36.8451 88.2393C37.229 88.066 37.572 87.8124 37.8516 87.4951L41.6961 83.1151C42.1835 82.5674 42.4532 81.8568 42.4532 81.1201C42.4532 80.3834 42.1835 79.6728 41.6961 79.1251L41.5328 78.9451L49.5039 69.8851C50.0982 70.3761 50.8567 70.6172 51.6221 70.5586C52.3876 70.5 53.1014 70.146 53.6156 69.5701L68.6227 52.5001H64.793L70.5078 46.0051C70.7671 45.7096 71.0814 45.4686 71.4328 45.2959C71.7842 45.1232 72.1659 45.0221 72.5559 44.9984C72.946 44.9748 73.3369 45.0289 73.7062 45.1579C74.0756 45.2869 74.4162 45.4881 74.7086 45.7501C75.001 46.0121 75.2395 46.3297 75.4104 46.6848C75.5813 47.0399 75.6813 47.4256 75.7048 47.8198C75.7282 48.214 75.6746 48.609 75.5469 48.9822C75.4193 49.3554 75.2202 49.6996 74.9609 49.9951V49.9951Z" fill="#B8BEBF"/>
<path d="M72.7344 91.5001H57.8906C57.4714 91.5002 57.0569 91.4106 56.6744 91.2371C56.2919 91.0636 55.9501 90.8102 55.6715 90.4936L20.0465 49.9936C19.5233 49.3989 19.2553 48.6184 19.3015 47.824C19.3477 47.0296 19.7043 46.2863 20.2929 45.7576C20.8814 45.2289 21.6537 44.9581 22.4399 45.0048C23.226 45.0515 23.9616 45.4119 24.4848 46.0066L59.2266 85.5001H72.7344C73.5217 85.5001 74.2769 85.8162 74.8336 86.3788C75.3903 86.9414 75.7031 87.7045 75.7031 88.5001C75.7031 89.2958 75.3903 90.0588 74.8336 90.6214C74.2769 91.184 73.5217 91.5001 72.7344 91.5001V91.5001Z" fill="#E9F1F2"/>
<path d="M75.7031 88.5001C75.7008 89.295 75.3872 90.0567 74.831 90.6188C74.2747 91.1809 73.521 91.4977 72.7344 91.5001H57.8906C57.4702 91.5014 57.0543 91.4125 56.6705 91.2393C56.2867 91.066 55.9436 90.8124 55.664 90.4951L20.0391 49.9951C19.7798 49.6996 19.5807 49.3554 19.453 48.9822C19.3254 48.609 19.2718 48.214 19.2952 47.8198C19.3425 47.0237 19.7009 46.2792 20.2914 45.7501C20.8819 45.221 21.6562 44.9506 22.444 44.9984C23.2318 45.0462 23.9686 45.4084 24.4922 46.0051L30.207 52.5001H26.3773L57.1484 87.4951C57.428 87.8124 57.771 88.066 58.1549 88.2393C58.5387 88.4125 58.9546 88.5014 59.375 88.5001H74.2187C74.7295 88.5046 75.232 88.3699 75.6734 88.1101C75.6913 88.2394 75.7012 88.3696 75.7031 88.5001V88.5001Z" fill="#D0D8DA"/>
<path d="M90.5469 45V46.5C90.5445 47.2949 90.231 48.0566 89.6747 48.6187C89.1185 49.1808 88.3648 49.4976 87.5781 49.5H4.45311C4.44563 47.918 4.86104 46.3632 5.65546 45H28.2031C29.3842 45 30.5168 44.5259 31.3519 43.682C32.1871 42.8381 32.6562 41.6935 32.6562 40.5H62.5367C62.8638 41.7882 63.6059 42.9298 64.646 43.7446C65.6862 44.5594 66.9652 45.0011 68.2812 45H90.5469Z" fill="#00B4D8"/>
<path d="M35.625 22.5C36.4124 22.5 37.1675 22.1839 37.7242 21.6213C38.281 21.0587 38.5938 20.2956 38.5938 19.5C38.5938 18.7044 38.281 17.9413 37.7242 17.3787C37.1675 16.8161 36.4124 16.5 35.625 16.5H17.8125C16.2378 16.5 14.7276 17.1321 13.6141 18.2574C12.5006 19.3826 11.875 20.9087 11.875 22.5C11.875 24.0913 12.5006 25.6174 13.6141 26.7426C14.7276 27.8679 16.2378 28.5 17.8125 28.5H35.625C36.4124 28.5 37.1675 28.1839 37.7242 27.6213C38.281 27.0587 38.5938 26.2956 38.5938 25.5C38.5938 24.7044 38.281 23.9413 37.7242 23.3787C37.1675 22.8161 36.4124 22.5 35.625 22.5Z" fill="#FCEA42"/>
<path d="M38.5937 25.5C38.5914 26.295 38.2779 27.0566 37.7216 27.6187C37.1654 28.1808 36.4116 28.4977 35.625 28.5H17.8125C16.4547 28.5017 15.1375 28.0324 14.0809 27.1706C13.0243 26.3088 12.2924 25.1068 12.0074 23.7652C11.7224 22.4237 11.9017 21.024 12.5152 19.7999C13.1287 18.5759 14.1393 17.6017 15.3781 17.04C15.0268 17.8116 14.8445 18.6507 14.8437 19.5C14.8437 21.0913 15.4693 22.6175 16.5828 23.7427C17.6963 24.8679 19.2065 25.5 20.7812 25.5H38.5937Z" fill="#FDC741"/>
<path d="M37.0693 16.8946C36.9771 17.6141 36.6291 18.2751 36.0903 18.7545C35.5515 19.2338 34.8585 19.4989 34.1406 19.5001H22.2656C21.4783 19.5001 20.7232 19.8162 20.1664 20.3788C19.6097 20.9414 19.2969 21.7045 19.2969 22.5001H35.625C36.282 22.5029 36.9211 22.2847 37.4418 21.8798C37.9624 21.4749 38.3348 20.9064 38.5004 20.2639C38.6659 19.6215 38.6151 18.9416 38.356 18.3316C38.0969 17.7215 37.6442 17.216 37.0693 16.8946V16.8946Z" fill="#FDC741"/>
<path d="M35.625 34.5C36.4124 34.5 37.1675 34.1839 37.7242 33.6213C38.281 33.0587 38.5938 32.2956 38.5938 31.5C38.5938 30.7044 38.281 29.9413 37.7242 29.3787C37.1675 28.8161 36.4124 28.5 35.625 28.5H17.8125C16.2378 28.5 14.7276 29.1321 13.6141 30.2574C12.5006 31.3826 11.875 32.9087 11.875 34.5C11.875 36.0913 12.5006 37.6174 13.6141 38.7426C14.7276 39.8679 16.2378 40.5 17.8125 40.5H35.625C36.4124 40.5 37.1675 40.1839 37.7242 39.6213C38.281 39.0587 38.5938 38.2956 38.5938 37.5C38.5938 36.7044 38.281 35.9413 37.7242 35.3787C37.1675 34.8161 36.4124 34.5 35.625 34.5Z" fill="#FCEA42"/>
<path d="M38.5937 37.5C38.5914 38.295 38.2779 39.0566 37.7216 39.6187C37.1654 40.1808 36.4116 40.4977 35.625 40.5H17.8125C16.4547 40.5017 15.1375 40.0324 14.0809 39.1706C13.0243 38.3088 12.2924 37.1068 12.0074 35.7652C11.7224 34.4237 11.9017 33.024 12.5152 31.7999C13.1287 30.5759 14.1393 29.6017 15.3781 29.04C15.0268 29.8116 14.8445 30.6507 14.8437 31.5C14.8437 33.0913 15.4693 34.6175 16.5828 35.7427C17.6963 36.8679 19.2065 37.5 20.7812 37.5H38.5937Z" fill="#FDC741"/>
<path d="M37.0693 28.8946C36.9771 29.6141 36.6291 30.2751 36.0903 30.7545C35.5515 31.2339 34.8585 31.4989 34.1406 31.5001H22.2656C21.4783 31.5001 20.7232 31.8162 20.1664 32.3788C19.6097 32.9414 19.2969 33.7045 19.2969 34.5001H35.625C36.282 34.5029 36.9211 34.2847 37.4418 33.8798C37.9624 33.4749 38.3348 32.9064 38.5004 32.2639C38.6659 31.6215 38.6151 30.9416 38.356 30.3316C38.0969 29.7215 37.6442 29.216 37.0693 28.8946V28.8946Z" fill="#FDC741"/>
<path d="M54.8699 59.223C54.4267 58.9994 53.9371 58.8857 53.4417 58.8915C52.9463 58.8972 52.4595 59.0222 52.0214 59.256C50.7193 59.9526 49.2742 60.3324 47.8012 60.3652C46.3282 60.398 44.868 60.0829 43.5367 59.445L42.9326 59.1555C42.5057 58.9516 42.0386 58.8484 41.5665 58.8536C41.0944 58.8588 40.6296 58.9723 40.2073 59.1855L40.1301 59.223C39.6554 59.4615 39.1284 59.5737 38.5989 59.5491C38.0694 59.5245 37.5548 59.3638 37.1038 59.0823C36.6529 58.8008 36.2804 58.4077 36.0216 57.9401C35.7629 57.4726 35.6264 56.9462 35.625 56.4105V40.5H59.375V56.4105C59.3736 56.9462 59.2371 57.4726 58.9784 57.9401C58.7196 58.4077 58.3471 58.8008 57.8962 59.0823C57.4452 59.3638 56.9306 59.5245 56.4011 59.5491C55.8716 59.5737 55.3446 59.4615 54.8699 59.223V59.223Z" fill="#FF7373"/>
<path d="M59.375 51.915V56.415C59.373 56.9511 59.2357 57.4777 58.976 57.9452C58.7163 58.4126 58.3429 58.8054 57.8911 59.0862C57.4392 59.3671 56.9239 59.5268 56.394 59.5502C55.864 59.5736 55.3369 59.46 54.8625 59.22C54.421 58.9991 53.934 58.8867 53.4414 58.8919C52.9487 58.8971 52.4642 59.0198 52.0273 59.25C50.6674 59.9882 49.1477 60.3747 47.6039 60.375C46.1968 60.3727 44.8077 60.055 43.5367 59.445L42.9281 59.16C42.5035 58.9537 42.0376 58.8491 41.5665 58.8543C41.0953 58.8595 40.6318 58.9744 40.2117 59.19L40.1375 59.22C39.6631 59.46 39.136 59.5736 38.606 59.5502C38.0761 59.5268 37.5608 59.3671 37.1089 59.0862C36.6571 58.8054 36.2837 58.4126 36.024 57.9452C35.7643 57.4777 35.627 56.9511 35.625 56.415V40.5H40.1078L40.182 50.73C40.218 51.5785 40.4946 52.3986 40.9788 53.0928C41.463 53.7869 42.1345 54.3257 42.9133 54.645L43.5367 54.945C44.8077 55.555 46.1968 55.8727 47.6039 55.875C49.1477 55.8747 50.6674 55.4882 52.0273 54.75C52.4758 54.5116 52.9753 54.388 53.482 54.39C53.9617 54.3868 54.4351 54.5 54.8625 54.72C55.3369 54.96 55.864 55.0736 56.394 55.0502C56.9239 55.0268 57.4392 54.8671 57.8911 54.5862C58.3429 54.3054 58.7163 53.9126 58.976 53.4452C59.2357 52.9777 59.373 52.4511 59.375 51.915V51.915Z" fill="#EF5350"/>
<path d="M54.1203 40.5L43.7742 46.305C43.5531 46.4338 43.3021 46.5011 43.0469 46.5C42.7195 46.499 42.4016 46.3886 42.1427 46.1861C41.8838 45.9836 41.6985 45.7003 41.6155 45.3802C41.5325 45.0602 41.5565 44.7214 41.6839 44.4166C41.8112 44.1118 42.0347 43.8581 42.3195 43.695L48.0047 40.5H54.1203Z" fill="#E53935"/>
<path d="M59.375 43.5449V47.0549L55.6789 49.2899C55.4489 49.4253 55.188 49.4977 54.9218 49.4999C54.5966 49.4998 54.2805 49.3918 54.0219 49.1925C53.7633 48.9931 53.5767 48.7135 53.4907 48.3966C53.4047 48.0796 53.4241 47.7429 53.5459 47.4382C53.6677 47.1335 53.8851 46.8776 54.1648 46.7099L59.375 43.5449Z" fill="#E53935"/>
<path d="M65.3125 10.5H68.2812C69.0686 10.5 69.8237 10.8161 70.3805 11.3787C70.9372 11.9413 71.25 12.7044 71.25 13.5V40.5H65.3125V10.5Z" fill="#E9F1F2"/>
<path d="M78.5234 15.948L71.25 13.5V27L78.6719 30V34.5L71.25 36V40.5H78.6719C80.2466 40.5 81.7568 39.8679 82.8703 38.7426C83.9838 37.6174 84.6094 36.0913 84.6094 34.5V24.4875C84.6099 22.5988 84.0225 20.7578 82.9302 19.2252C81.838 17.6926 80.2963 16.5461 78.5234 15.948V15.948Z" fill="#FCEA42"/>
<path d="M84.4906 35.685C84.2199 37.043 83.4925 38.2645 82.4318 39.1422C81.3712 40.0198 80.0427 40.4996 78.6719 40.5H71.25V36L78.6719 34.5V30L71.25 27V13.5L74.2633 14.52C74.4014 15.6944 74.8036 16.8214 75.439 17.8146C76.0745 18.8077 76.9265 19.6408 77.9297 20.25C79.0642 20.933 80.001 21.9056 80.6461 23.07C81.2961 24.2325 81.6387 25.5447 81.6406 26.88V31.5C81.6352 32.4084 81.9055 33.2966 82.4151 34.0449C82.9247 34.7932 83.6491 35.3657 84.4906 35.685V35.685Z" fill="#FDC741"/>
<path d="M71.25 36V40.5H65.3125V10.5H68.2812V33C68.2836 33.7949 68.5971 34.5566 69.1534 35.1187C69.7096 35.6808 70.4634 35.9976 71.25 36V36Z" fill="#D0D8DA"/>
<path d="M77.1875 24C77.5812 24 77.9587 23.842 78.2371 23.5607C78.5155 23.2794 78.6719 22.8978 78.6719 22.5V16.014C78.6199 15.9945 78.5724 15.966 78.5234 15.948L75.7031 15V22.5C75.7031 22.8978 75.8595 23.2794 76.1379 23.5607C76.4163 23.842 76.7938 24 77.1875 24Z" fill="#48CAE4"/>
<path d="M78.6719 20.775V22.5C78.6719 22.8978 78.5155 23.2794 78.2371 23.5607C77.9587 23.842 77.5812 24 77.1875 24C76.7938 24 76.4163 23.842 76.1379 23.5607C75.8595 23.2794 75.7031 22.8978 75.7031 22.5V18.18C76.2956 19.0182 77.0538 19.7231 77.9297 20.25C78.1896 20.4061 78.4377 20.5816 78.6719 20.775V20.775Z" fill="#00B4D8"/>
</svg>
