<svg width="32" height="32" viewBox="0 0 32 32" fill="none" xmlns="http://www.w3.org/2000/svg">
<g clip-path="url(#clip0_42_1704)">
<path d="M27.2645 27.2653H22.5231V19.84C22.5231 18.0693 22.4915 15.79 20.0571 15.79C17.5876 15.79 17.2098 17.7192 17.2098 19.7111V27.2648H12.4685V11.9953H17.0201V14.0821H17.0839C17.5394 13.3032 18.1976 12.6625 18.9885 12.2281C19.7793 11.7937 20.6732 11.582 21.5749 11.6155C26.3805 11.6155 27.2665 14.7765 27.2665 18.8887L27.2645 27.2653V27.2653ZM7.1185 9.90822C5.59888 9.90847 4.36675 8.67672 4.3665 7.15709C4.36625 5.63747 5.59788 4.40534 7.1175 4.40509C8.63713 4.40472 9.86925 5.63647 9.8695 7.15609C9.86963 7.88585 9.57987 8.58577 9.06397 9.10189C8.54806 9.61801 7.84826 9.90805 7.1185 9.90822V9.90822ZM9.48925 27.2655H4.74288V11.9953H9.48913V27.2653L9.48925 27.2655ZM29.6283 0.00171863H2.36038C1.07163 -0.0127814 0.0147505 1.01959 -0.000999451 2.30834V29.69C0.0142505 30.9793 1.071 32.0127 2.36025 31.9992H29.6283C30.9203 32.0152 31.9811 30.9818 31.999 29.69V2.30622C31.9806 1.01497 30.9196 -0.0172814 29.6283 -0.000406365" fill="#0A66C2"/>
</g>
<defs>
<clipPath id="clip0_42_1704">
<rect width="32" height="32" fill="white"/>
</clipPath>
</defs>
</svg>
