<svg width="12" height="14" viewBox="0 0 12 14" fill="none" xmlns="http://www.w3.org/2000/svg">
<path d="M9.99963 1.98644C8.93876 0.925578 7.49992 0.32959 5.99963 0.32959C4.49934 0.32959 3.06049 0.925578 1.99963 1.98644C0.938762 3.04731 0.342773 4.48615 0.342773 5.98644C0.342773 7.48674 0.938762 8.92558 1.99963 9.98644L5.51296 13.5064C5.57494 13.5689 5.64867 13.6185 5.72991 13.6524C5.81115 13.6862 5.89829 13.7036 5.98629 13.7036C6.0743 13.7036 6.16144 13.6862 6.24268 13.6524C6.32392 13.6185 6.39765 13.5689 6.45963 13.5064L9.99963 9.95311C11.0561 8.89666 11.6496 7.46381 11.6496 5.96978C11.6496 4.47574 11.0561 3.0429 9.99963 1.98644V1.98644ZM9.04629 8.99978L5.99963 12.0598L2.95296 8.99978C2.35106 8.39732 1.94128 7.62994 1.77542 6.79464C1.60957 5.95933 1.69509 5.09361 2.02116 4.3069C2.34724 3.52019 2.89924 2.84781 3.60738 2.37476C4.31552 1.90171 5.14802 1.64923 5.99963 1.64923C6.85124 1.64923 7.68373 1.90171 8.39187 2.37476C9.10002 2.84781 9.65201 3.52019 9.97809 4.3069C10.3042 5.09361 10.3897 5.95933 10.2238 6.79464C10.058 7.62994 9.6482 8.39732 9.04629 8.99978V8.99978ZM3.99963 3.93978C3.46144 4.47963 3.15922 5.21082 3.15922 5.97311C3.15922 6.7354 3.46144 7.4666 3.99963 8.00644C4.39947 8.40697 4.90869 8.6805 5.46339 8.79271C6.0181 8.90493 6.5936 8.85083 7.11768 8.63721C7.64176 8.42359 8.09108 8.05996 8.40928 7.59194C8.72748 7.12392 8.90038 6.57236 8.90629 6.00644C8.9093 5.62858 8.83651 5.25395 8.69223 4.9047C8.54795 4.55546 8.33511 4.23868 8.06629 3.97311C7.80207 3.70283 7.48701 3.48747 7.13924 3.33942C6.79147 3.19137 6.41785 3.11356 6.03989 3.11046C5.66193 3.10737 5.28709 3.17904 4.93694 3.32137C4.58679 3.4637 4.26824 3.67386 3.99963 3.93978V3.93978ZM7.12629 7.05978C6.87366 7.31627 6.53977 7.47705 6.18171 7.51461C5.82366 7.55218 5.46367 7.4642 5.1633 7.26573C4.86293 7.06725 4.64083 6.77061 4.53497 6.4265C4.4291 6.08239 4.44606 5.7122 4.58293 5.37921C4.7198 5.04623 4.96809 4.77112 5.28535 4.60094C5.60261 4.43075 5.96913 4.37605 6.32225 4.44619C6.67537 4.51633 6.99317 4.70695 7.2213 4.98546C7.44943 5.26398 7.57374 5.61309 7.57296 5.97311C7.56326 6.38462 7.39062 6.77546 7.09296 7.05978H7.12629Z" fill="#B3B8C2"/>
</svg>
