<svg width="18" height="12" viewBox="0 0 18 12" fill="none" xmlns="http://www.w3.org/2000/svg">
<path d="M1.49984 1.83366H16.4998C16.7209 1.83366 16.9328 1.74586 17.0891 1.58958C17.2454 1.4333 17.3332 1.22134 17.3332 1.00033C17.3332 0.779312 17.2454 0.56735 17.0891 0.41107C16.9328 0.25479 16.7209 0.166992 16.4998 0.166992H1.49984C1.27882 0.166992 1.06686 0.25479 0.910582 0.41107C0.754301 0.56735 0.666504 0.779312 0.666504 1.00033C0.666504 1.22134 0.754301 1.4333 0.910582 1.58958C1.06686 1.74586 1.27882 1.83366 1.49984 1.83366V1.83366ZM16.4998 10.167H1.49984C1.27882 10.167 1.06686 10.2548 0.910582 10.4111C0.754301 10.5674 0.666504 10.7793 0.666504 11.0003C0.666504 11.2213 0.754301 11.4333 0.910582 11.5896C1.06686 11.7459 1.27882 11.8337 1.49984 11.8337H16.4998C16.7209 11.8337 16.9328 11.7459 17.0891 11.5896C17.2454 11.4333 17.3332 11.2213 17.3332 11.0003C17.3332 10.7793 17.2454 10.5674 17.0891 10.4111C16.9328 10.2548 16.7209 10.167 16.4998 10.167ZM16.4998 6.83366H1.49984C1.27882 6.83366 1.06686 6.92146 0.910582 7.07774C0.754301 7.23402 0.666504 7.44598 0.666504 7.66699C0.666504 7.88801 0.754301 8.09997 0.910582 8.25625C1.06686 8.41253 1.27882 8.50033 1.49984 8.50033H16.4998C16.7209 8.50033 16.9328 8.41253 17.0891 8.25625C17.2454 8.09997 17.3332 7.88801 17.3332 7.66699C17.3332 7.44598 17.2454 7.23402 17.0891 7.07774C16.9328 6.92146 16.7209 6.83366 16.4998 6.83366ZM16.4998 3.50033H1.49984C1.27882 3.50033 1.06686 3.58812 0.910582 3.7444C0.754301 3.90068 0.666504 4.11265 0.666504 4.33366C0.666504 4.55467 0.754301 4.76663 0.910582 4.92291C1.06686 5.0792 1.27882 5.16699 1.49984 5.16699H16.4998C16.7209 5.16699 16.9328 5.0792 17.0891 4.92291C17.2454 4.76663 17.3332 4.55467 17.3332 4.33366C17.3332 4.11265 17.2454 3.90068 17.0891 3.7444C16.9328 3.58812 16.7209 3.50033 16.4998 3.50033Z" fill="white"/>
</svg>
