<svg width="95" height="96" viewBox="0 0 95 96" fill="none" xmlns="http://www.w3.org/2000/svg">
<path d="M4.45312 17.76H90.5469V77.76H4.45312V17.76Z" fill="#D0D8DA"/>
<path d="M50.4688 56.76C42.5951 56.76 35.044 53.5993 29.4765 47.9732C23.909 42.3471 20.7812 34.7165 20.7812 26.76V17.76H4.45312V77.76H90.5469V56.76H50.4688Z" fill="#93999A"/>
<path d="M56.4062 23.76H17.8125C15.8441 23.76 13.9563 24.5502 12.5644 25.9567C11.1726 27.3632 10.3906 29.2709 10.3906 31.26V64.26H63.8281V31.26C63.8281 29.2709 63.0462 27.3632 61.6543 25.9567C60.2624 24.5502 58.3747 23.76 56.4062 23.76V23.76Z" fill="#84D2F4"/>
<path d="M50.4688 56.76C42.5951 56.76 35.044 53.5993 29.4765 47.9732C23.909 42.3471 20.7812 34.7165 20.7812 26.76V23.76H17.8125C15.8441 23.76 13.9563 24.5502 12.5644 25.9567C11.1726 27.3632 10.3906 29.2709 10.3906 31.26V64.26H63.8281V56.76H50.4688Z" fill="#57B7EB"/>
<path d="M56.4062 23.76H17.8125C15.8441 23.76 13.9563 24.5502 12.5644 25.9567C11.1726 27.3632 10.3906 29.2709 10.3906 31.26V64.26H63.8281V31.26C63.8281 29.2709 63.0462 27.3632 61.6543 25.9567C60.2624 24.5502 58.3747 23.76 56.4062 23.76V23.76ZM56.4062 56.76H35.625C30.9008 56.76 26.3702 54.8636 23.0297 51.4879C19.6892 48.1123 17.8125 43.5339 17.8125 38.76V31.26H50.4688C52.0435 31.26 53.5537 31.8921 54.6672 33.0174C55.7807 34.1426 56.4062 35.6687 56.4062 37.26V56.76Z" fill="#57B7EB"/>
<path d="M17.8125 71.76H56.4062C58.3747 71.76 60.2624 70.9698 61.6543 69.5633C63.0462 68.1568 63.8281 66.2491 63.8281 64.26H10.3906C10.3906 66.2491 11.1726 68.1568 12.5644 69.5633C13.9563 70.9698 15.8441 71.76 17.8125 71.76V71.76Z" fill="#464A51"/>
<path d="M35.625 56.76C30.9008 56.76 26.3702 54.8636 23.0297 51.4879C19.6892 48.1123 17.8125 43.5339 17.8125 38.76V31.26H21.1509C20.9162 29.7715 20.7927 28.2672 20.7812 26.76V23.76H17.8125C15.8441 23.76 13.9563 24.5502 12.5644 25.9567C11.1726 27.3632 10.3906 29.2709 10.3906 31.26V64.26H63.8281V56.76H35.625Z" fill="#4891D3"/>
<path d="M69.7656 50.76H84.6094V65.76H69.7656V50.76Z" fill="#84D2F4"/>
<path d="M69.7656 56.76H84.6094V65.76H69.7656V56.76Z" fill="#57B7EB"/>
<path d="M25.2344 58.26H48.9844V61.26C48.9844 62.0557 48.6716 62.8187 48.1149 63.3813C47.5581 63.9439 46.803 64.26 46.0156 64.26H28.2031C27.4158 64.26 26.6607 63.9439 26.1039 63.3813C25.5472 62.8187 25.2344 62.0557 25.2344 61.26V58.26Z" fill="#D0D8DA"/>
<path d="M28.2031 58.26H25.2344V61.26C25.2344 62.0557 25.5472 62.8187 26.1039 63.3813C26.6607 63.9439 27.4158 64.26 28.2031 64.26H46.0156C46.803 64.26 47.5581 63.9439 48.1149 63.3813C48.6716 62.8187 48.9844 62.0557 48.9844 61.26H31.1719C30.3845 61.26 29.6294 60.9439 29.0727 60.3813C28.5159 59.8187 28.2031 59.0557 28.2031 58.26Z" fill="#93999A"/>
<path d="M44.9023 58.26H29.3164L26.7188 49.26H47.5L44.9023 58.26Z" fill="#FCBC04"/>
<path d="M40.0781 56.76C36.8328 56.757 33.719 55.4638 31.4094 53.16C31.7647 52.9048 32.0609 52.5747 32.2777 52.1925C32.6906 52.682 33.2038 53.0751 33.7817 53.3447C34.3596 53.6143 34.9885 53.7539 35.625 53.7539C36.2615 53.7539 36.8904 53.6143 37.4683 53.3447C38.0462 53.0751 38.5594 52.682 38.9723 52.1925C39.2248 52.6648 39.5987 53.0597 40.0545 53.3355C40.5103 53.6113 41.0312 53.758 41.5625 53.76C41.6934 53.7557 41.8238 53.7421 41.9529 53.7195C42.3194 54.3973 42.9345 54.9027 43.6659 55.1271C44.3973 55.3515 45.1866 55.2769 45.8642 54.9195L47.074 50.727C46.8128 50.2803 46.4409 49.9102 45.995 49.6529C45.5492 49.3957 45.0447 49.2603 44.5313 49.26C44.4004 49.2643 44.2699 49.2779 44.1409 49.3005C44.1409 49.2855 44.1201 49.275 44.1112 49.26H26.7188L29.3164 58.26H44.9023L45.3358 56.76H40.0781Z" fill="#E59730"/>
<path d="M46.0156 46.2599C45.8847 46.2642 45.7543 46.2778 45.6252 46.3004C45.4295 45.9421 45.1626 45.6285 44.8413 45.3793C44.5201 45.13 44.1514 44.9505 43.7583 44.852C43.3652 44.7534 42.9562 44.7379 42.5569 44.8065C42.1576 44.875 41.7766 45.0262 41.4378 45.2504C41.2127 44.2606 40.6621 43.3772 39.8759 42.7446C39.0897 42.112 38.1144 41.7675 37.1094 41.7675C36.1044 41.7675 35.1291 42.112 34.3429 42.7446C33.5566 43.3772 33.006 44.2606 32.7809 45.2504C32.3243 44.9456 31.792 44.7769 31.2449 44.7637C30.6978 44.7504 30.1581 44.8931 29.6875 45.1754C29.2366 44.9068 28.7235 44.7635 28.2001 44.76C27.6767 44.7564 27.1617 44.8927 26.7073 45.1551C26.2528 45.4175 25.8751 45.7966 25.6124 46.2541C25.3497 46.7115 25.2113 47.231 25.2113 47.7599C25.2113 48.2888 25.3497 48.8083 25.6124 49.2657C25.8751 49.7232 26.2528 50.1023 26.7073 50.3647C27.1617 50.6271 27.6767 50.7634 28.2001 50.7598C28.7235 50.7563 29.2366 50.6129 29.6875 50.3444C30.0273 50.5485 30.4044 50.681 30.7962 50.7337C31.188 50.7865 31.5864 50.7585 31.9672 50.6514C32.348 50.5443 32.7033 50.3603 33.0118 50.1106C33.3203 49.8609 33.5756 49.5505 33.7621 49.1984C34.175 49.6879 34.6881 50.081 35.266 50.3506C35.8439 50.6202 36.4729 50.7598 37.1094 50.7598C37.7459 50.7598 38.3748 50.6202 38.9527 50.3506C39.5306 50.081 40.0437 49.6879 40.4566 49.1984C40.71 49.6696 41.0842 50.0632 41.5399 50.338C41.9957 50.6127 42.5162 50.7585 43.0469 50.7599C43.1778 50.7555 43.3082 50.742 43.4373 50.7194C43.6921 51.1818 44.0634 51.5678 44.5135 51.8383C44.9637 52.1089 45.4766 52.2542 46.0003 52.2597C46.524 52.2652 47.0398 52.1305 47.4954 51.8695C47.951 51.6084 48.3301 51.2302 48.5943 50.7733C48.8585 50.3163 48.9984 49.7968 48.9997 49.2676C49.0011 48.7384 48.8639 48.2182 48.602 47.7598C48.3401 47.3015 47.9629 46.9213 47.5087 46.6579C47.0545 46.3945 46.5393 46.2572 46.0156 46.2599V46.2599Z" fill="#F9E109"/>
<path d="M47.5 49.2601C46.9734 49.2586 46.4568 49.115 46.0035 48.8442C45.5502 48.5734 45.1767 48.1852 44.9216 47.7196C44.7926 47.7423 44.6622 47.7558 44.5313 47.7601C44.0006 47.7587 43.4801 47.613 43.0243 47.3382C42.5686 47.0635 42.1944 46.6699 41.941 46.1986C41.5281 46.6882 41.015 47.0813 40.4371 47.3509C39.8592 47.6204 39.2303 47.76 38.5938 47.76C37.9572 47.76 37.3283 47.6204 36.7504 47.3509C36.1725 47.0813 35.6594 46.6882 35.2465 46.1986C35.0599 46.5508 34.8047 46.8611 34.4962 47.1108C34.1877 47.3606 33.8324 47.5445 33.4516 47.6516C33.0708 47.7587 32.6724 47.7867 32.2806 47.734C31.8888 47.6812 31.5116 47.5488 31.1719 47.3446C30.7522 47.5964 30.2771 47.7385 29.7894 47.758C29.3017 47.7776 28.8169 47.6739 28.3788 47.4565C27.9408 47.2391 27.5632 46.9148 27.2804 46.5129C26.9975 46.111 26.8183 45.6442 26.7588 45.1546C26.4124 45.344 26.1069 45.6014 25.8603 45.9118C25.6137 46.2221 25.4309 46.5791 25.3227 46.9618C25.2145 47.3445 25.183 47.7451 25.2301 48.1403C25.2773 48.5354 25.4021 48.9171 25.5972 49.2628C25.7923 49.6086 26.0537 49.9115 26.3663 50.1537C26.6788 50.3959 27.0361 50.5726 27.4171 50.6734C27.7981 50.7741 28.1952 50.797 28.5851 50.7405C28.975 50.6841 29.3498 50.5495 29.6875 50.3446C30.0273 50.5488 30.4044 50.6812 30.7962 50.734C31.1881 50.7867 31.5864 50.7587 31.9672 50.6516C32.348 50.5445 32.7034 50.3606 33.0119 50.1108C33.3204 49.8611 33.5756 49.5508 33.7621 49.1986C34.175 49.6882 34.6881 50.0813 35.266 50.3509C35.8439 50.6204 36.4729 50.76 37.1094 50.76C37.7459 50.76 38.3748 50.6204 38.9527 50.3509C39.5306 50.0813 40.0437 49.6882 40.4566 49.1986C40.71 49.6699 41.0842 50.0635 41.5399 50.3382C41.9957 50.613 42.5162 50.7587 43.0469 50.7601C43.1778 50.7558 43.3082 50.7423 43.4373 50.7196C43.7552 51.3006 44.2555 51.758 44.8592 52.0199C45.4629 52.2817 46.1357 52.3331 46.7715 52.1658C47.4072 51.9985 47.9698 51.6221 48.3705 51.096C48.7712 50.5699 48.9871 49.924 48.9844 49.2601C48.9801 49.1279 48.9667 48.996 48.9443 48.8656C48.5048 49.1213 48.0071 49.2573 47.5 49.2601V49.2601Z" fill="#FCBC04"/>
<path d="M84.6094 65.76H69.7656V50.76L84.6094 59.76V65.76Z" fill="#57B7EB"/>
<path d="M69.7656 65.76H84.6094V59.76L79.662 56.76H69.7656V65.76Z" fill="#4891D3"/>
<path d="M80.3359 38.5786C79.9422 38.5785 79.5647 38.4205 79.2864 38.1391C78.7211 37.5934 77.9693 37.2888 77.1875 37.2888C76.4057 37.2888 75.6539 37.5934 75.0886 38.1391C74.8086 38.4124 74.4337 38.5636 74.0445 38.5601C73.6553 38.5567 73.283 38.399 73.0078 38.1209C72.7326 37.8427 72.5764 37.4665 72.5731 37.0732C72.5697 36.6799 72.7193 36.301 72.9897 36.0181C74.1202 34.9263 75.6237 34.317 77.1875 34.317C78.7513 34.317 80.2548 34.9263 81.3853 36.0181C81.5928 36.2279 81.7342 36.4952 81.7914 36.7861C81.8487 37.077 81.8193 37.3786 81.7069 37.6526C81.5946 37.9267 81.4044 38.1609 81.1604 38.3257C80.9163 38.4906 80.6294 38.5786 80.3359 38.5786V38.5786Z" fill="#F9E109"/>
<path d="M84.5352 34.3351C84.1415 34.3351 83.764 34.177 83.4857 33.8956C81.8141 32.21 79.549 31.2634 77.1875 31.2634C74.826 31.2634 72.5609 32.21 70.8893 33.8956C70.7524 34.0389 70.5886 34.1532 70.4075 34.2318C70.2264 34.3104 70.0316 34.3518 69.8345 34.3535C69.6374 34.3552 69.4419 34.3173 69.2595 34.2419C69.0771 34.1664 68.9114 34.0551 68.772 33.9142C68.6326 33.7734 68.5224 33.6059 68.4478 33.4216C68.3731 33.2372 68.3356 33.0397 68.3373 32.8405C68.339 32.6414 68.3799 32.4445 68.4577 32.2615C68.5355 32.0785 68.6486 31.913 68.7904 31.7746C71.0193 29.5277 74.0391 28.2659 77.1875 28.2659C80.3358 28.2659 83.3557 29.5277 85.5846 31.7746C85.7921 31.9844 85.9335 32.2517 85.9907 32.5426C86.048 32.8335 86.0186 33.1351 85.9062 33.4091C85.7939 33.6832 85.6037 33.9174 85.3597 34.0822C85.1156 34.2471 84.8287 34.3351 84.5352 34.3351V34.3351Z" fill="#F9E109"/>
<path d="M77.1875 43.26C78.0073 43.26 78.6719 42.5884 78.6719 41.76C78.6719 40.9316 78.0073 40.26 77.1875 40.26C76.3677 40.26 75.7031 40.9316 75.7031 41.76C75.7031 42.5884 76.3677 43.26 77.1875 43.26Z" fill="#F9E109"/>
<path d="M78.6719 59.76H75.7031C75.3094 59.76 74.9319 59.602 74.6535 59.3207C74.3751 59.0394 74.2188 58.6578 74.2188 58.26C74.2188 57.8622 74.3751 57.4806 74.6535 57.1993C74.9319 56.918 75.3094 56.76 75.7031 56.76H78.6719C79.0656 56.76 79.4431 56.918 79.7215 57.1993C79.9999 57.4806 80.1562 57.8622 80.1562 58.26C80.1562 58.6578 79.9999 59.0394 79.7215 59.3207C79.4431 59.602 79.0656 59.76 78.6719 59.76Z" fill="#FCBC04"/>
<path d="M31.1719 38.7601C30.8782 38.7604 30.5911 38.6726 30.3468 38.5079C30.1025 38.3431 29.9121 38.1089 29.7996 37.8348C29.6871 37.5607 29.6576 37.259 29.7148 36.9679C29.772 36.6769 29.9133 36.4095 30.1209 36.1996C30.1781 36.1419 30.2235 36.0734 30.2544 35.998C30.2854 35.9226 30.3013 35.8418 30.3013 35.7601C30.3013 35.6785 30.2854 35.5976 30.2544 35.5222C30.2235 35.4468 30.1781 35.3783 30.1209 35.3206C29.4507 34.6406 29.0744 33.7199 29.0744 32.7601C29.0744 31.8004 29.4507 30.8797 30.1209 30.1996C30.3993 29.918 30.7769 29.7596 31.1708 29.7593C31.5647 29.759 31.9426 29.9169 32.2213 30.1981C32.5001 30.4794 32.6568 30.861 32.6571 31.2591C32.6574 31.6571 32.5011 32.039 32.2228 32.3206C32.1656 32.3783 32.1203 32.4468 32.0893 32.5222C32.0584 32.5976 32.0424 32.6785 32.0424 32.7601C32.0424 32.8418 32.0584 32.9226 32.0893 32.998C32.1203 33.0734 32.1656 33.1419 32.2228 33.1996C32.893 33.8797 33.2693 34.8004 33.2693 35.7601C33.2693 36.7199 32.893 37.6406 32.2228 38.3206C32.0848 38.4601 31.921 38.5707 31.7407 38.6461C31.5603 38.7215 31.367 38.7603 31.1719 38.7601V38.7601Z" fill="#F9E109"/>
<path d="M37.1094 38.7601C36.8157 38.7604 36.5286 38.6726 36.2843 38.5079C36.04 38.3431 35.8496 38.1089 35.7371 37.8348C35.6246 37.5607 35.5951 37.259 35.6523 36.9679C35.7095 36.6769 35.8508 36.4095 36.0584 36.1996C36.1156 36.1419 36.161 36.0734 36.1919 35.998C36.2229 35.9226 36.2388 35.8418 36.2388 35.7601C36.2388 35.6785 36.2229 35.5976 36.1919 35.5222C36.161 35.4468 36.1156 35.3783 36.0584 35.3206C35.3882 34.6406 35.0119 33.7199 35.0119 32.7601C35.0119 31.8004 35.3882 30.8797 36.0584 30.1996C36.3368 29.918 36.7144 29.7596 37.1083 29.7593C37.5022 29.759 37.8801 29.9169 38.1588 30.1981C38.4376 30.4794 38.5943 30.861 38.5946 31.2591C38.5949 31.6571 38.4386 32.039 38.1603 32.3206C38.1031 32.3783 38.0578 32.4468 38.0268 32.5222C37.9959 32.5976 37.9799 32.6785 37.9799 32.7601C37.9799 32.8418 37.9959 32.9226 38.0268 32.998C38.0578 33.0734 38.1031 33.1419 38.1603 33.1996C38.8305 33.8797 39.2068 34.8004 39.2068 35.7601C39.2068 36.7199 38.8305 37.6406 38.1603 38.3206C38.0223 38.4601 37.8585 38.5707 37.6782 38.6461C37.4978 38.7215 37.3045 38.7603 37.1094 38.7601V38.7601Z" fill="#F9E109"/>
<path d="M43.0469 38.7601C42.7532 38.7604 42.4661 38.6726 42.2218 38.5079C41.9775 38.3431 41.7871 38.1089 41.6746 37.8348C41.5621 37.5607 41.5326 37.259 41.5898 36.9679C41.647 36.6769 41.7883 36.4095 41.9959 36.1996C42.0531 36.1419 42.0985 36.0734 42.1294 35.998C42.1604 35.9226 42.1763 35.8418 42.1763 35.7601C42.1763 35.6785 42.1604 35.5976 42.1294 35.5222C42.0985 35.4468 42.0531 35.3783 41.9959 35.3206C41.3257 34.6406 40.9494 33.7199 40.9494 32.7601C40.9494 31.8004 41.3257 30.8797 41.9959 30.1996C42.2743 29.918 42.6519 29.7596 43.0458 29.7593C43.4397 29.759 43.8176 29.9169 44.0963 30.1981C44.3751 30.4794 44.5318 30.861 44.5321 31.2591C44.5324 31.6571 44.3761 32.039 44.0978 32.3206C44.0406 32.3783 43.9953 32.4468 43.9643 32.5222C43.9334 32.5976 43.9174 32.6785 43.9174 32.7601C43.9174 32.8418 43.9334 32.9226 43.9643 32.998C43.9953 33.0734 44.0406 33.1419 44.0978 33.1996C44.768 33.8797 45.1443 34.8004 45.1443 35.7601C45.1443 36.7199 44.768 37.6406 44.0978 38.3206C43.9598 38.4601 43.796 38.5707 43.6157 38.6461C43.4353 38.7215 43.242 38.7603 43.0469 38.7601V38.7601Z" fill="#F9E109"/>
<path d="M32.2258 38.325C31.9444 38.6039 31.566 38.7601 31.1719 38.7601C30.7777 38.7601 30.3993 38.6039 30.118 38.325C29.8399 38.0418 29.6838 37.659 29.6838 37.26C29.6838 36.861 29.8399 36.4782 30.118 36.195C30.1745 36.1379 30.2194 36.0701 30.25 35.9954C30.2806 35.9208 30.2963 35.8408 30.2963 35.76C30.2963 35.6792 30.2806 35.5992 30.25 35.5246C30.2194 35.4499 30.1745 35.3821 30.118 35.325C29.604 34.8014 29.2593 34.1325 29.1294 33.4067C28.9996 32.6809 29.0906 31.9324 29.3906 31.26H32.6562C32.6574 31.6585 32.5027 32.0413 32.2258 32.325C32.1692 32.3821 32.1244 32.4499 32.0938 32.5246C32.0631 32.5992 32.0474 32.6792 32.0474 32.76C32.0474 32.8408 32.0631 32.9208 32.0938 32.9954C32.1244 33.0701 32.1692 33.1379 32.2258 33.195C32.8962 33.8768 33.2725 34.7989 33.2725 35.76C33.2725 36.7211 32.8962 37.6432 32.2258 38.325Z" fill="#FCBC04"/>
<path d="M38.1633 38.325C37.8819 38.6039 37.5035 38.7601 37.1094 38.7601C36.7152 38.7601 36.3368 38.6039 36.0555 38.325C35.7774 38.0418 35.6213 37.659 35.6213 37.26C35.6213 36.861 35.7774 36.4782 36.0555 36.195C36.112 36.1379 36.1569 36.0701 36.1875 35.9954C36.2181 35.9208 36.2338 35.8408 36.2338 35.76C36.2338 35.6792 36.2181 35.5992 36.1875 35.5246C36.1569 35.4499 36.112 35.3821 36.0555 35.325C35.5415 34.8014 35.1968 34.1325 35.0669 33.4067C34.9371 32.6809 35.0281 31.9324 35.3281 31.26H38.5937C38.5949 31.6585 38.4402 32.0413 38.1633 32.325C38.1067 32.3821 38.0619 32.4499 38.0313 32.5246C38.0006 32.5992 37.9849 32.6792 37.9849 32.76C37.9849 32.8408 38.0006 32.9208 38.0313 32.9954C38.0619 33.0701 38.1067 33.1379 38.1633 33.195C38.8337 33.8768 39.21 34.7989 39.21 35.76C39.21 36.7211 38.8337 37.6432 38.1633 38.325Z" fill="#FCBC04"/>
<path d="M44.1008 38.325C43.8194 38.6039 43.441 38.7601 43.0469 38.7601C42.6527 38.7601 42.2743 38.6039 41.993 38.325C41.7149 38.0418 41.5588 37.659 41.5588 37.26C41.5588 36.861 41.7149 36.4782 41.993 36.195C42.0495 36.1379 42.0944 36.0701 42.125 35.9954C42.1556 35.9208 42.1713 35.8408 42.1713 35.76C42.1713 35.6792 42.1556 35.5992 42.125 35.5246C42.0944 35.4499 42.0495 35.3821 41.993 35.325C41.479 34.8014 41.1343 34.1325 41.0044 33.4067C40.8746 32.6809 40.9656 31.9324 41.2656 31.26H44.5312C44.5324 31.6585 44.3777 32.0413 44.1008 32.325C44.0442 32.3821 43.9994 32.4499 43.9688 32.5246C43.9381 32.5992 43.9224 32.6792 43.9224 32.76C43.9224 32.8408 43.9381 32.9208 43.9688 32.9954C43.9994 33.0701 44.0442 33.1379 44.1008 33.195C44.7712 33.8768 45.1475 34.7989 45.1475 35.76C45.1475 36.7211 44.7712 37.6432 44.1008 38.325Z" fill="#FCBC04"/>
</svg>
