<svg width="425" height="369" viewBox="0 0 425 369" fill="none" xmlns="http://www.w3.org/2000/svg">
<path d="M380.918 51.8906V236.391C380.918 239.449 379.727 242.382 377.607 244.544C375.487 246.707 372.612 247.922 369.614 247.922H120.944V51.8906H380.918Z" fill="#5771E5"/>
<path d="M109.641 224.859H137.899V253.688H109.641V224.859Z" fill="#FFBFA1"/>
<path d="M233.976 288.274V322.875H222.673L191.589 291.164L177.46 276.742V351.71L53.125 351.703V285.081C53.1241 279.443 54.2118 273.861 56.326 268.652C58.4401 263.443 61.5393 258.711 65.4465 254.724C69.3537 250.737 73.9924 247.575 79.0978 245.417C84.2031 243.259 89.6751 242.149 95.2012 242.149H179.396C185.393 242.15 191.143 244.582 195.383 248.909L214.195 268.101L233.976 288.274Z" fill="#FFCEB6"/>
<path d="M214.195 268.101L191.589 291.164L177.46 276.742V351.71L53.125 351.703V285.081C53.1241 279.443 54.2118 273.861 56.326 268.652C58.4401 263.443 61.5393 258.711 65.4465 254.724C69.3537 250.737 73.9924 247.575 79.0978 245.417C84.2031 243.259 89.6751 242.149 95.2012 242.149H179.396C185.393 242.15 191.143 244.582 195.383 248.909L214.195 268.101Z" fill="#ED6445"/>
<path d="M120.944 51.8906H380.918V28.8281C380.918 25.7698 379.727 22.8368 377.607 20.6743C375.487 18.5118 372.612 17.2969 369.614 17.2969H132.247C129.25 17.2969 126.375 18.5118 124.255 20.6743C122.135 22.8368 120.944 25.7698 120.944 28.8281V51.8906Z" fill="#89A8F5"/>
<path d="M120.942 265.215L115.29 253.684L126.596 247.922L137.897 253.684L132.245 265.215H120.942Z" fill="#F5A431"/>
<path d="M132.245 265.215L137.897 322.871H115.29L120.942 265.215H132.245Z" fill="#F7C04A"/>
<path d="M69.8288 312.267C67.9123 309.755 64.3623 309.303 61.8996 311.258C59.4369 313.213 58.9941 316.835 60.9106 319.347L64.9606 324.657C66.8771 327.169 70.4271 327.621 72.8898 325.666C75.3525 323.71 75.7953 320.089 73.8788 317.576L69.8288 312.267Z" fill="#DE402F"/>
<path d="M89.4169 283.026C87.385 280.609 83.8173 280.331 81.4482 282.404C79.0791 284.477 78.8059 288.116 80.8378 290.533L89.1381 300.406C91.17 302.822 94.7378 303.101 97.1068 301.028C99.4759 298.955 99.7492 295.316 97.7172 292.899L89.4169 283.026Z" fill="#DE402F"/>
<path d="M137.899 69.1875H154.854V80.7188H137.899V69.1875Z" fill="#3D44D1"/>
<path d="M177.46 69.1875H188.763V80.7188H177.46V69.1875Z" fill="#3D44D1"/>
<path d="M200.066 69.1875H239.628V80.7188H200.066V69.1875Z" fill="#3D44D1"/>
<path d="M188.763 92.25H217.021V103.781H188.763V92.25Z" fill="#3D44D1"/>
<path d="M228.324 92.25H256.582V103.781H228.324V92.25Z" fill="#3D44D1"/>
<path d="M171.809 115.312H239.628V126.844H171.809V115.312Z" fill="#3D44D1"/>
<path d="M137.899 149.906H166.157V161.438H137.899V149.906Z" fill="#3D44D1"/>
<path d="M205.718 149.906H239.628V161.438H205.718V149.906Z" fill="#3D44D1"/>
<path d="M183.112 149.906H194.415V161.438H183.112V149.906Z" fill="#3D44D1"/>
<path d="M171.809 172.969H217.021V184.5H171.809V172.969Z" fill="#3D44D1"/>
<path d="M228.324 172.969H262.234V184.5H228.324V172.969Z" fill="#3D44D1"/>
<path d="M194.415 196.031H205.718V207.562H194.415V196.031Z" fill="#3D44D1"/>
<path d="M217.021 196.031H256.582V207.562H217.021V196.031Z" fill="#3D44D1"/>
<path d="M194.415 219.094H228.324V230.625H194.415V219.094Z" fill="#3D44D1"/>
<path d="M242.34 70.11H259.295V81.6412H242.34V70.11Z" fill="#3D44D1"/>
<path d="M281.902 70.11H293.205V81.6412H281.902V70.11Z" fill="#3D44D1"/>
<path d="M304.508 70.11H344.069V81.6412H304.508V70.11Z" fill="#3D44D1"/>
<path d="M293.205 93.1725H321.463V104.704H293.205V93.1725Z" fill="#3D44D1"/>
<path d="M332.766 93.1725H361.024V104.704H332.766V93.1725Z" fill="#3D44D1"/>
<path d="M276.25 116.235H344.069V127.766H276.25V116.235Z" fill="#3D44D1"/>
<path d="M242.34 150.829H270.598V162.36H242.34V150.829Z" fill="#3D44D1"/>
<path d="M310.16 150.829H344.069V162.36H310.16V150.829Z" fill="#3D44D1"/>
<path d="M287.553 150.829H298.856V162.36H287.553V150.829Z" fill="#3D44D1"/>
<path d="M276.25 173.891H321.463V185.422H276.25V173.891Z" fill="#3D44D1"/>
<path d="M332.766 173.891H366.676V185.422H332.766V173.891Z" fill="#3D44D1"/>
<path d="M298.856 196.954H310.16V208.485H298.856V196.954Z" fill="#3D44D1"/>
<path d="M321.463 196.954H361.024V208.485H321.463V196.954Z" fill="#3D44D1"/>
<path d="M298.856 220.016H332.766V231.547H298.856V220.016Z" fill="#3D44D1"/>
<path d="M154.85 270.98C154.325 271.515 153.703 271.94 153.017 272.23C152.332 272.519 151.597 272.668 150.855 272.668C150.113 272.668 149.378 272.519 148.693 272.23C148.007 271.94 147.385 271.515 146.86 270.98L126.595 250.307L106.324 270.981C105.264 272.062 103.827 272.669 102.329 272.669C100.831 272.669 99.3939 272.062 98.3345 270.981L98.3339 270.98C97.8093 270.445 97.3931 269.81 97.1092 269.11C96.8253 268.411 96.6791 267.662 96.6791 266.905C96.6791 266.148 96.8253 265.398 97.1092 264.699C97.3931 264 97.8093 263.364 98.3339 262.829L118.605 242.149H134.578L154.85 262.829C155.909 263.91 156.505 265.376 156.505 266.905C156.505 268.433 155.909 269.899 154.85 270.98V270.98Z" fill="#DE402F"/>
<path d="M109.639 201.797V230.625C109.639 235.212 111.425 239.612 114.604 242.856C117.784 246.1 122.097 247.922 126.593 247.922H126.593C128.82 247.922 131.025 247.474 133.082 246.605C135.139 245.736 137.008 244.462 138.582 242.856C140.157 241.25 141.405 239.343 142.258 237.244C143.11 235.146 143.548 232.896 143.548 230.625L143.551 201.797H109.639Z" fill="#FFCEB6"/>
<path d="M120.944 207.562L122.599 209.251C123.866 210.544 125.37 211.569 127.026 212.269C128.681 212.968 130.455 213.328 132.247 213.328C136.744 213.328 141.056 211.506 144.236 208.262C147.416 205.018 149.202 200.619 149.202 196.031V190.266H120.99C117.685 190.266 114.464 191.326 111.783 193.298C109.102 195.269 107.097 198.051 106.052 201.25C105.398 203.251 105.137 205.364 105.283 207.469C105.43 209.573 105.981 211.627 106.906 213.514L109.641 219.094L120.944 207.562Z" fill="#B36F42"/>
<path d="M160.505 340.172H211.37V351.701H160.505V340.172Z" fill="#CAD8ED"/>
<path d="M97.0548 301.121C97.0548 301.121 97.0548 301.121 97.0548 301.121L112.03 318.983C114.097 321.448 117.148 322.871 120.364 322.871H161.231C164.439 322.871 167.573 321.907 170.226 320.103L176.841 315.606C178.697 314.343 180.878 313.67 183.109 313.67C185.34 313.67 187.521 314.343 189.378 315.606L201.867 324.097C204.276 325.735 205.718 328.459 205.718 331.372V331.372C205.718 336.231 201.779 340.171 196.919 340.17L189.798 340.169C185.52 340.168 181.422 341.889 178.428 344.944L176.772 346.633C173.592 349.877 169.28 351.699 164.783 351.699H103.74C100.298 351.699 96.9005 350.897 93.808 349.354C90.7155 347.811 88.0093 345.568 85.8958 342.796L78.4823 333.107C75.2669 328.905 75.6296 322.979 79.3334 319.2L97.0548 301.121C97.0548 301.121 97.0548 301.121 97.0548 301.121V301.121Z" fill="white"/>
<path d="M273.537 351.7L301.795 288.278H217.019L188.761 351.7H273.537Z" fill="#E4E9F2"/>
<path d="M248.105 328.641C246.428 328.641 244.789 328.133 243.395 327.183C242.001 326.233 240.915 324.882 240.273 323.302C239.631 321.721 239.463 319.983 239.791 318.305C240.118 316.627 240.925 315.086 242.111 313.877C243.296 312.667 244.807 311.844 246.451 311.51C248.096 311.176 249.8 311.347 251.349 312.002C252.898 312.657 254.222 313.765 255.154 315.187C256.085 316.61 256.582 318.282 256.582 319.992C256.58 322.285 255.686 324.483 254.097 326.105C252.507 327.726 250.353 328.638 248.105 328.641V328.641Z" fill="#CAD8ED"/>
<path d="M137.899 40.3594C141.02 40.3594 143.551 37.778 143.551 34.5938C143.551 31.4095 141.02 28.8281 137.899 28.8281C134.778 28.8281 132.247 31.4095 132.247 34.5938C132.247 37.778 134.778 40.3594 137.899 40.3594Z" fill="#F28868"/>
<path d="M154.854 40.3594C157.975 40.3594 160.505 37.778 160.505 34.5938C160.505 31.4095 157.975 28.8281 154.854 28.8281C151.732 28.8281 149.202 31.4095 149.202 34.5938C149.202 37.778 151.732 40.3594 154.854 40.3594Z" fill="white"/>
<path d="M171.809 40.3594C174.93 40.3594 177.46 37.778 177.46 34.5938C177.46 31.4095 174.93 28.8281 171.809 28.8281C168.687 28.8281 166.157 31.4095 166.157 34.5938C166.157 37.778 168.687 40.3594 171.809 40.3594Z" fill="#90D4B1"/>
<path d="M213.404 70.11H367.128V173.43H213.404V70.11Z" fill="#F7C04A"/>
<path d="M367.128 89.0691L330.785 108.402L367.128 128.532V140.22L320.018 114.124L292.674 128.667C291.933 129.061 291.106 129.267 290.266 129.267C289.426 129.267 288.599 129.061 287.858 128.667L260.514 114.124L213.404 140.22V128.532L249.747 108.402L213.404 89.0755V77.49L290.266 118.365L367.128 77.4964V89.0691Z" fill="#F5A431"/>
</svg>
