<svg width="12" height="14" viewBox="0 0 12 14" fill="none" xmlns="http://www.w3.org/2000/svg">
<path d="M5.99984 7.66683C5.79687 7.66446 5.59805 7.72432 5.43013 7.83836C5.26222 7.95241 5.13327 8.11516 5.06065 8.3047C4.98802 8.49425 4.97521 8.70149 5.02394 8.89854C5.07266 9.09558 5.18058 9.27297 5.33317 9.40683V10.3335C5.33317 10.5103 5.40341 10.6799 5.52843 10.8049C5.65346 10.9299 5.82303 11.0002 5.99984 11.0002C6.17665 11.0002 6.34622 10.9299 6.47124 10.8049C6.59627 10.6799 6.6665 10.5103 6.6665 10.3335V9.40683C6.81909 9.27297 6.92701 9.09558 6.97574 8.89854C7.02446 8.70149 7.01165 8.49425 6.93903 8.3047C6.86641 8.11516 6.73746 7.95241 6.56954 7.83836C6.40163 7.72432 6.2028 7.66446 5.99984 7.66683V7.66683ZM9.33317 5.00016V3.66683C9.33317 2.78277 8.98198 1.93493 8.35686 1.30981C7.73174 0.684686 6.88389 0.333496 5.99984 0.333496C5.11578 0.333496 4.26794 0.684686 3.64281 1.30981C3.01769 1.93493 2.6665 2.78277 2.6665 3.66683V5.00016C2.13607 5.00016 1.62736 5.21088 1.25229 5.58595C0.877218 5.96102 0.666504 6.46973 0.666504 7.00016V11.6668C0.666504 12.1973 0.877218 12.706 1.25229 13.081C1.62736 13.4561 2.13607 13.6668 2.6665 13.6668H9.33317C9.8636 13.6668 10.3723 13.4561 10.7474 13.081C11.1225 12.706 11.3332 12.1973 11.3332 11.6668V7.00016C11.3332 6.46973 11.1225 5.96102 10.7474 5.58595C10.3723 5.21088 9.8636 5.00016 9.33317 5.00016ZM3.99984 3.66683C3.99984 3.1364 4.21055 2.62769 4.58562 2.25262C4.9607 1.87754 5.4694 1.66683 5.99984 1.66683C6.53027 1.66683 7.03898 1.87754 7.41405 2.25262C7.78912 2.62769 7.99984 3.1364 7.99984 3.66683V5.00016H3.99984V3.66683ZM9.99984 11.6668C9.99984 11.8436 9.9296 12.0132 9.80458 12.1382C9.67955 12.2633 9.50998 12.3335 9.33317 12.3335H2.6665C2.48969 12.3335 2.32012 12.2633 2.1951 12.1382C2.07008 12.0132 1.99984 11.8436 1.99984 11.6668V7.00016C1.99984 6.82335 2.07008 6.65378 2.1951 6.52876C2.32012 6.40373 2.48969 6.3335 2.6665 6.3335H9.33317C9.50998 6.3335 9.67955 6.40373 9.80458 6.52876C9.9296 6.65378 9.99984 6.82335 9.99984 7.00016V11.6668Z" fill="#B3B8C2"/>
</svg>
