<svg width="95" height="96" viewBox="0 0 95 96" fill="none" xmlns="http://www.w3.org/2000/svg">
<g clip-path="url(#clip0_7_177)">
<path d="M45.8128 126.592H21.0567L26.0079 36.5317H40.8615L45.8128 126.592Z" fill="#F9E109"/>
<path d="M43.3372 84.0634C40.7109 84.0634 38.1921 83.0091 36.3351 81.1325C34.478 79.2559 33.4347 76.7107 33.4347 74.0567V36.5317H26.0079L21.0567 126.592H45.8128L43.4758 84.0634H43.3372Z" fill="#FCBC04"/>
<path d="M23.3937 84.0634H43.4758L42.9237 74.0567H23.9457L23.3937 84.0634Z" fill="#AAE1F9"/>
<path d="M41.8245 54.0433H25.0449L24.4953 64.05H42.3741L41.8245 54.0433Z" fill="#AAE1F9"/>
<path d="M23.3937 84.0634H43.3372C40.7109 84.0634 38.1922 83.0091 36.3351 81.1325C34.478 79.2559 33.4347 76.7107 33.4347 74.0567H23.9457L23.3937 84.0634Z" fill="#57B7EB"/>
<path d="M33.4347 64.05V54.0433H25.0449L24.4953 64.05H33.4347Z" fill="#57B7EB"/>
<path d="M75.52 126.592H50.764L55.7152 36.5317H70.5688L75.52 126.592Z" fill="#F9E109"/>
<path d="M73.0444 84.0634C70.4181 84.0634 67.8994 83.0091 66.0424 81.1325C64.1853 79.2559 63.142 76.7107 63.142 74.0567V36.5317H55.7152L50.764 126.592H75.52L73.1831 84.0634H73.0444Z" fill="#FCBC04"/>
<path d="M53.1009 84.0634H73.1831L72.631 74.0567H53.653L53.1009 84.0634Z" fill="#AAE1F9"/>
<path d="M71.5318 54.0433H54.7522L54.2026 64.05H72.0814L71.5318 54.0433Z" fill="#AAE1F9"/>
<path d="M82.9469 139.1H-6.175V106.578L11.1543 94.0699H82.9469V139.1Z" fill="#C4F236"/>
<path d="M13.6299 94.0699H11.1543L-6.175 106.578V139.1H82.9469V124.09H43.3372C35.4583 124.09 27.9021 120.927 22.3309 115.297C16.7597 109.667 13.6299 102.032 13.6299 94.0699Z" fill="#A1D51C"/>
<path d="M73.0444 9.01331C71.0747 9.01331 69.1857 9.80401 67.7929 11.2115C66.4001 12.6189 65.6176 14.5279 65.6176 16.5183C64.7212 16.518 63.8416 16.7636 63.0725 17.2289C62.3035 17.6943 61.6738 18.3618 61.2508 19.1604C60.8278 19.959 60.6272 20.8587 60.6705 21.7634C60.7138 22.6682 60.9994 23.5441 61.4968 24.2977C61.9941 25.0513 62.6846 25.6543 63.4945 26.0424C64.3044 26.4305 65.2034 26.5892 66.0956 26.5014C66.9877 26.4137 67.8396 26.0829 68.5603 25.5442C69.2809 25.0055 69.8434 24.2793 70.1876 23.4429C71.202 23.8713 72.2979 24.0668 73.3961 24.0152C74.4944 23.9636 75.5676 23.6663 76.5383 23.1447C77.5091 22.623 78.3531 21.8901 79.0094 20.9988C79.6658 20.1075 80.1182 19.0801 80.3338 17.9907C80.5495 16.9012 80.5232 15.777 80.2567 14.6991C79.9902 13.6212 79.4902 12.6166 78.7928 11.7577C78.0954 10.8988 77.218 10.2071 76.2239 9.73252C75.2298 9.25793 74.1439 9.01228 73.0444 9.01331V9.01331Z" fill="#D0D8DA"/>
<path d="M43.3372 9.01331C41.3675 9.01331 39.4784 9.80401 38.0856 11.2115C36.6928 12.6189 35.9104 14.5279 35.9104 16.5183C35.014 16.518 34.1343 16.7636 33.3653 17.2289C32.5962 17.6943 31.9666 18.3618 31.5435 19.1604C31.1205 19.959 30.92 20.8587 30.9633 21.7634C31.0066 22.6682 31.2922 23.5441 31.7895 24.2977C32.2868 25.0513 32.9773 25.6543 33.7872 26.0424C34.5972 26.4305 35.4962 26.5892 36.3883 26.5014C37.2805 26.4137 38.1323 26.0829 38.853 25.5442C39.5737 25.0055 40.1361 24.2793 40.4803 23.4429C41.4947 23.8713 42.5906 24.0668 43.6889 24.0152C44.7871 23.9636 45.8604 23.6663 46.8311 23.1447C47.8018 22.623 48.6458 21.8901 49.3022 20.9988C49.9585 20.1075 50.4109 19.0801 50.6266 17.9907C50.8423 16.9012 50.8159 15.777 50.5494 14.6991C50.2829 13.6212 49.7829 12.6166 49.0855 11.7577C48.3881 10.8988 47.5107 10.2071 46.5166 9.73252C45.5226 9.25793 44.4366 9.01228 43.3372 9.01331V9.01331Z" fill="#D0D8DA"/>
<path d="M75.52 19.0202C74.539 19.0208 73.5677 18.8235 72.6632 18.4398C72.2483 19.456 71.5128 20.3051 70.571 20.8552C69.6291 21.4052 68.5338 21.6253 67.4554 21.4812C66.3769 21.3371 65.3759 20.8369 64.6079 20.0583C63.8399 19.2798 63.3481 18.2666 63.2088 17.1764C62.5154 17.5633 61.9239 18.1126 61.4841 18.7783C61.0442 19.4441 60.7688 20.2067 60.6811 21.0022C60.5933 21.7977 60.6957 22.6029 60.9797 23.3502C61.2636 24.0974 61.7208 24.7649 62.313 25.2966C62.9051 25.8283 63.6148 26.2087 64.3825 26.4058C65.1502 26.603 65.9536 26.6111 66.725 26.4295C67.4965 26.2479 68.2136 25.8819 68.8161 25.3623C69.4186 24.8426 69.8889 24.1845 70.1876 23.4431C71.2669 23.9001 72.4382 24.0916 73.605 24.0018C74.7719 23.9119 75.9009 23.5433 76.8993 22.9263C77.8976 22.3093 78.7366 21.4615 79.3473 20.4527C79.958 19.4439 80.3228 18.303 80.4118 17.1239C79.0658 18.3395 77.3253 19.0142 75.52 19.0202V19.0202Z" fill="#93999A"/>
<path d="M45.8128 19.0202C44.8317 19.0208 43.8605 18.8235 42.9559 18.4398C42.5411 19.456 41.8055 20.3051 40.8637 20.8552C39.9218 21.4052 38.8265 21.6253 37.7481 21.4812C36.6697 21.3371 35.6686 20.8369 34.9006 20.0583C34.1326 19.2798 33.6408 18.2666 33.5016 17.1764C32.8081 17.5633 32.2166 18.1126 31.7768 18.7783C31.3369 19.4441 31.0616 20.2067 30.9738 21.0022C30.886 21.7977 30.9884 22.6029 31.2724 23.3502C31.5563 24.0974 32.0136 24.7649 32.6057 25.2966C33.1978 25.8283 33.9075 26.2087 34.6752 26.4058C35.443 26.603 36.2463 26.6111 37.0177 26.4295C37.7892 26.2479 38.5063 25.8819 39.1088 25.3623C39.7113 24.8426 40.1816 24.1845 40.4803 23.4431C41.5596 23.9001 42.7309 24.0916 43.8977 24.0018C45.0646 23.9119 46.1937 23.5433 47.192 22.9263C48.1903 22.3093 49.0293 21.4615 49.64 20.4527C50.2507 19.4439 50.6155 18.303 50.7046 17.1239C49.3585 18.3395 47.618 19.0142 45.8128 19.0202V19.0202Z" fill="#93999A"/>
<path d="M53.1009 84.0634H73.0444C70.4182 84.0634 67.8994 83.0091 66.0424 81.1325C64.1853 79.2559 63.142 76.7107 63.142 74.0567H53.653L53.1009 84.0634Z" fill="#57B7EB"/>
<path d="M63.142 64.05V54.0433H54.7522L54.2026 64.05H63.142Z" fill="#57B7EB"/>
</g>
<defs>
<clipPath id="clip0_7_177">
<rect width="95" height="96" fill="white"/>
</clipPath>
</defs>
</svg>
