<svg width="95" height="96" viewBox="0 0 95 96" fill="none" xmlns="http://www.w3.org/2000/svg">
<path d="M4.45312 43.5H51.9531V91.5H4.45312V43.5Z" fill="#E9F1F2"/>
<path d="M41.5625 51H40.0781C38.4385 51 37.1094 52.3431 37.1094 54V63C37.1094 64.6569 38.4385 66 40.0781 66H41.5625C43.2021 66 44.5312 64.6569 44.5312 63V54C44.5312 52.3431 43.2021 51 41.5625 51Z" fill="#D0D8DA"/>
<path d="M51.9531 76.5V91.5H4.45312V43.5H14.8438V52.5C14.8438 58.8652 17.346 64.9697 21.8 69.4706C26.254 73.9714 32.2949 76.5 38.5938 76.5H51.9531Z" fill="#D0D8DA"/>
<path d="M4.45312 10.5H51.9531V43.5H4.45312V10.5Z" fill="#D0D8DA"/>
<path d="M10.3906 16.5H46.0156V37.5H10.3906V16.5Z" fill="#4891D3"/>
<path d="M10.3906 16.5V37.5H46.0156V16.5H10.3906ZM43.0469 34.5H25.2344C22.0849 34.5 19.0645 33.2357 16.8375 30.9853C14.6105 28.7348 13.3594 25.6826 13.3594 22.5V19.5H38.5938C39.7748 19.5 40.9075 19.9741 41.7426 20.818C42.5777 21.6619 43.0469 22.8065 43.0469 24V34.5Z" fill="#2D72BC"/>
<path d="M16.3281 31.5H28.2031V37.5H16.3281V31.5Z" fill="#F9E109"/>
<path d="M34.1406 31.5H46.0156V37.5H34.1406V31.5Z" fill="#F9E109"/>
<path d="M19.2969 25.5H28.2031V31.5H19.2969V25.5Z" fill="#F9E109"/>
<path d="M77.1875 39L51.9531 46.5V40.5L71.25 34.5H77.1875V39Z" fill="#93999A"/>
<path d="M71.25 34.5L51.9531 40.5V10.5L71.25 4.5V34.5Z" fill="#E9F1F2"/>
<path d="M71.25 13.3801V34.5001L51.9531 40.5001V10.5001L56.4062 9.1201V9.8701C56.4044 10.8105 56.6213 11.7382 57.0395 12.5783C57.4577 13.4185 58.0655 14.1475 58.8138 14.7066C59.5621 15.2657 60.4299 15.6392 61.3474 15.797C62.2648 15.9549 63.2061 15.8925 64.0953 15.6151L71.25 13.3801Z" fill="#D0D8DA"/>
<path d="M71.25 4.5H77.1875V34.5H71.25V4.5Z" fill="#E9F1F2"/>
<path d="M77.1875 18V21H71.4727L71.25 21.075L51.9531 27.075V23.925L70.8195 18.06C70.9604 18.0243 71.1048 18.0042 71.25 18H77.1875Z" fill="#93999A"/>
<path d="M77.1875 18V21H71.4727L71.25 21.075V18H77.1875Z" fill="#D0D8DA"/>
<path d="M44.5312 54C44.5312 52.3431 43.2021 51 41.5625 51C39.9229 51 38.5938 52.3431 38.5938 54V63C38.5938 64.6569 39.9229 66 41.5625 66C43.2021 66 44.5312 64.6569 44.5312 63V54Z" fill="#57B7EB"/>
<path d="M51.9531 67.5H71.25V91.5H51.9531V67.5Z" fill="#F9E109"/>
<path d="M71.25 67.5H90.5469V91.5H71.25V67.5Z" fill="#F9E109"/>
<path d="M90.5469 84V91.5H71.25V67.5H77.1875V70.5C77.1875 74.0804 78.595 77.5142 81.1004 80.0459C83.6057 82.5777 87.0037 84 90.5469 84V84Z" fill="#FCBC04"/>
<path d="M71.25 84V91.5H51.9531V67.5H57.8906V70.5C57.8906 74.0804 59.2981 77.5142 61.8035 80.0459C64.3089 82.5777 67.7069 84 71.25 84V84Z" fill="#FCBC04"/>
<path d="M78.6719 55.5H87.5781V67.5H78.6719V55.5Z" fill="#84D2F4"/>
<path d="M80.1562 49.5H86.0938V55.5H80.1562V49.5Z" fill="#F9E109"/>
<path d="M87.5781 64.5V67.5H78.6719V55.5H81.6406V58.5C81.6406 60.0913 82.2662 61.6174 83.3797 62.7426C84.4932 63.8679 86.0034 64.5 87.5781 64.5Z" fill="#57B7EB"/>
<path d="M86.0938 54V55.5H80.1562V49.5H81.6406V51C81.643 51.7949 81.9565 52.5566 82.5127 53.1187C83.069 53.6808 83.8227 53.9976 84.6094 54H86.0938Z" fill="#FCBC04"/>
<path d="M78.6719 60H87.5781V63H78.6719V60Z" fill="#F9E109"/>
<path d="M83.6594 63H78.6719V60H81.8336C82.1288 61.1632 82.7652 62.209 83.6594 63V63Z" fill="#FCBC04"/>
<path d="M63.8281 55.5H72.7344V67.5H63.8281V55.5Z" fill="#84D2F4"/>
<path d="M65.3125 49.5H71.25V55.5H65.3125V49.5Z" fill="#F9E109"/>
<path d="M72.7344 64.5V67.5H63.8281V55.5H66.7969V58.5C66.7969 60.0913 67.4224 61.6174 68.5359 62.7426C69.6494 63.8679 71.1597 64.5 72.7344 64.5Z" fill="#57B7EB"/>
<path d="M71.25 54V55.5H65.3125V49.5H66.7969V51C66.7992 51.7949 67.1128 52.5566 67.669 53.1187C68.2252 53.6808 68.979 53.9976 69.7656 54H71.25Z" fill="#FCBC04"/>
<path d="M63.8281 60H72.7344V63H63.8281V60Z" fill="#F9E109"/>
<path d="M68.8156 63H63.8281V60H66.9898C67.285 61.1632 67.9215 62.209 68.8156 63Z" fill="#FCBC04"/>
<path d="M46.0156 31.5V37.5H34.1406V34.5H40.0781C40.9985 34.5045 41.8972 34.2175 42.648 33.6795C43.3987 33.1414 43.9639 32.3792 44.2641 31.5H46.0156Z" fill="#FCBC04"/>
<path d="M28.2031 28.5V31.5H19.2969V25.5H22.2656C22.268 26.2949 22.5815 27.0566 23.1377 27.6187C23.694 28.1808 24.4477 28.4976 25.2344 28.5H28.2031Z" fill="#FCBC04"/>
<path d="M28.2031 34.5V37.5H16.3281V31.5H19.2969C19.2992 32.2949 19.6128 33.0566 20.169 33.6187C20.7252 34.1808 21.479 34.4976 22.2656 34.5H28.2031Z" fill="#FCBC04"/>
<path d="M84.6094 81C85.4292 81 86.0938 80.3284 86.0938 79.5C86.0938 78.6716 85.4292 78 84.6094 78C83.7896 78 83.125 78.6716 83.125 79.5C83.125 80.3284 83.7896 81 84.6094 81Z" fill="#57B7EB"/>
<path d="M65.3125 81C66.1323 81 66.7969 80.3284 66.7969 79.5C66.7969 78.6716 66.1323 78 65.3125 78C64.4927 78 63.8281 78.6716 63.8281 79.5C63.8281 80.3284 64.4927 81 65.3125 81Z" fill="#57B7EB"/>
<path d="M50.4688 10.5L47.7702 40.5H4.45312V43.5H51.9531V10.5H50.4688Z" fill="#93999A"/>
</svg>
