<svg width="87" height="88" viewBox="0 0 87 88" fill="none" xmlns="http://www.w3.org/2000/svg">
<path d="M0.453125 39.5H47.9531V87.5H0.453125V39.5Z" fill="#E9F1F2"/>
<path d="M37.5625 47H36.0781C34.4385 47 33.1094 48.3431 33.1094 50V59C33.1094 60.6569 34.4385 62 36.0781 62H37.5625C39.2021 62 40.5312 60.6569 40.5312 59V50C40.5312 48.3431 39.2021 47 37.5625 47Z" fill="#D0D8DA"/>
<path d="M47.9531 72.5V87.5H0.453125V39.5H10.8438V48.5C10.8438 54.8652 13.346 60.9697 17.8 65.4706C22.254 69.9714 28.2949 72.5 34.5938 72.5H47.9531Z" fill="#D0D8DA"/>
<path d="M0.453125 6.5H47.9531V39.5H0.453125V6.5Z" fill="#D0D8DA"/>
<path d="M6.39062 12.5H42.0156V33.5H6.39062V12.5Z" fill="#4891D3"/>
<path d="M6.39062 12.5V33.5H42.0156V12.5H6.39062ZM39.0469 30.5H21.2344C18.0849 30.5 15.0645 29.2357 12.8375 26.9853C10.6105 24.7348 9.35938 21.6826 9.35938 18.5V15.5H34.5938C35.7748 15.5 36.9075 15.9741 37.7426 16.818C38.5777 17.6619 39.0469 18.8065 39.0469 20V30.5Z" fill="#2D72BC"/>
<path d="M12.3281 27.5H24.2031V33.5H12.3281V27.5Z" fill="#F9E109"/>
<path d="M30.1406 27.5H42.0156V33.5H30.1406V27.5Z" fill="#F9E109"/>
<path d="M15.2969 21.5H24.2031V27.5H15.2969V21.5Z" fill="#F9E109"/>
<path d="M73.1875 35L47.9531 42.5V36.5L67.25 30.5H73.1875V35Z" fill="#93999A"/>
<path d="M67.25 30.5L47.9531 36.5V6.5L67.25 0.5V30.5Z" fill="#E9F1F2"/>
<path d="M67.25 9.3801V30.5001L47.9531 36.5001V6.5001L52.4062 5.1201V5.8701C52.4044 6.81053 52.6213 7.73822 53.0395 8.57835C53.4577 9.41847 54.0655 10.1475 54.8138 10.7066C55.5621 11.2657 56.4299 11.6392 57.3474 11.797C58.2648 11.9549 59.2061 11.8925 60.0953 11.6151L67.25 9.3801Z" fill="#D0D8DA"/>
<path d="M67.25 0.5H73.1875V30.5H67.25V0.5Z" fill="#E9F1F2"/>
<path d="M73.1875 14V17H67.4727L67.25 17.075L47.9531 23.075V19.925L66.8195 14.06C66.9604 14.0243 67.1048 14.0042 67.25 14H73.1875Z" fill="#93999A"/>
<path d="M73.1875 14V17H67.4727L67.25 17.075V14H73.1875Z" fill="#D0D8DA"/>
<path d="M40.5312 50C40.5312 48.3431 39.2021 47 37.5625 47C35.9229 47 34.5938 48.3431 34.5938 50V59C34.5938 60.6569 35.9229 62 37.5625 62C39.2021 62 40.5312 60.6569 40.5312 59V50Z" fill="#57B7EB"/>
<path d="M47.9531 63.5H67.25V87.5H47.9531V63.5Z" fill="#F9E109"/>
<path d="M67.25 63.5H86.5469V87.5H67.25V63.5Z" fill="#F9E109"/>
<path d="M86.5469 80V87.5H67.25V63.5H73.1875V66.5C73.1875 70.0804 74.595 73.5142 77.1004 76.0459C79.6057 78.5777 83.0037 80 86.5469 80V80Z" fill="#FCBC04"/>
<path d="M67.25 80V87.5H47.9531V63.5H53.8906V66.5C53.8906 70.0804 55.2981 73.5142 57.8035 76.0459C60.3089 78.5777 63.7069 80 67.25 80V80Z" fill="#FCBC04"/>
<path d="M74.6719 51.5H83.5781V63.5H74.6719V51.5Z" fill="#84D2F4"/>
<path d="M76.1562 45.5H82.0938V51.5H76.1562V45.5Z" fill="#F9E109"/>
<path d="M83.5781 60.5V63.5H74.6719V51.5H77.6406V54.5C77.6406 56.0913 78.2662 57.6174 79.3797 58.7426C80.4932 59.8679 82.0034 60.5 83.5781 60.5Z" fill="#57B7EB"/>
<path d="M82.0938 50V51.5H76.1562V45.5H77.6406V47C77.643 47.7949 77.9565 48.5566 78.5127 49.1187C79.069 49.6808 79.8227 49.9976 80.6094 50H82.0938Z" fill="#FCBC04"/>
<path d="M74.6719 56H83.5781V59H74.6719V56Z" fill="#F9E109"/>
<path d="M79.6594 59H74.6719V56H77.8336C78.1288 57.1632 78.7652 58.209 79.6594 59V59Z" fill="#FCBC04"/>
<path d="M59.8281 51.5H68.7344V63.5H59.8281V51.5Z" fill="#84D2F4"/>
<path d="M61.3125 45.5H67.25V51.5H61.3125V45.5Z" fill="#F9E109"/>
<path d="M68.7344 60.5V63.5H59.8281V51.5H62.7969V54.5C62.7969 56.0913 63.4224 57.6174 64.5359 58.7426C65.6494 59.8679 67.1597 60.5 68.7344 60.5Z" fill="#57B7EB"/>
<path d="M67.25 50V51.5H61.3125V45.5H62.7969V47C62.7992 47.7949 63.1128 48.5566 63.669 49.1187C64.2252 49.6808 64.979 49.9976 65.7656 50H67.25Z" fill="#FCBC04"/>
<path d="M59.8281 56H68.7344V59H59.8281V56Z" fill="#F9E109"/>
<path d="M64.8156 59H59.8281V56H62.9898C63.285 57.1632 63.9215 58.209 64.8156 59Z" fill="#FCBC04"/>
<path d="M42.0156 27.5V33.5H30.1406V30.5H36.0781C36.9985 30.5045 37.8972 30.2175 38.648 29.6795C39.3987 29.1414 39.9639 28.3792 40.2641 27.5H42.0156Z" fill="#FCBC04"/>
<path d="M24.2031 24.5V27.5H15.2969V21.5H18.2656C18.268 22.2949 18.5815 23.0566 19.1377 23.6187C19.694 24.1808 20.4477 24.4976 21.2344 24.5H24.2031Z" fill="#FCBC04"/>
<path d="M24.2031 30.5V33.5H12.3281V27.5H15.2969C15.2992 28.2949 15.6128 29.0566 16.169 29.6187C16.7252 30.1808 17.479 30.4976 18.2656 30.5H24.2031Z" fill="#FCBC04"/>
<path d="M80.6094 77C81.4292 77 82.0938 76.3284 82.0938 75.5C82.0938 74.6716 81.4292 74 80.6094 74C79.7896 74 79.125 74.6716 79.125 75.5C79.125 76.3284 79.7896 77 80.6094 77Z" fill="#57B7EB"/>
<path d="M61.3125 77C62.1323 77 62.7969 76.3284 62.7969 75.5C62.7969 74.6716 62.1323 74 61.3125 74C60.4927 74 59.8281 74.6716 59.8281 75.5C59.8281 76.3284 60.4927 77 61.3125 77Z" fill="#57B7EB"/>
<path d="M46.4688 6.5L43.7702 36.5H0.453125V39.5H47.9531V6.5H46.4688Z" fill="#93999A"/>
</svg>
