<svg width="20" height="20" viewBox="0 0 20 20" fill="none" xmlns="http://www.w3.org/2000/svg">
<path d="M12.3583 9.40834L8.825 5.87501C8.74753 5.7969 8.65536 5.73491 8.55381 5.6926C8.45226 5.65029 8.34334 5.62851 8.23333 5.62851C8.12332 5.62851 8.0144 5.65029 7.91285 5.6926C7.8113 5.73491 7.71914 5.7969 7.64167 5.87501C7.48646 6.03114 7.39934 6.24235 7.39934 6.46251C7.39934 6.68266 7.48646 6.89387 7.64167 7.05001L10.5917 10L7.64167 12.95C7.48646 13.1061 7.39934 13.3174 7.39934 13.5375C7.39934 13.7577 7.48646 13.9689 7.64167 14.125C7.71953 14.2022 7.81188 14.2633 7.91341 14.3048C8.01494 14.3463 8.12366 14.3673 8.23333 14.3667C8.34301 14.3673 8.45172 14.3463 8.55326 14.3048C8.65479 14.2633 8.74713 14.2022 8.825 14.125L12.3583 10.5917C12.4364 10.5142 12.4984 10.422 12.5407 10.3205C12.583 10.2189 12.6048 10.11 12.6048 10C12.6048 9.89 12.583 9.78108 12.5407 9.67953C12.4984 9.57798 12.4364 9.48581 12.3583 9.40834Z" fill="#07395A"/>
</svg>
