<svg width="21" height="20" viewBox="0 0 21 20" fill="none" xmlns="http://www.w3.org/2000/svg">
<path d="M14.21 10.71C14.301 10.6149 14.3724 10.5028 14.42 10.38C14.52 10.1365 14.52 9.86347 14.42 9.62C14.3724 9.49725 14.301 9.38511 14.21 9.29L11.21 6.29C11.0217 6.1017 10.7663 5.99591 10.5 5.99591C10.2337 5.99591 9.97831 6.1017 9.79 6.29C9.6017 6.47831 9.49591 6.7337 9.49591 7C9.49591 7.26631 9.6017 7.5217 9.79 7.71L11.09 9H7.5C7.23479 9 6.98043 9.10536 6.7929 9.2929C6.60536 9.48043 6.5 9.73479 6.5 10C6.5 10.2652 6.60536 10.5196 6.7929 10.7071C6.98043 10.8946 7.23479 11 7.5 11H11.09L9.79 12.29C9.69628 12.383 9.62188 12.4936 9.57111 12.6154C9.52034 12.7373 9.49421 12.868 9.49421 13C9.49421 13.132 9.52034 13.2627 9.57111 13.3846C9.62188 13.5064 9.69628 13.617 9.79 13.71C9.88297 13.8037 9.99357 13.8781 10.1154 13.9289C10.2373 13.9797 10.368 14.0058 10.5 14.0058C10.632 14.0058 10.7627 13.9797 10.8846 13.9289C11.0064 13.8781 11.117 13.8037 11.21 13.71L14.21 10.71ZM20.5 10C20.5 8.02219 19.9135 6.08879 18.8147 4.4443C17.7159 2.79981 16.1541 1.51809 14.3268 0.761209C12.4996 0.00433284 10.4889 -0.193701 8.5491 0.192152C6.60929 0.578004 4.82746 1.53041 3.42894 2.92894C2.03041 4.32746 1.078 6.10929 0.692152 8.0491C0.306299 9.98891 0.504333 11.9996 1.26121 13.8268C2.01809 15.6541 3.29981 17.2159 4.9443 18.3147C6.58879 19.4135 8.52219 20 10.5 20C13.1522 20 15.6957 18.9464 17.5711 17.0711C19.4464 15.1957 20.5 12.6522 20.5 10V10ZM2.5 10C2.5 8.41775 2.9692 6.87104 3.84825 5.55544C4.7273 4.23985 5.97673 3.21447 7.43854 2.60897C8.90035 2.00347 10.5089 1.84504 12.0607 2.15372C13.6126 2.4624 15.038 3.22433 16.1569 4.34315C17.2757 5.46197 18.0376 6.88743 18.3463 8.43928C18.655 9.99113 18.4965 11.5997 17.891 13.0615C17.2855 14.5233 16.2602 15.7727 14.9446 16.6518C13.629 17.5308 12.0823 18 10.5 18C8.37827 18 6.34344 17.1572 4.84315 15.6569C3.34286 14.1566 2.5 12.1217 2.5 10V10Z" fill="#B3B8C2"/>
</svg>
