<svg width="18" height="18" viewBox="0 0 18 18" fill="none" xmlns="http://www.w3.org/2000/svg">
<path d="M12.0915 9.59151C12.1674 9.51225 12.2268 9.4188 12.2665 9.31651C12.3499 9.11362 12.3499 8.88606 12.2665 8.68317C12.2268 8.58088 12.1674 8.48743 12.0915 8.40817L9.59151 5.90817C9.43459 5.75125 9.22176 5.6631 8.99984 5.6631C8.77792 5.6631 8.56509 5.75125 8.40817 5.90817C8.25125 6.06509 8.1631 6.27792 8.1631 6.49984C8.1631 6.72176 8.25125 6.93459 8.40817 7.09151L9.49151 8.16651H6.49984C6.27883 8.16651 6.06687 8.25431 5.91059 8.41059C5.7543 8.56687 5.66651 8.77883 5.66651 8.99984C5.66651 9.22085 5.7543 9.43282 5.91059 9.5891C6.06687 9.74538 6.27883 9.83317 6.49984 9.83317H9.49151L8.40817 10.9082C8.33007 10.9856 8.26807 11.0778 8.22577 11.1794C8.18346 11.2809 8.16168 11.3898 8.16168 11.4998C8.16168 11.6099 8.18346 11.7188 8.22577 11.8203C8.26807 11.9219 8.33007 12.014 8.40817 12.0915C8.48564 12.1696 8.57781 12.2316 8.67936 12.2739C8.78091 12.3162 8.88983 12.338 8.99984 12.338C9.10985 12.338 9.21877 12.3162 9.32032 12.2739C9.42187 12.2316 9.51404 12.1696 9.59151 12.0915L12.0915 9.59151ZM17.3332 8.99984C17.3332 7.35166 16.8444 5.7405 15.9288 4.37009C15.0131 2.99968 13.7116 1.93158 12.1889 1.30084C10.6662 0.670115 8.9906 0.505087 7.37409 0.82663C5.75758 1.14817 4.27272 1.94185 3.10728 3.10728C1.94185 4.27272 1.14817 5.75758 0.82663 7.37409C0.505087 8.9906 0.670115 10.6662 1.30084 12.1889C1.93158 13.7116 2.99968 15.0131 4.37009 15.9288C5.7405 16.8444 7.35166 17.3332 8.99984 17.3332C11.21 17.3332 13.3296 16.4552 14.8924 14.8924C16.4552 13.3296 17.3332 11.21 17.3332 8.99984V8.99984ZM2.33317 8.99984C2.33317 7.6813 2.72417 6.39237 3.45671 5.29604C4.18925 4.19971 5.23044 3.34523 6.44862 2.84064C7.66679 2.33606 9.00724 2.20404 10.3004 2.46127C11.5936 2.71851 12.7815 3.35345 13.7139 4.2858C14.6462 5.21815 15.2812 6.40603 15.5384 7.69924C15.7956 8.99245 15.6636 10.3329 15.159 11.5511C14.6545 12.7692 13.8 13.8104 12.7036 14.543C11.6073 15.2755 10.3184 15.6665 8.99984 15.6665C7.23173 15.6665 5.53604 14.9641 4.2858 13.7139C3.03555 12.4636 2.33317 10.768 2.33317 8.99984V8.99984Z" fill="#8CC74B"/>
</svg>
