<svg width="95" height="96" viewBox="0 0 95 96" fill="none" xmlns="http://www.w3.org/2000/svg">
<path d="M67.7721 16.5165C67.4902 16.5161 67.2142 16.4346 66.9765 16.2815C66.7387 16.1284 66.549 15.91 66.4296 15.652C66.3101 15.3939 66.2659 15.1068 66.302 14.8243C66.3382 14.5417 66.4532 14.2754 66.6336 14.0565L71.5929 8.04001C71.8449 7.73408 72.2068 7.54183 72.599 7.50554C72.9912 7.46925 73.3816 7.5919 73.6844 7.84651C73.9871 8.10112 74.1774 8.46683 74.2133 8.86319C74.2492 9.25954 74.1278 9.65408 73.8759 9.96001L68.9151 15.975C68.7757 16.1446 68.601 16.2811 68.4034 16.3747C68.2059 16.4683 67.9903 16.5167 67.7721 16.5165V16.5165Z" fill="#57B7EB"/>
<path d="M73.147 21.1499C72.8416 21.1505 72.5435 21.0558 72.2932 20.8788C72.043 20.7018 71.8529 20.4511 71.7489 20.161C71.6448 19.8708 71.6319 19.5552 71.7118 19.2573C71.7918 18.9595 71.9607 18.6937 72.1956 18.4964L77.7204 13.8464C78.0232 13.5914 78.4137 13.4684 78.8062 13.5044C79.1988 13.5404 79.561 13.7325 79.8134 14.0384C80.0657 14.3444 80.1875 14.7391 80.1518 15.1357C80.1162 15.5323 79.9261 15.8984 79.6234 16.1534L74.097 20.8034C73.8302 21.0276 73.4941 21.1502 73.147 21.1499V21.1499Z" fill="#57B7EB"/>
<path d="M61.2557 12.6974C61.0028 12.6972 60.7541 12.6318 60.5332 12.5073C60.3124 12.3827 60.1266 12.2032 59.9937 11.9858C59.8608 11.7684 59.785 11.5202 59.7736 11.2649C59.7622 11.0095 59.8156 10.7555 59.9287 10.5269L62.4996 5.32938C62.6756 4.97333 62.9843 4.7025 63.3579 4.57647C63.7315 4.45045 64.1393 4.47955 64.4916 4.65738C64.844 4.83521 65.112 5.14719 65.2367 5.5247C65.3614 5.90221 65.3326 6.31433 65.1566 6.67038L62.5842 11.8679C62.4609 12.1172 62.2713 12.3269 62.0366 12.4734C61.802 12.62 61.5315 12.6975 61.2557 12.6974Z" fill="#57B7EB"/>
<path d="M15.9155 21.15C15.5683 21.1498 15.2321 21.0267 14.9655 20.802L9.43913 16.152C9.28932 16.0257 9.16559 15.8708 9.07501 15.6963C8.98442 15.5217 8.92876 15.3308 8.91118 15.1344C8.87569 14.7379 8.99752 14.3434 9.24987 14.0377C9.50222 13.732 9.86442 13.5401 10.2568 13.5042C10.6492 13.4683 11.0395 13.5915 11.3421 13.8465L16.8669 18.4965C17.1018 18.6938 17.2707 18.9595 17.3507 19.2574C17.4306 19.5552 17.4177 19.8708 17.3136 20.161C17.2096 20.4512 17.0195 20.7018 16.7693 20.8788C16.519 21.0558 16.2209 21.1505 15.9155 21.15V21.15Z" fill="#57B7EB"/>
<path d="M21.2904 16.5165C21.0722 16.5167 20.8566 16.4683 20.6591 16.3747C20.4615 16.2811 20.2868 16.1446 20.1474 15.975L15.1866 9.96001C14.9347 9.65408 14.8133 9.25954 14.8492 8.86319C14.8851 8.46683 15.0754 8.10112 15.3781 7.84651C15.6808 7.5919 16.0713 7.46925 16.4635 7.50554C16.8557 7.54183 17.2176 7.73408 17.4696 8.04001L22.4289 14.0565C22.6093 14.2754 22.7243 14.5417 22.7605 14.8243C22.7966 15.1068 22.7524 15.3939 22.6329 15.652C22.5135 15.91 22.3238 16.1284 22.086 16.2815C21.8483 16.4346 21.5723 16.5161 21.2904 16.5165Z" fill="#57B7EB"/>
<path d="M27.8068 12.6974C27.5309 12.6975 27.2605 12.62 27.0259 12.4734C26.7912 12.3269 26.6016 12.1172 26.4783 11.8679L23.9058 6.67038C23.7299 6.31433 23.7011 5.90221 23.8258 5.5247C23.9505 5.14719 24.2185 4.83521 24.5708 4.65738C24.9232 4.47955 25.331 4.45045 25.7046 4.57647C26.0782 4.7025 26.3869 4.97333 26.5629 5.32938L29.1338 10.5269C29.2469 10.7555 29.3002 11.0095 29.2889 11.2649C29.2775 11.5202 29.2017 11.7684 29.0688 11.9858C28.9359 12.2032 28.7501 12.3827 28.5293 12.5073C28.3084 12.6318 28.0597 12.6972 27.8068 12.6974Z" fill="#57B7EB"/>
<path d="M44.5312 87C66.6658 87 84.6094 68.8675 84.6094 46.5C84.6094 24.1325 66.6658 6 44.5312 6C22.3967 6 4.45312 24.1325 4.45312 46.5C4.45312 68.8675 22.3967 87 44.5312 87Z" fill="#D0D8DA"/>
<path d="M60.8594 72C53.7205 71.9997 46.7113 70.0724 40.5565 66.4176C34.4017 62.7627 29.3246 57.5129 25.8502 51.211C22.3758 44.909 20.6302 37.7836 20.7938 30.5715C20.9575 23.3594 23.0245 16.3224 26.7811 10.188C21.2172 12.9649 16.3674 17.0096 12.6138 22.0032C8.86023 26.9968 6.30544 32.803 5.15073 38.9644C3.99601 45.1257 4.27291 51.4739 5.95962 57.5087C7.64632 63.5435 10.6967 69.1 14.8705 73.7405C19.0443 78.3811 24.2275 81.9788 30.0116 84.2502C35.7958 86.5217 42.0229 87.4048 48.2023 86.8301C54.3817 86.2553 60.3447 84.2383 65.6213 80.9381C70.8979 77.6379 75.3441 73.1445 78.6095 67.812C73.092 70.5738 67.0167 72.0072 60.8594 72Z" fill="#93999A"/>
<path d="M44.5312 20.9999C48.9598 20.9998 53.3094 22.1845 57.138 24.4334L60.8594 17.9249C55.896 15.0256 50.2642 13.4991 44.5312 13.4991C38.7983 13.4991 33.1665 15.0256 28.2031 17.9249L31.923 24.4334C35.7521 22.1842 40.1022 20.9996 44.5312 20.9999V20.9999Z" fill="#57B7EB"/>
<path d="M44.5312 72C58.4678 72 69.7656 60.5833 69.7656 46.5C69.7656 32.4167 58.4678 21 44.5312 21C30.5947 21 19.2969 32.4167 19.2969 46.5C19.2969 60.5833 30.5947 72 44.5312 72Z" fill="#84D2F4"/>
<path d="M59.375 59.9999C54.9746 60.0026 50.6501 58.8416 46.8311 56.6325C43.0121 54.4234 39.8316 51.2429 37.6056 47.4071C35.3795 43.5713 34.1854 39.2137 34.1418 34.7672C34.0983 30.3207 35.2068 25.94 37.3573 22.0604C33.3892 23.2462 29.7706 25.3999 26.8201 28.3318C23.8697 31.2637 21.6781 34.8838 20.4382 38.8732C19.1984 42.8626 18.9484 47.0989 19.7104 51.2089C20.4723 55.3189 22.2227 59.1765 24.8075 62.4419C27.3922 65.7073 30.7319 68.2803 34.5325 69.9342C38.333 71.5881 42.4777 72.2722 46.6014 71.9261C50.7252 71.5801 54.7015 70.2146 58.18 67.9499C61.6586 65.6853 64.5326 62.5909 66.549 58.9394C64.2207 59.6403 61.8044 59.9975 59.375 59.9999Z" fill="#57B7EB"/>
<path d="M29.836 46.6499C31.7657 44.6996 34.0567 43.1526 36.5781 42.0971C39.0996 41.0416 41.8021 40.4983 44.5313 40.4983C47.2605 40.4983 49.963 41.0416 52.4844 42.0971C55.0058 43.1526 57.2968 44.6996 59.2266 46.6499L63.4259 42.4064C60.9448 39.8991 57.9993 37.9103 54.7576 36.5534C51.5159 35.1965 48.0415 34.4981 44.5327 34.4981C41.024 34.4981 37.5495 35.1965 34.3078 36.5534C31.0662 37.9103 28.1207 39.8991 25.6396 42.4064L29.836 46.6499Z" fill="#F9E109"/>
<path d="M38.2331 55.1355C39.0601 54.2996 40.042 53.6366 41.1226 53.1842C42.2033 52.7318 43.3616 52.499 44.5313 52.499C45.701 52.499 46.8592 52.7318 47.9399 53.1842C49.0205 53.6366 50.0024 54.2996 50.8295 55.1355L55.0273 50.8935C52.2435 48.0805 48.468 46.5002 44.5313 46.5002C40.5945 46.5002 36.819 48.0805 34.0353 50.8935L38.2331 55.1355Z" fill="#F9E109"/>
<path d="M44.5313 64.5C46.1709 64.5 47.5 63.1569 47.5 61.5C47.5 59.8431 46.1709 58.5 44.5313 58.5C42.8917 58.5 41.5625 59.8431 41.5625 61.5C41.5625 63.1569 42.8917 64.5 44.5313 64.5Z" fill="#FCBC04"/>
<path d="M35.4469 42.615C33.3643 43.6297 31.4671 44.9941 29.836 46.65L25.6352 42.405C28.0915 39.9104 31.0126 37.9323 34.2297 36.585C34.3899 38.6377 34.7987 40.6628 35.4469 42.615V42.615Z" fill="#FCBC04"/>
<path d="M41.9188 52.9049C40.5261 53.3272 39.2604 54.0957 38.2375 55.1399L34.0367 50.8949C35.1864 49.7224 36.527 48.7584 38 48.0449C39.097 49.8264 40.4138 51.4595 41.9188 52.9049V52.9049Z" fill="#FCBC04"/>
<path d="M51.7349 70.9333C43.8325 69.0601 36.6786 64.8078 31.2188 58.7383C25.7591 52.6688 22.2505 45.0679 21.1568 36.9403C19.3711 41.3894 18.8656 46.2577 19.6985 50.9844C20.5315 55.7111 22.669 60.1038 25.8647 63.6565C29.0604 67.2091 33.1844 69.7771 37.7615 71.0645C42.3385 72.352 47.1824 72.3065 51.7349 70.9333V70.9333Z" fill="#4891D3"/>
<path d="M44.5313 13.5C38.7975 13.4933 33.1641 15.0199 28.2031 17.925L31.923 24.4335C35.6771 22.226 39.9347 21.0432 44.2779 21.0011C48.6211 20.959 52.9004 22.0592 56.6957 24.1935L47.022 13.6035C46.1997 13.5405 45.3699 13.5 44.5313 13.5V13.5Z" fill="#4891D3"/>
<path d="M44.5312 81C45.351 81 46.0156 80.3284 46.0156 79.5C46.0156 78.6716 45.351 78 44.5312 78C43.7115 78 43.0469 78.6716 43.0469 79.5C43.0469 80.3284 43.7115 81 44.5312 81Z" fill="#84D2F4"/>
<path d="M37.1094 79.5C37.9292 79.5 38.5938 78.8284 38.5938 78C38.5938 77.1716 37.9292 76.5 37.1094 76.5C36.2896 76.5 35.625 77.1716 35.625 78C35.625 78.8284 36.2896 79.5 37.1094 79.5Z" fill="#84D2F4"/>
<path d="M51.9531 79.5C52.7729 79.5 53.4375 78.8284 53.4375 78C53.4375 77.1716 52.7729 76.5 51.9531 76.5C51.1333 76.5 50.4688 77.1716 50.4688 78C50.4688 78.8284 51.1333 79.5 51.9531 79.5Z" fill="#84D2F4"/>
<path d="M84.6094 55.5H69.7656C66.4864 55.5 63.8281 58.1863 63.8281 61.5V85.5C63.8281 88.8137 66.4864 91.5 69.7656 91.5H84.6094C87.8886 91.5 90.5469 88.8137 90.5469 85.5V61.5C90.5469 58.1863 87.8886 55.5 84.6094 55.5Z" fill="#F9E109"/>
<path d="M89.0625 84C84.3383 84 79.8077 82.1036 76.4672 78.7279C73.1267 75.3523 71.25 70.7739 71.25 66V55.5H69.7656C68.1909 55.5 66.6807 56.1321 65.5672 57.2574C64.4537 58.3826 63.8281 59.9087 63.8281 61.5V85.5C63.8281 87.0913 64.4537 88.6174 65.5672 89.7426C66.6807 90.8679 68.1909 91.5 69.7656 91.5H84.6094C86.1841 91.5 87.6943 90.8679 88.8078 89.7426C89.9213 88.6174 90.5469 87.0913 90.5469 85.5V84H89.0625Z" fill="#FCBC04"/>
<path d="M77.1875 80.9999C74.8261 80.9975 72.5622 80.0486 70.8924 78.3613C69.2227 76.674 68.2836 74.3862 68.2813 71.9999C68.2847 70.067 68.9098 68.1875 70.0625 66.6449C70.1795 66.4874 70.326 66.3546 70.4937 66.2542C70.6615 66.1539 70.8471 66.0879 71.0401 66.06C71.2331 66.0322 71.4296 66.043 71.6184 66.0919C71.8072 66.1408 71.9847 66.2268 72.1406 66.3449C72.2966 66.4631 72.428 66.6112 72.5273 66.7807C72.6266 66.9502 72.6919 67.1378 72.7195 67.3328C72.747 67.5278 72.7363 67.7264 72.6879 67.9172C72.6396 68.108 72.5545 68.2874 72.4375 68.4449C71.6716 69.469 71.2549 70.7163 71.25 71.9999C71.25 73.5912 71.8756 75.1174 72.9891 76.2426C74.1026 77.3678 75.6128 77.9999 77.1875 77.9999C78.7622 77.9999 80.2725 77.3678 81.386 76.2426C82.4995 75.1174 83.125 73.5912 83.125 71.9999C83.1217 70.7138 82.7049 69.4635 81.9375 68.4374C81.8206 68.2799 81.7355 68.1005 81.6871 67.9097C81.6387 67.7189 81.628 67.5203 81.6556 67.3253C81.6831 67.1303 81.7484 66.9427 81.8477 66.7732C81.9471 66.6037 82.0784 66.4556 82.2344 66.3374C82.3903 66.2193 82.5678 66.1333 82.7566 66.0844C82.9454 66.0355 83.142 66.0247 83.3349 66.0525C83.5279 66.0804 83.7136 66.1464 83.8813 66.2467C84.049 66.3471 84.1955 66.4799 84.3125 66.6374C85.4667 68.1821 86.0919 70.0644 86.0938 71.9999C86.0914 74.3862 85.1523 76.674 83.4826 78.3613C81.8128 80.0486 79.5489 80.9975 77.1875 80.9999V80.9999Z" fill="#57B7EB"/>
<path d="M81.6406 87H72.7344C72.3407 87 71.9631 86.842 71.6848 86.5607C71.4064 86.2794 71.25 85.8978 71.25 85.5C71.25 85.1022 71.4064 84.7207 71.6848 84.4393C71.9631 84.158 72.3407 84 72.7344 84H81.6406C82.0343 84 82.4119 84.158 82.6902 84.4393C82.9686 84.7207 83.125 85.1022 83.125 85.5C83.125 85.8978 82.9686 86.2794 82.6902 86.5607C82.4119 86.842 82.0343 87 81.6406 87Z" fill="#4891D3"/>
<path d="M77.1875 73.5C76.7938 73.5 76.4163 73.342 76.1379 73.0607C75.8595 72.7794 75.7031 72.3978 75.7031 72V64.5C75.7031 64.1022 75.8595 63.7207 76.1379 63.4393C76.4163 63.158 76.7938 63 77.1875 63C77.5812 63 77.9587 63.158 78.2371 63.4393C78.5155 63.7207 78.6719 64.1022 78.6719 64.5V72C78.6719 72.3978 78.5155 72.7794 78.2371 73.0607C77.9587 73.342 77.5812 73.5 77.1875 73.5Z" fill="#57B7EB"/>
<path d="M75.5888 77.751C74.3442 77.4012 73.2468 76.6501 72.4636 75.6119C71.6803 74.5738 71.2542 73.3055 71.25 72.0001C71.2549 71.266 71.398 70.5396 71.6716 69.8596C71.398 68.6143 71.2567 67.3431 71.25 66.0675C71.0212 66.0632 70.7945 66.1131 70.5882 66.2134C70.382 66.3137 70.2019 66.4616 70.0625 66.6451C68.9098 68.1876 68.2847 70.0671 68.2813 72.0001C68.281 73.3348 68.5745 74.6529 69.1405 75.8588C69.7066 77.0648 70.531 78.1284 71.554 78.9727C72.577 79.8169 73.7731 80.4207 75.0555 80.7402C76.3379 81.0597 77.6746 81.087 78.9688 80.82C77.7173 79.9468 76.5814 78.9154 75.5888 77.751V77.751Z" fill="#4891D3"/>
</svg>
