<svg width="494" height="383" viewBox="0 0 494 383" fill="none" xmlns="http://www.w3.org/2000/svg">
<path d="M346.083 109.083H335.333V105.5C335.333 101.699 333.823 98.0528 331.135 95.3648C328.447 92.6768 324.801 91.1667 321 91.1667C317.199 91.1667 313.553 92.6768 310.865 95.3648C308.177 98.0528 306.667 101.699 306.667 105.5V109.083H295.917C294.966 109.083 294.055 109.461 293.383 110.133C292.711 110.805 292.333 111.716 292.333 112.667V152.083C292.333 154.934 293.466 157.669 295.482 159.685C297.498 161.701 300.232 162.833 303.083 162.833H338.917C341.768 162.833 344.502 161.701 346.518 159.685C348.534 157.669 349.667 154.934 349.667 152.083V112.667C349.667 111.716 349.289 110.805 348.617 110.133C347.945 109.461 347.034 109.083 346.083 109.083ZM313.833 105.5C313.833 103.599 314.588 101.776 315.932 100.432C317.276 99.0884 319.099 98.3333 321 98.3333C322.901 98.3333 324.724 99.0884 326.068 100.432C327.412 101.776 328.167 103.599 328.167 105.5V109.083H313.833V105.5ZM342.5 152.083C342.5 153.034 342.122 153.945 341.45 154.617C340.778 155.289 339.867 155.667 338.917 155.667H303.083C302.133 155.667 301.222 155.289 300.55 154.617C299.878 153.945 299.5 153.034 299.5 152.083V116.25H306.667V119.833C306.667 120.784 307.044 121.695 307.716 122.367C308.388 123.039 309.3 123.417 310.25 123.417C311.2 123.417 312.112 123.039 312.784 122.367C313.456 121.695 313.833 120.784 313.833 119.833V116.25H328.167V119.833C328.167 120.784 328.544 121.695 329.216 122.367C329.888 123.039 330.8 123.417 331.75 123.417C332.7 123.417 333.612 123.039 334.284 122.367C334.956 121.695 335.333 120.784 335.333 119.833V116.25H342.5V152.083Z" fill="#CDF4A2"/>
<path d="M124.068 27.5078C124.068 27.5078 78.4794 53.4321 112.764 104.967" stroke="#8CC74B" stroke-linecap="round" stroke-linejoin="round" stroke-dasharray="6.22 3.11"/>
<path d="M439.802 134.907H195.23V368.665H439.802V134.907Z" fill="white"/>
<path d="M244.295 126.435L244.447 140.043L261.558 139.959L261.911 126.56L244.295 126.435Z" fill="#F1FEE3"/>
<path d="M247.908 139.808L248.134 131.035" stroke="#490543" stroke-linecap="round" stroke-linejoin="round"/>
<path d="M252.503 139.373L252.729 130.6" stroke="#490543" stroke-linecap="round" stroke-linejoin="round"/>
<path d="M257.089 139.29L257.316 130.516" stroke="#490543" stroke-linecap="round" stroke-linejoin="round"/>
<path d="M407.024 179.31H228.411V206.651H407.024V179.31Z" fill="#CDF4A2"/>
<path d="M407.024 218.135H228.411V245.476H407.024V218.135Z" fill="#CDF4A2"/>
<path d="M407.024 258.164H228.411V285.505H407.024V258.164Z" fill="#CDF4A2"/>
<path d="M371.483 304.934H263.96V332.275H371.483V304.934Z" fill="#8CC74B"/>
<path d="M426.864 107.183C440.278 93.8269 440.278 72.1731 426.864 58.8174C413.45 45.4617 391.702 45.4617 378.288 58.8174C364.874 72.1731 364.874 93.8269 378.288 107.183C391.702 120.538 413.45 120.538 426.864 107.183Z" fill="white"/>
<path d="M86.8 368.582H494" stroke="#CDF4A2" stroke-miterlimit="10"/>
<path d="M428.394 301.99C428.394 301.99 428.394 273.193 399.061 269.63C396.583 293.643 428.394 301.99 428.394 301.99Z" fill="#20B75A"/>
<path d="M405.269 277.626L421.464 293.358" stroke="white" stroke-linecap="round" stroke-linejoin="round"/>
<path d="M428.504 302.316C428.504 302.316 428.504 273.528 457.829 269.957C460.307 294.011 428.504 302.316 428.504 302.316Z" fill="#20B75A"/>
<path d="M451.655 277.952L435.467 293.685" stroke="white" stroke-linecap="round" stroke-linejoin="round"/>
<path d="M458.349 368.582H398.439L390.299 302.149H466.489L458.349 368.582Z" fill="#3F522B"/>
<path d="M471.563 302.149H385.226V317.287H471.563V302.149Z" fill="white"/>
<path d="M428.394 302.149V234.452" stroke="#490543" stroke-miterlimit="10"/>
<path d="M465.292 237.291C470.103 216.993 457.478 196.654 437.091 191.864C416.705 187.073 396.278 199.644 391.466 219.942C386.655 240.24 399.281 260.578 419.667 265.369C440.053 270.159 460.48 257.588 465.292 237.291Z" fill="#8CC74B"/>
<path d="M428.476 258.687C445.307 258.687 458.952 245.102 458.952 228.344C458.952 211.585 445.307 198 428.476 198C411.645 198 398 211.585 398 228.344C398 245.102 411.645 258.687 428.476 258.687Z" fill="#F1FEE3"/>
<path d="M454.494 184.563C454.494 184.563 479.694 139.29 434.678 114.056" stroke="#8CC74B" stroke-linecap="round" stroke-linejoin="round" stroke-dasharray="6.22 3.11"/>
<path d="M269.381 0H149.472C140.635 0 133.472 7.16343 133.472 16V27.2406C133.472 36.0771 140.635 43.2406 149.472 43.2406H269.381C278.217 43.2406 285.381 36.0771 285.381 27.2406V16C285.381 7.16345 278.217 0 269.381 0Z" fill="white"/>
<path d="M162.753 23.1439C163.602 19.5653 161.376 15.9797 157.782 15.1351C154.187 14.2904 150.586 16.5067 149.738 20.0853C148.89 23.6638 151.115 27.2495 154.71 28.0941C158.304 28.9387 161.905 26.7224 162.753 23.1439Z" fill="#56891E"/>
<path d="M183.921 23.1471C184.769 19.5686 182.543 15.9829 178.949 15.1383C175.355 14.2937 171.754 16.51 170.905 20.0885C170.057 23.667 172.283 27.2527 175.877 28.0973C179.471 28.9419 183.072 26.7256 183.921 23.1471Z" fill="#56891E"/>
<path d="M205.088 23.142C205.936 19.5634 203.711 15.9777 200.116 15.1331C196.522 14.2885 192.921 16.5048 192.073 20.0834C191.224 23.6619 193.45 27.2476 197.044 28.0922C200.639 28.9368 204.24 26.7205 205.088 23.142Z" fill="#56891E"/>
<path d="M226.254 23.1534C227.102 19.5748 224.876 15.9892 221.282 15.1445C217.688 14.2999 214.086 16.5162 213.238 20.0948C212.39 23.6733 214.616 27.259 218.21 28.1036C221.804 28.9482 225.405 26.7319 226.254 23.1534Z" fill="#56891E"/>
<path d="M247.421 23.1482C248.269 19.5697 246.043 15.984 242.449 15.1394C238.855 14.2948 235.254 16.5111 234.406 20.0896C233.557 23.6681 235.783 27.2538 239.377 28.0984C242.972 28.943 246.573 26.7267 247.421 23.1482Z" fill="#56891E"/>
<path d="M268.589 23.1515C269.437 19.5729 267.211 15.9873 263.617 15.1427C260.023 14.2981 256.421 16.5143 255.573 20.0929C254.725 23.6714 256.951 27.2571 260.545 28.1017C264.139 28.9463 267.74 26.73 268.589 23.1515Z" fill="#56891E"/>
<path d="M412 88H398C397.735 88 397.48 87.8946 397.293 87.7071C397.105 87.5196 397 87.2652 397 87C397 86.7348 397.105 86.4804 397.293 86.2929C397.48 86.1054 397.735 86 398 86H408.44C409.109 86 409.758 85.7767 410.285 85.3654C410.813 84.9542 411.187 84.3786 411.35 83.73L413 77.24C413.037 77.0924 413.041 76.9382 413.01 76.7892C412.978 76.6401 412.913 76.5002 412.82 76.38C412.723 76.2567 412.598 76.1581 412.455 76.0921C412.313 76.0261 412.157 75.9945 412 76H397.76C397.554 75.4165 397.172 74.911 396.667 74.5529C396.162 74.1949 395.559 74.0017 394.94 74H394C393.735 74 393.48 74.1054 393.293 74.2929C393.105 74.4804 393 74.7348 393 75C393 75.2652 393.105 75.5196 393.293 75.7071C393.48 75.8946 393.735 76 394 76H394.94C395.168 75.9933 395.392 76.0651 395.574 76.2034C395.756 76.3417 395.885 76.5381 395.94 76.76L396 77.24L397.73 84C396.934 84.0358 396.186 84.3862 395.648 84.9741C395.111 85.5621 394.829 86.3394 394.865 87.135C394.901 87.9306 395.251 88.6795 395.839 89.2168C396.427 89.7541 397.204 90.0358 398 90H398.18C398.016 90.4531 397.963 90.9392 398.026 91.4171C398.089 91.895 398.267 92.3506 398.543 92.7454C398.82 93.1401 399.188 93.4624 399.615 93.6849C400.043 93.9074 400.518 94.0235 401 94.0235C401.482 94.0235 401.957 93.9074 402.385 93.6849C402.812 93.4624 403.18 93.1401 403.457 92.7454C403.733 92.3506 403.911 91.895 403.974 91.4171C404.037 90.9392 403.984 90.4531 403.82 90H406.18C406.016 90.4531 405.963 90.9392 406.026 91.4171C406.089 91.895 406.267 92.3506 406.543 92.7454C406.82 93.1401 407.188 93.4624 407.615 93.6849C408.043 93.9074 408.518 94.0235 409 94.0235C409.482 94.0235 409.957 93.9074 410.385 93.6849C410.812 93.4624 411.18 93.1401 411.457 92.7454C411.733 92.3506 411.911 91.895 411.974 91.4171C412.037 90.9392 411.984 90.4531 411.82 90H412C412.265 90 412.52 89.8946 412.707 89.7071C412.895 89.5196 413 89.2652 413 89C413 88.7348 412.895 88.4804 412.707 88.2929C412.52 88.1054 412.265 88 412 88ZM410.72 78L409.41 83.24C409.355 83.4619 409.226 83.6583 409.044 83.7966C408.862 83.9349 408.638 84.0067 408.41 84H399.78L398.28 78H410.72ZM401 92C400.802 92 400.609 91.9414 400.444 91.8315C400.28 91.7216 400.152 91.5654 400.076 91.3827C400 91.2 399.981 90.9989 400.019 90.8049C400.058 90.6109 400.153 90.4327 400.293 90.2929C400.433 90.153 400.611 90.0578 400.805 90.0192C400.999 89.9806 401.2 90.0004 401.383 90.0761C401.565 90.1518 401.722 90.28 401.831 90.4444C401.941 90.6089 402 90.8022 402 91C402 91.2652 401.895 91.5196 401.707 91.7071C401.52 91.8946 401.265 92 401 92ZM409 92C408.802 92 408.609 91.9414 408.444 91.8315C408.28 91.7216 408.152 91.5654 408.076 91.3827C408 91.2 407.981 90.9989 408.019 90.8049C408.058 90.6109 408.153 90.4327 408.293 90.2929C408.433 90.153 408.611 90.0578 408.805 90.0192C408.999 89.9806 409.2 90.0004 409.383 90.0761C409.565 90.1518 409.722 90.28 409.831 90.4444C409.941 90.6089 410 90.8022 410 91C410 91.2652 409.895 91.5196 409.707 91.7071C409.52 91.8946 409.265 92 409 92Z" fill="#8CC74B"/>
<path d="M291.083 81.3142C291.093 81.1903 291.093 81.0659 291.083 80.9421V80.9421L287.167 71.1504C287.014 70.7634 286.741 70.4351 286.389 70.2133C286.037 69.9914 285.623 69.8875 285.208 69.9167H257.792C257.399 69.9163 257.016 70.0337 256.691 70.2537C256.367 70.4736 256.116 70.786 255.97 71.1504L252.054 80.9421C252.044 81.0659 252.044 81.1903 252.054 81.3142C251.989 81.4232 251.942 81.5423 251.917 81.6667V81.6667C251.938 83.0204 252.311 84.3453 252.997 85.5122C253.684 86.6791 254.661 87.6483 255.833 88.325V107.125C255.833 107.644 256.04 108.142 256.407 108.51C256.774 108.877 257.272 109.083 257.792 109.083H285.208C285.728 109.083 286.226 108.877 286.593 108.51C286.96 108.142 287.167 107.644 287.167 107.125V88.4033C288.351 87.7198 289.335 86.7384 290.022 85.5566C290.709 84.3748 291.075 83.0337 291.083 81.6667V81.6667C291.102 81.5499 291.102 81.431 291.083 81.3142V81.3142ZM273.458 105.167H269.542V97.3333H273.458V105.167ZM283.25 105.167H277.375V95.375C277.375 94.8556 277.169 94.3575 276.801 93.9903C276.434 93.623 275.936 93.4167 275.417 93.4167H267.583C267.064 93.4167 266.566 93.623 266.199 93.9903C265.831 94.3575 265.625 94.8556 265.625 95.375V105.167H259.75V89.5C260.865 89.4937 261.966 89.2494 262.979 88.7833C263.993 88.3172 264.895 87.6402 265.625 86.7975C266.36 87.631 267.264 88.2986 268.277 88.7558C269.29 89.2131 270.389 89.4496 271.5 89.4496C272.611 89.4496 273.71 89.2131 274.723 88.7558C275.736 88.2986 276.64 87.631 277.375 86.7975C278.105 87.6402 279.007 88.3172 280.021 88.7833C281.034 89.2494 282.135 89.4937 283.25 89.5V105.167ZM283.25 85.5833C282.211 85.5833 281.215 85.1707 280.48 84.4362C279.746 83.7017 279.333 82.7054 279.333 81.6667C279.333 81.1473 279.127 80.6492 278.76 80.2819C278.392 79.9147 277.894 79.7083 277.375 79.7083C276.856 79.7083 276.357 79.9147 275.99 80.2819C275.623 80.6492 275.417 81.1473 275.417 81.6667C275.417 82.7054 275.004 83.7017 274.269 84.4362C273.535 85.1707 272.539 85.5833 271.5 85.5833C270.461 85.5833 269.465 85.1707 268.73 84.4362C267.996 83.7017 267.583 82.7054 267.583 81.6667C267.583 81.1473 267.377 80.6492 267.01 80.2819C266.642 79.9147 266.144 79.7083 265.625 79.7083C265.106 79.7083 264.607 79.9147 264.24 80.2819C263.873 80.6492 263.667 81.1473 263.667 81.6667C263.686 82.181 263.604 82.6941 263.425 83.1767C263.246 83.6593 262.973 84.1019 262.623 84.4792C262.273 84.8565 261.852 85.1612 261.385 85.3759C260.917 85.5905 260.411 85.7109 259.897 85.7302C258.858 85.7692 257.846 85.3939 257.084 84.6869C256.707 84.3368 256.402 83.9159 256.188 83.4481C255.973 82.9803 255.853 82.4748 255.833 81.9604L259.123 73.8333H283.877L287.167 81.9604C287.092 82.9475 286.647 83.8698 285.921 84.5419C285.194 85.214 284.24 85.5861 283.25 85.5833V85.5833Z" fill="#56891E"/>
<path d="M422.667 226.792C423.483 226.792 424.28 226.55 424.959 226.097C425.637 225.644 426.166 224.999 426.478 224.246C426.79 223.492 426.872 222.662 426.713 221.862C426.554 221.062 426.161 220.327 425.584 219.75C425.007 219.173 424.272 218.78 423.472 218.621C422.672 218.462 421.842 218.544 421.088 218.856C420.335 219.168 419.69 219.697 419.237 220.375C418.784 221.054 418.542 221.851 418.542 222.667C418.543 223.761 418.978 224.809 419.751 225.582C420.525 226.356 421.573 226.791 422.667 226.792V226.792ZM422.667 221.292C422.939 221.292 423.205 221.373 423.431 221.524C423.657 221.675 423.833 221.89 423.937 222.141C424.041 222.392 424.069 222.669 424.016 222.935C423.963 223.202 423.832 223.447 423.639 223.639C423.447 223.832 423.202 223.963 422.935 224.016C422.669 224.069 422.392 224.041 422.141 223.937C421.89 223.833 421.675 223.657 421.524 223.431C421.373 223.205 421.292 222.939 421.292 222.667C421.292 222.302 421.437 221.953 421.695 221.695C421.953 221.437 422.302 221.292 422.667 221.292V221.292ZM434.333 230.208C433.517 230.208 432.72 230.45 432.041 230.903C431.363 231.356 430.834 232.001 430.522 232.754C430.21 233.508 430.128 234.338 430.287 235.138C430.446 235.938 430.839 236.673 431.416 237.25C431.993 237.827 432.728 238.22 433.528 238.379C434.328 238.538 435.158 238.456 435.912 238.144C436.665 237.832 437.31 237.303 437.763 236.625C438.216 235.946 438.458 235.149 438.458 234.333C438.457 233.239 438.022 232.191 437.249 231.418C436.475 230.644 435.427 230.209 434.333 230.208V230.208ZM434.333 235.708C434.061 235.708 433.795 235.627 433.569 235.476C433.343 235.325 433.167 235.11 433.063 234.859C432.959 234.608 432.931 234.331 432.984 234.065C433.037 233.798 433.168 233.553 433.361 233.361C433.553 233.168 433.798 233.037 434.065 232.984C434.331 232.931 434.608 232.959 434.859 233.063C435.11 233.167 435.325 233.343 435.476 233.569C435.627 233.795 435.708 234.061 435.708 234.333C435.708 234.698 435.563 235.047 435.305 235.305C435.047 235.563 434.698 235.708 434.333 235.708V235.708ZM439.097 217.903C438.969 217.775 438.818 217.674 438.651 217.605C438.484 217.536 438.306 217.5 438.125 217.5C437.944 217.5 437.766 217.536 437.599 217.605C437.432 217.674 437.28 217.775 437.153 217.903L417.903 237.153C417.774 237.28 417.671 237.432 417.601 237.599C417.531 237.766 417.495 237.946 417.494 238.127C417.493 238.308 417.529 238.488 417.598 238.655C417.667 238.823 417.769 238.975 417.897 239.103C418.025 239.231 418.177 239.333 418.345 239.402C418.512 239.471 418.692 239.507 418.873 239.506C419.054 239.505 419.234 239.469 419.401 239.399C419.568 239.329 419.72 239.226 419.847 239.097L439.097 219.847C439.225 219.719 439.326 219.568 439.395 219.401C439.464 219.234 439.5 219.056 439.5 218.875C439.5 218.694 439.464 218.516 439.395 218.349C439.326 218.182 439.225 218.031 439.097 217.903V217.903Z" fill="#8CC74B"/>
<path d="M180.375 300.125L195 246.5H253.5L268.125 300.125H180.375Z" fill="#5771E5"/>
<path d="M180.375 241.625V270.875L165.36 288.62L126.75 334.25L103.953 320.576L144.264 265.604L161.85 241.625H180.375Z" fill="#FFCEB6"/>
<path d="M103.955 320.573L97.5 329.375L117 363.5L126.75 358.625V334.25L103.955 320.573Z" fill="#E6B47C"/>
<path d="M180.375 241.625V270.875L165.36 288.62L144.263 265.604L161.85 241.625H180.375Z" fill="#FFBFA1"/>
<path d="M43.875 309.875L58.5 256.25H117L131.625 309.875H43.875Z" fill="#5771E5"/>
<path d="M102.375 275.75H92.625V246.5C92.625 245.207 92.1114 243.967 91.1971 243.053C90.2829 242.139 89.0429 241.625 87.75 241.625C86.4571 241.625 85.2171 242.139 84.3029 243.053C83.3886 243.967 82.875 245.207 82.875 246.5V275.75H73.125V246.5C73.125 242.621 74.6658 238.901 77.4086 236.159C80.1513 233.416 83.8712 231.875 87.75 231.875C91.6288 231.875 95.3487 233.416 98.0914 236.159C100.834 238.901 102.375 242.621 102.375 246.5V275.75Z" fill="#89A8F5"/>
<path d="M209.095 287.529L204.75 344L180.375 353.75V290.375L161.795 270.107L134.952 240.821C130.684 236.164 127.929 230.323 127.052 224.067C126.175 217.812 127.217 211.438 130.041 205.788L136.5 192.875H180.375V238.377L187.511 248.682L205.682 274.933C208.233 278.615 209.439 283.063 209.095 287.529V287.529Z" fill="#FFCEB6"/>
<path d="M187.511 248.682L161.795 270.107L134.952 240.821C130.684 236.164 127.929 230.323 127.052 224.067C126.175 217.812 127.217 211.438 130.041 205.788L136.5 192.875H180.375V238.377L187.511 248.682Z" fill="#E8671C"/>
<path d="M234 231.875V221.508C234 218.65 233.371 215.826 232.159 213.237C230.946 210.649 229.18 208.358 226.984 206.528L204.75 188V178.25H180.375V197.75L209.625 217.25V222.125C209.625 224.711 210.652 227.191 212.481 229.019C214.309 230.848 216.789 231.875 219.375 231.875H234Z" fill="#FFCEB6"/>
<path d="M136.5 144.125V110C136.5 103.535 139.068 97.3355 143.639 92.7643C148.21 88.1931 154.41 85.625 160.875 85.625C167.34 85.625 173.54 88.1931 178.111 92.7643C182.682 97.3355 185.25 103.535 185.25 110V144.125H136.5Z" fill="#B36F42"/>
<path d="M204.75 153.875V178.25H180.375V192.875H136.5V173.375L121.875 158.75L109.956 176.623L102.375 188V217.25L107.25 227V241.625H87.75C86.4695 241.625 85.2015 241.373 84.0184 240.884C82.8353 240.394 81.7604 239.676 80.8549 238.77C79.9495 237.865 79.2313 236.79 78.7415 235.607C78.2516 234.423 77.9997 233.155 78 231.875V184.155C77.9996 180.305 79.1381 176.542 81.2723 173.338L89.377 161.188L101.461 143.059C103.243 140.388 105.656 138.198 108.487 136.683C111.317 135.169 114.478 134.376 117.689 134.375H185.25C190.422 134.376 195.381 136.43 199.038 140.087C202.695 143.744 204.749 148.703 204.75 153.875Z" fill="#FFCEB6"/>
<path d="M172.468 218.492C170.936 216.278 167.9 215.726 165.687 217.258C163.474 218.79 162.922 221.826 164.454 224.039L173.525 237.145C175.057 239.358 178.093 239.91 180.307 238.378C182.52 236.846 183.072 233.81 181.54 231.597L172.468 218.492Z" fill="#D64E13"/>
<path d="M180.375 353.75V368.375H224.25V358.625L204.75 344L180.375 353.75Z" fill="#E6B47C"/>
<path d="M204.75 153.875V178.25H180.375V192.875H136.5V173.375L121.875 158.75L109.956 176.623L89.3771 161.188L101.461 143.059C103.243 140.388 105.656 138.198 108.487 136.683C111.317 135.169 114.478 134.376 117.689 134.375H185.25C190.422 134.376 195.381 136.43 199.038 140.087C202.695 143.744 204.749 148.703 204.75 153.875Z" fill="#F5A431"/>
<path d="M165.75 114.875V136.812C165.75 138.752 164.98 140.612 163.608 141.983C162.237 143.355 160.377 144.125 158.438 144.125C156.498 144.125 154.638 143.355 153.267 141.983C151.895 140.612 151.125 138.752 151.125 136.812V114.875H165.75Z" fill="#FFCEB6"/>
<path d="M165.75 114.875V134.375H163.312C162.352 134.375 161.401 134.186 160.514 133.819C159.627 133.451 158.82 132.913 158.141 132.234C157.462 131.555 156.923 130.748 156.556 129.861C156.189 128.974 156 128.023 156 127.062V114.875H165.75Z" fill="#FFBFA1"/>
<path d="M151.125 110L156 105.125C156.64 106.405 157.526 107.547 158.608 108.485C159.689 109.423 160.945 110.139 162.303 110.591C163.661 111.044 165.095 111.225 166.523 111.123C167.951 111.022 169.345 110.64 170.625 110V119.75C170.625 122.336 169.598 124.816 167.769 126.644C165.941 128.473 163.461 129.5 160.875 129.5C158.289 129.5 155.809 128.473 153.981 126.644C152.152 124.816 151.125 122.336 151.125 119.75V110Z" fill="#FFCEB6"/>
<path d="M176.634 180.12C176.056 178.964 175.961 177.625 176.37 176.399C176.778 175.172 177.658 174.158 178.814 173.58L179.889 173.042C181.403 172.308 182.695 171.186 183.635 169.79C184.575 168.394 185.128 166.775 185.238 165.096C185.308 163.796 185.103 162.497 184.636 161.282C184.169 160.068 183.451 158.965 182.528 158.048L180.375 155.894C179.922 155.441 179.563 154.904 179.318 154.312C179.073 153.721 178.947 153.087 178.947 152.447C178.947 151.807 179.073 151.173 179.318 150.581C179.563 149.99 179.923 149.452 180.375 149C181.29 148.086 182.53 147.572 183.822 147.572C185.115 147.572 186.355 148.086 187.269 149L189.125 150.856C192.824 154.483 194.937 159.427 195 164.606C195.015 168.148 194.036 171.622 192.175 174.635C190.314 177.648 187.646 180.079 184.473 181.651L183.174 182.301C182.018 182.879 180.679 182.974 179.453 182.565C178.226 182.156 177.212 181.277 176.634 180.12Z" fill="#EB8117"/>
<path d="M238.875 266H229.125V236.75C229.125 235.457 228.611 234.217 227.697 233.303C226.783 232.389 225.543 231.875 224.25 231.875C222.957 231.875 221.717 232.389 220.803 233.303C219.889 234.217 219.375 235.457 219.375 236.75V266H209.625V236.75C209.625 232.871 211.166 229.151 213.909 226.409C216.651 223.666 220.371 222.125 224.25 222.125C228.129 222.125 231.849 223.666 234.591 226.409C237.334 229.151 238.875 232.871 238.875 236.75V266Z" fill="#89A8F5"/>
<path d="M81.2643 221.865C75.5606 231.533 63.2795 240.817 72.0745 254.266C78.1395 263.55 90.3282 266.812 85.582 280.018C83.7004 285.245 80.1051 289.218 81.1887 295.073C82.1296 300.183 86.1533 304.223 89.6981 307.744C92.739 310.78 97.6195 313.598 99.8792 317.337C103.575 323.384 99.8036 327.926 98.0479 333.931C96.3679 339.652 96.1159 345.983 99.2996 351.327C103.5 358.395 111.757 359.114 117.192 364.283C117.192 364.283 142.149 380.525 152.38 350.541C154.791 343.457 158.378 336.967 156.639 328.929C155.329 322.849 150.818 318.391 145.719 315.321C140.326 312.11 134.463 311.332 133.043 304.398C132.203 300.15 133.799 294.755 133.959 290.473C134.152 285.454 134.345 279.801 131.54 275.418C128.322 270.4 122.988 269.923 118.04 267.364C105.566 260.915 112.253 250.243 110.363 239.337C107.624 223.521 92.2854 225.026 81.4995 221.773L81.2643 221.865Z" fill="#CDF4A2"/>
<path d="M91.1934 246.772L138.991 368.063" stroke="white" stroke-linecap="round" stroke-linejoin="round"/>
<path d="M93.2262 288.741L112.11 299.849" stroke="white" stroke-linecap="round" stroke-linejoin="round"/>
<path d="M130.086 345.465L140.293 328.687" stroke="white" stroke-linecap="round" stroke-linejoin="round"/>
<path d="M105.793 283.832L110.808 268.585" stroke="white" stroke-linecap="round" stroke-linejoin="round"/>
<path d="M218.801 157.615V181.87" stroke="white" stroke-linecap="round" stroke-linejoin="round"/>
</svg>
