<svg width="425" height="369" viewBox="0 0 425 369" fill="none" xmlns="http://www.w3.org/2000/svg">
<g clip-path="url(#clip0_35_622)">
<path d="M277.083 109.083H266.333V105.5C266.333 101.699 264.823 98.0528 262.135 95.3648C259.447 92.6768 255.801 91.1667 252 91.1667C248.199 91.1667 244.553 92.6768 241.865 95.3648C239.177 98.0528 237.667 101.699 237.667 105.5V109.083H226.917C225.966 109.083 225.055 109.461 224.383 110.133C223.711 110.805 223.333 111.716 223.333 112.667V152.083C223.333 154.934 224.466 157.669 226.482 159.685C228.498 161.701 231.232 162.833 234.083 162.833H269.917C272.768 162.833 275.502 161.701 277.518 159.685C279.534 157.669 280.667 154.934 280.667 152.083V112.667C280.667 111.716 280.289 110.805 279.617 110.133C278.945 109.461 278.034 109.083 277.083 109.083ZM244.833 105.5C244.833 103.599 245.588 101.776 246.932 100.432C248.276 99.0884 250.099 98.3333 252 98.3333C253.901 98.3333 255.724 99.0884 257.068 100.432C258.412 101.776 259.167 103.599 259.167 105.5V109.083H244.833V105.5ZM273.5 152.083C273.5 153.034 273.122 153.945 272.45 154.617C271.778 155.289 270.867 155.667 269.917 155.667H234.083C233.133 155.667 232.222 155.289 231.55 154.617C230.878 153.945 230.5 153.034 230.5 152.083V116.25H237.667V119.833C237.667 120.784 238.044 121.695 238.716 122.367C239.388 123.039 240.3 123.417 241.25 123.417C242.2 123.417 243.112 123.039 243.784 122.367C244.456 121.695 244.833 120.784 244.833 119.833V116.25H259.167V119.833C259.167 120.784 259.544 121.695 260.216 122.367C260.888 123.039 261.8 123.417 262.75 123.417C263.7 123.417 264.612 123.039 265.284 122.367C265.956 121.695 266.333 120.784 266.333 119.833V116.25H273.5V152.083Z" fill="#CDF4A2"/>
<path d="M134.608 105.313H56.3403C48.9267 105.313 41.8168 108.251 36.5746 113.481C31.3324 118.712 28.3874 125.805 28.3874 133.202V228.024C28.3874 232.462 30.1544 236.718 33.2997 239.856C36.445 242.994 40.711 244.757 45.1591 244.757H56.3403V373.046H134.608V244.757H145.79C150.238 244.757 154.504 242.994 157.649 239.856C160.794 236.718 162.561 232.462 162.561 228.024V133.202C162.561 125.805 159.616 118.712 154.374 113.481C149.132 108.251 142.022 105.313 134.608 105.313Z" fill="#FFCEB6"/>
<path d="M56.3403 205.713H134.608V373.046H56.3403V205.713Z" fill="#718799"/>
<path d="M89.8838 233.602H101.065V373.046H89.8838V233.602Z" fill="#62798C"/>
<path d="M161.75 216.753V133.086C161.75 125.69 158.805 118.596 153.563 113.366C148.321 108.136 141.211 105.197 133.797 105.197H55.5292C48.1157 105.197 41.0057 108.136 35.7636 113.366C30.5214 118.596 27.5763 125.69 27.5763 133.086V216.753H55.5292V205.597H133.797V216.753H161.75Z" fill="#57A6DA"/>
<path d="M128.96 125.521L100.406 165.738L95.7061 172.362L91.0059 165.738L62.4523 125.521L86.3057 115.717H105.106L128.96 125.521Z" fill="#E5E7E9"/>
<path d="M100.877 115.312V165.423L95.7061 172.058L90.5356 165.423V115.312H100.877Z" fill="#CBCFD2"/>
<path d="M129.018 105.313V138.78L95.4744 112.006L61.9309 138.78V105.313H129.018Z" fill="#4398D0"/>
<path d="M78.7026 83.0019H112.246V99.7352C112.246 104.173 110.479 108.429 107.334 111.567C104.188 114.706 99.9225 116.469 95.4744 116.469C91.0262 116.469 86.7603 114.706 83.615 111.567C80.4697 108.429 78.7026 104.173 78.7026 99.7352V83.0019Z" fill="#FFCEB6"/>
<path d="M78.7026 83.0019V71.8463L92.2311 62.848C94.3459 61.4414 96.8307 60.6908 99.3723 60.6908C101.063 60.6908 102.737 61.023 104.299 61.6685C105.861 62.314 107.28 63.2601 108.475 64.4528C109.671 65.6455 110.619 67.0615 111.266 68.6198C111.913 70.1782 112.246 71.8484 112.246 73.5351V83.0019H78.7026Z" fill="#B1712C"/>
<path d="M55.0676 27.5078C55.0676 27.5078 9.47938 53.4321 43.7641 104.967" stroke="#8CC74B" stroke-linecap="round" stroke-linejoin="round" stroke-dasharray="6.22 3.11"/>
<path d="M12.2643 221.865C6.56057 231.533 -5.72054 240.817 3.07448 254.266C9.13943 263.55 21.3281 266.812 16.582 280.018C14.7004 285.245 11.1051 289.218 12.1887 295.073C13.1295 300.183 17.1532 304.223 20.6981 307.744C23.739 310.78 28.6195 313.599 30.8792 317.337C34.5752 323.384 30.8036 327.926 29.0479 333.931C27.3679 339.652 27.1159 345.983 30.2996 351.327C34.4997 358.395 42.757 359.114 48.192 364.283C48.192 364.283 73.149 380.525 83.3804 350.541C85.7913 343.457 89.3782 336.967 87.6394 328.929C86.3289 322.849 81.818 318.391 76.7191 315.321C71.3262 312.11 65.4628 311.332 64.0432 304.398C63.2032 300.15 64.7992 294.755 64.9588 290.473C65.152 285.455 65.3452 279.801 62.5395 275.418C59.3223 270.4 53.9881 269.923 49.0404 267.364C36.5661 260.915 43.2527 250.243 41.3626 239.337C38.6242 223.521 23.2854 225.027 12.4995 221.773L12.2643 221.865Z" fill="#CDF4A2"/>
<path d="M22.1933 246.772L69.9905 368.063" stroke="white" stroke-linecap="round" stroke-linejoin="round"/>
<path d="M24.2262 288.741L43.1099 299.849" stroke="white" stroke-linecap="round" stroke-linejoin="round"/>
<path d="M61.0863 345.465L71.2926 328.687" stroke="white" stroke-linecap="round" stroke-linejoin="round"/>
<path d="M36.7929 283.832L41.8078 268.585" stroke="white" stroke-linecap="round" stroke-linejoin="round"/>
<path d="M149.801 157.615V181.87" stroke="white" stroke-linecap="round" stroke-linejoin="round"/>
<path d="M370.802 134.907H126.23V368.665H370.802V134.907Z" fill="white"/>
<path d="M175.295 126.435L175.447 140.043L192.558 139.959L192.911 126.56L175.295 126.435Z" fill="#F1FEE3"/>
<path d="M178.908 139.808L179.134 131.035" stroke="#490543" stroke-linecap="round" stroke-linejoin="round"/>
<path d="M183.503 139.373L183.729 130.6" stroke="#490543" stroke-linecap="round" stroke-linejoin="round"/>
<path d="M188.089 139.29L188.316 130.516" stroke="#490543" stroke-linecap="round" stroke-linejoin="round"/>
<path d="M338.024 179.31H159.411V206.651H338.024V179.31Z" fill="#CDF4A2"/>
<path d="M338.024 218.135H159.411V245.476H338.024V218.135Z" fill="#CDF4A2"/>
<path d="M338.024 258.164H159.411V285.505H338.024V258.164Z" fill="#CDF4A2"/>
<path d="M302.483 304.934H194.96V332.275H302.483V304.934Z" fill="#8CC74B"/>
<path d="M357.864 107.183C371.278 93.8269 371.278 72.1731 357.864 58.8174C344.45 45.4617 322.702 45.4617 309.288 58.8174C295.874 72.1731 295.874 93.8269 309.288 107.183C322.702 120.538 344.45 120.538 357.864 107.183Z" fill="white"/>
<path d="M17.8 368.582H425" stroke="#CDF4A2" stroke-miterlimit="10"/>
<path d="M359.394 301.99C359.394 301.99 359.394 273.193 330.061 269.63C327.583 293.643 359.394 301.99 359.394 301.99Z" fill="#20B75A"/>
<path d="M336.269 277.626L352.464 293.358" stroke="white" stroke-linecap="round" stroke-linejoin="round"/>
<path d="M359.504 302.316C359.504 302.316 359.504 273.528 388.829 269.957C391.307 294.011 359.504 302.316 359.504 302.316Z" fill="#20B75A"/>
<path d="M382.655 277.952L366.467 293.685" stroke="white" stroke-linecap="round" stroke-linejoin="round"/>
<path d="M389.349 368.582H329.439L321.299 302.149H397.489L389.349 368.582Z" fill="#3F522B"/>
<path d="M402.563 302.149H316.226V317.287H402.563V302.149Z" fill="#56891E"/>
<path d="M359.394 302.149V234.453" stroke="#490543" stroke-miterlimit="10"/>
<path d="M396.292 237.291C401.103 216.993 388.478 196.654 368.091 191.864C347.705 187.073 327.278 199.644 322.466 219.942C317.655 240.24 330.281 260.578 350.667 265.369C371.053 270.159 391.48 257.588 396.292 237.291Z" fill="#8CC74B"/>
<path d="M359.476 258.687C376.307 258.687 389.952 245.102 389.952 228.344C389.952 211.585 376.307 198 359.476 198C342.645 198 329 211.585 329 228.344C329 245.102 342.645 258.687 359.476 258.687Z" fill="#F1FEE3"/>
<path d="M385.494 184.563C385.494 184.563 410.694 139.29 365.678 114.056" stroke="#8CC74B" stroke-linecap="round" stroke-linejoin="round" stroke-dasharray="6.22 3.11"/>
<path d="M200.381 0H80.4716C71.635 0 64.4716 7.16343 64.4716 16V27.2406C64.4716 36.0771 71.635 43.2406 80.4716 43.2406H200.381C209.217 43.2406 216.381 36.0771 216.381 27.2406V16C216.381 7.16345 209.217 0 200.381 0Z" fill="white"/>
<path d="M93.7534 23.1439C94.6017 19.5653 92.3757 15.9797 88.7816 15.1351C85.1874 14.2904 81.5861 16.5067 80.7378 20.0853C79.8895 23.6638 82.1155 27.2495 85.7096 28.0941C89.3038 28.9387 92.9051 26.7224 93.7534 23.1439Z" fill="#56891E"/>
<path d="M114.921 23.1471C115.769 19.5686 113.543 15.9829 109.949 15.1383C106.355 14.2937 102.754 16.51 101.905 20.0885C101.057 23.667 103.283 27.2527 106.877 28.0973C110.471 28.9419 114.072 26.7256 114.921 23.1471Z" fill="#56891E"/>
<path d="M136.088 23.142C136.936 19.5634 134.711 15.9777 131.116 15.1331C127.522 14.2885 123.921 16.5048 123.073 20.0834C122.224 23.6619 124.45 27.2476 128.044 28.0922C131.639 28.9368 135.24 26.7205 136.088 23.142Z" fill="#56891E"/>
<path d="M157.254 23.1534C158.102 19.5748 155.876 15.9892 152.282 15.1445C148.688 14.2999 145.086 16.5162 144.238 20.0948C143.39 23.6733 145.616 27.259 149.21 28.1036C152.804 28.9482 156.405 26.7319 157.254 23.1534Z" fill="white"/>
<path d="M178.421 23.1482C179.269 19.5697 177.043 15.984 173.449 15.1394C169.855 14.2948 166.254 16.5111 165.406 20.0896C164.557 23.6681 166.783 27.2538 170.377 28.0984C173.972 28.943 177.573 26.7267 178.421 23.1482Z" fill="#56891E"/>
<path d="M199.589 23.1515C200.437 19.5729 198.211 15.9873 194.617 15.1427C191.023 14.2981 187.421 16.5143 186.573 20.0929C185.725 23.6714 187.951 27.2571 191.545 28.1017C195.139 28.9463 198.74 26.73 199.589 23.1515Z" fill="#56891E"/>
<path d="M343 88H329C328.735 88 328.48 87.8946 328.293 87.7071C328.105 87.5196 328 87.2652 328 87C328 86.7348 328.105 86.4804 328.293 86.2929C328.48 86.1054 328.735 86 329 86H339.44C340.109 86 340.758 85.7767 341.285 85.3654C341.813 84.9542 342.187 84.3786 342.35 83.73L344 77.24C344.037 77.0924 344.041 76.9382 344.01 76.7892C343.978 76.6401 343.913 76.5002 343.82 76.38C343.723 76.2567 343.598 76.1581 343.455 76.0921C343.313 76.0261 343.157 75.9945 343 76H328.76C328.554 75.4165 328.172 74.911 327.667 74.5529C327.162 74.1949 326.559 74.0017 325.94 74H325C324.735 74 324.48 74.1054 324.293 74.2929C324.105 74.4804 324 74.7348 324 75C324 75.2652 324.105 75.5196 324.293 75.7071C324.48 75.8946 324.735 76 325 76H325.94C326.168 75.9933 326.392 76.0651 326.574 76.2034C326.756 76.3417 326.885 76.5381 326.94 76.76L327 77.24L328.73 84C327.934 84.0358 327.186 84.3862 326.648 84.9741C326.111 85.5621 325.829 86.3394 325.865 87.135C325.901 87.9306 326.251 88.6795 326.839 89.2168C327.427 89.7541 328.204 90.0358 329 90H329.18C329.016 90.4531 328.963 90.9392 329.026 91.4171C329.089 91.895 329.267 92.3506 329.543 92.7454C329.82 93.1401 330.188 93.4624 330.615 93.6849C331.043 93.9074 331.518 94.0235 332 94.0235C332.482 94.0235 332.957 93.9074 333.385 93.6849C333.812 93.4624 334.18 93.1401 334.457 92.7454C334.733 92.3506 334.911 91.895 334.974 91.4171C335.037 90.9392 334.984 90.4531 334.82 90H337.18C337.016 90.4531 336.963 90.9392 337.026 91.4171C337.089 91.895 337.267 92.3506 337.543 92.7454C337.82 93.1401 338.188 93.4624 338.615 93.6849C339.043 93.9074 339.518 94.0235 340 94.0235C340.482 94.0235 340.957 93.9074 341.385 93.6849C341.812 93.4624 342.18 93.1401 342.457 92.7454C342.733 92.3506 342.911 91.895 342.974 91.4171C343.037 90.9392 342.984 90.4531 342.82 90H343C343.265 90 343.52 89.8946 343.707 89.7071C343.895 89.5196 344 89.2652 344 89C344 88.7348 343.895 88.4804 343.707 88.2929C343.52 88.1054 343.265 88 343 88ZM341.72 78L340.41 83.24C340.355 83.4619 340.226 83.6583 340.044 83.7966C339.862 83.9349 339.638 84.0067 339.41 84H330.78L329.28 78H341.72ZM332 92C331.802 92 331.609 91.9414 331.444 91.8315C331.28 91.7216 331.152 91.5654 331.076 91.3827C331 91.2 330.981 90.9989 331.019 90.8049C331.058 90.6109 331.153 90.4327 331.293 90.2929C331.433 90.153 331.611 90.0578 331.805 90.0192C331.999 89.9806 332.2 90.0004 332.383 90.0761C332.565 90.1518 332.722 90.28 332.831 90.4444C332.941 90.6089 333 90.8022 333 91C333 91.2652 332.895 91.5196 332.707 91.7071C332.52 91.8946 332.265 92 332 92ZM340 92C339.802 92 339.609 91.9414 339.444 91.8315C339.28 91.7216 339.152 91.5654 339.076 91.3827C339 91.2 338.981 90.9989 339.019 90.8049C339.058 90.6109 339.153 90.4327 339.293 90.2929C339.433 90.153 339.611 90.0578 339.805 90.0192C339.999 89.9806 340.2 90.0004 340.383 90.0761C340.565 90.1518 340.722 90.28 340.831 90.4444C340.941 90.6089 341 90.8022 341 91C341 91.2652 340.895 91.5196 340.707 91.7071C340.52 91.8946 340.265 92 340 92Z" fill="#8CC74B"/>
<path d="M222.083 81.3142C222.093 81.1903 222.093 81.0659 222.083 80.9421V80.9421L218.167 71.1504C218.014 70.7634 217.741 70.4351 217.389 70.2133C217.037 69.9914 216.623 69.8875 216.208 69.9167H188.792C188.399 69.9163 188.016 70.0337 187.691 70.2537C187.367 70.4736 187.116 70.786 186.97 71.1504L183.054 80.9421C183.044 81.0659 183.044 81.1903 183.054 81.3142C182.989 81.4232 182.942 81.5423 182.917 81.6667V81.6667C182.938 83.0204 183.311 84.3453 183.997 85.5122C184.684 86.6791 185.661 87.6483 186.833 88.325V107.125C186.833 107.644 187.04 108.142 187.407 108.51C187.774 108.877 188.272 109.083 188.792 109.083H216.208C216.728 109.083 217.226 108.877 217.593 108.51C217.96 108.142 218.167 107.644 218.167 107.125V88.4033C219.351 87.7198 220.335 86.7384 221.022 85.5566C221.709 84.3748 222.075 83.0337 222.083 81.6667V81.6667C222.102 81.5499 222.102 81.431 222.083 81.3142V81.3142ZM204.458 105.167H200.542V97.3333H204.458V105.167ZM214.25 105.167H208.375V95.375C208.375 94.8556 208.169 94.3575 207.801 93.9903C207.434 93.623 206.936 93.4167 206.417 93.4167H198.583C198.064 93.4167 197.566 93.623 197.199 93.9903C196.831 94.3575 196.625 94.8556 196.625 95.375V105.167H190.75V89.5C191.865 89.4937 192.966 89.2494 193.979 88.7833C194.993 88.3172 195.895 87.6402 196.625 86.7975C197.36 87.631 198.264 88.2986 199.277 88.7558C200.29 89.2131 201.389 89.4496 202.5 89.4496C203.611 89.4496 204.71 89.2131 205.723 88.7558C206.736 88.2986 207.64 87.631 208.375 86.7975C209.105 87.6402 210.007 88.3172 211.021 88.7833C212.034 89.2494 213.135 89.4937 214.25 89.5V105.167ZM214.25 85.5833C213.211 85.5833 212.215 85.1707 211.48 84.4362C210.746 83.7017 210.333 82.7054 210.333 81.6667C210.333 81.1473 210.127 80.6492 209.76 80.2819C209.392 79.9147 208.894 79.7083 208.375 79.7083C207.856 79.7083 207.357 79.9147 206.99 80.2819C206.623 80.6492 206.417 81.1473 206.417 81.6667C206.417 82.7054 206.004 83.7017 205.269 84.4362C204.535 85.1707 203.539 85.5833 202.5 85.5833C201.461 85.5833 200.465 85.1707 199.73 84.4362C198.996 83.7017 198.583 82.7054 198.583 81.6667C198.583 81.1473 198.377 80.6492 198.01 80.2819C197.642 79.9147 197.144 79.7083 196.625 79.7083C196.106 79.7083 195.607 79.9147 195.24 80.2819C194.873 80.6492 194.667 81.1473 194.667 81.6667C194.686 82.181 194.604 82.6941 194.425 83.1767C194.246 83.6593 193.973 84.1019 193.623 84.4792C193.273 84.8565 192.852 85.1612 192.385 85.3759C191.917 85.5905 191.411 85.7109 190.897 85.7302C189.858 85.7692 188.846 85.3939 188.084 84.6869C187.707 84.3368 187.402 83.9159 187.188 83.4481C186.973 82.9803 186.853 82.4748 186.833 81.9604L190.123 73.8333H214.877L218.167 81.9604C218.092 82.9475 217.647 83.8698 216.921 84.5419C216.194 85.214 215.24 85.5861 214.25 85.5833V85.5833Z" fill="#56891E"/>
<path d="M353.667 226.792C354.483 226.792 355.28 226.55 355.959 226.097C356.637 225.644 357.166 224.999 357.478 224.246C357.79 223.492 357.872 222.662 357.713 221.862C357.554 221.062 357.161 220.327 356.584 219.75C356.007 219.173 355.272 218.78 354.472 218.621C353.672 218.462 352.842 218.544 352.088 218.856C351.335 219.168 350.69 219.697 350.237 220.375C349.784 221.054 349.542 221.851 349.542 222.667C349.543 223.761 349.978 224.809 350.752 225.582C351.525 226.356 352.573 226.791 353.667 226.792V226.792ZM353.667 221.292C353.939 221.292 354.205 221.373 354.431 221.524C354.657 221.675 354.833 221.89 354.937 222.141C355.041 222.392 355.069 222.669 355.016 222.935C354.963 223.202 354.832 223.447 354.639 223.639C354.447 223.832 354.202 223.963 353.935 224.016C353.669 224.069 353.392 224.041 353.141 223.937C352.89 223.833 352.675 223.657 352.524 223.431C352.373 223.205 352.292 222.939 352.292 222.667C352.292 222.302 352.437 221.953 352.695 221.695C352.953 221.437 353.302 221.292 353.667 221.292V221.292ZM365.333 230.208C364.517 230.208 363.72 230.45 363.041 230.903C362.363 231.356 361.834 232.001 361.522 232.754C361.21 233.508 361.128 234.338 361.287 235.138C361.446 235.938 361.839 236.673 362.416 237.25C362.993 237.827 363.728 238.22 364.528 238.379C365.328 238.538 366.158 238.456 366.912 238.144C367.665 237.832 368.31 237.303 368.763 236.625C369.216 235.946 369.458 235.149 369.458 234.333C369.457 233.239 369.022 232.191 368.249 231.418C367.475 230.644 366.427 230.209 365.333 230.208V230.208ZM365.333 235.708C365.061 235.708 364.795 235.627 364.569 235.476C364.343 235.325 364.167 235.11 364.063 234.859C363.959 234.608 363.931 234.331 363.984 234.065C364.038 233.798 364.168 233.553 364.361 233.361C364.553 233.168 364.798 233.037 365.065 232.984C365.332 232.931 365.608 232.959 365.859 233.063C366.11 233.167 366.325 233.343 366.476 233.569C366.627 233.795 366.708 234.061 366.708 234.333C366.708 234.698 366.563 235.047 366.305 235.305C366.047 235.563 365.698 235.708 365.333 235.708V235.708ZM370.097 217.903C369.97 217.775 369.818 217.674 369.651 217.605C369.484 217.536 369.306 217.5 369.125 217.5C368.944 217.5 368.766 217.536 368.599 217.605C368.432 217.674 368.28 217.775 368.153 217.903L348.903 237.153C348.774 237.28 348.671 237.432 348.601 237.599C348.531 237.766 348.495 237.946 348.494 238.127C348.493 238.308 348.529 238.488 348.598 238.655C348.667 238.823 348.769 238.975 348.897 239.103C349.025 239.231 349.177 239.333 349.345 239.402C349.512 239.471 349.692 239.507 349.873 239.506C350.054 239.505 350.234 239.469 350.401 239.399C350.568 239.329 350.72 239.226 350.847 239.097L370.097 219.847C370.225 219.719 370.326 219.568 370.395 219.401C370.464 219.234 370.5 219.056 370.5 218.875C370.5 218.694 370.464 218.516 370.395 218.349C370.326 218.182 370.225 218.031 370.097 217.903V217.903Z" fill="#8CC74B"/>
</g>
<defs>
<clipPath id="clip0_35_622">
<rect width="425" height="369" fill="white"/>
</clipPath>
</defs>
</svg>
