<svg width="16" height="16" viewBox="0 0 16 16" fill="none" xmlns="http://www.w3.org/2000/svg">
<g clip-path="url(#clip0_15_364)">
<path d="M3.23575 4.15638e-08C3.41324 4.09022e-06 3.58632 0.0518635 3.73089 0.148362C3.87547 0.24486 3.98435 0.381197 4.04239 0.5384L6.42645 6.9936C6.4987 7.19368 6.48359 7.41243 6.38441 7.60211C6.28523 7.79179 6.11004 7.93702 5.89705 8.00609C5.68406 8.07516 5.45056 8.06249 5.24751 7.97082C5.04445 7.87916 4.88832 7.71595 4.81317 7.5168L4.4615 6.5648H2.00915L1.65833 7.5168C1.58318 7.71595 1.42705 7.87916 1.224 7.97082C1.02094 8.06249 0.787447 8.07516 0.574456 8.00609C0.361466 7.93702 0.186268 7.79179 0.0870889 7.60211C-0.0120903 7.41243 -0.0272006 7.19368 0.0450546 6.9936L2.42911 0.5376C2.4873 0.380546 2.59624 0.244382 2.7408 0.148036C2.88537 0.0516891 3.05836 -5.35345e-05 3.23575 4.15638e-08V4.15638e-08ZM3.23575 3.2456L2.60068 4.9656H3.87082L3.23575 3.2456V3.2456ZM1.28531 8.8C1.05893 8.8 0.841815 8.88429 0.681737 9.03431C0.521659 9.18434 0.431728 9.38783 0.431728 9.6C0.431728 9.81217 0.521659 10.0157 0.681737 10.1657C0.841815 10.3157 1.05893 10.4 1.28531 10.4H4.06031L0.603299 14.72C0.508186 14.8389 0.450267 14.9802 0.436031 15.1282C0.421795 15.2761 0.451804 15.4249 0.522697 15.5578C0.59359 15.6907 0.702564 15.8024 0.83741 15.8805C0.972256 15.9586 1.12764 16 1.28617 16H5.76748C5.99387 16 6.21098 15.9157 6.37106 15.7657C6.53113 15.6157 6.62107 15.4122 6.62107 15.2C6.62107 14.9878 6.53113 14.7843 6.37106 14.6343C6.21098 14.4843 5.99387 14.4 5.76748 14.4H2.99333L6.45035 10.08C6.54546 9.96114 6.60338 9.81981 6.61762 9.67184C6.63185 9.52388 6.60184 9.37511 6.53095 9.24223C6.46006 9.10934 6.35108 8.99759 6.21624 8.91948C6.08139 8.84137 5.926 8.8 5.76748 8.8H1.28617H1.28531ZM7.72475 11.4344C7.88482 11.2844 8.10189 11.2002 8.32823 11.2002C8.55457 11.2002 8.77165 11.2844 8.93172 11.4344L10.8881 13.268V0.8C10.8881 0.587827 10.9781 0.384344 11.1381 0.234315C11.2982 0.0842855 11.5153 4.15638e-08 11.7417 4.15638e-08C11.9681 4.15638e-08 12.1852 0.0842855 12.3453 0.234315C12.5054 0.384344 12.5953 0.587827 12.5953 0.8V13.2688L14.5534 11.4344C14.7144 11.2887 14.93 11.208 15.1538 11.2099C15.3776 11.2117 15.5917 11.2958 15.75 11.4441C15.9083 11.5925 15.998 11.7931 16 12.0029C16.0019 12.2126 15.9159 12.4147 15.7604 12.5656L12.3461 15.7656C12.186 15.9156 11.9689 15.9998 11.7426 15.9998C11.5162 15.9998 11.2992 15.9156 11.1391 15.7656L7.72475 12.5656C7.56473 12.4156 7.47483 12.2121 7.47483 12C7.47483 11.7879 7.56473 11.5844 7.72475 11.4344Z" fill="#B3B8C2"/>
</g>
<defs>
<clipPath id="clip0_15_364">
<rect width="16" height="16" fill="white"/>
</clipPath>
</defs>
</svg>
