<svg width="95" height="96" viewBox="0 0 95 96" fill="none" xmlns="http://www.w3.org/2000/svg">
<path d="M74.2188 49.5H38.5938C38.5938 43.963 39.9466 38.5117 42.5322 33.63C45.1177 28.7483 48.856 24.5871 53.4152 21.516L56.4062 19.5L59.3973 21.516C63.9565 24.5871 67.6948 28.7483 70.2803 33.63C72.8659 38.5117 74.2187 43.963 74.2188 49.5V49.5Z" fill="#D0D8DA"/>
<path d="M72.2594 38.16L49.3258 24.78C50.5926 23.5754 51.9582 22.4815 53.4078 21.51L56.4063 19.5L59.4047 21.51C65.3502 25.5184 69.8581 31.3573 72.2594 38.16V38.16Z" fill="#93999A"/>
<path d="M74.2188 49.4999H38.5938C38.5862 41.5725 41.3576 33.8987 46.4164 27.8399C47.2865 31.8523 49.4873 35.4438 52.654 38.0191C55.8208 40.5945 59.7633 41.999 63.8281 41.9999H73.3727C73.9389 44.4587 74.2228 46.9753 74.2188 49.4999V49.4999Z" fill="#93999A"/>
<path d="M74.9149 91.5H37.8976C36.4513 91.5001 35.0547 90.9668 33.9699 90.0002C32.8852 89.0335 32.1869 87.7 32.0061 86.25L28.2031 55.5H84.6094L80.8064 86.25C80.6256 87.7 79.9273 89.0335 78.8426 90.0002C77.7578 90.9668 76.3612 91.5001 74.9149 91.5Z" fill="#D0D8DA"/>
<path d="M83.8672 61.5H44.5312C45.3579 66.9284 48.0798 71.8786 52.2045 75.4552C56.3292 79.0319 61.5844 80.9987 67.0195 81H81.4625L80.8094 86.25C80.6286 87.7003 79.93 89.034 78.845 90.0007C77.7599 90.9674 76.3629 91.5005 74.9164 91.5H37.8961C36.4496 91.5005 35.0526 90.9674 33.9675 90.0007C32.8825 89.034 32.1839 87.7003 32.0031 86.25L28.2031 55.5H84.6094L83.8672 61.5Z" fill="#93999A"/>
<path d="M86.0938 49.5H26.7188C25.0792 49.5 23.75 50.8431 23.75 52.5C23.75 54.1569 25.0792 55.5 26.7188 55.5H86.0938C87.7333 55.5 89.0625 54.1569 89.0625 52.5C89.0625 50.8431 87.7333 49.5 86.0938 49.5Z" fill="#E9F1F2"/>
<path d="M65.3125 49.5H47.5V46.5C47.5 36.7633 50.6251 27.2893 56.4062 19.5C62.1874 27.2893 65.3125 36.7633 65.3125 46.5V49.5Z" fill="#E9F1F2"/>
<path d="M80.8064 86.2501L83.2111 66.8086C79.5032 66.3415 75.7479 67.1545 72.5548 69.1156C70.2361 70.4838 67.626 71.2689 64.9442 71.4046C62.2625 71.5404 59.5878 71.0228 57.1455 69.8956L48.1576 65.9221C46.0758 65.0019 43.8294 64.5228 41.5572 64.5143C39.285 64.5058 37.0351 64.9681 34.9466 65.8726L29.7647 68.1226L32.0061 86.2501C32.1869 87.7001 32.8852 89.0336 33.9699 90.0002C35.0547 90.9669 36.4513 91.5002 37.8976 91.5001H74.9149C76.3612 91.5002 77.7578 90.9669 78.8425 90.0002C79.9273 89.0336 80.6256 87.7001 80.8064 86.2501Z" fill="#FCBC04"/>
<path d="M81.4625 81.0001L80.8094 86.2501C80.6286 87.7004 79.93 89.0341 78.845 90.0008C77.7599 90.9675 76.3629 91.5006 74.9164 91.5001H37.8961C36.4496 91.5006 35.0526 90.9675 33.9675 90.0008C32.8825 89.0341 32.1839 87.7004 32.0031 86.2501L29.7617 68.1151L34.9422 65.8651C38.2196 64.443 41.8637 64.1273 45.3328 64.9651C46.7957 69.6178 49.6856 73.6793 53.5844 76.5621C57.4832 79.4448 62.1885 80.9991 67.0195 81.0001H81.4625Z" fill="#E59730"/>
<path d="M89.0625 52.5C89.0567 53.2938 88.742 54.0535 88.1865 54.6148C87.631 55.1761 86.8793 55.4941 86.0938 55.5H26.7188C25.9321 55.4976 25.1784 55.1808 24.6221 54.6187C24.0659 54.0566 23.7523 53.2949 23.75 52.5C23.7559 51.7165 24.0624 50.9659 24.6051 50.4062C25.1478 49.8466 25.8843 49.5217 26.6594 49.5C26.6617 50.2949 26.9753 51.0566 27.5315 51.6187C28.0877 52.1808 28.8415 52.4976 29.6281 52.5H89.0625Z" fill="#D0D8DA"/>
<path d="M46.3377 16.5H46.0156V16.833C46.1225 16.722 46.2294 16.608 46.3377 16.5Z" fill="#D0D8DA"/>
<path d="M63.2195 32.88L52.1906 26.445C53.3836 24.0051 54.7946 21.6804 56.4062 19.5C59.269 23.3733 61.5037 27.6821 63.0266 32.265C63.1008 32.475 63.1601 32.67 63.2195 32.88V32.88Z" fill="#D0D8DA"/>
<path d="M65.3125 46.5001V49.5001H47.5V46.5001C47.5035 42.3569 48.0678 38.2337 49.1773 34.2451C50.8173 36.638 53.0069 38.5936 55.5585 39.9442C58.1101 41.2948 60.9477 42.0003 63.8281 42.0001H65.075C65.2363 43.4945 65.3156 44.9968 65.3125 46.5001V46.5001Z" fill="#D0D8DA"/>
<path d="M72.7344 84C73.5542 84 74.2188 83.3284 74.2188 82.5C74.2188 81.6716 73.5542 81 72.7344 81C71.9146 81 71.25 81.6716 71.25 82.5C71.25 83.3284 71.9146 84 72.7344 84Z" fill="#B27525"/>
<path d="M60.8594 79.5C61.6792 79.5 62.3438 78.8284 62.3438 78C62.3438 77.1716 61.6792 76.5 60.8594 76.5C60.0396 76.5 59.375 77.1716 59.375 78C59.375 78.8284 60.0396 79.5 60.8594 79.5Z" fill="#E59730"/>
<path d="M65.3125 87C66.1323 87 66.7969 86.3284 66.7969 85.5C66.7969 84.6716 66.1323 84 65.3125 84C64.4927 84 63.8281 84.6716 63.8281 85.5C63.8281 86.3284 64.4927 87 65.3125 87Z" fill="#B27525"/>
<path d="M48.9844 85.5C49.8042 85.5 50.4688 84.8284 50.4688 84C50.4688 83.1716 49.8042 82.5 48.9844 82.5C48.1646 82.5 47.5 83.1716 47.5 84C47.5 84.8284 48.1646 85.5 48.9844 85.5Z" fill="#B27525"/>
<path d="M53.4375 73.5C54.2573 73.5 54.9219 72.8284 54.9219 72C54.9219 71.1716 54.2573 70.5 53.4375 70.5C52.6177 70.5 51.9531 71.1716 51.9531 72C51.9531 72.8284 52.6177 73.5 53.4375 73.5Z" fill="#E59730"/>
<path d="M46.0156 75C46.8354 75 47.5 74.3284 47.5 73.5C47.5 72.6716 46.8354 72 46.0156 72C45.1958 72 44.5312 72.6716 44.5312 73.5C44.5312 74.3284 45.1958 75 46.0156 75Z" fill="#B27525"/>
<path d="M74.2188 76.5C75.0385 76.5 75.7031 75.8284 75.7031 75C75.7031 74.1716 75.0385 73.5 74.2188 73.5C73.399 73.5 72.7344 74.1716 72.7344 75C72.7344 75.8284 73.399 76.5 74.2188 76.5Z" fill="#E59730"/>
<path d="M42.8584 15C45.6141 10.1766 50.1532 6.65694 55.4769 5.2154C58.113 4.50162 60.8624 4.3195 63.5681 4.67945C66.2738 5.0394 68.8828 5.93436 71.2463 7.31324C73.6097 8.69212 75.6813 10.5279 77.3426 12.7158C79.004 14.9037 80.2226 17.4008 80.929 20.0646C81.6353 22.7285 81.8155 25.5068 81.4593 28.241C81.1031 30.9752 80.2175 33.6117 78.853 36L42.8584 15Z" fill="#F9E109"/>
<path d="M39.6432 28.6814C39.3694 28.968 39.0418 29.1965 38.6796 29.3537C38.3174 29.511 37.9278 29.5937 37.5336 29.5972C37.1394 29.6006 36.7485 29.5247 36.3837 29.3739C36.0188 29.2231 35.6873 29.0003 35.4086 28.7186C35.1299 28.4369 34.9094 28.102 34.7601 27.7333C34.6109 27.3646 34.5358 26.9696 34.5392 26.5712C34.5426 26.1729 34.6245 25.7792 34.7801 25.4132C34.9357 25.0472 35.1619 24.7162 35.4454 24.4394C36.6047 23.2679 41.7421 22.3184 41.7421 22.3184C41.7421 22.3184 40.8025 27.5099 39.6432 28.6814Z" fill="#F9E109"/>
<path d="M89.677 39.879C90.2178 40.4448 90.5171 41.2026 90.5103 41.9892C90.5035 42.7758 90.1913 43.5282 89.6409 44.0845C89.0904 44.6407 88.3458 44.9562 87.5675 44.963C86.7891 44.9699 86.0391 44.6675 85.4792 44.121C84.3199 42.9495 83.3803 37.758 83.3803 37.758C83.3803 37.758 88.5177 38.7075 89.677 39.879V39.879Z" fill="#F9E109"/>
<path d="M30.7369 40.6814C30.4631 40.968 30.1355 41.1965 29.7733 41.3537C29.4111 41.511 29.0215 41.5937 28.6273 41.5972C28.2332 41.6006 27.8422 41.5247 27.4774 41.3739C27.1125 41.2231 26.7811 41.0003 26.5023 40.7186C26.2236 40.4369 26.0031 40.102 25.8539 39.7333C25.7046 39.3646 25.6295 38.9696 25.6329 38.5712C25.6363 38.1729 25.7182 37.7792 25.8738 37.4132C26.0294 37.0472 26.2556 36.7162 26.5391 36.4394C27.6984 35.2679 32.8358 34.3184 32.8358 34.3184C32.8358 34.3184 31.8962 39.5099 30.7369 40.6814Z" fill="#F9E109"/>
<path d="M31.1719 19.5C30.3845 19.5 29.6294 19.1839 29.0727 18.6213C28.5159 18.0587 28.2031 17.2956 28.2031 16.5C28.2031 15.7044 28.5159 14.9413 29.0727 14.3787C29.6294 13.8161 30.3845 13.5 31.1719 13.5C32.8121 13.5 37.1094 16.5 37.1094 16.5C37.1094 16.5 32.8121 19.5 31.1719 19.5Z" fill="#F9E109"/>
<path d="M78.85 35.9999L42.8539 14.9999C45.006 11.2217 48.2767 8.22078 52.2055 6.41993C55.9634 11.9553 61.2126 16.2863 67.3313 18.8999C71.7514 20.99 76.5297 22.1972 81.4031 22.4549C82.0969 27.1319 81.1966 31.9082 78.85 35.9999V35.9999Z" fill="#FCBC04"/>
<path d="M89.6711 44.1149C89.3983 44.3963 89.0726 44.6198 88.7133 44.7724C88.3539 44.925 87.968 45.0036 87.5781 45.0036C87.1883 45.0036 86.8024 44.925 86.443 44.7724C86.0836 44.6198 85.758 44.3963 85.4852 44.1149C84.879 43.2696 84.4451 42.3111 84.2086 41.2949C84.7693 41.7833 85.4935 42.0367 86.233 42.0032C86.9726 41.9698 87.6715 41.652 88.1867 41.1149C88.643 40.6654 88.9359 40.0735 89.018 39.4349C89.2569 39.5508 89.4771 39.7025 89.6711 39.8849C89.9495 40.1606 90.1708 40.4897 90.3218 40.8528C90.4728 41.216 90.5506 41.606 90.5506 41.9999C90.5506 42.3938 90.4728 42.7838 90.3218 43.147C90.1708 43.5101 89.9495 43.8392 89.6711 44.1149V44.1149Z" fill="#FCBC04"/>
<path d="M40.9094 25.875C40.6776 26.8855 40.2486 27.8391 39.6477 28.68C39.0906 29.2429 38.3351 29.5592 37.5473 29.5592C36.7595 29.5592 36.0039 29.2429 35.4469 28.68C34.8898 28.1171 34.5769 27.3536 34.5769 26.5575C34.5769 25.7614 34.8898 24.9979 35.4469 24.435C35.6427 24.2478 35.8685 24.0956 36.1149 23.985C36.1878 24.6275 36.4759 25.2256 36.9313 25.68C37.4525 26.205 38.1481 26.5156 38.8832 26.5517C39.6182 26.5877 40.3403 26.3466 40.9094 25.875V25.875Z" fill="#FCBC04"/>
<path d="M32.0031 37.875C31.7713 38.8855 31.3424 39.8391 30.7414 40.68C30.1844 41.2429 29.4288 41.5592 28.641 41.5592C27.8532 41.5592 27.0977 41.2429 26.5406 40.68C25.9836 40.1171 25.6706 39.3536 25.6706 38.5575C25.6706 37.7614 25.9836 36.9979 26.5406 36.435C26.7364 36.2478 26.9623 36.0956 27.2086 35.985C27.2816 36.6276 27.5696 37.2256 28.025 37.68C28.5462 38.205 29.2419 38.5156 29.9769 38.5517C30.712 38.5877 31.4341 38.3466 32.0031 37.875V37.875Z" fill="#FCBC04"/>
<path d="M37.1094 16.5C37.1094 16.5 32.8047 19.5 31.1719 19.5C30.5171 19.498 29.8813 19.2773 29.3636 18.8722C28.8458 18.4671 28.4751 17.9005 28.3091 17.2604C28.1431 16.6203 28.1912 15.9428 28.4459 15.3332C28.7006 14.7236 29.1475 14.2162 29.7172 13.89C29.8122 14.6105 30.1623 15.2718 30.7026 15.7516C31.2429 16.2314 31.9369 16.4973 32.6562 16.5C33.6559 16.3335 34.6138 15.9718 35.4766 15.435C36.4117 16.02 37.1094 16.5 37.1094 16.5Z" fill="#FCBC04"/>
<path d="M22.2656 91.5C32.1032 91.5 40.0781 83.4411 40.0781 73.5C40.0781 63.5589 32.1032 55.5 22.2656 55.5C12.4281 55.5 4.45312 63.5589 4.45312 73.5C4.45312 83.4411 12.4281 91.5 22.2656 91.5Z" fill="#F9E109"/>
<path d="M38.9055 79.92C37.857 82.6901 36.1474 85.1554 33.9287 87.0969C31.71 89.0383 29.0509 90.3957 26.1879 91.0483C23.325 91.7009 20.3468 91.6285 17.5181 90.8376C14.6895 90.0466 12.0981 88.5617 9.97435 86.5147C7.85058 84.4677 6.26024 81.9221 5.34474 79.1043C4.42925 76.2864 4.21695 73.2837 4.72673 70.363C5.23651 67.4422 6.45257 64.694 8.26679 62.3627C10.081 60.0314 12.4372 58.1893 15.1258 57C15.9117 58.3668 16.3265 59.9192 16.3281 61.5H13.3594C12.9573 61.493 12.5558 61.4629 12.1571 61.41C11.9729 62.4296 11.8785 63.4636 11.875 64.5C11.8789 67.6894 12.7203 70.8207 14.3132 73.574C15.9062 76.3274 18.1937 78.6043 20.9422 80.1722C23.6907 81.7401 26.8017 82.5429 29.9576 82.4986C33.1135 82.4543 36.2012 81.5645 38.9055 79.92V79.92Z" fill="#FCBC04"/>
<path d="M4.45312 51H7.42188C9.78396 51 12.0493 51.9482 13.7195 53.636C15.3898 55.3239 16.3281 57.613 16.3281 60H13.3594C10.9973 60 8.73195 59.0518 7.06171 57.364C5.39146 55.6761 4.45313 53.3869 4.45312 51V51Z" fill="#A1D51C"/>
<path d="M16.3281 60H13.3594C10.9973 60 8.73195 59.0518 7.06171 57.364C5.39146 55.6761 4.45313 53.3869 4.45312 51H6.45703C7.0668 52.7554 8.20151 54.2758 9.70407 55.3507C11.2066 56.4257 13.0027 57.002 14.8437 57H15.8086C16.155 57.9613 16.3309 58.9769 16.3281 60V60Z" fill="#7AB92D"/>
<path d="M13.3594 85.5C14.1792 85.5 14.8438 84.8284 14.8438 84C14.8438 83.1716 14.1792 82.5 13.3594 82.5C12.5396 82.5 11.875 83.1716 11.875 84C11.875 84.8284 12.5396 85.5 13.3594 85.5Z" fill="#E59730"/>
<path d="M19.2969 85.5C20.1167 85.5 20.7812 84.8284 20.7812 84C20.7812 83.1716 20.1167 82.5 19.2969 82.5C18.4771 82.5 17.8125 83.1716 17.8125 84C17.8125 84.8284 18.4771 85.5 19.2969 85.5Z" fill="#E59730"/>
<path d="M13.3594 79.5C14.1792 79.5 14.8438 78.8284 14.8438 78C14.8438 77.1716 14.1792 76.5 13.3594 76.5C12.5396 76.5 11.875 77.1716 11.875 78C11.875 78.8284 12.5396 79.5 13.3594 79.5Z" fill="#E59730"/>
<path d="M16.3281 61.5001C16.2456 61.5005 16.1631 61.4934 16.0817 61.4791C15.6939 61.4134 15.3478 61.1948 15.1193 60.8714C14.8908 60.548 14.7987 60.1461 14.8631 59.7541L16.3474 50.7541C16.3741 50.5552 16.4401 50.3636 16.5414 50.1909C16.6426 50.0181 16.7772 49.8677 16.9371 49.7485C17.097 49.6293 17.2789 49.5437 17.4722 49.4969C17.6654 49.4501 17.8659 49.4429 18.0619 49.4759C18.2579 49.5088 18.4454 49.5812 18.6132 49.6887C18.781 49.7962 18.9258 49.9367 19.0388 50.1018C19.1519 50.2669 19.2311 50.4532 19.2716 50.6498C19.3121 50.8464 19.3131 51.0491 19.2746 51.2461L17.7903 60.2461C17.7327 60.5961 17.5542 60.9142 17.2865 61.1438C17.0188 61.3733 16.6793 61.4996 16.3281 61.5001Z" fill="#A1D51C"/>
<path d="M68.2812 12C69.101 12 69.7656 11.3284 69.7656 10.5C69.7656 9.67157 69.101 9 68.2812 9C67.4615 9 66.7969 9.67157 66.7969 10.5C66.7969 11.3284 67.4615 12 68.2812 12Z" fill="#FCBC04"/>
<path d="M71.25 16.5C72.0698 16.5 72.7344 15.8284 72.7344 15C72.7344 14.1716 72.0698 13.5 71.25 13.5C70.4302 13.5 69.7656 14.1716 69.7656 15C69.7656 15.8284 70.4302 16.5 71.25 16.5Z" fill="#FCBC04"/>
<path d="M62.3438 10.5C63.1635 10.5 63.8281 9.82843 63.8281 9C63.8281 8.17157 63.1635 7.5 62.3438 7.5C61.524 7.5 60.8594 8.17157 60.8594 9C60.8594 9.82843 61.524 10.5 62.3438 10.5Z" fill="#FCBC04"/>
</svg>
