<svg width="14" height="14" viewBox="0 0 14 14" fill="none" xmlns="http://www.w3.org/2000/svg">
<path d="M13.6667 5.44664C13.6246 5.3247 13.5481 5.21759 13.4463 5.13831C13.3445 5.05903 13.2219 5.01097 13.0934 4.99997L9.30007 4.44664L7.60007 0.999975C7.54548 0.887261 7.46024 0.792203 7.35412 0.72569C7.24801 0.659178 7.1253 0.623901 7.00007 0.623901C6.87483 0.623901 6.75212 0.659178 6.64601 0.72569C6.53989 0.792203 6.45466 0.887261 6.40007 0.999975L4.70007 4.43997L0.906733 4.99997C0.783348 5.01751 0.667349 5.06928 0.5719 5.14941C0.476451 5.22954 0.405373 5.33482 0.366733 5.45331C0.331363 5.56909 0.328189 5.69232 0.357552 5.80977C0.386914 5.92722 0.447705 6.03446 0.5334 6.11997L3.28673 8.78664L2.62007 12.5733C2.59627 12.6983 2.60873 12.8275 2.65598 12.9456C2.70323 13.0637 2.7833 13.1659 2.88673 13.24C2.98754 13.312 3.10645 13.3546 3.2301 13.3628C3.35375 13.3711 3.47725 13.3447 3.58673 13.2866L7.00007 11.5066L10.4001 13.2933C10.4936 13.3461 10.5993 13.3737 10.7067 13.3733C10.8479 13.3738 10.9857 13.3295 11.1001 13.2466C11.2035 13.1725 11.2836 13.0704 11.3308 12.9523C11.3781 12.8341 11.3905 12.705 11.3667 12.58L10.7001 8.79331L13.4534 6.12664C13.5497 6.04509 13.6208 5.93791 13.6586 5.81754C13.6963 5.69717 13.6992 5.56856 13.6667 5.44664ZM9.56673 8.11331C9.48855 8.18893 9.43006 8.28254 9.39636 8.38596C9.36266 8.48938 9.35478 8.59947 9.3734 8.70664L9.8534 11.5L7.34673 10.1666C7.25028 10.1153 7.14268 10.0884 7.0334 10.0884C6.92412 10.0884 6.81652 10.1153 6.72007 10.1666L4.2134 11.5L4.6934 8.70664C4.71202 8.59947 4.70414 8.48938 4.67044 8.38596C4.63674 8.28254 4.57825 8.18893 4.50007 8.11331L2.50007 6.11331L5.30673 5.70664C5.41473 5.69162 5.5174 5.65034 5.60573 5.58641C5.69407 5.52248 5.76537 5.43787 5.8134 5.33997L7.00007 2.79997L8.2534 5.34664C8.30143 5.44453 8.37273 5.52915 8.46107 5.59308C8.5494 5.657 8.65207 5.69829 8.76007 5.71331L11.5667 6.11997L9.56673 8.11331Z" fill="#FAD712"/>
<path d="M9.56673 8.11331C9.48855 8.18893 9.43006 8.28254 9.39636 8.38596C9.36266 8.48938 9.35478 8.59947 9.3734 8.70664L9.8534 11.5L7.34673 10.1666C7.25028 10.1153 7.14268 10.0884 7.0334 10.0884C6.92412 10.0884 6.81652 10.1153 6.72007 10.1666L4.2134 11.5L4.6934 8.70664C4.71202 8.59947 4.70414 8.48938 4.67044 8.38596C4.63674 8.28254 4.57825 8.18893 4.50007 8.11331L2.50007 6.11331L5.30673 5.70664C5.41473 5.69162 5.5174 5.65034 5.60573 5.58641C5.69407 5.52248 5.76537 5.43787 5.8134 5.33997L7.00007 2.79997L8.2534 5.34664C8.30143 5.44453 8.37273 5.52915 8.46107 5.59308C8.5494 5.657 8.65207 5.69829 8.76007 5.71331L11.5667 6.11997L9.56673 8.11331Z" fill="#FAD712"/>
</svg>
