<svg width="141" height="141" viewBox="0 0 141 141" fill="none" xmlns="http://www.w3.org/2000/svg">
<path d="M28.6406 95.3028L83.6703 106.563L45.9263 41.8594L28.6406 95.3028ZM40.0572 88.6427L46.4265 68.9578L60.3326 92.7978L40.0572 88.6427Z" fill="#F9E109"/>
<path d="M63.4941 71.976C61.3155 72.198 59.12 71.7679 57.1863 70.7403C55.2525 69.7126 53.6676 68.1337 52.6327 66.2038L43.5558 49.1957L28.6406 95.3071L83.6747 106.565L63.4941 71.976ZM40.0528 88.6537L46.4198 68.9577L60.3436 92.7955L40.0528 88.6537Z" fill="#FCBC04"/>
<path d="M63.2143 82.4409C62.7305 82.4408 62.2601 82.2815 61.8759 81.9875C61.4917 81.6935 61.2149 81.2811 61.0883 80.8142C60.9617 80.3472 60.9924 79.8516 61.1755 79.4038C61.3587 78.956 61.6842 78.5809 62.1017 78.3365L64.8225 76.7458C65.0724 76.5999 65.3485 76.5046 65.6352 76.4653C65.9218 76.4261 66.2134 76.4437 66.4933 76.5171C66.7731 76.5906 67.0358 76.7184 67.2663 76.8934C67.4967 77.0683 67.6905 77.2869 67.8364 77.5368C67.9824 77.7866 68.0777 78.0627 68.1169 78.3494C68.1562 78.6361 68.1386 78.9276 68.0651 79.2075C67.9917 79.4874 67.8639 79.75 67.6889 79.9805C67.514 80.2109 67.2953 80.4047 67.0455 80.5506L64.3224 82.1391C63.9866 82.3369 63.604 82.4411 63.2143 82.4409V82.4409Z" fill="#4891D3"/>
<path d="M63.6879 72.3087L59.8809 74.5294C59.6308 74.6753 59.3544 74.7704 59.0676 74.8094C58.7807 74.8484 58.4889 74.8305 58.209 74.7568C57.6435 74.6078 57.1605 74.2403 56.866 73.7352C56.5715 73.2301 56.4897 72.6287 56.6387 72.0632C56.7876 71.4978 57.1551 71.0147 57.6602 70.7202L61.4672 68.5017L63.6879 72.3087Z" fill="#57B7EB"/>
<path d="M59.2486 64.6948L55.4416 66.9156C55.1916 67.0679 54.9137 67.1688 54.6241 67.2125C54.3346 67.2561 54.0393 67.2417 53.7554 67.1699C53.4716 67.0981 53.2049 66.9704 52.9709 66.7944C52.737 66.6183 52.5404 66.3974 52.3929 66.1446C52.2453 65.8917 52.1495 65.6119 52.1113 65.3216C52.0731 65.0313 52.0931 64.7363 52.1702 64.4539C52.2473 64.1714 52.3799 63.9072 52.5603 63.6765C52.7407 63.4459 52.9653 63.2536 53.2209 63.1108L57.0279 60.8922L59.2486 64.6948Z" fill="#57B7EB"/>
<path d="M54.8049 57.0852L51.0001 59.3037C50.75 59.4494 50.4737 59.5444 50.1868 59.5833C49.9 59.6221 49.6083 59.6041 49.3285 59.5303C48.7633 59.3811 48.2805 59.0135 47.9863 58.5084C47.6921 58.0033 47.6106 57.402 47.7597 56.8368C47.9089 56.2715 48.2765 55.7887 48.7816 55.4945L52.5886 53.2782L54.8049 57.0852Z" fill="#57B7EB"/>
<path d="M63.4941 71.9761C61.418 72.1922 59.3234 71.8099 57.4575 70.8746C57.0843 71.1483 56.8077 71.5336 56.6677 71.9747C56.5277 72.4159 56.5316 72.8901 56.6787 73.329C56.8258 73.7678 57.1085 74.1485 57.4861 74.4162C57.8637 74.6839 58.3166 74.8246 58.7794 74.8182C59.1652 74.8199 59.5448 74.7212 59.8809 74.5318L63.6923 72.3066L63.4941 71.9761ZM52.192 65.3888C52.2223 65.6451 52.3048 65.8926 52.4344 66.1158C52.5535 66.3328 52.719 66.5209 52.9191 66.6666C52.8157 66.5174 52.7201 66.363 52.6327 66.2039L52.192 65.3888ZM47.9841 58.515C48.2024 58.9182 48.564 59.2249 48.9975 59.3742L47.7197 56.9949C47.6217 57.5169 47.7156 58.0567 47.9841 58.515V58.515Z" fill="#4891D3"/>
<path d="M57.2931 43.9536L78.5753 38.2475L95.6936 102.094L74.4114 107.8L57.2931 43.9536Z" fill="#4891D3"/>
<path d="M68.7573 27.202L60.2445 29.4823L57.2812 43.9612L78.5612 38.2595L68.7573 27.202Z" fill="#84D2F4"/>
<path d="M61.086 15.5622C62.2147 15.2595 63.4174 15.4177 64.4296 16.0018C65.4417 16.586 66.1804 17.5483 66.483 18.677L68.7652 27.1889L60.2533 29.471L57.9711 20.9592C57.6685 19.8304 57.8266 18.6277 58.4108 17.6156C58.9949 16.6034 59.9572 15.8648 61.086 15.5622V15.5622Z" fill="#4891D3"/>
<path d="M68.7595 27.2085L60.2334 29.4778L57.9642 20.9737C57.704 20.0293 57.7689 19.0248 58.1485 18.1217C58.5281 17.2187 59.2004 16.4695 60.0572 15.9946C60.0705 16.1893 60.1075 16.3817 60.1673 16.5674L60.7402 18.6824C61.1456 20.1991 62.0776 21.5218 63.3694 22.414C64.6611 23.3061 66.2282 23.7093 67.7902 23.5513L68.7595 27.2085Z" fill="#2D72BC"/>
<path d="M78.5634 38.2682L57.2812 43.9523L60.2334 29.4777L64.2872 28.3982L64.6838 30.4251C64.8638 31.3209 65.2272 32.1699 65.7512 32.9185C66.2752 33.6671 66.9484 34.2993 67.7284 34.7752C68.5085 35.2511 69.3786 35.5605 70.284 35.6839C71.1894 35.8073 72.1106 35.742 72.9895 35.4923L75.4791 34.7873L78.5634 38.2682Z" fill="#57B7EB"/>
<path d="M95.6597 102.093L74.3775 107.799L57.2812 43.9523L67.5919 41.1984C68.605 43.6754 70.4852 45.6989 72.8814 46.8909C75.2775 48.0829 78.0256 48.3618 80.6123 47.6755L81.053 47.5654L95.6597 102.093Z" fill="#2D72BC"/>
<path d="M96.0905 6.625L134.398 16.896L108.15 114.794L69.8425 104.523L96.0905 6.625Z" fill="#84D2F4"/>
<path d="M124.146 55.1002L108.151 114.761L69.8611 104.494L96.0783 6.60938L113.153 11.1919L108.041 30.2709C107.365 32.7851 107.192 35.4079 107.53 37.9893C107.869 40.5706 108.713 43.0599 110.014 45.3148C111.316 47.5697 113.049 49.5459 115.114 51.1305C117.18 52.715 119.538 53.8768 122.053 54.5494L124.146 55.1002Z" fill="#57B7EB"/>
<path d="M94.3753 12.9984L105.016 15.8625C105.581 16.0138 106.062 16.3832 106.354 16.8893C106.646 17.3954 106.725 17.9969 106.574 18.5613C106.423 19.1257 106.053 19.6069 105.547 19.8991C105.041 20.1912 104.44 20.2702 103.875 20.1189L93.234 17.2548L94.3753 12.9984Z" fill="#FCBC04"/>
<path d="M92.0906 21.5068L113.371 27.2085C113.885 27.3483 114.331 27.6698 114.627 28.1135C114.922 28.5571 115.047 29.0929 114.977 29.6214C114.908 30.1499 114.649 30.6353 114.249 30.9876C113.849 31.34 113.335 31.5354 112.802 31.5377C112.609 31.5387 112.416 31.5135 112.229 31.4628L90.9494 25.7611L92.0906 21.5068Z" fill="#F9E109"/>
<path d="M89.8126 30.0176L100.454 32.8684C100.97 33.0066 101.419 33.328 101.716 33.7725C102.013 34.217 102.138 34.7543 102.068 35.2844C101.999 35.8145 101.738 36.301 101.336 36.6534C100.934 37.0058 100.418 37.2 99.8831 37.1998C99.6904 37.1995 99.4986 37.1743 99.3125 37.1249L88.6736 34.274L89.8126 30.0176Z" fill="#FCBC04"/>
<path d="M87.5324 38.5304L108.812 44.2321C109.093 44.3058 109.356 44.4342 109.587 44.61C109.818 44.7858 110.012 45.0054 110.158 45.2563C110.304 45.5072 110.398 45.7845 110.437 46.0721C110.475 46.3598 110.456 46.6522 110.381 46.9325C110.306 47.2128 110.176 47.4755 109.999 47.7056C109.823 47.9357 109.602 48.1285 109.351 48.2731C109.099 48.4177 108.821 48.5112 108.533 48.5481C108.246 48.5851 107.953 48.5648 107.673 48.4885L86.3911 42.7868L87.5324 38.5304Z" fill="#FCBC04"/>
<path d="M85.2609 47.0432L95.8998 49.8919C96.4161 50.03 96.8646 50.3512 97.1616 50.7954C97.4587 51.2397 97.5842 51.7768 97.5146 52.3067C97.4451 52.8366 97.1853 53.3232 96.7836 53.6758C96.382 54.0284 95.8659 54.2229 95.3314 54.2232C95.1387 54.224 94.9468 54.1988 94.7608 54.1483L84.1197 51.2974L85.2609 47.0432Z" fill="#FCBC04"/>
<path d="M82.9719 55.5563L103.584 61.0795C104.099 61.2193 104.545 61.541 104.841 61.9849C105.136 62.4288 105.261 62.9648 105.191 63.4934C105.121 64.0221 104.862 64.5075 104.462 64.8597C104.061 65.2119 103.547 65.4069 103.014 65.4086C102.821 65.4095 102.629 65.3843 102.443 65.3337L81.8307 59.8105L82.9719 55.5563Z" fill="#FCBC04"/>
<path d="M80.6895 64.0668L91.3306 66.9176C91.6112 66.9913 91.8746 67.1197 92.1055 67.2955C92.3363 67.4713 92.5302 67.6909 92.676 67.9419C92.8217 68.1928 92.9165 68.47 92.9548 68.7577C92.9931 69.0453 92.9742 69.3377 92.8992 69.618C92.8242 69.8983 92.6945 70.1611 92.5177 70.3911C92.3409 70.6212 92.1203 70.8141 91.8687 70.9587C91.6171 71.1032 91.3394 71.1967 91.0516 71.2337C90.7638 71.2706 90.4715 71.2504 90.1915 71.1741L79.5482 68.3232L80.6895 64.0668Z" fill="#FCBC04"/>
<path d="M78.4092 72.5775L99.0481 78.1096C99.6125 78.2609 100.094 78.6303 100.386 79.1364C100.678 79.6425 100.757 80.244 100.606 80.8084C100.454 81.3728 100.085 81.854 99.5789 82.1461C99.0728 82.4382 98.4713 82.5173 97.9069 82.366L77.268 76.834L78.4092 72.5775Z" fill="#FCBC04"/>
<path d="M76.129 81.0927L86.7679 83.9391C87.2823 84.0789 87.7285 84.4004 88.0239 84.844C88.3194 85.2877 88.4439 85.8234 88.3746 86.3519C88.3052 86.8804 88.0465 87.3658 87.6466 87.7182C87.2466 88.0706 86.7325 88.266 86.1995 88.2682C86.0068 88.2691 85.8148 88.2439 85.6289 88.1933L74.9878 85.3425L76.129 81.0927Z" fill="#FCBC04"/>
<path d="M109.165 26.0849L108.041 30.2709C108.041 30.2929 108.019 30.3149 108.019 30.337L90.945 25.7545L92.0906 21.5024L109.165 26.0849Z" fill="#FCBC04"/>
<path d="M104.593 59.5072L134.388 67.4957L122.976 110.06L93.181 102.072L104.593 59.5072Z" fill="#E9F1F2"/>
<path d="M129.125 87.1116L122.978 110.024L93.1922 102.049L104.604 59.4844L116.083 62.5687L114.805 67.3275C113.748 71.2774 114.304 75.4851 116.349 79.0256C118.394 82.5662 121.761 85.1497 125.71 86.2083L129.125 87.1116Z" fill="#D0D8DA"/>
<path d="M104.594 59.5076L134.389 67.4961L130.966 80.2654L101.171 72.2769L104.594 59.5076Z" fill="#93999A"/>
<path d="M115.003 75.9638L101.168 72.2625L104.604 59.4844L116.083 62.5687L114.805 67.3275C114.041 70.1656 114.11 73.1637 115.003 75.9638V75.9638Z" fill="#656B76"/>
<path d="M6.60938 94.7344H134.391V134.391H6.60938V94.7344Z" fill="#F9E109"/>
<path d="M8.8125 41.8594H35.25V94.7344H8.8125V41.8594Z" fill="#84D2F4"/>
<path d="M35.25 85.9219V94.7344H8.8125V41.8594H22.0312V72.7031C22.0312 76.209 23.4239 79.5712 25.9029 82.0502C28.3819 84.5292 31.7442 85.9219 35.25 85.9219Z" fill="#57B7EB"/>
<path d="M17.625 41.8594H26.4375V94.7344H17.625V41.8594Z" fill="#F8664F"/>
<path d="M22.0312 15.4219L8.8125 41.8594H35.25L22.0312 15.4219Z" fill="#F9E109"/>
<path d="M26.4375 82.5291V94.7344H17.625V41.8594H22.0312V72.7031C22.0276 74.5596 22.4186 76.3957 23.1782 78.0897C23.9379 79.7837 25.0488 81.2969 26.4375 82.5291V82.5291Z" fill="#CC5144"/>
<path d="M35.25 41.8594H8.8125L22.0312 15.4219V28.6406C22.0313 30.9778 22.9597 33.2193 24.6124 34.872C26.265 36.5247 28.5065 37.4531 30.8438 37.4531H33.0469L35.25 41.8594Z" fill="#FCBC04"/>
<path d="M22.0312 15.4219L15.4219 28.6406H28.6406L22.0312 15.4219Z" fill="#93999A"/>
<path d="M15.4219 28.6406H22.0312V15.4219L15.4219 28.6406Z" fill="#656B76"/>
<path d="M134.391 107.953V134.391H6.60938V94.7344H19.8281C19.8281 98.2402 21.2208 101.602 23.6998 104.081C26.1788 106.56 29.541 107.953 33.0469 107.953H134.391Z" fill="#FCBC04"/>
<path d="M15.4219 116.766H66.0938V125.578H15.4219V116.766Z" fill="#E59730"/>
<path d="M74.9062 116.766H125.578V125.578H74.9062V116.766Z" fill="#E59730"/>
</svg>
