<svg width="95" height="96" viewBox="0 0 95 96" fill="none" xmlns="http://www.w3.org/2000/svg">
<path d="M25.2344 34.5C30.7459 34.5 36.0317 36.7125 39.9289 40.6508C43.8262 44.589 46.0156 49.9305 46.0156 55.5V85.5H4.45312V55.5C4.45313 49.9305 6.64257 44.589 10.5398 40.6508C14.4371 36.7125 19.7228 34.5 25.2344 34.5V34.5Z" fill="#84D2F4"/>
<path d="M34.1406 52.5C29.7586 52.4988 25.5308 50.8653 22.2657 47.9121C19.0006 44.9588 16.9274 40.8929 16.4424 36.492C12.8616 38.1795 9.83152 40.8643 7.70785 44.2312C5.58419 47.5981 4.4551 51.5073 4.45312 55.5V85.5H46.0156V55.5C46.0124 53.2236 45.6419 50.9629 44.9187 48.807C41.8259 51.2027 38.0375 52.5008 34.1406 52.5V52.5Z" fill="#57B7EB"/>
<path d="M25.2344 52.5C28.5136 52.5 31.1719 49.8137 31.1719 46.5C31.1719 43.1863 28.5136 40.5 25.2344 40.5C21.9552 40.5 19.2969 43.1863 19.2969 46.5C19.2969 49.8137 21.9552 52.5 25.2344 52.5Z" fill="#656B76"/>
<path d="M23.75 43.5C24.6209 43.4911 25.4829 43.6778 26.2736 44.0468C27.0644 44.4157 27.7641 44.9576 28.3222 45.6333C28.8803 46.309 29.2829 47.1015 29.5008 47.9536C29.7187 48.8058 29.7464 49.6962 29.5821 50.5605C30.208 49.878 30.6679 49.0576 30.9253 48.1642C31.1827 47.2708 31.2306 46.3291 31.0651 45.4138C30.8995 44.4985 30.5252 43.6347 29.9718 42.8911C29.4183 42.1474 28.701 41.5444 27.8767 41.1297C27.0524 40.715 26.1438 40.5002 25.223 40.5022C24.3022 40.5042 23.3946 40.7231 22.5721 41.1414C21.7496 41.5597 21.0349 42.1659 20.4847 42.912C19.9344 43.6581 19.5638 44.5235 19.4023 45.4395C19.9545 44.8296 20.6261 44.3422 21.3746 44.0084C22.123 43.6745 22.9319 43.5014 23.75 43.5V43.5Z" fill="#93999A"/>
<path d="M35.625 55.5L32.6562 58.5H17.8125L14.8438 55.5H4.45312V85.5H46.0156V55.5H35.625Z" fill="#E9F1F2"/>
<path d="M35.625 70.5C31.3937 70.4973 27.2642 69.1886 23.7891 66.7492C20.314 64.3098 17.6591 60.856 16.1797 56.85L14.8438 55.5H4.45312V85.5H46.0156V70.5H35.625Z" fill="#D0D8DA"/>
<path d="M75.7031 66H66.7969V22.5C66.7969 20.1131 65.8585 17.8239 64.1883 16.136C62.5181 14.4482 60.2527 13.5 57.8906 13.5C55.5285 13.5 53.2632 14.4482 51.593 16.136C49.9227 17.8239 48.9844 20.1131 48.9844 22.5C48.9846 26.9227 47.9792 31.2862 46.0458 35.254C44.1125 39.2217 41.3028 42.6876 37.8338 45.384L31.4791 50.3235C31.0156 50.6838 30.4864 50.9483 29.9217 51.1019C29.357 51.2555 28.7679 51.2952 28.188 51.2187C27.6081 51.1422 27.0488 50.9511 26.542 50.6562C26.0352 50.3613 25.5909 49.9684 25.2344 49.5C24.8778 49.0316 24.6161 48.4968 24.4641 47.9261C24.3121 47.3555 24.2728 46.7602 24.3485 46.1742C24.4242 45.5882 24.6133 45.023 24.9051 44.5109C25.197 43.9988 25.5858 43.5498 26.0493 43.1895L32.4039 38.25C34.7914 36.3941 36.725 34.0087 38.0556 31.2779C39.3862 28.5471 40.0782 25.5439 40.0781 22.5C40.0781 17.7261 41.9548 13.1477 45.2953 9.77208C48.6358 6.39642 53.1665 4.5 57.8906 4.5C62.6148 4.5 67.1455 6.39642 70.486 9.77208C73.8265 13.1477 75.7031 17.7261 75.7031 22.5V66Z" fill="#E9F1F2"/>
<path d="M75.7031 39V36H71.25V25.5C71.2511 22.3657 70.4403 19.2857 68.8981 16.5662C67.356 13.8468 65.1362 11.5827 62.4595 9.999C60.396 8.79478 58.874 6.82993 58.2127 4.5165C58.1044 4.515 57.999 4.5 57.8906 4.5C53.1665 4.5 48.6358 6.39642 45.2953 9.77208C41.9548 13.1477 40.0781 17.7261 40.0781 22.5C40.0782 25.5439 39.3862 28.5471 38.0556 31.2779C36.7251 34.0087 34.7914 36.3941 32.4039 38.25L26.0493 43.1895C25.1131 43.9171 24.5013 44.9907 24.3485 46.1742C24.1957 47.3576 24.5143 48.554 25.2344 49.5C25.9544 50.446 27.0169 51.0643 28.188 51.2187C29.3591 51.3731 30.543 51.0511 31.4792 50.3235L37.8338 45.384C41.3026 42.6873 44.112 39.2215 46.0454 35.2538C47.9787 31.2861 48.9842 26.9226 48.9844 22.5C48.9844 20.1131 49.9227 17.8239 51.593 16.136C53.2632 14.4482 55.5286 13.5 57.8906 13.5C60.2527 13.5 62.5181 14.4482 64.1883 16.136C65.8586 17.8239 66.7969 20.1131 66.7969 22.5V66H75.7031V55.7865C74.3495 54.9982 73.2253 53.8635 72.4435 52.4965C71.6618 51.1296 71.2502 49.5788 71.25 48V39H75.7031Z" fill="#D0D8DA"/>
<path d="M65.3125 24H77.1875V36H65.3125V24Z" fill="#F9E109"/>
<path d="M69.7077 9.05864L63.3977 15.4351C64.6964 16.4702 65.6843 17.8502 66.2506 19.4206L74.5156 16.0801C73.4935 13.3838 71.8445 10.9756 69.7077 9.05864V9.05864Z" fill="#D0D8DA"/>
<path d="M38.7793 29.5501L45.983 35.3731C47.1896 32.926 48.0457 30.3179 48.5257 27.6271L40.0039 23.8006C39.8814 25.7681 39.4687 27.706 38.7793 29.5501V29.5501Z" fill="#93999A"/>
<path d="M32.4039 38.25L30.0928 40.05L35.4365 47.25L37.8338 45.387C38.9356 44.5254 39.9735 43.5834 40.9391 42.5685L35.0313 35.7435C34.2339 36.6592 33.3544 37.4983 32.4039 38.25V38.25Z" fill="#93999A"/>
<path d="M57.8906 4.5C56.2528 4.50427 54.6234 4.73696 53.0486 5.1915L55.6077 13.809C57.0143 13.4214 58.495 13.3992 59.9123 13.7445L61.6609 4.914C60.4222 4.64144 59.1584 4.50266 57.8906 4.5V4.5Z" fill="#D0D8DA"/>
<path d="M40.7624 17.607L49.2902 20.193C49.7251 18.5416 50.6163 17.0494 51.8596 15.891C49.6791 14.3685 46.7697 12.291 44.5981 10.548C42.8061 12.5765 41.4944 14.9905 40.7624 17.607V17.607Z" fill="#93999A"/>
<path d="M57.8906 81H84.6094C86.1841 81 87.6943 81.6321 88.8078 82.7574C89.9213 83.8826 90.5469 85.4087 90.5469 87V91.5H51.9531V87C51.9531 85.4087 52.5787 83.8826 53.6922 82.7574C54.8057 81.6321 56.3159 81 57.8906 81V81Z" fill="#84D2F4"/>
<path d="M66.7969 66H75.7031V75H66.7969V66Z" fill="#F9E109"/>
<path d="M78.6719 75H63.8281C63.0408 75 62.2857 75.3161 61.7289 75.8787C61.1722 76.4413 60.8594 77.2044 60.8594 78V81H64.5703C65.1608 81 65.7272 81.2371 66.1447 81.659C66.5623 82.081 66.7969 82.6533 66.7969 83.25C66.7969 83.8467 67.0315 84.419 67.449 84.841C67.8666 85.2629 68.4329 85.5 69.0234 85.5H73.4766C74.0671 85.5 74.6334 85.2629 75.051 84.841C75.4686 84.419 75.7031 83.8467 75.7031 83.25C75.7031 82.6533 75.9377 82.081 76.3553 81.659C76.7728 81.2371 77.3392 81 77.9297 81H81.6406V78C81.6406 77.2044 81.3279 76.4413 80.7711 75.8787C80.2144 75.3161 79.4592 75 78.6719 75Z" fill="#84D2F4"/>
<path d="M46.0156 84C46.0156 81.5147 44.0219 79.5 41.5625 79.5C39.1031 79.5 37.1094 81.5147 37.1094 84V87C37.1094 89.4853 39.1031 91.5 41.5625 91.5C44.0219 91.5 46.0156 89.4853 46.0156 87V84Z" fill="#84D2F4"/>
<path d="M19.2969 85.5H4.45312V73.5H7.42188C10.5713 73.5 13.5918 74.7643 15.8188 77.0147C18.0458 79.2652 19.2969 82.3174 19.2969 85.5Z" fill="#93999A"/>
<path d="M13.3594 84C13.3594 81.5147 11.3656 79.5 8.90625 79.5C6.44686 79.5 4.45312 81.5147 4.45312 84V87C4.45312 89.4853 6.44686 91.5 8.90625 91.5C11.3656 91.5 13.3594 89.4853 13.3594 87V84Z" fill="#84D2F4"/>
<path d="M25.2344 76.5C28.5136 76.5 31.1719 73.8137 31.1719 70.5C31.1719 67.1863 28.5136 64.5 25.2344 64.5C21.9552 64.5 19.2969 67.1863 19.2969 70.5C19.2969 73.8137 21.9552 76.5 25.2344 76.5Z" fill="#84D2F4"/>
<path d="M25.2344 76.4999C26.8091 76.4999 28.3193 75.8677 29.4328 74.7425C30.5463 73.6173 31.1719 72.0912 31.1719 70.4999C31.1719 70.3259 31.1363 70.1624 31.1214 69.9929C27.7895 69.244 24.6933 67.6721 22.1098 65.4179C21.0112 66.1025 20.1639 67.1309 19.6968 68.3468C19.2296 69.5626 19.1683 70.8994 19.5219 72.1538C19.8756 73.4081 20.625 74.5115 21.6561 75.296C22.6872 76.0805 23.9437 76.5032 25.2344 76.4999V76.4999Z" fill="#57B7EB"/>
<path d="M41.5625 84V79.5C40.3815 79.5 39.2488 79.9741 38.4137 80.818C37.5786 81.6619 37.1094 82.8065 37.1094 84V87C37.1077 88.0625 37.4789 89.0911 38.1571 89.9031C38.8353 90.715 39.7764 91.2575 40.8132 91.4343C41.85 91.611 42.9152 91.4104 43.8194 90.8682C44.7236 90.326 45.4082 89.4773 45.7514 88.473C44.6204 88.4079 43.5567 87.9086 42.778 87.0771C41.9993 86.2456 41.5645 85.1448 41.5625 84V84Z" fill="#57B7EB"/>
<path d="M8.90626 84V79.5C7.72522 79.5 6.59255 79.9741 5.75742 80.818C4.9223 81.6619 4.45313 82.8065 4.45313 84V87C4.45142 88.0625 4.82266 89.0911 5.50084 89.9031C6.17901 90.715 7.12017 91.2575 8.15694 91.4343C9.19371 91.611 10.2589 91.4104 11.1631 90.8682C12.0673 90.326 12.7519 89.4773 13.0952 88.473C11.9641 88.4079 10.9004 87.9086 10.1217 87.0771C9.34302 86.2456 8.90821 85.1448 8.90626 84V84Z" fill="#57B7EB"/>
<path d="M29.4322 74.742C28.3124 75.835 26.8125 76.4397 25.2557 76.4261C23.699 76.4124 22.2098 75.7814 21.1089 74.6689C20.008 73.5565 19.3836 72.0516 19.3701 70.4784C19.3565 68.9052 19.955 67.3896 21.0366 66.258L29.4322 74.742Z" fill="#4891D3"/>
<path d="M44.5313 76.5H46.0156V73.5H43.0469C39.8974 73.5 36.877 74.7643 34.65 77.0147C32.423 79.2652 31.1719 82.3174 31.1719 85.5H33.0452C33.7028 82.9261 35.1876 80.6457 37.2665 79.0168C39.3454 77.3879 41.9006 76.5026 44.5313 76.5V76.5Z" fill="#656B76"/>
<path d="M5.9375 76.5H4.45312V73.5H7.42188C10.5713 73.5 13.5918 74.7643 15.8188 77.0147C18.0458 79.2652 19.2969 82.3174 19.2969 85.5H17.4236C16.7659 82.9261 15.2812 80.6457 13.2023 79.0168C11.1234 77.3879 8.56811 76.5026 5.9375 76.5V76.5Z" fill="#656B76"/>
<path d="M66.2506 19.4206L69.6276 18.0556C68.7479 16.094 67.5267 14.3081 66.022 12.7831L63.3977 15.4351C64.6964 16.4701 65.6843 17.8501 66.2506 19.4206V19.4206Z" fill="#93999A"/>
<path d="M53.0486 5.1915L55.6077 13.809C57.0143 13.4214 58.495 13.3992 59.9124 13.7445L60.8876 8.8185C59.6095 7.66979 58.6795 6.17874 58.2053 4.518C58.1044 4.5165 58.0005 4.5 57.8906 4.5C56.2528 4.50427 54.6234 4.73696 53.0486 5.1915V5.1915Z" fill="#93999A"/>
<path d="M71.25 25.5V24H65.3125V36H77.1875V31.5C75.6128 31.5 74.1026 30.8679 72.9891 29.7426C71.8756 28.6174 71.25 27.0913 71.25 25.5Z" fill="#FCBC04"/>
<path d="M71.25 67.5V66H66.7969V75H75.7031V72C74.5221 72 73.3894 71.5259 72.5543 70.682C71.7192 69.8381 71.25 68.6935 71.25 67.5Z" fill="#FCBC04"/>
<path d="M65.3125 75H63.8281C63.0408 75 62.2857 75.3161 61.7289 75.8787C61.1722 76.4413 60.8594 77.2044 60.8594 78V81H64.5703C65.1608 81 65.7272 81.2371 66.1447 81.659C66.5623 82.081 66.7969 82.6533 66.7969 83.25C66.7969 83.8467 67.0315 84.419 67.449 84.841C67.8666 85.2629 68.4329 85.5 69.0234 85.5H73.4766C74.0671 85.5 74.6334 85.2629 75.051 84.841C75.4686 84.419 75.7031 83.8467 75.7031 83.25C75.7031 82.6533 75.9377 82.081 76.3553 81.659C76.7728 81.2371 77.3392 81 77.9297 81H81.6406V78H68.2813C67.4939 78 66.7388 77.6839 66.182 77.1213C65.6253 76.5587 65.3125 75.7956 65.3125 75Z" fill="#57B7EB"/>
<path d="M65.3125 88.5C63.3441 88.5 61.4563 87.7098 60.0644 86.3033C58.6726 84.8968 57.8906 82.9891 57.8906 81C56.3159 81 54.8057 81.6321 53.6922 82.7574C52.5787 83.8826 51.9531 85.4087 51.9531 87V91.5H90.5469V88.5H65.3125Z" fill="#57B7EB"/>
<path d="M72.7344 24V30C72.7344 30.3978 72.578 30.7794 72.2996 31.0607C72.0212 31.342 71.6437 31.5 71.25 31.5C70.8563 31.5 70.4788 31.342 70.2004 31.0607C69.922 30.7794 69.7656 30.3978 69.7656 30V24H72.7344Z" fill="#84D2F4"/>
<path d="M72.7344 75V78C72.7344 78.3978 72.578 78.7794 72.2996 79.0607C72.0212 79.342 71.6437 79.5 71.25 79.5C70.8563 79.5 70.4788 79.342 70.2004 79.0607C69.922 78.7794 69.7656 78.3978 69.7656 78V75H72.7344Z" fill="#93999A"/>
<path d="M25.2344 72C26.0542 72 26.7188 71.3284 26.7188 70.5C26.7188 69.6716 26.0542 69 25.2344 69C24.4146 69 23.75 69.6716 23.75 70.5C23.75 71.3284 24.4146 72 25.2344 72Z" fill="#F9E109"/>
<path d="M40.0781 66H37.1094C36.7157 66 36.3381 65.842 36.0598 65.5607C35.7814 65.2794 35.625 64.8978 35.625 64.5C35.625 64.1022 35.7814 63.7206 36.0598 63.4393C36.3381 63.158 36.7157 63 37.1094 63H40.0781C40.4718 63 40.8494 63.158 41.1277 63.4393C41.4061 63.7206 41.5625 64.1022 41.5625 64.5C41.5625 64.8978 41.4061 65.2794 41.1277 65.5607C40.8494 65.842 40.4718 66 40.0781 66Z" fill="#84D2F4"/>
<path d="M13.3594 66H10.3906C9.99694 66 9.61939 65.842 9.34101 65.5607C9.06264 65.2794 8.90625 64.8978 8.90625 64.5C8.90625 64.1022 9.06264 63.7206 9.34101 63.4393C9.61939 63.158 9.99694 63 10.3906 63H13.3594C13.7531 63 14.1306 63.158 14.409 63.4393C14.6874 63.7206 14.8438 64.1022 14.8438 64.5C14.8438 64.8978 14.6874 65.2794 14.409 65.5607C14.1306 65.842 13.7531 66 13.3594 66Z" fill="#57B7EB"/>
<path d="M69.7656 75H72.7344V78H69.7656V75Z" fill="#D0D8DA"/>
<path d="M72.7344 29.46V30C72.7344 30.3978 72.578 30.7794 72.2996 31.0607C72.0212 31.342 71.6437 31.5 71.25 31.5C70.8563 31.5 70.4788 31.342 70.2004 31.0607C69.922 30.7794 69.7656 30.3978 69.7656 30V24H71.25V25.5C71.2521 26.9584 71.7798 28.3662 72.7344 29.46Z" fill="#57B7EB"/>
<path d="M26.2883 71.5649C26.0069 71.8437 25.6285 71.9999 25.2344 71.9999C24.8407 71.9999 24.4631 71.8419 24.1848 71.5606C23.9064 71.2793 23.75 70.8977 23.75 70.4999C23.75 70.1017 23.9045 69.7193 24.1805 69.4349L26.2883 71.5649Z" fill="#FCBC04"/>
</svg>
