<svg width="14" height="14" viewBox="0 0 14 14" fill="none" xmlns="http://www.w3.org/2000/svg">
<path d="M13.0467 10.2204L11.6667 8.80712C11.3699 8.52495 10.9955 8.33799 10.5916 8.27028C10.1876 8.20256 9.77271 8.25718 9.40008 8.42712L8.80008 7.82712C9.50711 6.88239 9.83001 5.7049 9.70377 4.53167C9.57753 3.35845 9.01153 2.2766 8.1197 1.50392C7.22787 0.731233 6.07643 0.325087 4.89718 0.367239C3.71794 0.409391 2.59844 0.896709 1.76405 1.7311C0.929669 2.56548 0.44235 3.68498 0.400198 4.86423C0.358046 6.04347 0.764192 7.19491 1.53687 8.08674C2.30956 8.97857 3.3914 9.54457 4.56463 9.67081C5.73786 9.79705 6.91535 9.47415 7.86008 8.76712L8.45341 9.36045C8.26347 9.73354 8.1954 10.1568 8.25879 10.5707C8.32218 10.9845 8.51383 11.368 8.80674 11.6671L10.2201 13.0804C10.5951 13.455 11.1034 13.6654 11.6334 13.6654C12.1634 13.6654 12.6717 13.455 13.0467 13.0804C13.2372 12.8942 13.3886 12.6717 13.4919 12.4262C13.5953 12.1806 13.6485 11.9169 13.6485 11.6504C13.6485 11.384 13.5953 11.1203 13.4919 10.8747C13.3886 10.6292 13.2372 10.4067 13.0467 10.2204V10.2204ZM7.39341 7.39378C6.9269 7.85911 6.33294 8.17575 5.68657 8.30368C5.0402 8.43162 4.37041 8.36511 3.76181 8.11257C3.15321 7.86003 2.63312 7.43279 2.26722 6.88481C1.90132 6.33683 1.70603 5.69269 1.70603 5.03378C1.70603 4.37487 1.90132 3.73074 2.26722 3.18276C2.63312 2.63478 3.15321 2.20753 3.76181 1.95499C4.37041 1.70245 5.0402 1.63595 5.68657 1.76388C6.33294 1.89182 6.9269 2.20845 7.39341 2.67378C7.70383 2.98342 7.95012 3.35126 8.11816 3.75622C8.2862 4.16119 8.3727 4.59533 8.3727 5.03378C8.3727 5.47223 8.2862 5.90637 8.11816 6.31134C7.95012 6.71631 7.70383 7.08414 7.39341 7.39378V7.39378ZM12.1067 12.1071C12.0448 12.1696 11.971 12.2192 11.8898 12.253C11.8086 12.2869 11.7214 12.3043 11.6334 12.3043C11.5454 12.3043 11.4583 12.2869 11.377 12.253C11.2958 12.2192 11.2221 12.1696 11.1601 12.1071L9.74674 10.6938C9.68426 10.6318 9.63466 10.5581 9.60081 10.4768C9.56697 10.3956 9.54954 10.3085 9.54954 10.2204C9.54954 10.1324 9.56697 10.0453 9.60081 9.96406C9.63466 9.88282 9.68426 9.80909 9.74674 9.74712C9.80872 9.68463 9.88245 9.63503 9.96369 9.60119C10.0449 9.56734 10.1321 9.54992 10.2201 9.54992C10.3081 9.54992 10.3952 9.56734 10.4765 9.60119C10.5577 9.63503 10.6314 9.68463 10.6934 9.74712L12.1067 11.1604C12.1692 11.2224 12.2188 11.2962 12.2527 11.3774C12.2865 11.4586 12.3039 11.5458 12.3039 11.6338C12.3039 11.7218 12.2865 11.8089 12.2527 11.8902C12.2188 11.9714 12.1692 12.0451 12.1067 12.1071V12.1071Z" fill="#56891E"/>
</svg>
