<svg width="14" height="14" viewBox="0 0 14 14" fill="none" xmlns="http://www.w3.org/2000/svg">
<path d="M7.00017 3.66683C6.82335 3.66683 6.65379 3.73707 6.52876 3.86209C6.40374 3.98712 6.3335 4.15669 6.3335 4.3335V7.00016C6.3335 7.17697 6.40374 7.34654 6.52876 7.47157C6.65379 7.59659 6.82335 7.66683 7.00017 7.66683C7.17698 7.66683 7.34655 7.59659 7.47157 7.47157C7.59659 7.34654 7.66683 7.17697 7.66683 7.00016V4.3335C7.66683 4.15669 7.59659 3.98712 7.47157 3.86209C7.34655 3.73707 7.17698 3.66683 7.00017 3.66683ZM7.6135 9.4135C7.59891 9.37101 7.57873 9.33066 7.5535 9.2935L7.4735 9.1935C7.37975 9.10099 7.2607 9.03833 7.13137 9.01341C7.00205 8.98849 6.86824 9.00244 6.74683 9.0535C6.66604 9.08726 6.59163 9.13461 6.52683 9.1935C6.46504 9.25579 6.41616 9.32967 6.38299 9.41089C6.34981 9.49212 6.33299 9.57909 6.3335 9.66683C6.33455 9.75395 6.35267 9.84001 6.38683 9.92016C6.41677 10.0029 6.46454 10.078 6.52676 10.1402C6.58897 10.2025 6.6641 10.2502 6.74683 10.2802C6.82663 10.3154 6.91292 10.3337 7.00017 10.3337C7.08741 10.3337 7.1737 10.3154 7.2535 10.2802C7.33623 10.2502 7.41136 10.2025 7.47358 10.1402C7.53579 10.078 7.58356 10.0029 7.6135 9.92016C7.64766 9.84001 7.66578 9.75395 7.66683 9.66683C7.6701 9.62245 7.6701 9.57788 7.66683 9.5335C7.65535 9.49098 7.63736 9.4505 7.6135 9.4135V9.4135ZM7.00017 0.333496C5.68162 0.333496 4.39269 0.724489 3.29636 1.45703C2.20004 2.18957 1.34555 3.23077 0.840969 4.44894C0.336385 5.66711 0.204362 7.00756 0.461597 8.30076C0.718832 9.59397 1.35377 10.7819 2.28612 11.7142C3.21847 12.6466 4.40636 13.2815 5.69956 13.5387C6.99277 13.796 8.33321 13.6639 9.55139 13.1594C10.7696 12.6548 11.8108 11.8003 12.5433 10.704C13.2758 9.60764 13.6668 8.31871 13.6668 7.00016C13.6668 6.12468 13.4944 5.25778 13.1594 4.44894C12.8243 3.6401 12.3333 2.90517 11.7142 2.28612C11.0952 1.66706 10.3602 1.176 9.55139 0.840966C8.74255 0.505935 7.87564 0.333496 7.00017 0.333496V0.333496ZM7.00017 12.3335C5.94533 12.3335 4.91419 12.0207 4.03712 11.4347C3.16006 10.8486 2.47648 10.0157 2.07281 9.04114C1.66914 8.0666 1.56352 6.99425 1.76931 5.95968C1.9751 4.92512 2.48305 3.97481 3.22893 3.22893C3.97481 2.48305 4.92512 1.9751 5.95968 1.76931C6.99425 1.56352 8.0666 1.66914 9.04114 2.07281C10.0157 2.47647 10.8486 3.16006 11.4347 4.03712C12.0207 4.91418 12.3335 5.94533 12.3335 7.00016C12.3335 8.41465 11.7716 9.77121 10.7714 10.7714C9.77121 11.7716 8.41465 12.3335 7.00017 12.3335V12.3335Z" fill="#F53D5C"/>
</svg>
