<svg width="95" height="96" viewBox="0 0 95 96" fill="none" xmlns="http://www.w3.org/2000/svg">
<path d="M11.875 4.5H83.125V22.5H11.875V4.5Z" fill="#F9E109"/>
<path d="M56.4062 19.5C52.1994 19.4975 48.1294 17.9897 44.9177 15.244C41.7061 12.4982 39.5603 8.69196 38.8609 4.5H11.875V22.5H83.125V19.5H56.4062Z" fill="#FCBC04"/>
<path d="M11.875 22.5H83.125V85.5H11.875V22.5Z" fill="#E9F1F2"/>
<path d="M69.7656 78C57.9552 78 46.6285 73.2589 38.2773 64.8198C29.926 56.3807 25.2344 44.9347 25.2344 33C25.2344 31.4087 25.8599 29.8826 26.9734 28.7574C28.0869 27.6321 29.5972 27 31.1719 27H83.125V22.5H11.875V85.5H83.125V78H69.7656Z" fill="#D0D8DA"/>
<path d="M44.5312 81C58.4678 81 69.7656 69.5833 69.7656 55.5C69.7656 41.4167 58.4678 30 44.5312 30C30.5947 30 19.2969 41.4167 19.2969 55.5C19.2969 69.5833 30.5947 81 44.5312 81Z" fill="#D0D8DA"/>
<path d="M47.5 79.5C61.4366 79.5 72.7344 68.0833 72.7344 54C72.7344 39.9167 61.4366 28.5 47.5 28.5C33.5634 28.5 22.2656 39.9167 22.2656 54C22.2656 68.0833 33.5634 79.5 47.5 79.5Z" fill="#F9E109"/>
<path d="M47.5 79.5001C51.5069 79.5 55.4555 78.5304 59.0158 76.6726C50.6624 74.567 43.0912 70.0618 37.2171 63.7015C31.3429 57.3412 27.4172 49.398 25.9142 40.8316C23.5939 44.6961 22.3334 49.1151 22.2624 53.6348C22.1913 58.1544 23.3122 62.6117 25.51 66.5487C27.7077 70.4857 30.903 73.7605 34.7677 76.0366C38.6323 78.3128 43.0269 79.5082 47.5 79.5001Z" fill="#FCBC04"/>
<path d="M47.5 73.5C58.1574 73.5 66.7969 64.7696 66.7969 54C66.7969 43.2304 58.1574 34.5 47.5 34.5C36.8426 34.5 28.2031 43.2304 28.2031 54C28.2031 64.7696 36.8426 73.5 47.5 73.5Z" fill="#D0D8DA"/>
<path d="M47.5 34.5C43.6834 34.5 39.9526 35.6437 36.7792 37.7863C33.6059 39.929 31.1325 42.9745 29.672 46.5377C28.2115 50.1008 27.8293 54.0216 28.5739 57.8043C29.3185 61.5869 31.1563 65.0615 33.855 67.7886C36.5538 70.5157 39.9921 72.3729 43.7354 73.1253C47.4786 73.8777 51.3585 73.4916 54.8846 72.0156C58.4106 70.5397 61.4244 68.0404 63.5448 64.8336C65.6651 61.6269 66.7969 57.8567 66.7969 54C66.7969 48.8283 64.7638 43.8684 61.1449 40.2114C57.5261 36.5545 52.6178 34.5 47.5 34.5V34.5ZM59.7342 68.982C59.614 68.982 59.4967 69 59.375 69C55.8032 69.0171 52.2689 68.2642 49.0079 66.7914C45.7469 65.3186 42.8343 63.1599 40.4645 60.4593C38.0947 57.7588 36.3221 54.5785 35.2651 51.1307C34.2082 47.6829 33.8911 44.0469 34.3351 40.4655C38.1787 38.0372 42.7462 37.0554 47.2351 37.6928C51.7239 38.3302 55.8469 40.5459 58.8794 43.9506C61.9118 47.3553 63.6599 51.7311 63.8162 56.309C63.9725 60.887 62.5272 65.3741 59.7342 68.982V68.982Z" fill="#93999A"/>
<path d="M44.5312 37.5C40.9243 37.5006 37.3905 38.5284 34.3351 40.4655C33.8911 44.0469 34.2082 47.6829 35.2651 51.1307C36.3221 54.5784 38.0947 57.7588 40.4645 60.4593C42.8343 63.1599 45.7469 65.3186 49.0079 66.7914C52.2689 68.2641 55.8032 69.0171 59.375 69C59.4967 69 59.614 68.9835 59.7342 68.982C61.9618 66.1049 63.3439 62.6527 63.7226 59.0197C64.1013 55.3867 63.4615 51.7193 61.8761 48.4363C60.2906 45.1532 57.8236 42.3868 54.7566 40.453C51.6896 38.5192 48.1463 37.4959 44.5312 37.5V37.5Z" fill="#D0D8DA"/>
<path d="M66.7969 54C66.7969 51.9897 66.489 49.9915 65.884 48.0765C64.0258 48.2539 62.269 49.0138 60.8594 50.25C59.2158 51.7034 57.1059 52.5046 54.9219 52.5046C52.7378 52.5046 50.628 51.7034 48.9844 50.25C47.3408 48.7965 45.2309 47.9954 43.0469 47.9954C40.8628 47.9954 38.753 48.7965 37.1094 50.25C35.9222 51.2965 34.4841 52.0099 32.9387 52.3189C31.3933 52.628 29.7947 52.5218 28.3026 52.011C28.2364 52.6719 28.2032 53.3357 28.2031 54C28.2031 59.1717 30.2362 64.1316 33.855 67.7886C37.4739 71.4455 42.3822 73.5 47.5 73.5C52.6178 73.5 57.5261 71.4455 61.1449 67.7886C64.7638 64.1316 66.7969 59.1717 66.7969 54V54Z" fill="#84D2F4"/>
<path d="M59.8352 68.9849C57.018 71.356 53.5905 72.8666 49.9543 73.3397C46.318 73.8129 42.6236 73.2289 39.304 71.6563C35.9844 70.0837 33.1771 67.5876 31.211 64.4605C29.2449 61.3334 28.2015 57.7048 28.2031 53.9999C28.2003 53.3335 28.235 52.6674 28.307 52.0049C29.4631 52.404 30.6879 52.5594 31.9057 52.4614C33.1235 52.3633 34.3085 52.014 35.3875 51.4349C37.043 56.5442 40.2542 60.994 44.5623 64.1486C48.8703 67.3032 54.0548 69.0012 59.375 68.9999C59.5234 68.9999 59.6867 68.9999 59.8352 68.9849Z" fill="#57B7EB"/>
<path d="M60.8594 58.5001C59.0159 57.5686 56.983 57.0836 54.9219 57.0836C52.8607 57.0836 50.8279 57.5686 48.9844 58.5001C47.1408 59.4316 45.108 59.9165 43.0469 59.9165C40.9857 59.9165 38.9529 59.4316 37.1094 58.5001C34.4492 57.1607 31.421 56.7629 28.5104 57.3706C29.2377 61.5806 31.315 65.432 34.4222 68.3312C37.5294 71.2304 41.4939 73.0164 45.7047 73.414C49.9155 73.8116 54.1389 72.7986 57.7238 70.5313C61.3087 68.2639 64.0561 64.868 65.5426 60.8671L60.8594 58.5001Z" fill="#57B7EB"/>
<path d="M54.9219 70.5C56.5615 70.5 57.8906 69.1569 57.8906 67.5C57.8906 65.8431 56.5615 64.5 54.9219 64.5C53.2823 64.5 51.9531 65.8431 51.9531 67.5C51.9531 69.1569 53.2823 70.5 54.9219 70.5Z" fill="#84D2F4"/>
<path d="M47.5 16.5C49.1396 16.5 50.4688 15.1569 50.4688 13.5C50.4688 11.8431 49.1396 10.5 47.5 10.5C45.8604 10.5 44.5312 11.8431 44.5312 13.5C44.5312 15.1569 45.8604 16.5 47.5 16.5Z" fill="#84D2F4"/>
<path d="M74.2188 79.5C75.8583 79.5 77.1875 78.1569 77.1875 76.5C77.1875 74.8431 75.8583 73.5 74.2188 73.5C72.5792 73.5 71.25 74.8431 71.25 76.5C71.25 78.1569 72.5792 79.5 74.2188 79.5Z" fill="#84D2F4"/>
<path d="M11.875 85.5H71.25V91.5H11.875V85.5Z" fill="#FCBC04"/>
<path d="M32.6562 16.5H11.875V4.5H37.1094L32.6562 16.5Z" fill="#84D2F4"/>
<path d="M71.25 85.5H83.125V91.5H71.25V85.5Z" fill="#4891D3"/>
<path d="M62.3438 10.5H71.25V16.5H62.3438V10.5Z" fill="#84D2F4"/>
<path d="M71.25 10.5H77.1875V16.5H71.25V10.5Z" fill="#84D2F4"/>
<path d="M48.6103 34.557C48.2348 34.5345 47.8726 34.5 47.5 34.5C46.0627 34.5037 44.6303 34.6697 43.2295 34.995C43.0211 35.5591 42.9902 36.1745 43.1408 36.757C43.2915 37.3396 43.6163 37.861 44.0711 38.25C43.706 38.5698 43.424 38.9752 43.2497 39.4306C43.0754 39.8861 43.0142 40.3777 43.0713 40.8625C43.1285 41.3474 43.3023 41.8107 43.5776 42.212C43.8529 42.6133 44.2213 42.9404 44.6505 43.1646C45.0798 43.3888 45.5569 43.5033 46.04 43.4982C46.5232 43.4931 46.9978 43.3684 47.4223 43.1351C47.8468 42.9018 48.2083 42.567 48.4751 42.16C48.742 41.7529 48.9061 41.286 48.9532 40.8C49.6376 41.4509 50.5119 41.861 51.4456 41.9691C52.3794 42.0772 53.3228 41.8776 54.1352 41.4C54.5536 42.0743 55.1426 42.6235 55.8412 42.991C56.5399 43.3585 57.3229 43.531 58.1095 43.4906C58.8961 43.4503 59.6578 43.1986 60.3161 42.7614C60.9743 42.3243 61.5052 41.7176 61.8539 41.004C58.4594 37.1662 53.6959 34.8474 48.6103 34.557V34.557Z" fill="#84D2F4"/>
<path d="M61.8539 41.01C61.5257 41.6757 61.0394 42.2488 60.4385 42.6781C59.8375 43.1074 59.1406 43.3795 58.4102 43.47C56.6165 41.5782 54.4618 40.0737 52.0762 39.0475C49.6907 38.0214 47.1239 37.4949 44.5313 37.5C44.175 37.5 43.8188 37.515 43.4773 37.53C43.1973 37.0697 43.0484 36.5403 43.0469 36C43.0518 35.6574 43.1119 35.318 43.225 34.995C44.6274 34.67 46.0612 34.5039 47.5 34.5C47.8711 34.5 48.2422 34.53 48.5984 34.56H48.6133C51.1314 34.7034 53.5968 35.3469 55.8687 36.4536C58.1406 37.5603 60.1744 39.1086 61.8539 41.01V41.01Z" fill="#57B7EB"/>
<path d="M59.8203 68.985C57.2252 71.1721 54.1063 72.6305 50.7768 73.2139C47.4473 73.7973 44.0246 73.4851 40.8523 72.3086C37.68 71.1321 34.87 69.1328 32.7044 66.5115C30.5388 63.8902 29.0939 60.7392 28.5148 57.375C31.4233 56.7605 34.4519 57.1569 37.1094 58.5C37.9437 58.9172 38.8195 59.244 39.7219 59.475C42.0805 62.4511 45.0718 64.8527 48.4739 66.5015C51.876 68.1504 55.6018 69.0043 59.375 69C59.5234 69 59.6719 69 59.8203 68.985Z" fill="#4891D3"/>
<path d="M57.5344 68.925C57.2354 69.4813 56.7699 69.9278 56.2046 70.2006C55.6392 70.4733 55.003 70.5584 54.3869 70.4435C53.7708 70.3286 53.2064 70.0198 52.7746 69.5611C52.3428 69.1024 52.0656 68.5175 51.9828 67.89C53.7897 68.4418 55.6516 68.7889 57.5344 68.925V68.925Z" fill="#57B7EB"/>
<path d="M71.25 16.5H77.1875L71.25 10.5V16.5Z" fill="#57B7EB"/>
<path d="M65.3125 10.5H62.3438V16.5H71.25L65.3125 10.5Z" fill="#57B7EB"/>
<path d="M48.9844 14.9999C48.4881 15.002 47.9992 14.8778 47.5629 14.6387C47.1266 14.3997 46.7569 14.0536 46.4877 13.6322C46.2186 13.2108 46.0588 12.7277 46.023 12.2275C45.9872 11.7273 46.0765 11.226 46.2828 10.7699C45.8426 10.9676 45.4566 11.2707 45.1582 11.6529C44.8597 12.0351 44.6578 12.485 44.5699 12.9637C44.482 13.4423 44.5107 13.9354 44.6535 14.4004C44.7963 14.8654 45.0489 15.2883 45.3896 15.6325C45.7302 15.9768 46.1487 16.2321 46.6088 16.3764C47.069 16.5207 47.5569 16.5497 48.0306 16.4608C48.5043 16.3719 48.9495 16.1679 49.3277 15.8664C49.7059 15.5648 50.0058 15.1747 50.2016 14.7299C49.8194 14.9063 49.4045 14.9984 48.9844 14.9999V14.9999Z" fill="#57B7EB"/>
<path d="M32.6963 4.5C31.1422 7.12153 28.9693 9.31287 26.3719 10.878C23.7745 12.4431 20.8336 13.3331 17.8125 13.4685V4.5H11.875V16.5H32.6562L37.1094 4.5H32.6963Z" fill="#57B7EB"/>
<path d="M46.0156 69C46.8354 69 47.5 68.3284 47.5 67.5C47.5 66.6716 46.8354 66 46.0156 66C45.1958 66 44.5312 66.6716 44.5312 67.5C44.5312 68.3284 45.1958 69 46.0156 69Z" fill="#84D2F4"/>
<path d="M43.0469 55.5C43.8667 55.5 44.5312 54.8284 44.5312 54C44.5312 53.1716 43.8667 52.5 43.0469 52.5C42.2271 52.5 41.5625 53.1716 41.5625 54C41.5625 54.8284 42.2271 55.5 43.0469 55.5Z" fill="#E9F1F2"/>
<path d="M38.5938 66C39.4135 66 40.0781 65.3284 40.0781 64.5C40.0781 63.6716 39.4135 63 38.5938 63C37.774 63 37.1094 63.6716 37.1094 64.5C37.1094 65.3284 37.774 66 38.5938 66Z" fill="#84D2F4"/>
<path d="M11.875 9H19.2969C19.6906 9 20.0681 9.15804 20.3465 9.43934C20.6249 9.72064 20.7812 10.1022 20.7812 10.5C20.7812 10.8978 20.6249 11.2794 20.3465 11.5607C20.0681 11.842 19.6906 12 19.2969 12H11.875V9Z" fill="#E9F1F2"/>
<path d="M28.2031 12H25.2344C24.8407 12 24.4631 11.842 24.1848 11.5607C23.9064 11.2794 23.75 10.8978 23.75 10.5C23.75 10.1022 23.9064 9.72064 24.1848 9.43934C24.4631 9.15804 24.8407 9 25.2344 9H28.2031C28.5968 9 28.9744 9.15804 29.2527 9.43934C29.5311 9.72064 29.6875 10.1022 29.6875 10.5C29.6875 10.8978 29.5311 11.2794 29.2527 11.5607C28.9744 11.842 28.5968 12 28.2031 12Z" fill="#E9F1F2"/>
<path d="M51.9531 15H48.9844C48.5907 15 48.2131 14.842 47.9348 14.5607C47.6564 14.2794 47.5 13.8978 47.5 13.5C47.5 13.1022 47.6564 12.7206 47.9348 12.4393C48.2131 12.158 48.5907 12 48.9844 12H51.9531C52.3468 12 52.7244 12.158 53.0027 12.4393C53.2811 12.7206 53.4375 13.1022 53.4375 13.5C53.4375 13.8978 53.2811 14.2794 53.0027 14.5607C52.7244 14.842 52.3468 15 51.9531 15Z" fill="#84D2F4"/>
<path d="M75.7031 31.5H72.7344C72.3407 31.5 71.9631 31.342 71.6848 31.0607C71.4064 30.7794 71.25 30.3978 71.25 30C71.25 29.6022 71.4064 29.2206 71.6848 28.9393C71.9631 28.658 72.3407 28.5 72.7344 28.5H75.7031C76.0968 28.5 76.4744 28.658 76.7527 28.9393C77.0311 29.2206 77.1875 29.6022 77.1875 30C77.1875 30.3978 77.0311 30.7794 76.7527 31.0607C76.4744 31.342 76.0968 31.5 75.7031 31.5Z" fill="#84D2F4"/>
<path d="M22.2656 31.5H19.2969C18.9032 31.5 18.5256 31.342 18.2473 31.0607C17.9689 30.7794 17.8125 30.3978 17.8125 30C17.8125 29.6022 17.9689 29.2206 18.2473 28.9393C18.5256 28.658 18.9032 28.5 19.2969 28.5H22.2656C22.6593 28.5 23.0369 28.658 23.3152 28.9393C23.5936 29.2206 23.75 29.6022 23.75 30C23.75 30.3978 23.5936 30.7794 23.3152 31.0607C23.0369 31.342 22.6593 31.5 22.2656 31.5Z" fill="#57B7EB"/>
<path d="M11.875 9H17.8125V12H11.875V9Z" fill="#D0D8DA"/>
<path d="M29.6875 10.5001C29.6875 10.8979 29.5311 11.2795 29.2527 11.5608C28.9744 11.8421 28.5968 12.0001 28.2031 12.0001H25.2344C25.002 11.9987 24.7732 11.9422 24.5664 11.8351C26.0964 11.1367 27.5208 10.2226 28.7969 9.1201C29.0606 9.23969 29.2847 9.43334 29.4426 9.678C29.6005 9.92266 29.6855 10.208 29.6875 10.5001V10.5001Z" fill="#D0D8DA"/>
</svg>
