<svg width="200" height="200" viewBox="0 0 200 200" fill="none" xmlns="http://www.w3.org/2000/svg">
<path d="M93.75 9.375H190.625V43.75H93.75V9.375Z" fill="#5771E5"/>
<path d="M96.875 46.875H103.125V59.375H96.875V46.875Z" fill="#F5A431"/>
<path d="M146.875 150L137.391 159.484C135.721 161.155 133.482 162.134 131.122 162.225C128.762 162.316 126.454 161.513 124.66 159.977L87.5001 128.125V140.625H15.6251V94.8867L14.7852 93.8945C11.9683 90.5646 10.1622 86.4988 9.5799 82.1763C8.99757 77.8538 9.66326 73.4549 11.4985 69.4982C13.3337 65.5416 16.262 62.1922 19.938 59.8449C23.6141 57.4976 27.8846 56.2503 32.2462 56.25H83.8516C86.6685 56.2503 89.4027 57.2023 91.6107 58.9515C93.8187 60.7007 95.3709 63.1446 96.0157 65.8867L104.887 103.578L106.25 109.375L131.25 131.25H139.887C140.757 131.249 141.602 131.543 142.285 132.083C142.967 132.623 143.448 133.377 143.647 134.224C143.847 135.072 143.755 135.961 143.386 136.749C143.017 137.538 142.392 138.178 141.613 138.566L137.5 140.625L146.875 150Z" fill="#FFCEB6"/>
<path d="M104.887 103.578L87.5001 109.375V140.625H15.6251V94.8867L14.7852 93.8945C11.9683 90.5646 10.1622 86.4988 9.5799 82.1763C8.99757 77.8538 9.66326 73.4549 11.4985 69.4982C13.3337 65.5416 16.262 62.1922 19.938 59.8449C23.6141 57.4976 27.8846 56.2503 32.2462 56.25H83.8516C86.6685 56.2503 89.4027 57.2023 91.6107 58.9515C93.8187 60.7007 95.3709 63.1446 96.0157 65.8867L104.887 103.578Z" fill="#ED6445"/>
<path d="M15.622 94.8493C16.2543 94.3139 17.0735 94.0516 17.8992 94.1202C18.7249 94.1887 19.4896 94.5825 20.025 95.2149L28.2155 104.889C28.4806 105.202 28.6815 105.564 28.8066 105.955C28.9317 106.346 28.9786 106.757 28.9446 107.166C28.9107 107.575 28.7965 107.973 28.6087 108.338C28.4209 108.703 28.163 109.027 27.8499 109.292C27.2176 109.827 26.3984 110.089 25.5727 110.021C24.7469 109.952 23.9823 109.559 23.4469 108.926L15.2564 99.2523C14.721 98.6199 14.4587 97.8008 14.5273 96.9751C14.5958 96.1493 14.9896 95.3847 15.622 94.8493V94.8493Z" fill="#DE402F"/>
<path d="M59.3749 71.875L65.8652 91.3461L56.2499 100L47.1984 89.6551L53.1249 71.875H59.3749Z" fill="#F7C04A"/>
<path d="M53.125 71.875L50 65.625L56.2488 59.375L62.5 65.625L59.375 71.875H53.125Z" fill="#F5A431"/>
<path d="M48.8838 91.5816L27.9855 109.494L35.7624 118.685C38.2652 121.643 41.3826 124.02 44.8977 125.65C48.4127 127.28 52.2408 128.125 56.1155 128.125H56.1155C60.0645 128.125 63.9642 127.248 67.5328 125.557C71.1014 123.866 74.2498 121.403 76.7504 118.347L96.8748 93.75H103.125C105.611 93.75 107.996 92.7623 109.754 91.0041C111.512 89.246 112.5 86.8614 112.5 84.375V71.875H89.8982C88.3542 71.875 86.8648 72.4465 85.7172 73.4794L56.2498 100L48.8838 91.5816Z" fill="#FFCEB6"/>
<path d="M43.75 193.75L56.25 165.625V193.75H87.5V140.625H15.625V193.75H43.75Z" fill="#445496"/>
<path d="M100 50C106.904 50 112.5 44.4036 112.5 37.5C112.5 30.5964 106.904 25 100 25C93.0964 25 87.5 30.5964 87.5 37.5C87.5 44.4036 93.0964 50 100 50Z" fill="#7AB8F5"/>
<path d="M100 53.125C96.9097 53.125 93.8887 52.2086 91.3192 50.4917C88.7497 48.7748 86.747 46.3345 85.5644 43.4794C84.3818 40.6243 84.0723 37.4827 84.6752 34.4517C85.2781 31.4208 86.7663 28.6366 88.9514 26.4514C91.1366 24.2663 93.9208 22.7781 96.9517 22.1752C99.9827 21.5723 103.124 21.8818 105.979 23.0644C108.835 24.247 111.275 26.2497 112.992 28.8192C114.709 31.3887 115.625 34.4097 115.625 37.5C115.62 41.6426 113.973 45.6141 111.043 48.5434C108.114 51.4726 104.143 53.1203 100 53.125V53.125ZM100 28.125C98.1458 28.125 96.3332 28.6748 94.7915 29.705C93.2498 30.7351 92.0482 32.1993 91.3386 33.9123C90.629 35.6254 90.4434 37.5104 90.8051 39.329C91.1669 41.1475 92.0597 42.818 93.3709 44.1291C94.682 45.4402 96.3524 46.3331 98.171 46.6949C99.9896 47.0566 101.875 46.8709 103.588 46.1614C105.301 45.4518 106.765 44.2502 107.795 42.7085C108.825 41.1668 109.375 39.3542 109.375 37.5C109.372 35.0145 108.384 32.6315 106.626 30.874C104.868 29.1165 102.486 28.1278 100 28.125V28.125Z" fill="#F7C04A"/>
<path d="M93.75 59.375H106.25V71.875H93.75V59.375Z" fill="#F7C04A"/>
<path d="M153.125 9.375H190.625V43.75H153.125V9.375Z" fill="#89A8F5"/>
<path d="M175 31.25C178.452 31.25 181.25 28.4518 181.25 25C181.25 21.5482 178.452 18.75 175 18.75C171.548 18.75 168.75 21.5482 168.75 25C168.75 28.4518 171.548 31.25 175 31.25Z" fill="#7AB8F5"/>
<path d="M175 15.625C173.416 15.6246 171.858 16.0256 170.472 16.7904C169.085 17.5551 167.914 18.6589 167.07 19.9985C166.225 21.3381 165.733 22.8699 165.641 24.4509C165.549 26.0319 165.858 27.6106 166.541 29.0395L160.29 35.2903L164.71 39.7097L170.961 33.4588C172.23 34.0652 173.62 34.378 175.027 34.374C176.434 34.37 177.822 34.0493 179.089 33.4356C180.355 32.822 181.467 31.9313 182.342 30.8294C183.217 29.7275 183.833 28.4427 184.143 27.0704C184.454 25.6981 184.452 24.2734 184.137 22.902C183.823 21.5306 183.203 20.2477 182.325 19.1484C181.447 18.049 180.332 17.1615 179.064 16.5515C177.796 15.9416 176.407 15.6249 175 15.625V15.625ZM175 28.125C174.382 28.125 173.778 27.9417 173.264 27.5983C172.75 27.255 172.349 26.7669 172.113 26.1959C171.876 25.6249 171.814 24.9965 171.935 24.3903C172.056 23.7842 172.353 23.2273 172.79 22.7903C173.227 22.3533 173.784 22.0556 174.39 21.935C174.997 21.8145 175.625 21.8764 176.196 22.1129C176.767 22.3494 177.255 22.7499 177.598 23.2638C177.942 23.7777 178.125 24.3819 178.125 25C178.124 25.8285 177.795 26.6228 177.209 27.2087C176.623 27.7945 175.829 28.1241 175 28.125V28.125Z" fill="#6E8BEB"/>
<path d="M125 28.125H131.25V34.375H125V28.125Z" fill="#4356E6"/>
<path d="M137.5 28.125H143.75V34.375H137.5V28.125Z" fill="#4356E6"/>
<path d="M67.5876 69.8219L56.2488 63.0193L44.9125 69.8216C44.2018 70.2481 43.3508 70.3747 42.5468 70.1737C41.7427 69.9728 41.0514 69.4606 40.625 68.7499C40.1985 68.0392 40.0719 67.1883 40.2729 66.3842C40.4739 65.5801 40.986 64.8889 41.6967 64.4624L54.6408 56.6953C55.1264 56.4038 55.6821 56.2498 56.2486 56.2498C56.815 56.2498 57.3707 56.4038 57.8563 56.6953L70.803 64.4626C71.1549 64.6738 71.4618 64.9521 71.7061 65.2818C71.9504 65.6116 72.1274 65.9862 72.2269 66.3843C72.3265 66.7824 72.3466 67.1962 72.2862 67.6021C72.2258 68.0081 72.0861 68.3981 71.875 68.75C71.4486 69.4607 70.7573 69.9729 69.9533 70.1739C69.1493 70.3749 68.2983 70.2483 67.5876 69.8219V69.8219Z" fill="#DE402F"/>
<path d="M68.7499 28.125L68.7486 46.875C68.7486 50.1902 67.4316 53.3696 65.0874 55.7138C62.7432 58.058 59.5638 59.375 56.2486 59.375H56.2485C52.9333 59.375 49.7539 58.058 47.4097 55.7138C45.0655 53.3696 43.7485 50.1902 43.7485 46.875L43.7499 28.125H68.7499Z" fill="#FFCEB6"/>
<path d="M53.1236 31.25C54.0627 33.128 55.5061 34.7075 57.2922 35.8114C59.0784 36.9153 61.1366 37.5 63.2363 37.5C66.3559 37.5 69.3477 36.2608 71.5535 34.0549C73.7594 31.8491 74.9986 28.8573 74.9986 25.7377V18.75H53.1332C50.4527 18.75 47.8491 19.646 45.7362 21.2957C43.6234 22.9453 42.1227 25.2539 41.4725 27.8544C40.9181 30.0721 41.0076 32.4019 41.7305 34.5705L43.7486 40.625L53.1236 31.25Z" fill="#B36F42"/>
<path d="M38.8411 75.3036C37.7037 74.004 35.7282 73.8725 34.4286 75.0099C33.129 76.1472 32.9974 78.1228 34.1348 79.4224L44.5359 91.3071C45.6733 92.6067 47.6488 92.7382 48.9484 91.6009C50.248 90.4635 50.3796 88.488 49.2422 87.1884L38.8411 75.3036Z" fill="#DE402F"/>
</svg>
